<svg width="660" height="64" viewBox="0 0 660 64" fill="none" xmlns="http://www.w3.org/2000/svg">
<g clip-path="url(#clip0_20009_4429)">
<path d="M208 63.9988H8.00761C3.60769 63.9988 0.0078125 60.3989 0.0078125 55.999V7.99985C0.0078125 3.5999 3.60769 0 8.00761 0H208C212.4 0 215.999 3.5999 215.999 7.99985V55.999C215.999 60.3989 212.4 63.9988 208 63.9988Z" fill="#120E0B"/>
<path opacity="0.15" d="M208 0H8.00761C3.60769 0 0.0078125 3.5999 0.0078125 7.99985V55.999C0.0078125 60.3989 3.60769 63.9988 8.00761 63.9988H208C212.4 63.9988 215.999 60.3989 215.999 55.999V7.99985C215.999 3.5999 212.4 0 208 0ZM208 1.27933C211.705 1.27933 214.72 4.29435 214.72 7.99985V55.999C214.72 59.7045 211.705 62.7195 208 62.7195H8.00761C4.30213 62.7195 1.28845 59.7045 1.28845 55.999V7.99985C1.28845 4.29435 4.30213 1.27933 8.00761 1.27933H208Z" fill="#A2A2A1"/>
<path d="M171.092 47.9979H174.077V27.995H171.092V47.9979ZM197.983 35.201L194.56 43.8728H194.458L190.906 35.201H187.69L193.018 47.3211L189.98 54.0634H193.093L201.303 35.2016L197.983 35.201ZM181.051 45.7258C180.075 45.7258 178.71 45.2364 178.71 44.0271C178.71 42.4833 180.409 41.8914 181.875 41.8914C183.187 41.8914 183.806 42.174 184.603 42.5602C184.371 44.4133 182.776 45.7258 181.051 45.7258ZM181.412 34.7635C179.251 34.7635 177.012 35.716 176.086 37.8261L178.736 38.9323C179.302 37.8261 180.356 37.4661 181.464 37.4661C183.008 37.4661 184.577 38.3917 184.603 40.0392V40.2448C184.062 39.936 182.903 39.4729 181.489 39.4729C178.632 39.4729 175.724 41.0422 175.724 43.9758C175.724 46.6521 178.067 48.3764 180.691 48.3764C182.697 48.3764 183.806 47.4757 184.499 46.4203H184.603V47.9652H187.486V40.2959C187.486 36.7447 184.833 34.7635 181.412 34.7635ZM162.961 37.636H158.715V30.78H162.961C165.193 30.78 166.46 32.6275 166.46 34.2079C166.46 35.758 165.193 37.636 162.961 37.636ZM162.884 27.9955H155.731V47.9984H158.715V40.4205H162.884C166.193 40.4205 169.446 38.0255 169.446 34.2086C169.446 30.3925 166.193 27.9955 162.884 27.9955ZM123.876 45.7292C121.813 45.7292 120.087 44.0017 120.087 41.6312C120.087 39.2331 121.813 37.4812 123.876 37.4812C125.912 37.4812 127.51 39.2332 127.51 41.6312C127.51 44.0017 125.912 45.7292 123.876 45.7292ZM127.304 36.3208H127.201C126.531 35.5219 125.241 34.8001 123.618 34.8001C120.215 34.8001 117.097 37.7907 117.097 41.6312C117.097 45.4455 120.215 48.4098 123.618 48.4098C125.241 48.4098 126.531 47.6878 127.201 46.8636H127.304V47.8423C127.304 50.4466 125.912 51.8378 123.67 51.8378C121.84 51.8378 120.706 50.5234 120.242 49.4152L117.639 50.4977C118.386 52.3013 120.37 54.5189 123.67 54.5189C127.176 54.5189 130.14 52.4564 130.14 47.4296V35.2124H127.304L127.304 36.3208ZM132.203 47.9973H135.191V27.9944H132.203V47.9973ZM139.599 41.3987C139.523 38.7694 141.637 37.4293 143.157 37.4293C144.343 37.4293 145.347 38.0224 145.684 38.8725L139.599 41.3987ZM148.879 39.13C148.312 37.6101 146.585 34.8001 143.054 34.8001C139.547 34.8001 136.635 37.5581 136.635 41.605C136.635 45.42 139.523 48.4099 143.388 48.4099C146.507 48.4099 148.312 46.5031 149.06 45.3943L146.74 43.8475C145.966 44.9818 144.91 45.7293 143.388 45.7293C141.868 45.7293 140.785 45.0332 140.09 43.667L149.188 39.9039L148.879 39.13ZM76.3877 36.8881V39.775H83.2955C83.0893 41.3988 82.548 42.5843 81.7231 43.4093C80.7175 44.4143 79.1451 45.523 76.3876 45.523C72.1345 45.523 68.8096 42.095 68.8096 37.8419C68.8096 33.5888 72.1345 30.1603 76.3876 30.1603C78.6818 30.1603 80.3569 31.0627 81.5942 32.2226L83.6311 30.1859C81.9035 28.5364 79.6099 27.2734 76.3876 27.2734C70.5614 27.2734 65.6641 32.0163 65.6641 37.8419C65.6641 43.6669 70.5614 48.4099 76.3876 48.4099C79.5319 48.4099 81.9037 47.3787 83.7592 45.4456C85.6667 43.5381 86.2598 40.8575 86.2598 38.692C86.2598 38.0226 86.2078 37.4039 86.1047 36.8881H76.3877ZM94.1141 45.7292C92.0516 45.7292 90.2729 44.0279 90.2729 41.605C90.2729 39.1563 92.0516 37.4813 94.1141 37.4813C96.1759 37.4813 97.9545 39.1563 97.9545 41.605C97.9545 44.0279 96.1759 45.7292 94.1141 45.7292ZM94.1141 34.8001C90.3497 34.8001 87.2829 37.6612 87.2829 41.605C87.2829 45.523 90.3497 48.4099 94.1141 48.4099C97.8771 48.4099 100.945 45.523 100.945 41.605C100.945 37.6612 97.8771 34.8001 94.1141 34.8001ZM109.015 45.7292C106.953 45.7292 105.174 44.0279 105.174 41.605C105.174 39.1563 106.954 37.4813 109.015 37.4813C111.077 37.4813 112.855 39.1563 112.855 41.605C112.855 44.0279 111.077 45.7292 109.015 45.7292ZM109.015 34.8001C105.252 34.8001 102.185 37.6612 102.185 41.605C102.185 45.523 105.252 48.4099 109.015 48.4099C112.779 48.4099 115.846 45.523 115.846 41.605C115.846 37.6612 112.779 34.8001 109.015 34.8001Z" fill="#FCFDFE"/>
<path d="M33.1422 31.0783L16.1094 49.1577C16.11 49.1614 16.1113 49.1645 16.1119 49.1683C16.6343 51.1315 18.4274 52.5771 20.5555 52.5771C21.4062 52.5771 22.2049 52.3471 22.8899 51.9433L22.9442 51.9115L42.1178 40.8474L33.1422 31.0783Z" fill="#EB3131"/>
<path d="M50.378 28.0014L50.3617 27.9902L42.0839 23.1914L32.7578 31.4902L42.1163 40.8475L50.3504 36.0964C51.794 35.3171 52.774 33.7952 52.774 32.0401C52.774 30.2977 51.8073 28.7833 50.378 28.0014Z" fill="#F6B60B"/>
<path d="M16.1172 14.8438C16.0148 15.2213 15.9609 15.6169 15.9609 16.0276V47.9754C15.9609 48.3853 16.0141 48.7822 16.1178 49.1584L33.7386 31.5411L16.1172 14.8438Z" fill="#5778C5"/>
<path d="M33.2694 32.0017L42.0862 23.1875L22.9342 12.0834C22.238 11.6664 21.4255 11.4258 20.5561 11.4258C18.4281 11.4258 16.6325 12.874 16.11 14.8394C16.1094 14.8414 16.1094 14.8427 16.1094 14.8444L33.2694 32.0017Z" fill="#3BAD49"/>
<path d="M75.8339 15.6557H71.1665V16.8107H74.664C74.569 17.7532 74.1939 18.4932 73.5615 19.0307C72.929 19.5683 72.1215 19.8382 71.1665 19.8382C70.119 19.8382 69.2315 19.4733 68.5042 18.7483C67.7916 18.0083 67.4292 17.0933 67.4292 15.9908C67.4292 14.8885 67.7916 13.9734 68.5042 13.2335C69.2315 12.5085 70.119 12.146 71.1665 12.146C71.7041 12.146 72.2166 12.2384 72.6864 12.441C73.1565 12.6434 73.5339 12.9259 73.829 13.2885L74.7165 12.401C74.3139 11.9434 73.804 11.5935 73.1713 11.3385C72.5389 11.0834 71.8789 10.961 71.1664 10.961C69.769 10.961 68.5841 11.446 67.6165 12.4135C66.649 13.3834 66.1641 14.5784 66.1641 15.9909C66.1641 17.4033 66.649 18.6009 67.6165 19.5684C68.584 20.5358 69.769 21.0209 71.1664 21.0209C72.6339 21.0209 73.8039 20.5509 74.7039 19.5958C75.4963 18.8009 75.9013 17.7259 75.9013 16.381C75.9013 16.1535 75.8739 15.9107 75.8339 15.6557ZM77.642 11.1758V20.8058H83.2643V19.6232H78.8795V16.5684H82.8344V15.4133H78.8795V12.3609H83.2643V11.1758L77.642 11.1758ZM91.1481 12.3609V11.1758H84.5306V12.3609H87.2207V20.8057H88.4581V12.3609H91.1481ZM97.1391 11.1758H95.9016V20.8058H97.1391V11.1758ZM105.307 12.3609V11.1758H98.6897V12.3609H101.379V20.8057H102.617V12.3609H105.307ZM117.794 12.4284C116.839 11.4459 115.669 10.9609 114.272 10.9609C112.872 10.9609 111.702 11.4459 110.747 12.4134C109.792 13.3685 109.322 14.5659 109.322 15.9908C109.322 17.4157 109.792 18.6133 110.747 19.5684C111.702 20.5357 112.872 21.0208 114.272 21.0208C115.657 21.0208 116.839 20.5357 117.794 19.5684C118.749 18.6133 119.219 17.4158 119.219 15.9908C119.219 14.5784 118.749 13.3833 117.794 12.4284ZM111.634 13.2334C112.347 12.5084 113.222 12.1459 114.272 12.1459C115.319 12.1459 116.194 12.5084 116.894 13.2334C117.607 13.9458 117.957 14.8757 117.957 15.9907C117.957 17.1083 117.607 18.0357 116.894 18.7482C116.194 19.4732 115.319 19.8381 114.272 19.8381C113.222 19.8381 112.347 19.4732 111.634 18.7482C110.937 18.0207 110.587 17.1083 110.587 15.9907C110.587 14.8757 110.937 13.9608 111.634 13.2334ZM122.159 14.8084L122.107 12.9508H122.159L127.054 20.8057H128.346V11.1757H127.109V16.8106L127.161 18.6682H127.109L122.429 11.1757H120.922V20.8057H122.159V14.8084Z" fill="#EEF0FF" stroke="#1C2132" stroke-width="0.26666" stroke-miterlimit="10"/>
</g>
<g clip-path="url(#clip1_20009_4429)">
<path opacity="0.15" d="M464.315 64H263.566C259.395 64 256 60.5952 256 56.4272V7.5616C256 3.392 259.395 0 263.566 0H464.315C468.485 0 472 3.392 472 7.5616V56.4272C472 60.5952 468.485 64 464.315 64Z" fill="#A6A6A6"/>
<path d="M470.449 56.4306C470.449 59.8162 467.707 62.5586 464.315 62.5586H263.564C260.174 62.5586 257.422 59.8162 257.422 56.4306V7.56178C257.422 4.17778 260.174 1.42578 263.564 1.42578H464.313C467.707 1.42578 470.447 4.17778 470.447 7.56178L470.449 56.4306Z" fill="#120E0B"/>
<path d="M304.199 31.6578C304.152 26.501 308.421 23.9922 308.616 23.8754C306.199 20.3506 302.451 19.869 301.135 19.8306C297.987 19.4994 294.935 21.7138 293.331 21.7138C291.696 21.7138 289.227 19.8626 286.567 19.917C283.143 19.9698 279.939 21.9522 278.183 25.0306C274.557 31.3074 277.261 40.5314 280.735 45.605C282.472 48.0898 284.503 50.8642 287.16 50.7666C289.76 50.6594 290.731 49.109 293.869 49.109C296.978 49.109 297.89 50.7666 300.6 50.7042C303.391 50.6594 305.147 48.2082 306.824 45.701C308.832 42.853 309.639 40.0482 309.671 39.9042C309.605 39.8818 304.251 37.8386 304.199 31.6578Z" fill="#FCFDFE"/>
<path d="M299.083 16.4916C300.482 14.7428 301.439 12.3636 301.173 9.94922C299.149 10.0388 296.618 11.3492 295.16 13.0596C293.871 14.5668 292.719 17.0372 293.016 19.3604C295.29 19.53 297.624 18.2132 299.083 16.4916Z" fill="#FCFDFE"/>
<path d="M341.828 50.4061H338.194L336.204 44.1517H329.285L327.389 50.4061H323.852L330.706 29.1133H334.94L341.828 50.4061ZM335.604 41.5277L333.804 35.9677C333.613 35.3997 333.256 34.0621 332.73 31.9565H332.666C332.456 32.8621 332.119 34.1997 331.655 35.9677L329.887 41.5277H335.604Z" fill="#FCFDFE"/>
<path d="M359.457 42.5376C359.457 45.1488 358.752 47.2128 357.341 48.728C356.077 50.0768 354.507 50.7504 352.633 50.7504C350.611 50.7504 349.158 50.024 348.273 48.5712H348.209V56.6592H344.798V40.104C344.798 38.4624 344.755 36.7776 344.672 35.0496H347.672L347.862 37.4832H347.926C349.064 35.6496 350.79 34.7344 353.107 34.7344C354.918 34.7344 356.43 35.4496 357.64 36.8816C358.853 38.3152 359.457 40.2 359.457 42.5376ZM355.982 42.6624C355.982 41.168 355.646 39.936 354.971 38.9664C354.233 37.9552 353.243 37.4496 352.001 37.4496C351.16 37.4496 350.395 37.7312 349.712 38.2864C349.027 38.8464 348.579 39.5776 348.369 40.4832C348.264 40.9056 348.211 41.2512 348.211 41.5232V44.0832C348.211 45.2 348.553 46.1424 349.238 46.912C349.923 47.6816 350.813 48.0656 351.907 48.0656C353.192 48.0656 354.192 47.5696 354.907 46.5808C355.624 45.5904 355.982 44.2848 355.982 42.6624Z" fill="#FCFDFE"/>
<path d="M377.112 42.5376C377.112 45.1488 376.407 47.2128 374.994 48.728C373.731 50.0768 372.162 50.7504 370.288 50.7504C368.266 50.7504 366.813 50.024 365.93 48.5712H365.866V56.6592H362.455V40.104C362.455 38.4624 362.411 36.7776 362.328 35.0496H365.328L365.519 37.4832H365.583C366.719 35.6496 368.445 34.7344 370.763 34.7344C372.573 34.7344 374.085 35.4496 375.298 36.8816C376.506 38.3152 377.112 40.2 377.112 42.5376ZM373.637 42.6624C373.637 41.168 373.299 39.936 372.624 38.9664C371.887 37.9552 370.899 37.4496 369.656 37.4496C368.813 37.4496 368.05 37.7312 367.365 38.2864C366.68 38.8464 366.234 39.5776 366.024 40.4832C365.92 40.9056 365.866 41.2512 365.866 41.5232V44.0832C365.866 45.2 366.208 46.1424 366.89 46.912C367.575 47.68 368.464 48.0656 369.562 48.0656C370.847 48.0656 371.847 47.5696 372.562 46.5808C373.279 45.5904 373.637 44.2848 373.637 42.6624Z" fill="#FCFDFE"/>
<path d="M396.858 44.4344C396.858 46.2456 396.229 47.7192 394.967 48.8568C393.58 50.1 391.648 50.7208 389.167 50.7208C386.876 50.7208 385.039 50.2792 383.648 49.3944L384.439 46.5512C385.936 47.4568 387.58 47.9112 389.37 47.9112C390.655 47.9112 391.655 47.62 392.373 47.0408C393.088 46.4616 393.445 45.684 393.445 44.7144C393.445 43.8504 393.151 43.1224 392.56 42.532C391.973 41.9416 390.992 41.3928 389.623 40.8856C385.895 39.4952 384.032 37.4584 384.032 34.78C384.032 33.0296 384.685 31.5944 385.992 30.4776C387.295 29.3592 389.032 28.8008 391.205 28.8008C393.143 28.8008 394.752 29.1384 396.037 29.812L395.184 32.5928C393.984 31.94 392.628 31.6136 391.109 31.6136C389.909 31.6136 388.972 31.9096 388.3 32.4984C387.732 33.0248 387.447 33.6664 387.447 34.4264C387.447 35.268 387.772 35.964 388.424 36.5112C388.992 37.0168 390.024 37.564 391.522 38.1544C393.354 38.892 394.7 39.7544 395.565 40.7432C396.428 41.7288 396.858 42.9624 396.858 44.4344Z" fill="#FCFDFE"/>
<path d="M408.132 37.6122H404.372V45.0666C404.372 46.9626 405.034 47.9098 406.362 47.9098C406.972 47.9098 407.477 47.857 407.877 47.7514L407.972 50.3418C407.3 50.593 406.415 50.7194 405.319 50.7194C403.972 50.7194 402.919 50.3082 402.159 49.4874C401.402 48.665 401.021 47.2858 401.021 45.3482V37.609H398.781V35.049H401.021V32.2378L404.372 31.2266V35.049H408.132V37.6122Z" fill="#FCFDFE"/>
<path d="M425.101 42.6023C425.101 44.9623 424.426 46.8999 423.079 48.4151C421.666 49.9751 419.791 50.7527 417.453 50.7527C415.2 50.7527 413.406 50.0055 412.069 48.5111C410.731 47.0167 410.062 45.1303 410.062 42.8567C410.062 40.4775 410.75 38.5287 412.131 37.0135C413.509 35.4967 415.368 34.7383 417.706 34.7383C419.959 34.7383 421.771 35.4855 423.139 36.9815C424.448 38.4327 425.101 40.3063 425.101 42.6023ZM421.562 42.7127C421.562 41.2967 421.259 40.0823 420.646 39.0695C419.931 37.8439 418.909 37.2327 417.584 37.2327C416.213 37.2327 415.171 37.8455 414.456 39.0695C413.843 40.0839 413.541 41.3175 413.541 42.7767C413.541 44.1927 413.843 45.4071 414.456 46.4183C415.194 47.6439 416.224 48.2551 417.554 48.2551C418.856 48.2551 419.879 47.6311 420.616 46.3863C421.245 45.3543 421.562 44.1271 421.562 42.7127Z" fill="#FCFDFE"/>
<path d="M436.191 38.0496C435.853 37.9872 435.493 37.9552 435.116 37.9552C433.916 37.9552 432.988 38.408 432.335 39.3152C431.767 40.1152 431.482 41.1264 431.482 42.3472V50.4032H428.073L428.105 39.8848C428.105 38.1152 428.061 36.504 427.977 35.0512H430.948L431.073 37.9888H431.167C431.527 36.9792 432.095 36.1664 432.873 35.5568C433.633 35.008 434.453 34.7344 435.338 34.7344C435.653 34.7344 435.938 34.7568 436.191 34.7968V38.0496Z" fill="#FCFDFE"/>
<path d="M451.442 42.0053C451.442 42.6165 451.402 43.1317 451.317 43.5525H441.083C441.123 45.0693 441.618 46.2293 442.568 47.0293C443.43 47.7445 444.546 48.1029 445.915 48.1029C447.43 48.1029 448.813 47.8613 450.056 47.3765L450.59 49.7445C449.138 50.3781 447.422 50.6933 445.443 50.6933C443.062 50.6933 441.194 49.9925 439.834 48.5925C438.477 47.1925 437.797 45.3125 437.797 42.9541C437.797 40.6389 438.429 38.7109 439.694 37.1733C441.019 35.5317 442.81 34.7109 445.062 34.7109C447.275 34.7109 448.95 35.5317 450.088 37.1733C450.989 38.4773 451.442 40.0901 451.442 42.0053ZM448.189 41.1205C448.211 40.1093 447.989 39.2357 447.526 38.4981C446.936 37.5493 446.029 37.0757 444.808 37.0757C443.693 37.0757 442.786 37.5381 442.093 38.4661C441.525 39.2037 441.187 40.0885 441.083 41.1189L448.189 41.1205Z" fill="#FCFDFE"/>
<path d="M334.481 16.0178C334.481 17.901 333.916 19.3186 332.788 20.2706C331.744 21.149 330.259 21.589 328.336 21.589C327.382 21.589 326.566 21.5474 325.883 21.4642V11.1746C326.774 11.0306 327.734 10.957 328.771 10.957C330.603 10.957 331.984 11.3554 332.915 12.1522C333.958 13.053 334.481 14.341 334.481 16.0178ZM332.713 16.0642C332.713 14.8434 332.39 13.9074 331.744 13.2546C331.097 12.6034 330.153 12.277 328.91 12.277C328.382 12.277 327.932 12.3122 327.56 12.3858V20.2082C327.766 20.2402 328.144 20.2546 328.692 20.2546C329.976 20.2546 330.966 19.8978 331.664 19.1842C332.361 18.4706 332.713 17.4306 332.713 16.0642Z" fill="#FCFDFE"/>
<path d="M343.856 17.6632C343.856 18.8232 343.525 19.7736 342.862 20.5192C342.168 21.2856 341.248 21.668 340.099 21.668C338.992 21.668 338.11 21.3016 337.453 20.5656C336.797 19.8312 336.469 18.9048 336.469 17.788C336.469 16.62 336.806 15.6616 337.485 14.9176C338.163 14.1736 339.075 13.8008 340.224 13.8008C341.331 13.8008 342.221 14.1672 342.894 14.9016C343.534 15.6152 343.856 16.5368 343.856 17.6632ZM342.117 17.7176C342.117 17.0216 341.966 16.4248 341.667 15.9272C341.315 15.3256 340.814 15.0248 340.163 15.0248C339.49 15.0248 338.978 15.3256 338.626 15.9272C338.325 16.4248 338.176 17.0312 338.176 17.748C338.176 18.444 338.326 19.0408 338.626 19.5384C338.989 20.14 339.494 20.4408 340.147 20.4408C340.787 20.4408 341.29 20.1352 341.651 19.5224C341.962 19.0152 342.117 18.4136 342.117 17.7176Z" fill="#FCFDFE"/>
<path d="M356.428 13.9531L354.068 21.4955H352.532L351.554 18.2203C351.306 17.4027 351.105 16.5899 350.948 15.7835H350.918C350.772 16.6123 350.57 17.4235 350.311 18.2203L349.273 21.4955H347.719L345.5 13.9531H347.223L348.076 17.5387C348.282 18.3867 348.452 19.1947 348.588 19.9595H348.618C348.743 19.3291 348.95 18.5259 349.241 17.5547L350.311 13.9547H351.678L352.703 17.4779C352.951 18.3371 353.153 19.1643 353.308 19.9611H353.354C353.468 19.1851 353.639 18.3579 353.866 17.4779L354.782 13.9547H356.428V13.9531Z" fill="#FCFDFE"/>
<path d="M365.119 21.4938H363.442V17.1738C363.442 15.8426 362.937 15.177 361.922 15.177C361.425 15.177 361.023 15.3594 360.711 15.7258C360.402 16.0922 360.245 16.5242 360.245 17.0186V21.4922H358.569V16.1066C358.569 15.4442 358.548 14.7258 358.508 13.9482H359.981L360.06 15.1274H360.106C360.301 14.761 360.593 14.4586 360.975 14.217C361.429 13.9354 361.938 13.793 362.495 13.793C363.199 13.793 363.785 14.0202 364.25 14.4762C364.829 15.0346 365.119 15.8682 365.119 16.9754V21.4938Z" fill="#FCFDFE"/>
<path d="M369.738 21.4954H368.062V10.4922H369.738V21.4954Z" fill="#FCFDFE"/>
<path d="M379.614 17.6632C379.614 18.8232 379.283 19.7736 378.62 20.5192C377.926 21.2856 377.004 21.668 375.857 21.668C374.748 21.668 373.867 21.3016 373.211 20.5656C372.555 19.8312 372.227 18.9048 372.227 17.788C372.227 16.62 372.564 15.6616 373.243 14.9176C373.921 14.1736 374.833 13.8008 375.98 13.8008C377.089 13.8008 377.977 14.1672 378.652 14.9016C379.292 15.6152 379.614 16.5368 379.614 17.6632ZM377.873 17.7176C377.873 17.0216 377.723 16.4248 377.423 15.9272C377.073 15.3256 376.571 15.0248 375.921 15.0248C375.246 15.0248 374.734 15.3256 374.383 15.9272C374.083 16.4248 373.934 17.0312 373.934 17.748C373.934 18.444 374.084 19.0408 374.383 19.5384C374.747 20.14 375.252 20.4408 375.905 20.4408C376.545 20.4408 377.046 20.1352 377.407 19.5224C377.719 19.0152 377.873 18.4136 377.873 17.7176Z" fill="#FCFDFE"/>
<path d="M387.731 21.4968H386.225L386.101 20.628H386.054C385.539 21.3208 384.805 21.668 383.851 21.668C383.139 21.668 382.563 21.4392 382.129 20.9848C381.736 20.572 381.539 20.0584 381.539 19.4488C381.539 18.5272 381.923 17.8248 382.696 17.3384C383.467 16.852 384.552 16.6136 385.949 16.6248V16.484C385.949 15.4904 385.427 14.9944 384.382 14.9944C383.638 14.9944 382.982 15.1816 382.416 15.5528L382.075 14.452C382.776 14.0184 383.641 13.8008 384.662 13.8008C386.633 13.8008 387.622 14.8408 387.622 16.9208V19.6984C387.622 20.452 387.659 21.052 387.731 21.4968ZM385.99 18.9048V17.7416C384.141 17.7096 383.216 18.2168 383.216 19.2616C383.216 19.6552 383.321 19.9496 383.537 20.1464C383.753 20.3432 384.029 20.4408 384.357 20.4408C384.725 20.4408 385.069 20.324 385.382 20.092C385.697 19.8584 385.891 19.5624 385.963 19.1992C385.981 19.1176 385.99 19.0184 385.99 18.9048Z" fill="#FCFDFE"/>
<path d="M397.255 21.4954H395.767L395.688 20.2842H395.642C395.167 21.2058 394.357 21.6666 393.219 21.6666C392.311 21.6666 391.554 21.3098 390.954 20.5962C390.354 19.8826 390.055 18.9562 390.055 17.8186C390.055 16.5978 390.379 15.609 391.032 14.8538C391.664 14.1498 392.439 13.7978 393.36 13.7978C394.373 13.7978 395.082 14.1386 395.485 14.8218H395.517V10.4922H397.195V19.4634C397.195 20.1978 397.215 20.8746 397.255 21.4954ZM395.517 18.3146V17.057C395.517 16.8394 395.501 16.6634 395.471 16.529C395.376 16.1258 395.173 15.7866 394.864 15.513C394.552 15.2394 394.176 15.1018 393.743 15.1018C393.117 15.1018 392.627 15.3498 392.267 15.8474C391.911 16.345 391.73 16.9802 391.73 17.7562C391.73 18.5018 391.901 19.1066 392.245 19.5722C392.608 20.0682 393.098 20.3162 393.711 20.3162C394.261 20.3162 394.701 20.1098 395.035 19.6954C395.359 19.313 395.517 18.8522 395.517 18.3146Z" fill="#FCFDFE"/>
<path d="M411.598 17.6632C411.598 18.8232 411.267 19.7736 410.605 20.5192C409.91 21.2856 408.992 21.668 407.841 21.668C406.736 21.668 405.854 21.3016 405.195 20.5656C404.539 19.8312 404.211 18.9048 404.211 17.788C404.211 16.62 404.549 15.6616 405.227 14.9176C405.905 14.1736 406.817 13.8008 407.968 13.8008C409.073 13.8008 409.965 14.1672 410.637 14.9016C411.277 15.6152 411.598 16.5368 411.598 17.6632ZM409.861 17.7176C409.861 17.0216 409.71 16.4248 409.411 15.9272C409.057 15.3256 408.558 15.0248 407.905 15.0248C407.233 15.0248 406.721 15.3256 406.368 15.9272C406.067 16.4248 405.918 17.0312 405.918 17.748C405.918 18.444 406.069 19.0408 406.368 19.5384C406.731 20.14 407.237 20.4408 407.889 20.4408C408.529 20.4408 409.033 20.1352 409.395 19.5224C409.704 19.0152 409.861 18.4136 409.861 17.7176Z" fill="#FCFDFE"/>
<path d="M420.61 21.4938H418.934V17.1738C418.934 15.8426 418.429 15.177 417.413 15.177C416.915 15.177 416.514 15.3594 416.203 15.7258C415.893 16.0922 415.738 16.5242 415.738 17.0186V21.4922H414.059V16.1066C414.059 15.4442 414.04 14.7258 414 13.9482H415.472L415.55 15.1274H415.597C415.794 14.761 416.085 14.4586 416.466 14.217C416.922 13.9354 417.429 13.793 417.987 13.793C418.69 13.793 419.275 14.0202 419.741 14.4762C420.322 15.0346 420.61 15.8682 420.61 16.9754V21.4938Z" fill="#FCFDFE"/>
<path d="M431.898 15.2125H430.052V18.8765C430.052 19.8077 430.38 20.2733 431.029 20.2733C431.33 20.2733 431.58 20.2477 431.777 20.1949L431.82 21.4669C431.489 21.5917 431.053 21.6541 430.517 21.6541C429.855 21.6541 429.34 21.4525 428.967 21.0493C428.593 20.6461 428.407 19.9677 428.407 19.0157V15.2125H427.305V13.9565H428.407V12.5741L430.05 12.0781V13.9549H431.897L431.898 15.2125Z" fill="#FCFDFE"/>
<path d="M440.777 21.4954H439.099V17.2074C439.099 15.8554 438.593 15.1786 437.58 15.1786C436.803 15.1786 436.271 15.5706 435.98 16.3546C435.931 16.5194 435.902 16.721 435.902 16.9578V21.4938H434.227V10.4922H435.902V15.0378H435.934C436.462 14.2106 437.219 13.7978 438.199 13.7978C438.894 13.7978 439.468 14.025 439.924 14.481C440.492 15.049 440.777 15.8938 440.777 17.0106V21.4954Z" fill="#FCFDFE"/>
<path d="M449.932 17.3636C449.932 17.6644 449.91 17.9172 449.87 18.1236H444.841C444.863 18.8692 445.103 19.4372 445.569 19.8308C445.995 20.1828 446.543 20.3588 447.215 20.3588C447.959 20.3588 448.638 20.2404 449.249 20.002L449.511 21.1668C448.796 21.4772 447.955 21.6324 446.98 21.6324C445.812 21.6324 444.892 21.2884 444.227 20.6004C443.558 19.9124 443.227 18.9892 443.227 17.8309C443.227 16.6932 443.535 15.746 444.158 14.9908C444.807 14.1844 445.686 13.7812 446.795 13.7812C447.879 13.7812 448.703 14.1844 449.26 14.9908C449.71 15.6308 449.932 16.4228 449.932 17.3636ZM448.332 16.93C448.345 16.4324 448.235 16.0036 448.007 15.6421C447.716 15.1765 447.273 14.9428 446.673 14.9428C446.126 14.9428 445.679 15.17 445.339 15.626C445.06 15.9892 444.895 16.4228 444.841 16.93H448.332Z" fill="#FCFDFE"/>
</g>
<defs>
<clipPath id="clip0_20009_4429">
<rect width="216" height="64" fill="white"/>
</clipPath>
<clipPath id="clip1_20009_4429">
<rect width="216" height="64" fill="white" transform="translate(256)"/>
</clipPath>
</defs>
</svg>
