<svg width="620" height="402" viewBox="0 0 620 402" fill="none" xmlns="http://www.w3.org/2000/svg">
<rect width="620" height="402" rx="24" fill="#F3F4F5"/>
<path d="M137 287.667H267M202 114.334V244.334M202 244.334L239.917 206.417M202 244.334L164.083 206.417" stroke="#A0A0A0" stroke-width="14" stroke-linecap="round" stroke-linejoin="round"/>
<g clip-path="url(#clip0_20009_4662)">
<path fill-rule="evenodd" clip-rule="evenodd" d="M456.803 120.915L465.28 105.49C465.438 105.106 465.448 104.678 465.31 104.287C465.171 103.896 464.894 103.569 464.53 103.37C464.166 103.171 463.741 103.114 463.337 103.208C462.933 103.303 462.578 103.543 462.34 103.883L453.775 119.465C446.277 116.166 438.172 114.47 429.981 114.486C421.464 114.486 413.419 116.26 406.225 119.445L397.641 103.883C397.537 103.688 397.395 103.516 397.225 103.376C397.054 103.236 396.857 103.132 396.645 103.069C396.434 103.006 396.212 102.986 395.992 103.01C395.773 103.033 395.56 103.1 395.367 103.206C395.172 103.31 395 103.452 394.86 103.623C394.721 103.793 394.616 103.99 394.553 104.202C394.491 104.413 394.47 104.635 394.494 104.855C394.517 105.074 394.584 105.287 394.691 105.48L403.178 120.886C386.518 129.451 375.248 145.748 375.257 164.466L484.684 164.456C484.684 145.738 473.453 129.48 456.803 120.915ZM405.079 144.719C404.478 144.719 403.883 144.6 403.328 144.369C402.773 144.138 402.269 143.801 401.844 143.375C401.42 142.95 401.083 142.445 400.854 141.889C400.624 141.334 400.506 140.739 400.507 140.138C400.508 139.537 400.627 138.942 400.857 138.387C401.088 137.832 401.426 137.328 401.851 136.903C402.276 136.479 402.781 136.142 403.337 135.913C403.892 135.683 404.488 135.565 405.089 135.566C406.304 135.566 407.469 136.049 408.328 136.908C409.187 137.767 409.67 138.932 409.67 140.148C409.67 141.363 409.187 142.528 408.328 143.387C407.469 144.246 406.304 144.729 405.089 144.729M484.312 168.661L484.331 247.178C484.331 251.892 481.764 255.969 477.981 258.223C475.988 259.438 473.7 260.082 471.366 260.085L462.507 260.095V286.888C462.505 288.688 462.103 290.466 461.328 292.092C460.554 293.717 459.427 295.15 458.029 296.285C456.632 297.421 454.999 298.231 453.25 298.657C451.5 299.082 449.677 299.113 447.915 298.746C445.184 298.184 442.729 296.7 440.962 294.542C439.196 292.385 438.225 289.686 438.213 286.898V260.095H421.798V286.898C421.792 290.111 420.512 293.191 418.237 295.46C415.962 297.73 412.879 299.003 409.665 299.001C406.454 298.995 403.376 297.72 401.102 295.452C398.829 293.184 397.546 290.109 397.533 286.898V260.095H388.703C383.597 260.095 379.226 257.155 377.119 252.882C376.223 251.117 375.75 249.168 375.738 247.188L375.718 168.69L484.312 168.661ZM358.852 166.407C365.555 166.407 371.004 171.826 371.004 178.5V229.166C371.004 229.996 370.923 230.809 370.759 231.606C370.356 233.549 369.483 235.363 368.217 236.889C366.95 238.416 365.328 239.609 363.493 240.364C361.658 241.118 359.667 241.411 357.692 241.217C355.718 241.023 353.821 240.347 352.169 239.25C350.492 238.154 349.114 236.657 348.161 234.894C347.208 233.132 346.709 231.16 346.71 229.156L346.7 178.5C346.7 171.836 352.139 166.407 358.852 166.407ZM501.148 166.397C507.851 166.397 513.3 171.806 513.3 178.49V229.146C513.3 235.84 507.861 241.249 501.158 241.249C494.445 241.249 489.006 235.84 489.006 229.146V178.48C489.006 171.797 494.435 166.377 501.138 166.387M454.892 135.586C455.51 135.557 456.128 135.654 456.708 135.871C457.287 136.088 457.817 136.42 458.264 136.847C458.712 137.275 459.068 137.788 459.312 138.357C459.555 138.926 459.681 139.538 459.681 140.157C459.681 140.776 459.555 141.389 459.312 141.958C459.068 142.526 458.712 143.04 458.264 143.467C457.817 143.895 457.287 144.227 456.708 144.444C456.128 144.661 455.51 144.758 454.892 144.729C454.274 144.758 453.656 144.661 453.077 144.444C452.497 144.227 451.968 143.895 451.52 143.467C451.072 143.04 450.716 142.526 450.473 141.958C450.229 141.389 450.104 140.776 450.104 140.157C450.104 139.538 450.229 138.926 450.473 138.357C450.716 137.788 451.072 137.275 451.52 136.847C451.968 136.42 452.497 136.088 453.077 135.871C453.656 135.654 454.274 135.557 454.892 135.586Z" fill="#A0A0A0"/>
</g>
<defs>
<clipPath id="clip0_20009_4662">
<rect width="196" height="196" fill="white" transform="translate(332 103)"/>
</clipPath>
</defs>
</svg>
