<svg width="16" height="16" viewBox="0 0 16 16" fill="none" xmlns="http://www.w3.org/2000/svg">
<path d="M14.973 3.99935C14.4597 4.23268 13.9064 4.38602 13.333 4.45935C13.9197 4.10602 14.373 3.54602 14.5864 2.87268C14.033 3.20602 13.4197 3.43935 12.773 3.57268C12.2464 2.99935 11.5064 2.66602 10.6664 2.66602C9.0997 2.66602 7.8197 3.94602 7.8197 5.52602C7.8197 5.75268 7.84637 5.97268 7.89303 6.17935C5.5197 6.05935 3.40637 4.91935 1.9997 3.19268C1.75303 3.61268 1.61303 4.10602 1.61303 4.62602C1.61303 5.61935 2.11303 6.49935 2.88637 6.99935C2.41303 6.99935 1.97303 6.86602 1.58637 6.66602V6.68602C1.58637 8.07268 2.57303 9.23268 3.8797 9.49268C3.46026 9.60797 3.01973 9.62395 2.59303 9.53935C2.7741 10.1077 3.12873 10.605 3.60704 10.9613C4.08536 11.3177 4.66333 11.5151 5.2597 11.526C4.24881 12.3264 2.99571 12.7589 1.70637 12.7527C1.4797 12.7527 1.25303 12.7393 1.02637 12.7127C2.29303 13.526 3.7997 13.9993 5.41303 13.9993C10.6664 13.9993 13.553 9.63935 13.553 5.85935C13.553 5.73268 13.553 5.61268 13.5464 5.48602C14.1064 5.08602 14.5864 4.57935 14.973 3.99935Z" fill="#F3F3F3"/>
</svg>
