<svg width="10" height="8" viewBox="0 0 10 8" fill="none" xmlns="http://www.w3.org/2000/svg">
<path d="M9.80618 0.195858C9.86826 0.257786 9.91752 0.331353 9.95113 0.412347C9.98473 0.49334 10.002 0.580169 10.002 0.667858C10.002 0.755548 9.98473 0.842377 9.95113 0.92337C9.91752 1.00436 9.86826 1.07793 9.80618 1.13986L3.80618 7.13986C3.74425 7.20194 3.67068 7.2512 3.58969 7.28481C3.50869 7.31842 3.42187 7.33572 3.33418 7.33572C3.24649 7.33572 3.15966 7.31842 3.07866 7.28481C2.99767 7.2512 2.9241 7.20194 2.86218 7.13986L0.195509 4.47319C0.0703265 4.34801 0 4.17823 0 4.00119C0 3.82416 0.0703265 3.65437 0.195509 3.52919C0.320691 3.40401 0.490474 3.33368 0.667509 3.33368C0.844543 3.33368 1.01433 3.40401 1.13951 3.52919L3.33418 5.72519L8.86217 0.195858C8.9241 0.133774 8.99767 0.084517 9.07866 0.0509084C9.15966 0.0172998 9.24649 0 9.33418 0C9.42187 0 9.50869 0.0172998 9.58969 0.0509084C9.67068 0.084517 9.74425 0.133774 9.80618 0.195858Z" fill="white"/>
</svg>
