<svg width="176" height="32" viewBox="0 0 176 32" fill="none" xmlns="http://www.w3.org/2000/svg">
<circle cx="16" cy="16" r="16" fill="#120E0B"/>
<path d="M17.3337 17.0007H19.0003L19.667 14.334H17.3337V13.0007C17.3337 12.314 17.3337 11.6673 18.667 11.6673H19.667V9.42732C19.4497 9.39865 18.629 9.33398 17.7623 9.33398C15.9523 9.33398 14.667 10.4387 14.667 12.4673V14.334H12.667V17.0007H14.667V22.6673H17.3337V17.0007Z" fill="#F3F3F3"/>
<circle cx="64" cy="16" r="16" fill="#120E0B"/>
<g clip-path="url(#clip0_22667_458)">
<path fill-rule="evenodd" clip-rule="evenodd" d="M69.1851 10.9533C69.3498 10.884 69.5302 10.8601 69.7073 10.8841C69.8844 10.9081 70.0519 10.9791 70.1922 11.0898C70.3326 11.2004 70.4407 11.3467 70.5053 11.5134C70.57 11.68 70.5888 11.8609 70.5598 12.0373L69.0478 21.2086C68.9011 22.0933 67.9304 22.6006 67.1191 22.16C66.4404 21.7913 65.4324 21.2233 64.5258 20.6306C64.0724 20.334 62.6838 19.384 62.8544 18.708C63.0011 18.13 65.3344 15.958 66.6678 14.6666C67.1911 14.1593 66.9524 13.8666 66.3344 14.3333C64.7998 15.492 62.3358 17.254 61.5211 17.75C60.8024 18.1873 60.4278 18.262 59.9798 18.1873C59.1624 18.0513 58.4044 17.8406 57.7858 17.584C56.9498 17.2373 56.9904 16.088 57.7851 15.7533L69.1851 10.9533Z" fill="#F3F3F3"/>
</g>
<circle cx="112" cy="16" r="16" fill="#120E0B"/>
<path d="M118.973 11.9993C118.46 12.2327 117.906 12.386 117.333 12.4593C117.92 12.106 118.373 11.546 118.586 10.8727C118.033 11.206 117.42 11.4393 116.773 11.5727C116.246 10.9993 115.506 10.666 114.666 10.666C113.1 10.666 111.82 11.946 111.82 13.526C111.82 13.7527 111.846 13.9727 111.893 14.1793C109.52 14.0593 107.406 12.9193 106 11.1927C105.753 11.6127 105.613 12.106 105.613 12.626C105.613 13.6193 106.113 14.4993 106.886 14.9993C106.413 14.9993 105.973 14.866 105.586 14.666V14.686C105.586 16.0727 106.573 17.2327 107.88 17.4927C107.46 17.608 107.02 17.624 106.593 17.5393C106.774 18.1077 107.129 18.605 107.607 18.9613C108.085 19.3177 108.663 19.5151 109.26 19.526C108.249 20.3264 106.996 20.7589 105.706 20.7527C105.48 20.7527 105.253 20.7393 105.026 20.7127C106.293 21.526 107.8 21.9993 109.413 21.9993C114.666 21.9993 117.553 17.6393 117.553 13.8593C117.553 13.7327 117.553 13.6127 117.546 13.486C118.106 13.086 118.586 12.5793 118.973 11.9993Z" fill="#F3F3F3"/>
<circle cx="160" cy="16" r="16" fill="#120E0B"/>
<path d="M160 13.9169C158.853 13.9169 157.917 14.8528 157.917 15.9997C157.917 17.1466 158.853 18.0825 160 18.0825C161.147 18.0825 162.083 17.1466 162.083 15.9997C162.083 14.8528 161.147 13.9169 160 13.9169ZM166.247 15.9997C166.247 15.1372 166.255 14.2825 166.206 13.4216C166.158 12.4216 165.93 11.5341 165.199 10.8028C164.466 10.07 163.58 9.84343 162.58 9.795C161.717 9.74656 160.863 9.75437 160.002 9.75437C159.139 9.75437 158.284 9.74656 157.424 9.795C156.424 9.84343 155.536 10.0716 154.805 10.8028C154.072 11.5356 153.845 12.4216 153.797 13.4216C153.749 14.2841 153.756 15.1387 153.756 15.9997C153.756 16.8606 153.749 17.7169 153.797 18.5778C153.845 19.5778 154.074 20.4653 154.805 21.1966C155.538 21.9294 156.424 22.1559 157.424 22.2044C158.286 22.2528 159.141 22.245 160.002 22.245C160.864 22.245 161.719 22.2528 162.58 22.2044C163.58 22.1559 164.467 21.9278 165.199 21.1966C165.931 20.4637 166.158 19.5778 166.206 18.5778C166.256 17.7169 166.247 16.8622 166.247 15.9997ZM160 19.2044C158.227 19.2044 156.795 17.7731 156.795 15.9997C156.795 14.2262 158.227 12.795 160 12.795C161.774 12.795 163.205 14.2262 163.205 15.9997C163.205 17.7731 161.774 19.2044 160 19.2044ZM163.336 13.4122C162.922 13.4122 162.588 13.0778 162.588 12.6637C162.588 12.2497 162.922 11.9153 163.336 11.9153C163.75 11.9153 164.084 12.2497 164.084 12.6637C164.085 12.7621 164.065 12.8594 164.028 12.9503C163.99 13.0412 163.935 13.1237 163.866 13.1932C163.796 13.2628 163.713 13.3179 163.623 13.3555C163.532 13.393 163.434 13.4123 163.336 13.4122Z" fill="#F3F3F3"/>
<defs>
<clipPath id="clip0_22667_458">
<rect width="16" height="16" fill="white" transform="translate(56 8)"/>
</clipPath>
</defs>
</svg>
