<svg width="52" height="52" viewBox="0 0 52 52" fill="none" xmlns="http://www.w3.org/2000/svg">
<circle cx="26" cy="26" r="26" transform="matrix(-1 0 0 1 52 0)" fill="#F3F4F5"/>
<path d="M28.7066 19.6365C28.894 19.8241 28.9993 20.0784 28.9993 20.3435C28.9993 20.6087 28.894 20.863 28.7066 21.0505L23.7566 26.0005L28.7066 30.9505C28.8887 31.1391 28.9895 31.3917 28.9872 31.6539C28.985 31.9161 28.8798 32.1669 28.6944 32.3524C28.509 32.5378 28.2582 32.6429 27.996 32.6452C27.7338 32.6475 27.4812 32.5467 27.2926 32.3645L21.6356 26.7075C21.4481 26.52 21.3428 26.2657 21.3428 26.0005C21.3428 25.7354 21.4481 25.4811 21.6356 25.2935L27.2926 19.6365C27.4801 19.4491 27.7344 19.3438 27.9996 19.3438C28.2647 19.3438 28.519 19.4491 28.7066 19.6365Z" fill="#1C2132"/>
</svg>
