<svg width="81" height="62" viewBox="0 0 81 62" fill="none" xmlns="http://www.w3.org/2000/svg">
<path d="M34.9215 22.3802C33.9558 22.8741 32.7774 22.9711 31.7586 23.2093C31.856 23.4121 32.237 23.4033 32.5648 23.3945C32.7066 23.3857 32.8483 23.3857 32.9458 23.3945C31.8649 23.9589 31.0941 24.638 30.465 25.617C30.084 25.8816 29.8891 26.349 29.6676 26.7459C29.5347 26.9841 29.2867 27.2575 29.4107 27.5132C29.6499 27.4339 30.7574 25.5553 32.6268 25.1584C32.5382 25.2466 32.0066 25.9345 31.856 26.1727C31.4928 26.79 31.2447 27.3986 31.0232 28.113C30.7928 28.8803 30.722 29.6917 30.5979 30.2738C30.5536 30.4854 30.3764 30.6971 30.4739 30.9176C30.6511 30.847 30.7308 30.6001 30.8283 30.4325C31.1384 29.824 31.4042 29.1625 31.9003 28.7568C31.9003 28.7921 31.8737 28.8009 31.8737 28.8274C31.032 30.5472 31.4485 33.4488 31.9092 35.3009C31.9978 35.2657 31.98 35.4685 32.0686 35.5391C31.9889 34.0133 31.5193 32.4787 31.6611 31.0411C31.7851 29.7534 32.2813 28.651 32.8395 27.7249C32.4851 27.6984 32.1307 28.0071 31.8915 28.2629C31.5193 28.651 31.289 29.2419 30.9612 29.5065C31.3421 27.6367 32.4142 25.9963 33.7077 24.9291C33.8849 24.7792 35.2405 24.3205 35.0721 23.8266C35.0013 23.9589 34.9304 23.9942 34.8418 24.0207C34.2836 24.2147 33.6191 24.2676 33.0255 24.4528C32.299 24.6733 31.7408 25.0437 31.2092 25.2731C31.67 24.4969 32.618 23.9589 33.1495 23.3416C34.2039 23.1916 34.9304 22.7771 35.4354 22.1597C35.3999 22.1509 35.3734 22.1421 35.3379 22.1421C35.1696 22.1509 35.0633 22.3097 34.9215 22.3802Z" fill="url(#paint0_radial_20009_5815)"/>
<path d="M24.8841 23.9143C24.822 23.9231 24.2107 24.0995 23.9449 24.1701C23.7943 24.2054 23.5639 24.32 23.4931 24.3112C23.4753 24.3112 23.4931 24.2318 23.4488 24.2406C23.2627 24.2847 23.0944 24.4082 22.8994 24.4611C22.3413 24.6111 21.6857 24.7081 21.287 25.1226C21.1541 25.1402 20.968 25.1138 20.9769 25.2549C21.1186 25.4048 21.4287 25.3343 21.6236 25.3078C22.1907 25.2373 22.8109 24.9374 23.3513 24.7434C23.6082 24.6463 23.9361 24.5052 24.2461 24.4258C24.7334 24.2936 25.265 24.1524 25.708 24.0554C27.5509 23.6585 29.4114 23.4557 31.3783 23.4821C30.7758 23.4116 30.1911 23.3851 29.6063 23.3851C28.0027 23.3851 26.4434 23.6144 24.8841 23.9143Z" fill="url(#paint1_radial_20009_5815)"/>
<path d="M16.625 25.8639C16.6339 25.9168 16.687 25.9168 16.7047 25.9609C16.8554 25.8639 17.0769 25.811 17.1389 25.6434C17.0946 25.6434 17.0414 25.6346 16.9971 25.6346C16.8288 25.6346 16.6782 25.6787 16.625 25.8639Z" fill="url(#paint2_radial_20009_5815)"/>
<path d="M19.7715 25.6783C19.8158 25.6783 19.8158 25.7312 19.8158 25.7841C19.993 25.8018 20.2499 25.8282 20.3474 25.8106C20.3917 25.6518 20.6132 25.643 20.6397 25.4666C20.56 25.4137 20.4626 25.3961 20.3562 25.3961C20.1259 25.3873 19.8778 25.4931 19.7715 25.6783Z" fill="url(#paint3_radial_20009_5815)"/>
<path d="M18.7695 26.0042C18.8581 26.3305 19.2568 26.2158 19.5669 26.1894C19.6024 26.0747 19.5049 26.11 19.4872 26.0571C19.5403 25.9865 19.6821 25.9865 19.6467 25.8278C19.5669 25.766 19.4783 25.7396 19.3897 25.7396C19.1505 25.7396 18.9113 25.8983 18.7695 26.0042Z" fill="url(#paint4_radial_20009_5815)"/>
<path d="M17.9199 26.4983C17.9199 26.6042 18.0085 26.5953 18.0085 26.7012C18.1414 26.5601 18.3186 26.6571 18.3806 26.4542C18.3452 26.4101 18.292 26.3925 18.23 26.3925C18.1148 26.4013 17.9819 26.4542 17.9199 26.4983Z" fill="url(#paint5_radial_20009_5815)"/>
<path d="M21.7735 26.6843C21.7292 26.6843 21.6583 26.6843 21.5786 26.6843C21.4191 26.6843 21.2154 26.6755 21.0293 26.7108C21.0647 26.9136 21.2331 26.9666 21.3748 27.0371C21.6406 26.896 21.8444 26.7108 22.2342 26.6843C22.1545 26.5609 21.9773 26.5432 21.8001 26.5432C21.7115 26.5873 21.8444 26.6667 21.7735 26.6843Z" fill="url(#paint6_radial_20009_5815)"/>
<path d="M19.9922 27.037C20.0808 27.3369 20.3554 27.2928 20.5858 27.3457C20.6744 27.187 20.8605 27.0988 20.9402 26.9312C20.8959 26.9312 20.8516 26.9224 20.8073 26.9224C20.5061 26.9224 20.3111 27.0017 19.9922 27.037Z" fill="url(#paint7_radial_20009_5815)"/>
<path d="M22.1627 27.0366C22.1272 27.0366 22.1272 27.0719 22.0918 27.0807C22.1007 27.1777 22.1095 27.2659 22.1184 27.3629C22.3753 27.6452 22.6943 27.4511 22.9423 27.4335C23.598 27.407 24.2536 27.5834 24.8826 27.6628C26.1319 27.8216 27.2039 28.0509 28.3203 28.4037C28.8784 28.58 29.4366 28.7741 29.9948 28.8711C27.7532 27.8921 25.2282 27.0366 22.3133 27.0366C22.2513 27.0366 22.207 27.0366 22.1627 27.0366Z" fill="url(#paint8_radial_20009_5815)"/>
<path d="M29.5073 30.4322C29.5073 30.4763 29.463 30.4851 29.4807 30.538C30.4996 32.1961 30.5351 35.0184 30.8009 37.0469C31.0224 35.6534 30.8895 33.4132 30.473 31.7992C30.3579 31.3582 29.9503 30.4234 29.5693 30.4234C29.5516 30.4234 29.5339 30.4234 29.5073 30.4322Z" fill="url(#paint9_radial_20009_5815)"/>
<path d="M38.8646 11.0017C35.5599 11.866 32.5564 13.2772 31.8477 16.5845C32.1755 16.2935 32.3084 15.826 32.5299 15.4292C32.6539 15.2175 32.7779 15.0587 32.9108 14.8647C33.0437 14.6795 33.2032 14.459 33.2209 14.3091C33.3538 14.0357 34.0272 13.4712 34.417 13.2595C37.7572 11.3545 41.4429 11.0899 42.5592 9.89927C42.3643 10.3138 41.8858 10.6313 41.5049 10.94C36.3219 11.9542 34.3284 16.0377 34.0449 16.5051C34.9043 15.9407 37.5888 10.9664 44.9514 10.94C45.8728 10.94 47.06 10.9135 47.9283 10.4108C47.3789 11.1957 45.8994 11.0282 45.0754 11.6014C46.4664 11.2839 48.6016 11.2046 50.0192 10.843C49.4964 11.3192 48.5662 11.6455 47.7688 12.016C47.0246 12.3599 45.9702 12.4129 45.04 12.554C39.2279 13.4712 37.7129 16.6463 37.7926 16.8667C38.3331 16.461 39.3608 14.5737 43.7287 13.48C45.2792 13.092 46.9271 13.1449 48.5307 13.1537C51.4722 13.1713 54.3339 14.4766 57.2842 13.7093C56.097 14.4943 55.0516 14.7765 53.5011 15.2263C47.4498 13.6917 43.9059 16.1612 43.6933 16.4522C43.8705 16.4963 45.3678 15.8613 45.8994 15.7467C50.852 14.6971 54.6529 15.9319 58.25 17.1666C58.25 17.1666 59.8536 17.8193 61.9977 17.8104C60.5535 18.8864 58.374 19.592 56.2122 19.592C54.963 19.0011 53.5188 18.4896 51.9418 18.172C50.9849 17.978 50.0812 17.8016 48.9649 17.8193C48.7434 17.8193 48.4953 17.8193 48.2472 17.8104C47.441 17.7928 46.555 17.7752 45.8905 18.0398C46.0588 18.1809 46.5018 18.128 46.7145 18.1103C48.9471 18.0045 51.4456 18.419 53.2619 19.0628C55.6717 19.9183 57.6741 21.0384 59.6232 22.5025C61.0674 23.5785 62.2989 25.263 64.2303 25.801C63.9203 25.8539 63.6367 25.898 63.3178 25.9157C62.5204 25.9509 61.6167 25.9068 61.0231 25.6422C60.5447 25.4306 57.1956 23.0669 57.0007 22.9699C57.2045 23.3844 61.6876 26.63 63.6633 27.9089C63.4684 28.0059 60.589 26.8858 59.2245 26.1891C59.2334 26.3478 60.2168 27.1769 60.5801 27.5649C61.5104 28.5527 62.2635 29.858 62.9014 31.0928C63.8671 32.9625 64.7176 35.3438 65.9314 36.7902C65.5948 36.7638 64.7531 36.164 64.5493 36.0229C64.3632 35.8818 64.1506 35.6348 63.9557 35.7142C63.9114 35.873 64.1152 35.9876 64.2038 36.1199C64.4784 36.5433 64.6822 37.2665 64.8505 37.9456C65.2049 39.3214 65.4264 40.6091 65.8428 41.7909C65.4353 41.3588 65.1252 40.8472 64.6999 40.4327C64.4518 40.1946 63.6013 39.2597 63.433 39.7271C63.4152 40.0094 63.6456 40.7679 63.6633 40.8384C63.876 41.6763 64.3012 42.6111 64.6911 43.4049C64.9746 43.987 65.391 44.6573 65.7277 45.2306C66.1529 45.9361 67.3047 47.3561 67.3845 47.2503C66.9503 46.7211 66.5959 45.9891 66.215 45.6098C65.5682 44.3662 64.5847 42.4965 64.2835 40.7767C65.4087 41.6057 65.8871 42.7611 66.8529 43.8106C67.0301 43.9253 67.287 44.428 67.349 44.6044C67.411 44.2957 67.0212 43.6871 66.8794 43.3873C66.7554 43.1139 66.6491 42.8757 66.6402 42.5935C65.958 40.812 65.8163 38.9951 65.2138 36.949C65.9049 37.2841 66.8086 37.584 67.6945 37.6986C67.9869 37.7339 68.297 37.8486 68.5185 37.7339C68.235 37.6457 68.0755 37.5222 68.0755 37.5222C65.2581 35.0969 63.9468 31.0222 61.8116 27.9883C62.9723 28.4733 65.1518 28.9143 66.3124 28.394C65.4176 28.3499 64.7708 28.1206 64.3721 27.9353C63.938 27.7413 63.4507 27.3356 63.052 27.071C62.6179 26.7888 62.166 26.5418 61.8116 26.2155C62.547 26.4977 65.5593 27.1328 67.3402 25.5893C67.4376 25.5011 67.6059 25.4394 67.6768 25.3159C64.8062 26.1185 60.4649 22.3702 59.9156 21.938C59.5789 21.6734 59.2777 21.4441 59.1802 21.3824C58.9322 21.2236 58.7107 21.0384 58.4626 20.8708C57.931 20.5269 57.302 20.3152 56.8235 19.9095C57.3728 19.9712 57.9044 19.8831 58.4094 19.7419C58.4803 19.7684 59.4549 19.6096 59.951 19.4421C61.9888 18.7541 63.3975 17.0872 65.1606 16.2229C64.4518 16.0994 63.5038 16.8315 61.4218 16.9549C59.2334 17.0872 58.1259 16.5228 57.4969 16.3199C57.1248 16.2053 55.0073 15.5614 54.4402 15.4733C58.3031 14.7412 59.6321 11.8749 59.6321 11.8749C59.0916 12.3864 58.7815 12.5363 58.7815 12.5363C58.0107 12.9332 56.9653 13.0831 56.097 13.1802C55.4503 13.2507 54.0593 13.039 52.4645 12.8274C50.9938 12.6333 49.3547 12.4393 47.9726 12.4658C48.7965 12.1218 49.523 11.8572 50.2318 11.4339C51.0735 10.9223 51.8975 10.1727 52.2253 9.29071C51.2064 10.3138 48.9914 10.7019 47.9548 10.8782C48.6105 10.3491 49.2218 9.98746 49.5053 9.05259C47.6093 10.5519 44.8273 10.3314 42.258 10.7459C42.258 10.7459 43.4718 9.66996 44.3843 8.09125C44.3666 8.09125 41.8858 10.2697 38.8646 11.0017Z" fill="url(#paint10_radial_20009_5815)"/>
<path d="M33.8495 11.5757C34.2304 11.0818 34.9127 10.6673 35.0367 10.0675C34.3899 10.6937 33.5128 11.1435 32.7952 11.7697C32.0775 12.4047 31.5459 13.1985 30.9878 13.9305C31.1118 12.9692 31.918 12.4135 32.299 11.7697C30.9877 12.4664 30.2967 13.6306 30.1549 13.8158C29.5879 14.5832 29.5259 15.6503 28.9854 16.4617C28.5513 15.8885 28.888 15.2711 29.1272 14.7507C27.7894 15.3064 28.188 17.2379 26.0085 17.9787C25.6541 18.1022 25.2466 18.3138 24.8922 18.4814C24.4669 18.6843 23.9885 18.8518 23.6872 19.1252C23.5189 19.284 22.9519 20.0513 22.8278 20.2189C22.6949 20.3864 22.5975 20.6069 22.4823 20.7392C22.3051 20.9421 22.0659 20.9068 21.8001 20.8803C21.6672 20.8627 21.5254 20.8539 21.3837 20.8627C20.418 20.9685 19.5586 21.8152 18.2473 22.0004C18.1321 22.0181 18.017 22.0181 17.9018 22.0093C17.7955 22.0093 17.6803 22.0004 17.574 22.0181C17.0867 22.071 16.5994 22.265 16.183 22.3797C15.235 22.6443 14.6414 22.9794 13.8174 23.3851C13.3478 23.6144 12.7365 23.9672 12.577 24.2671C12.2758 24.8403 12.958 25.3783 13.2681 25.7311C13.3833 26.5425 13.7997 26.375 13.9591 26.3485C14.2161 26.6131 14.1275 26.8865 14.1718 27.2481C14.349 28.5887 14.8363 29.2237 15.7931 29.6647C16.0412 30.1938 15.9615 31.1023 16.1741 31.6843C16.4222 32.3635 16.812 33.0778 17.1753 33.51C16.9538 32.7868 16.7411 31.7284 16.9006 31.0582C17.0247 30.9082 17.1664 30.6525 17.1753 30.5025C17.2018 30.5643 17.2284 30.529 17.2639 30.4937C17.2816 30.4761 17.2993 30.4496 17.317 30.4496C17.2727 31.3845 17.5562 32.2047 17.8663 32.778C18.1587 33.316 18.4068 33.7393 18.7257 34.1538C18.9029 34.3831 19.0979 34.6301 19.3016 34.7095C19.3193 34.4184 19.027 34.3126 19.0181 33.8804C18.4334 32.5487 18.3182 29.9557 19.7092 29.3648C19.9218 29.6206 20.1699 30.0615 20.5331 29.894C20.8698 30.5554 21.2685 31.1375 21.3837 32.0548C21.6052 32.0989 21.5875 31.9489 21.6938 31.8872C22.0925 32.6016 22.4823 33.3248 22.6772 34.2861C22.7304 34.3038 22.7747 34.2949 22.8101 34.2861C22.8544 34.2773 22.881 34.2597 22.9342 34.3038C23.2265 35.6091 23.2974 36.4469 23.2443 37.567C22.9253 37.664 22.1988 38.352 22.1102 38.4402C21.9773 38.5019 21.0382 39.6396 20.4445 40.2041C20.0724 39.5691 20.0281 38.3961 20.099 37.7522C19.9484 37.8581 19.8066 38.0874 19.718 38.2814C19.213 39.375 19.213 41.1478 19.5054 42.1885C18.7435 41.7828 18.2562 39.7719 18.4865 38.9076C17.9815 39.2163 17.7512 40.1864 17.76 40.9096C17.7777 41.8181 18.3891 42.2502 18.4865 42.8323C18.3713 44.0406 17.6891 44.9578 18.265 46.1749C18.4954 46.66 19.3902 47.3039 19.3991 47.8154C19.4522 47.7096 19.4345 47.8242 19.4257 47.93C19.4257 48.0182 19.4257 48.1064 19.4877 48.0888C19.7003 47.833 19.7801 47.3656 19.6383 46.907C19.9927 47.295 20.4357 47.7184 20.5331 48.3181C20.6129 48.8208 20.3028 49.2353 20.3648 49.7116C20.8875 49.2442 20.9496 48.3975 21.1533 47.6655C21.7204 48.3622 22.4646 48.9619 22.2608 50.2672C22.562 49.791 22.6684 49.253 22.4291 48.4857C22.2785 48.0006 21.8533 47.5949 21.9507 47.0393C22.0659 47.392 22.4203 47.4626 22.7392 47.5773C22.8101 47.7184 22.8721 47.8595 23.0493 47.8683C22.8987 47.445 22.6152 47.1716 22.5266 46.6777C22.9607 46.907 23.4746 47.1892 24.0594 47.1186C24.2986 47.3744 24.5378 47.6302 24.9276 47.7184C24.9631 47.5332 24.7504 47.5773 24.6618 47.4891C24.2011 47.0745 24.0062 46.0956 24.1657 45.3724C24.21 45.6281 24.3517 45.8663 24.4758 46.0867C24.5821 46.2896 24.6618 46.6336 24.9453 46.6512C24.7681 45.8574 24.8036 44.7726 25.0162 44.1023C25.0782 44.3405 25.2289 44.5698 25.3883 44.7462C25.539 44.9137 25.725 45.1519 25.9199 45.1607C25.8225 44.3052 26.1326 43.5114 26.673 43.0793C27.3198 43.4144 27.5944 44.1817 27.9577 44.852C27.6742 45.5576 27.3907 46.219 27.3907 47.0216C27.3907 48.7414 28.2855 50.6906 28.0729 52.234C28.0108 52.7014 27.8248 53.4952 27.6919 54.0332C27.9045 53.7245 28.1792 52.9043 28.1969 52.8602C28.7551 51.6166 28.2501 49.2001 28.0551 47.6743C28.0906 47.639 28.0197 46.1749 28.2501 45.7869C28.6399 46.5806 28.9766 47.4361 29.2335 48.6444C29.2158 46.5365 28.6045 44.7197 27.8957 42.8147C27.0363 40.4951 27.4438 37.8933 28.1526 35.6091C27.7451 36.006 27.5147 36.7115 27.3375 37.3377C27.1337 38.0609 26.9565 39.1457 26.9388 39.8072C26.9122 40.6892 27.0008 41.5358 27.1249 42.4443C26.9831 41.8533 26.3895 42.3649 26.2123 42.6206C25.8668 43.1322 25.6896 44.12 25.5212 44.5874C25.2289 44.1288 25.3175 43.5467 25.3883 43.0087C25.0782 42.9117 25.0162 43.3262 24.9365 43.5379C24.715 44.12 24.6175 44.8785 24.5732 45.584C24.4935 45.1783 24.2454 44.7197 24.148 44.314C24.0682 43.9789 24.0682 43.4938 23.6341 43.6525C23.8201 44.9402 23.5366 45.831 23.829 46.8893C23.2886 46.9334 22.9342 46.4307 22.7304 46.0956C22.5975 45.8663 22.5266 45.5576 22.3671 45.5223C22.0836 45.9015 22.3406 46.6953 22.3583 47.1186C22.1722 46.8893 22.0836 46.5365 21.933 46.272C21.7912 46.2631 21.7292 46.3161 21.6583 46.369C21.7735 47.1627 21.7558 47.6919 22.1013 48.2387C21.4723 47.7272 21.1445 46.6865 20.9673 45.681C20.8964 45.2753 20.9053 45.0284 20.6838 44.7814C20.5066 44.7373 20.4002 44.8432 20.3028 44.9578C20.3382 45.2136 20.4002 45.6987 20.4445 45.7604C20.6129 46.5277 21.0559 47.295 20.8167 48.0976C20.7458 47.8683 20.7635 47.6478 20.6926 47.4714C20.4445 46.8011 19.8775 46.6512 19.4877 46.2279C19.3459 46.0779 19.3725 45.8663 19.1687 45.7604C19.0181 46.1749 19.3902 46.757 19.4345 47.2245C18.7878 46.5718 18.2384 44.8255 18.8321 43.8466C18.965 43.9171 19.2042 43.9612 19.3371 43.9083C20.0547 44.2346 20.861 44.2346 21.7292 44.0671C22.0836 43.8289 22.3671 43.485 22.6949 43.3174C23.2354 42.4531 23.4923 41.6064 24.1302 40.9361C24.1568 41.0155 24.272 41.0067 24.3517 41.0243C24.9896 40.3364 25.6098 39.6484 26.0528 38.8018C26.0883 38.8547 26.0883 38.9341 26.2034 38.8988C26.3009 38.5901 26.5844 38.4313 26.673 38.1138C26.3541 37.126 25.9819 36.2 25.7782 35.0711C25.8047 34.9388 25.9111 34.7888 25.787 34.7183C25.6984 34.6654 25.6541 34.7271 25.6276 34.7977C25.5921 34.8682 25.5655 34.93 25.4858 34.8859C25.5744 34.5772 25.3706 34.1979 25.4415 33.8981C25.3706 33.8981 25.3263 33.9422 25.282 33.9863C25.2289 34.048 25.1846 34.1009 25.1314 34.0656C25.0782 33.6511 25.2643 33.3336 25.22 32.9985C25.1403 32.9455 25.1225 33.0073 25.096 33.069C25.0782 33.1131 25.0517 33.166 24.9808 33.1572C24.5821 32.531 24.7681 31.3845 24.2543 30.8465C24.0328 31.0141 24.1568 31.2786 23.9442 31.4374C23.891 30.7054 23.5809 29.9116 23.1557 29.2413C22.7304 28.5534 22.3228 27.8919 21.614 28.2006C21.4811 28.1212 21.3128 28.0948 21.2419 27.9448C21.4634 27.8831 21.7115 27.9537 21.8355 27.8214C21.2242 27.6626 20.0547 27.7508 19.4522 27.839C19.7535 28.2182 20.5863 27.9713 20.9496 28.28C20.4888 28.7298 19.8775 28.5269 19.3725 28.5181C19.4079 28.5887 19.5674 28.7033 19.532 28.721C19.0801 28.7386 18.6637 28.721 18.3802 28.5358C18.3448 28.4123 18.203 28.2006 18.079 28.3153C18.017 28.4652 18.2827 28.5887 18.3005 28.8621C17.5917 28.8092 17.255 28.4123 16.8032 27.9978C16.7589 28.1918 16.9449 28.2359 16.8652 28.3505C16.4222 28.5093 15.926 28.4123 15.6425 28.2006C15.1109 27.7949 15.0489 26.8512 14.7034 26.2956C14.6148 27.0805 15.04 27.9007 15.3147 28.5798C14.5616 28.3064 14.6148 27.0893 14.3047 26.2956C14.3667 26.2338 14.4199 26.1721 14.4642 26.1015C13.9414 25.7311 13.2326 25.5724 13.0377 24.8051C14.0477 23.782 15.8374 22.6707 17.5917 22.3444C18.0258 22.265 18.3713 22.2827 18.708 22.3003C18.9738 22.3179 19.2307 22.3268 19.5054 22.2915C20.3382 21.7182 21.4191 21.1978 22.4646 21.1273C22.8544 21.1008 23.2265 21.1538 23.4835 20.9685C23.8733 20.6951 24.0239 19.7691 24.4226 19.4427C26.23 17.9611 28.888 17.8376 29.3664 17.3084C30.1904 16.3912 30.5536 14.2921 30.6688 14.1245C30.5802 14.689 30.4739 15.615 30.8194 15.9855C31.0232 14.1598 32.1307 12.6517 33.3445 11.6727C32.9901 12.2195 32.4142 13.1279 32.4939 13.8335C33.2913 12.8633 34.0887 11.8932 35.4177 11.364C35.4974 11.3111 35.4354 11.2934 35.4797 11.2493C36.3922 10.9142 37.42 10.4556 38.4389 10.1204C37.4997 11.1082 36.2416 11.3552 35.3202 11.9637C35.6303 11.8932 36.1973 11.7609 36.6758 11.5668C37.544 11.2229 38.368 10.7202 38.8996 10.1116C39.1122 9.87349 39.2363 9.5648 39.44 9.32667C39.6615 9.06208 39.9805 8.85041 40.0425 8.46235C38.6072 10.0058 35.6657 10.3233 33.8495 11.5757ZM28.4538 15.9061C28.6931 16.3471 28.7374 17.0438 28.3209 17.3349C28.4804 16.9556 28.445 16.4176 28.4538 15.9061ZM18.6637 28.9856C19.0004 29.0385 19.2662 29.1796 19.7003 29.109C19.5586 29.356 19.1067 29.1708 18.9029 29.3824C18.9738 29.1972 18.7169 29.1531 18.6637 28.9856ZM20.5509 29.0473C21.2862 28.9767 22.0039 29.0914 22.2697 29.6823C22.2431 29.744 22.1191 29.7352 22.0659 29.7705C22.0836 29.6911 22.1545 29.5853 22.0836 29.5235C21.8621 29.5412 21.7558 29.6647 21.6052 29.744C21.2685 29.3913 20.8167 28.9503 20.3382 29.4618C20.2053 29.259 19.8775 29.206 19.7446 29.1178C20.0459 29.0385 20.3382 29.0032 20.5243 29.1267C20.5774 29.1002 20.48 29.0561 20.5509 29.0473ZM16.5108 29.6206C16.8475 29.3648 17.3613 29.5235 17.6094 29.1443C18.1056 29.2678 18.2296 29.2237 18.8055 29.4354C18.1853 30.1762 17.9815 31.7196 18.3891 33.0073C18.1055 32.6721 17.7777 31.896 17.6714 31.1552C17.5651 30.4672 17.698 29.9028 17.7069 29.4177C17.4676 29.4883 17.4942 29.7881 17.4322 30.0086C17.2816 29.9645 17.2196 30.0351 16.9715 30.0439C16.9449 29.8499 16.9449 29.6117 16.7234 29.6382C16.6614 29.8146 16.6171 30.2203 16.7766 30.3085C16.6968 30.82 16.5285 31.3933 16.5108 31.8519C16.2716 31.2434 16.0324 29.991 16.5108 29.6206ZM24.8656 37.4259C24.9542 37.4524 25.1668 37.4435 25.0871 37.5494C25.158 37.567 25.1846 37.5317 25.2023 37.5053C25.22 37.4788 25.2377 37.4524 25.2909 37.4612C25.2377 37.7963 24.7416 38.0433 24.5909 38.4049C23.1468 39.4103 22.5443 40.989 22.4734 41.1566C22.3494 41.4653 22.0305 41.9768 21.8001 42.4884C21.2597 42.162 20.985 41.5182 20.6749 40.9185C21.3925 39.7631 22.1811 38.5107 23.4835 37.9639C23.1911 38.3255 22.6861 38.5901 22.5532 39.1722C23.2 38.6077 23.8999 37.8228 24.8656 37.4259ZM20.161 42.8323C19.6206 41.9856 19.3991 40.2923 19.718 39.1898C19.8775 40.7333 20.5863 41.8445 21.2154 42.7088C21.0027 42.8235 20.7546 42.9117 20.5154 42.9117C20.4002 42.9117 20.2762 42.8941 20.161 42.8323ZM18.1764 39.9219C18.4334 40.892 18.6903 41.8622 19.2396 42.4884C18.1941 42.4531 17.9638 40.892 18.1764 39.9219ZM19.2219 43.0881C19.4168 42.9911 19.6206 43.2116 19.8332 43.2116C19.7623 43.238 19.6915 43.2468 19.6294 43.2468C19.4611 43.2468 19.3016 43.1851 19.2219 43.0881Z" fill="url(#paint11_radial_20009_5815)"/>
<path d="M29.1715 19.0719C29.1715 19.0719 29.074 19.0631 28.9943 19.0807C28.0817 19.2924 24.0328 21.2327 22.376 22.3528C21.1888 22.2293 20.0459 22.6262 19.1599 23.0407C18.9472 23.1378 18.708 23.1995 18.584 23.3671C18.6194 23.4905 18.7523 23.4817 18.8941 23.4817C18.9827 23.4817 19.0624 23.4729 19.1244 23.4994C19.9395 23.0055 21.0027 22.441 22.1722 22.538C22.0748 22.5733 20.3382 23.6228 21.1533 23.9668C21.2597 23.9315 21.2685 23.8257 21.428 23.8345C21.8444 23.27 22.376 22.8114 23.0582 22.4586C23.8201 21.6208 24.9365 21.0828 25.9819 20.4831C25.8225 20.7476 25.5833 20.9329 25.4415 21.1974C25.5035 21.4444 25.7073 21.5238 25.8047 21.7354C25.725 21.903 25.7162 22.1235 25.6719 22.3087C25.4149 22.2293 24.8922 22.0706 24.6973 22.1764C24.7061 22.3528 24.9896 22.3528 25.0605 22.3264C25.5833 22.4939 25.9465 22.635 26.5224 22.8467C26.6996 22.5204 27.0983 22.344 27.5324 22.1941C28.1083 22 28.7285 22.0618 29.3398 22.1147C29.2778 21.8854 29.012 21.9118 28.7905 21.8766C28.3032 21.6825 27.3995 21.5061 26.5844 21.4532C26.4781 21.3121 26.2212 21.3386 26.106 21.2063C25.8933 20.7476 26.4958 20.3772 26.6199 20.1038C27.3729 19.6981 28.1083 19.4688 28.888 19.1778C29.1006 19.0984 29.3664 19.0719 29.5347 18.8779C29.3841 18.922 29.2424 18.9573 29.1715 19.0719ZM26.3009 21.7443C26.2743 21.7884 26.2655 21.8413 26.2832 21.9206C26.2389 21.9206 26.1857 21.9295 26.1414 21.9295C26.1237 21.806 26.1769 21.7443 26.3009 21.7443ZM26.8148 21.8413C27.0363 21.9383 27.4261 21.8501 27.5767 22.0265C27.116 22.0794 26.673 22.2823 26.3098 22.5557C26.1414 22.5468 26.0617 22.441 25.9111 22.4145C25.8933 22.2558 25.9465 22.1676 25.9908 22.0529C26.0705 22.1676 26.23 22.2205 26.3806 22.2205C26.5933 22.2205 26.8148 22.097 26.8148 21.8413Z" fill="url(#paint12_radial_20009_5815)"/>
<path d="M19.7531 24.1969C19.4253 24.1175 18.938 24.1704 18.752 24.5232C19.0975 24.973 19.6025 24.4262 19.824 24.188C20.0898 24.3909 20.5239 24.0028 20.7188 23.8353C20.6745 23.8264 20.6214 23.8264 20.5771 23.8264C20.2227 23.8176 19.7974 24.0028 19.7531 24.1969Z" fill="url(#paint13_radial_20009_5815)"/>
<path d="M30.0578 35.3003C30.1109 36.5703 29.9692 37.8403 29.6413 38.8722C29.6856 39.3749 29.3667 39.6219 29.3224 40.1334C29.3224 40.1952 29.2515 40.2481 29.2958 40.2393C29.916 39.3397 30.2172 38.0432 30.3324 36.8614C30.421 35.9177 30.4122 34.877 30.1995 33.9333C30.1286 33.6334 30.1109 33.2189 29.8097 33.0425C29.8451 33.7745 30.0223 34.5065 30.0578 35.3003Z" fill="url(#paint14_radial_20009_5815)"/>
<path d="M35.3741 18.8788C35.2058 18.9582 34.6742 19.2316 34.2666 19.4873C34.0806 19.6108 33.3629 20.1135 33.044 20.4575C32.3795 21.1719 32.1048 21.0308 32.1491 21.1983C32.2466 21.3042 32.3529 21.3395 32.4858 21.3483C33.044 21.4012 33.4072 21.1542 33.6553 20.8632C34.2755 20.1312 35.3918 19.2404 36.3398 18.9141C37.2169 18.6054 38.0143 18.7641 38.8294 18.9141C39.3079 19.0023 39.7952 19.0905 40.3002 19.0905C39.5737 18.7465 38.4839 18.5172 37.4207 18.5172C36.6854 18.4996 35.9589 18.6142 35.3741 18.8788Z" fill="url(#paint15_radial_20009_5815)"/>
<path d="M16.5008 23.9328C15.8097 24.0474 13.6302 24.4884 13.8517 25.4233C13.9048 25.6526 14.4541 25.9348 14.7819 25.9172C15.2072 25.1852 15.4021 24.2591 16.6691 24.2415C16.7666 23.8181 17.0855 23.5888 17.3336 23.3066C17.2893 23.3066 17.2981 23.2448 17.2538 23.2448C17.0678 23.5006 16.5716 23.6594 16.5008 23.9328Z" fill="url(#paint16_radial_20009_5815)"/>
<path d="M17.3867 25.1659C17.812 25.4923 18.4853 25.1571 18.4853 24.725C18.4588 24.7073 18.4145 24.7073 18.3702 24.7073C18.0955 24.6985 17.6082 24.9455 17.3867 25.1659Z" fill="url(#paint17_radial_20009_5815)"/>
<path d="M23.2344 28.438C23.4116 28.5615 23.7571 28.5879 23.6951 28.8613C24.0761 28.976 24.0761 29.2582 24.1115 29.6022C25.1924 30.5988 25.7063 32.2657 26.4948 33.474C26.4594 33.474 26.4505 33.4475 26.4239 33.4475C26.6011 33.6151 26.6809 33.8708 26.858 33.9414C26.2822 32.2745 25.6531 30.7134 24.7317 29.3376C24.7228 29.267 24.7228 29.1965 24.714 29.1259C24.3773 28.7555 23.9254 28.5085 23.4736 28.2704C23.3584 28.2969 23.2432 28.3233 23.2344 28.438Z" fill="url(#paint18_radial_20009_5815)"/>
<mask id="mask0_20009_5815" style="mask-type:luminance" maskUnits="userSpaceOnUse" x="24" y="17" width="36" height="26">
<path d="M59.0212 42.1699H24.2109V17.6691H59.0212V42.1699Z" fill="white"/>
</mask>
<g mask="url(#mask0_20009_5815)">
<path d="M35.194 36.7158H36.6824L34.6358 30.8155V30.057C34.6358 29.9335 34.7156 29.81 34.875 29.6866L34.8662 29.6954C34.9459 29.6337 35.0256 29.5807 35.0965 29.5543C35.1674 29.519 35.2383 29.5102 35.3269 29.5102H38.3215V31.0624L37.7722 30.6567H36.1951L38.2861 36.6276V37.3508C38.2861 37.4037 38.2772 37.4566 38.2506 37.5184C38.224 37.5801 38.1886 37.633 38.1443 37.6859C38.0911 37.7389 38.0291 37.783 37.9583 37.8094C37.8785 37.8447 37.7899 37.8535 37.6836 37.8535H34.627V36.3189L35.1497 36.7158H35.194Z" fill="#1D418C"/>
</g>
<path d="M35.3214 29.6744C35.2683 29.6744 35.2151 29.6832 35.1797 29.7009C35.1265 29.7273 35.0645 29.7626 34.9936 29.8243C34.9139 29.8861 34.8253 29.9743 34.8253 30.0625V30.7945C34.843 30.8386 36.9339 36.8888 36.9339 36.8888H35.0911C35.0911 36.8888 34.9227 36.7653 34.8164 36.6772V37.6914H37.687C37.7667 37.6914 37.8288 37.6826 37.8819 37.6561C37.9351 37.6297 37.9794 37.6032 38.0059 37.5679C38.0414 37.5327 38.068 37.4886 38.0857 37.4533C38.1034 37.4092 38.1123 37.3739 38.1123 37.3386V36.6419C38.0945 36.589 35.9505 30.4858 35.9505 30.4858H37.8465C37.8465 30.4858 38.0237 30.6181 38.1477 30.7063V29.6656H35.3214V29.6744Z" fill="url(#paint19_linear_20009_5815)"/>
<mask id="mask1_20009_5815" style="mask-type:luminance" maskUnits="userSpaceOnUse" x="24" y="17" width="36" height="26">
<path d="M59.0212 42.1699H24.2109V17.6691H59.0212V42.1699Z" fill="white"/>
</mask>
<g mask="url(#mask1_20009_5815)">
<path d="M38.4102 29.5014H40.9972L40.5277 30.0305V36.7334H41.5554V30.0217L41.0681 29.5014H43.664L43.1767 30.0217V37.3243L43.8147 37.8535H40.4479C39.4025 37.8535 38.8797 37.6859 38.8797 37.3596V30.0305L38.4102 29.5014Z" fill="#1D418C"/>
</g>
<path d="M41.4608 29.6734C41.576 29.7969 41.7355 29.9644 41.7355 29.9644V36.9055H40.3445V29.9821C40.3445 29.9821 40.504 29.8057 40.6103 29.6822H38.7852C38.9003 29.8145 39.051 29.9821 39.051 29.9821V37.3729C39.051 37.5757 39.5648 37.6992 40.4331 37.6992H43.3391C43.1974 37.5757 42.9847 37.4082 42.9847 37.4082V29.9644C42.9847 29.9644 43.1442 29.7969 43.2594 29.6734H41.4608Z" fill="url(#paint20_linear_20009_5815)"/>
<mask id="mask2_20009_5815" style="mask-type:luminance" maskUnits="userSpaceOnUse" x="24" y="17" width="36" height="26">
<path d="M59.0212 42.1699H24.2109V17.6691H59.0212V42.1699Z" fill="white"/>
</mask>
<g mask="url(#mask2_20009_5815)">
<path d="M45.8561 30.7018V32.9155H46.175C46.3699 32.9155 46.5383 32.8802 46.68 32.8097C46.8218 32.7391 46.937 32.6421 47.0167 32.5362C47.1053 32.4216 47.1673 32.3069 47.2116 32.1746C47.2559 32.0423 47.2736 31.9189 47.2736 31.7954C47.2736 31.6631 47.2559 31.5396 47.2116 31.4073C47.1673 31.275 47.1053 31.1604 47.0167 31.0634C46.9281 30.9575 46.8041 30.8782 46.6623 30.8164C46.5206 30.7547 46.3434 30.7282 46.1307 30.7282H45.8561V30.7018ZM45.8206 33.5329V37.3429L46.2902 37.8633H43.7031L44.1727 37.3429V30.0403L43.7031 29.5111H46.175C48.2925 29.4935 48.6381 30.8076 48.6824 30.9664C48.7267 31.1251 48.833 31.9101 48.6203 32.3687C48.5052 32.6156 47.9204 33.7181 46.3611 34.0268C46.3699 34.0091 45.8206 33.5329 45.8206 33.5329Z" fill="#1D418C"/>
</g>
<path d="M46.2438 29.6744H44.082C44.1972 29.8067 44.3478 29.9743 44.3478 29.9743V37.4004C44.3478 37.4004 44.1972 37.5679 44.082 37.6914H45.9072C45.792 37.5679 45.6414 37.4004 45.6414 37.4004V33.1405C45.6414 33.1405 46.2881 33.7138 46.4122 33.8196C47.9449 33.3786 48.3525 32.5143 48.4676 32.2938C48.574 32.0733 48.7955 30.8121 47.9183 30.1418C47.3424 29.7009 46.4919 29.6744 46.297 29.6744C46.2616 29.6744 46.2438 29.6744 46.2438 29.6744ZM45.6768 30.5387H46.1287C46.3679 30.5387 46.5716 30.574 46.74 30.6445C46.9083 30.7151 47.0501 30.8121 47.1564 30.9356C47.2627 31.0503 47.3424 31.1914 47.3867 31.3413C47.431 31.4824 47.4576 31.6323 47.4576 31.7735C47.4576 31.9146 47.431 32.0557 47.3867 32.2056C47.3424 32.3556 47.2627 32.4967 47.1653 32.6201C47.0678 32.7524 46.926 32.8583 46.7666 32.9465C46.5982 33.0347 46.3944 33.0788 46.173 33.0788H45.6768V30.5387Z" fill="url(#paint21_linear_20009_5815)"/>
<mask id="mask3_20009_5815" style="mask-type:luminance" maskUnits="userSpaceOnUse" x="24" y="17" width="36" height="26">
<path d="M59.0212 42.1699H24.2109V17.6691H59.0212V42.1699Z" fill="white"/>
</mask>
<g mask="url(#mask3_20009_5815)">
<path d="M50.9734 33.6436V36.7216H52.072L52.6302 36.3071V37.8594H48.8736L49.3432 37.3302V33.6612H48.8027L49.3432 32.5412V30.0364L48.8736 29.4984H52.6302V31.0242L52.072 30.6449H50.9734V32.4882H52.7808L52.1252 33.6524H50.9734V33.6436Z" fill="#1D418C"/>
</g>
<path d="M49.2562 29.6734C49.3714 29.8057 49.5309 29.9821 49.5309 29.9821V32.5839C49.5309 32.5839 49.2296 33.21 49.0879 33.5011H49.5309V37.3905C49.5309 37.3905 49.3714 37.5669 49.2651 37.6992H52.4635V36.6585C52.3306 36.7555 52.1534 36.8878 52.1534 36.8878H50.8067V33.4835H52.0205C52.0914 33.36 52.3306 32.9278 52.4901 32.6544H50.7978V30.4848H52.1357C52.1357 30.4848 52.3217 30.6083 52.4546 30.6965V29.6646H49.2562V29.6734Z" fill="url(#paint22_linear_20009_5815)"/>
<mask id="mask4_20009_5815" style="mask-type:luminance" maskUnits="userSpaceOnUse" x="24" y="17" width="36" height="26">
<path d="M59.0212 42.1699H24.2109V17.6691H59.0212V42.1699Z" fill="white"/>
</mask>
<g mask="url(#mask4_20009_5815)">
<path d="M55.3108 32.9116C55.5146 32.9116 55.6829 32.8763 55.8247 32.8057C55.9665 32.7352 56.0816 32.6382 56.1702 32.5323C56.2588 32.4177 56.3297 32.303 56.374 32.1707C56.4183 32.0384 56.436 31.915 56.436 31.7915C56.436 31.6592 56.4183 31.5357 56.374 31.4034C56.3297 31.2711 56.2677 31.1565 56.1702 31.0595C56.0816 30.9536 55.9576 30.8743 55.807 30.8125C55.6564 30.7508 55.4792 30.7243 55.2577 30.7243H54.9919V32.938H55.3108V32.9116ZM56.7018 33.5025L58.2877 37.2244H58.2789L58.332 37.3302L58.9611 37.8594H56.8081V37.4184L54.9564 33.7053V37.339L55.426 37.8594H52.8301L53.3085 37.339V30.0364L52.8301 29.5072H55.3286C55.3817 29.5072 55.426 29.5072 55.4526 29.516C55.5855 29.5249 55.7184 29.5337 55.869 29.5513C55.869 29.5513 57.7207 29.6924 57.9068 31.377C58.0662 32.7969 56.7018 33.5025 56.7018 33.5025Z" fill="#1D418C"/>
</g>
<path d="M55.3254 29.6744H53.2168C53.332 29.8067 53.4914 29.9743 53.4914 29.9743V37.4004C53.4914 37.4004 53.332 37.5679 53.2168 37.6914H55.0419C54.9267 37.5679 54.7761 37.4004 54.7761 37.4004V33.7049L55.1217 33.6344L56.9911 37.3827V37.6914H58.4973C58.3555 37.5679 58.1872 37.4268 58.1872 37.4268L58.1074 37.2857L58.1163 37.2769L56.4772 33.4315C58.0631 32.5496 57.7087 31.1473 57.7087 31.1473C57.3189 29.7538 55.8039 29.6656 55.414 29.6656C55.3609 29.6744 55.3254 29.6744 55.3254 29.6744ZM54.8116 30.5387H55.2723C55.5115 30.5387 55.7241 30.574 55.8925 30.6445C56.0697 30.7151 56.2114 30.8121 56.3177 30.9356C56.4241 31.0503 56.5038 31.1914 56.5481 31.3413C56.5924 31.4824 56.619 31.6323 56.619 31.7735C56.619 31.9146 56.5924 32.0557 56.5481 32.2056C56.5038 32.3555 56.4241 32.4967 56.3177 32.629C56.2114 32.7613 56.0785 32.8671 55.9102 32.9465C55.7419 33.0347 55.5381 33.0788 55.3077 33.0788H54.8027L54.8116 30.5387Z" fill="url(#paint23_linear_20009_5815)"/>
<mask id="mask5_20009_5815" style="mask-type:luminance" maskUnits="userSpaceOnUse" x="24" y="17" width="36" height="26">
<path d="M59.0212 42.1699H24.2109V17.6691H59.0212V42.1699Z" fill="white"/>
</mask>
<g mask="url(#mask5_20009_5815)">
<path d="M55.8191 38.54C55.7836 38.54 52.3194 38.6194 51.9384 41.6886C51.9384 41.7239 51.5752 44.9607 56.1557 45.825L58.0695 46.1602C58.0695 46.1602 57.9986 43.6025 57.9897 43.4437C58.0606 43.382 58.5036 43.0204 58.5036 43.0204L56.0051 42.7823C56.0051 42.7823 56.0406 44.2198 56.0494 44.555C55.5001 44.4227 54.0471 43.8847 54.0471 41.9003C54.0471 41.865 54.0471 41.8297 54.0471 41.7945C54.2331 39.713 55.7127 39.713 55.7836 39.713C55.7836 39.713 57.2898 39.7307 57.3784 39.7307C57.4404 39.7659 58.034 40.1011 58.034 40.1011L57.9897 38.5488H55.8191V38.54Z" fill="#1D418C"/>
<path d="M31.123 39.3182C30.8129 39.0712 30.494 38.8154 30.175 38.5597C31.947 38.5597 33.6569 38.5597 35.3137 38.5597C35.0125 38.7802 34.7024 39.0007 34.4012 39.23C34.3746 40.2178 34.3569 41.1967 34.3303 42.1845C35.0125 41.0909 35.7036 40.0855 36.3858 39.1329C36.3946 38.9389 36.3946 38.7537 36.4035 38.5597C37.7059 38.5597 38.9728 38.5597 40.2044 38.5597C39.9208 38.7449 39.3184 39.1329 39.3095 39.1418C39.3184 39.1329 37.6527 41.4966 36.7845 42.846C37.5553 44.4688 38.3083 45.9593 39.0526 47.3352C39.3272 47.4322 39.6107 47.5204 39.8854 47.6174C38.645 48.0143 37.3781 48.4729 36.1022 48.9844C36.1111 48.7904 36.1111 48.5964 36.12 48.3935C35.5175 47.2646 34.8973 46.0475 34.2683 44.7422C34.2328 46.2063 34.1974 47.6703 34.1619 49.1344C34.4455 49.2402 34.729 49.3372 35.0125 49.4254C33.4 50.1133 31.7786 50.8983 30.1484 51.7891C30.4408 51.3657 30.742 50.9512 31.0344 50.5543C31.061 48.6757 31.1142 40.6146 31.123 39.3182Z" fill="#1D418C"/>
</g>
<path d="M36.5599 38.723C36.551 38.8906 36.5422 39.1905 36.5422 39.1905L36.5156 39.2257C35.8068 40.2135 35.1157 41.2366 34.469 42.2685L34.15 42.78L34.2386 39.1376C34.2386 39.1376 34.5576 38.8994 34.8145 38.7142C34.7879 38.7142 31.4123 38.7142 30.6504 38.7142C30.925 38.9347 31.2972 39.2346 31.2972 39.2346V39.3139L31.2174 50.603C31.2174 50.603 30.9516 50.9823 30.7124 51.3086C31.9882 50.6383 33.2818 50.0121 34.5753 49.4477C34.3449 49.3683 33.9994 49.2536 33.9994 49.2536L34.0083 49.1302L34.1146 44.738L34.4335 44.6674C35.0537 45.9551 35.6739 47.181 36.2764 48.3099L36.2941 48.3452C36.2941 48.3452 36.2852 48.5657 36.2852 48.7245C37.313 48.3188 38.3496 47.9395 39.3773 47.6044C39.1913 47.5426 38.9432 47.4544 38.9432 47.4544L38.9166 47.4015C38.1458 45.9816 37.4016 44.5087 36.6396 42.9035L36.6042 42.8241L36.6574 42.7448C37.4725 41.4747 39.2267 38.9964 39.2267 38.9964C39.2267 38.9964 39.4393 38.8553 39.6608 38.7142C38.9875 38.723 36.8168 38.723 36.5599 38.723Z" fill="url(#paint24_linear_20009_5815)"/>
<mask id="mask6_20009_5815" style="mask-type:luminance" maskUnits="userSpaceOnUse" x="24" y="17" width="36" height="26">
<path d="M59.0212 42.1699H24.2109V17.6691H59.0212V42.1699Z" fill="white"/>
</mask>
<g mask="url(#mask6_20009_5815)">
<path d="M40.0605 47.5527C40.3263 47.2881 40.5921 47.0412 40.8491 46.7942C40.9377 44.2189 41.0263 41.6436 41.1149 39.0771C40.8668 38.9095 40.6187 38.7331 40.3795 38.5567C41.7705 38.5567 43.1172 38.5567 44.4196 38.5567C44.1804 38.7155 43.9412 38.8743 43.7019 39.0418C43.6311 41.4055 43.569 43.7691 43.4982 46.1416C43.7374 46.2474 43.9766 46.3533 44.2158 46.4591C42.8603 46.7413 41.4693 47.1118 40.0605 47.5527Z" fill="#1D418C"/>
</g>
<path d="M40.9012 38.7216C41.0518 38.8275 41.291 38.995 41.291 38.995V39.0832L41.0252 46.8621C41.0252 46.8621 40.8214 47.065 40.6797 47.1973C41.6897 46.8974 42.6997 46.624 43.7009 46.3947C43.5769 46.3418 43.3376 46.2359 43.3376 46.2359L43.3908 44.3926L43.5503 38.9421C43.5503 38.9421 43.7629 38.801 43.8869 38.7128C43.1427 38.7216 41.291 38.7216 40.9012 38.7216Z" fill="url(#paint25_linear_20009_5815)"/>
<mask id="mask7_20009_5815" style="mask-type:luminance" maskUnits="userSpaceOnUse" x="24" y="17" width="36" height="26">
<path d="M59.0212 42.1699H24.2109V17.6691H59.0212V42.1699Z" fill="white"/>
</mask>
<g mask="url(#mask7_20009_5815)">
<path d="M46.8912 38.5401C47.6266 39.4044 48.3531 40.2423 49.0796 41.0625C49.0796 40.7274 49.0796 40.3922 49.0796 40.0571C49.0884 39.6955 49.0973 39.3251 49.1062 38.9635C48.8935 38.8223 48.6809 38.6812 48.4682 38.5401H52.0388C51.835 38.69 51.6401 38.8312 51.4363 38.9811C51.4629 41.3888 51.4983 43.7878 51.5249 46.1867C51.4629 46.1955 51.4008 46.2043 51.33 46.2132C50.1162 44.7844 48.9024 43.4262 47.6797 42.015C47.6709 43.1439 47.662 44.2817 47.6443 45.4106C47.8746 45.5252 48.105 45.6399 48.3353 45.7634C47.0507 45.9045 45.7217 46.125 44.375 46.416C44.6231 46.2043 44.8712 46.0015 45.1192 45.8075C45.1724 43.5408 45.2167 41.2742 45.2698 39.0164C45.0395 38.8664 44.8091 38.7077 44.5788 38.5578H46.8912V38.5401Z" fill="#1D418C"/>
</g>
<path d="M49.0185 38.7126C49.0982 38.7656 49.2843 38.889 49.2843 38.889V38.9772L49.2577 40.0709C49.2577 40.1061 49.2577 41.5084 49.2577 41.5084L48.9653 41.1821C48.3363 40.4677 47.592 39.6211 46.8212 38.7126H45.1378C45.2442 38.7832 45.4479 38.9243 45.4479 38.9243V39.0125L45.2885 45.883C45.2885 45.883 45.0936 46.0417 44.9961 46.1211C45.9352 45.9359 46.8744 45.7859 47.7869 45.6625C47.6983 45.6184 47.4857 45.5125 47.4857 45.5125V45.4067L47.5211 41.579L49.1602 43.4488C49.8779 44.269 50.6309 45.1245 51.3575 45.98C51.3486 45.6096 51.2689 38.8978 51.2689 38.8978C51.2689 38.8978 51.4461 38.7656 51.5258 38.7126H49.0185Z" fill="url(#paint26_linear_20009_5815)"/>
<mask id="mask8_20009_5815" style="mask-type:luminance" maskUnits="userSpaceOnUse" x="24" y="17" width="36" height="26">
<path d="M59.0212 42.1699H24.2109V17.6691H59.0212V42.1699Z" fill="white"/>
</mask>
<g mask="url(#mask8_20009_5815)">
<path d="M59.3614 45.3953C59.893 45.5276 60.4069 45.6687 60.9119 45.8363C60.1942 43.6049 59.4323 41.6029 58.6349 39.7596C58.626 39.5303 58.626 39.2922 58.6172 39.0629C58.6172 38.9482 58.6969 38.8424 58.8564 38.7365C59.007 38.6219 59.1754 38.5601 59.3437 38.5601C60.4069 38.5601 61.4435 38.5601 62.4446 38.5601V40.2006C62.2763 40.0506 62.0991 39.9007 61.9219 39.7508C61.3815 39.7243 61.1422 39.6979 60.5841 39.6714C61.346 41.647 62.0725 43.8166 62.7282 46.2596C62.7282 46.5242 62.7459 47.1857 62.7193 47.2386C62.7016 47.2915 62.6661 47.3356 62.6218 47.3709C62.5775 47.4062 62.5244 47.4238 62.4535 47.4238C62.3826 47.4238 62.3029 47.4062 62.2054 47.3621C61.2397 46.9388 59.8753 46.5683 58.7855 46.2949C58.7767 45.8275 58.7589 45.3689 58.7501 44.9014C58.945 45.0602 59.1311 45.2189 59.3171 45.3865C59.326 45.3865 59.3437 45.3953 59.3614 45.3953Z" fill="#1D418C"/>
</g>
<path d="M58.9574 38.8724L58.9485 38.8812C58.8511 38.9518 58.7891 39.0135 58.7891 39.0576C58.7891 39.0576 58.8068 39.6662 58.8068 39.7191C59.675 41.7388 60.4193 43.7232 61.0749 45.7781L61.1812 46.1045L60.8534 45.9986C60.3573 45.8399 59.8434 45.6988 59.3207 45.5665L59.2321 45.54L59.1966 45.5135C59.1966 45.5135 59.0637 45.3989 58.9308 45.2842C58.9397 45.637 58.9485 45.9986 58.9485 46.1486C59.9408 46.4043 61.2964 46.7747 62.271 47.1981C62.3596 47.2334 62.4127 47.2422 62.4393 47.2422C62.4659 47.2422 62.4925 47.2334 62.5102 47.2245C62.5279 47.2157 62.5368 47.1981 62.5456 47.1805C62.5456 47.1364 62.5545 47.0482 62.5545 46.9335C62.5545 46.8012 62.5545 46.6513 62.5545 46.5366C62.5545 46.5366 62.5545 46.3249 62.5545 46.2809C61.9432 44.0142 61.2521 41.8622 60.4281 39.7279L60.3307 39.4721L61.3761 39.5339L62.0052 39.578L62.0495 39.6132C62.0495 39.6132 62.1647 39.7191 62.2887 39.8161V38.7313C61.9963 38.7313 59.365 38.7313 59.365 38.7313C59.2143 38.7313 59.0903 38.7754 58.9574 38.8724Z" fill="url(#paint27_linear_20009_5815)"/>
<path d="M55.8219 38.7221C55.8219 38.7221 52.4818 38.7662 52.1185 41.7119C52.1185 41.7119 51.7198 44.8164 56.194 45.6543L57.8951 45.9453L57.8242 43.3612L58.0723 43.1583L56.194 42.9819L56.2383 44.7723C56.2383 44.7723 53.8107 44.4724 53.8816 41.7825C54.0854 39.4894 55.7953 39.5423 55.7953 39.5423L57.4344 39.5599L57.8508 39.7981L57.8242 38.7309L55.8219 38.7221Z" fill="url(#paint28_linear_20009_5815)"/>
<mask id="mask9_20009_5815" style="mask-type:luminance" maskUnits="userSpaceOnUse" x="24" y="17" width="36" height="26">
<path d="M59.0212 42.1699H24.2109V17.6691H59.0212V42.1699Z" fill="white"/>
</mask>
<g mask="url(#mask9_20009_5815)">
<path d="M46.493 19.2454L46.0411 18.7779L45.5538 19.2101L46.0057 19.6687L46.493 19.2454ZM45.926 22.491L45.5273 22.0853L45.9525 21.7149L46.3512 22.1206L45.926 22.491ZM49.2218 23.4435C47.9194 22.9496 48.4864 21.7325 48.4864 21.7325C48.4864 21.7325 48.2738 22.1823 47.565 22.1118C46.1386 21.9706 46.05 19.9686 46.05 19.9686C45.7842 21.2563 45.2172 21.8383 44.4464 21.9618C43.6047 22.0941 43.4186 21.4856 43.4186 21.4856C43.4186 21.4856 43.7376 22.5086 42.7896 23.0113C41.9125 23.4611 41.3011 22.588 41.3011 22.588L42.5947 24.8105C43.3477 24.008 44.3843 23.2407 45.8019 23.2407C47.2284 23.2407 48.5042 23.9198 49.1864 24.8105H49.1952L50.3647 23.0907C49.7445 23.664 49.2218 23.4435 49.2218 23.4435ZM49.1687 21.3621L49.0269 20.8946L48.5307 21.0269L48.6725 21.4944L49.1687 21.3621ZM50.9229 22.2705L50.3913 22.3675L50.4976 22.8879L51.0292 22.7909L50.9229 22.2705ZM43.4806 20.7624L43.0022 20.5771L42.8073 21.0269L43.2857 21.2122C43.2769 21.2122 43.4806 20.7624 43.4806 20.7624ZM40.9113 21.8383L40.7695 22.3058L41.2657 22.4381L41.4074 21.9706C41.3986 21.9795 40.9113 21.8383 40.9113 21.8383Z" fill="#1C63B7"/>
<path d="M39.2602 26.5917V25.5246L38.9856 25.2953H40.4917L40.2171 25.5246V26.5741H40.8107V25.5246L40.536 25.2953H42.0422L41.7587 25.5157V28.6467L42.0422 28.8672H40.536L40.8195 28.6467V27.0768H40.2259V28.6379L40.5006 28.8584H38.9944L39.2691 28.6379V27.0768H38.959L39.2602 26.5917Z" fill="#1C63B7"/>
<path d="M43.2933 27.0602V28.3743H43.9312L44.259 28.1979V28.8594H42.0706L42.3453 28.6301V27.0602H42.0352L42.3453 26.5839V25.5167L42.0706 25.2874H44.259V25.9401L43.9312 25.7813H43.2933V26.5663H44.3476L43.9666 27.0602H43.2933Z" fill="#1C63B7"/>
<path d="M45.2739 25.2873L46.1422 26.5308V26.0458L46.151 25.5078L45.8764 25.2785H47.418L47.1433 25.5078V29.1767L47.0459 29.1855L45.5928 26.9983V28.6211L45.8675 28.8416H44.3613L44.636 28.6211V25.499L44.3613 25.2696H45.2739V25.2873Z" fill="#1C63B7"/>
<path d="M48.3462 25.2873L49.2144 26.5308V26.0458L49.2233 25.5078L48.9486 25.2785H50.4902L50.2156 25.5078V29.1767L50.1181 29.1855L48.6651 26.9983V28.6211L48.9398 28.8416H47.4336L47.7082 28.6211V25.499L47.4336 25.2696H48.3462V25.2873Z" fill="#1C63B7"/>
<path d="M51.7464 26.5682H52.34V25.7745H51.7464V26.5682ZM52.0653 28.8613L52.3488 28.6408V27.0709H51.7552V28.6408L52.0299 28.8613H50.5237L50.7984 28.6408V27.0798H50.4883L50.8072 26.5947V25.5981C50.8161 25.5187 50.9136 25.4393 51.1173 25.3776C51.3034 25.3247 51.4983 25.2982 51.7109 25.2982H52.402C52.4995 25.2982 52.5969 25.307 52.6855 25.3247C52.7741 25.3423 52.8716 25.3599 52.969 25.3864C53.1551 25.4393 53.2703 25.5099 53.2968 25.5981V28.6497L53.5804 28.8613H52.0653Z" fill="#1C63B7"/>
<path d="M53.5977 28.8574L53.8635 28.6369V25.5148L53.5977 25.2855H55.0418L54.7849 25.5148V28.6369L55.0418 28.8574H53.5977Z" fill="#1C63B7"/>
<path d="M38.8902 26.0626V25.2864C38.8902 25.2864 36.879 25.0659 36.7461 27.0415C36.7461 27.0415 36.7195 28.6467 38.4206 28.8495L38.8902 28.8672V28.0734L38.5535 28.2675C38.5535 28.2675 37.6941 28.338 37.641 27.068C37.641 27.068 37.6764 25.8421 38.5624 25.8685L38.8902 26.0626Z" fill="#1C63B7"/>
</g>
<defs>
<radialGradient id="paint0_radial_20009_5815" cx="0" cy="0" r="1" gradientUnits="userSpaceOnUse" gradientTransform="translate(18.2847 36.0294) scale(4.54118 4.52055)">
<stop stop-color="#FFF200"/>
<stop offset="1" stop-color="#F25C19"/>
</radialGradient>
<radialGradient id="paint1_radial_20009_5815" cx="0" cy="0" r="1" gradientUnits="userSpaceOnUse" gradientTransform="translate(18.2855 36.0294) scale(4.54113 4.52051)">
<stop stop-color="#FFF200"/>
<stop offset="1" stop-color="#F25C19"/>
</radialGradient>
<radialGradient id="paint2_radial_20009_5815" cx="0" cy="0" r="1" gradientUnits="userSpaceOnUse" gradientTransform="translate(18.2815 36.0264) scale(4.54034 4.51974)">
<stop stop-color="#FFF200"/>
<stop offset="1" stop-color="#F25C19"/>
</radialGradient>
<radialGradient id="paint3_radial_20009_5815" cx="0" cy="0" r="1" gradientUnits="userSpaceOnUse" gradientTransform="translate(18.2832 36.0262) scale(4.54054 4.5199)">
<stop stop-color="#FFF200"/>
<stop offset="1" stop-color="#F25C19"/>
</radialGradient>
<radialGradient id="paint4_radial_20009_5815" cx="0" cy="0" r="1" gradientUnits="userSpaceOnUse" gradientTransform="translate(18.2833 36.0289) scale(4.54162 4.52099)">
<stop stop-color="#FFF200"/>
<stop offset="1" stop-color="#F25C19"/>
</radialGradient>
<radialGradient id="paint5_radial_20009_5815" cx="0" cy="0" r="1" gradientUnits="userSpaceOnUse" gradientTransform="translate(18.2855 36.0319) scale(4.54201 4.5214)">
<stop stop-color="#FFF200"/>
<stop offset="1" stop-color="#F25C19"/>
</radialGradient>
<radialGradient id="paint6_radial_20009_5815" cx="0" cy="0" r="1" gradientUnits="userSpaceOnUse" gradientTransform="translate(18.2845 36.0291) scale(4.54111 4.5205)">
<stop stop-color="#FFF200"/>
<stop offset="1" stop-color="#F25C19"/>
</radialGradient>
<radialGradient id="paint7_radial_20009_5815" cx="0" cy="0" r="1" gradientUnits="userSpaceOnUse" gradientTransform="translate(18.283 36.0288) scale(4.54111 4.52049)">
<stop stop-color="#FFF200"/>
<stop offset="1" stop-color="#F25C19"/>
</radialGradient>
<radialGradient id="paint8_radial_20009_5815" cx="0" cy="0" r="1" gradientUnits="userSpaceOnUse" gradientTransform="translate(18.2835 36.0289) scale(4.54123 4.52061)">
<stop stop-color="#FFF200"/>
<stop offset="1" stop-color="#F25C19"/>
</radialGradient>
<radialGradient id="paint9_radial_20009_5815" cx="0" cy="0" r="1" gradientUnits="userSpaceOnUse" gradientTransform="translate(18.285 36.03) scale(4.5408 4.52018)">
<stop stop-color="#FFF200"/>
<stop offset="1" stop-color="#F25C19"/>
</radialGradient>
<radialGradient id="paint10_radial_20009_5815" cx="0" cy="0" r="1" gradientUnits="userSpaceOnUse" gradientTransform="translate(18.2848 36.0114) scale(4.54115 4.52053)">
<stop stop-color="#FFF200"/>
<stop offset="1" stop-color="#F25C19"/>
</radialGradient>
<radialGradient id="paint11_radial_20009_5815" cx="0" cy="0" r="1" gradientUnits="userSpaceOnUse" gradientTransform="translate(18.2838 36.0285) scale(4.5412 4.52057)">
<stop stop-color="#FFF200"/>
<stop offset="1" stop-color="#F25C19"/>
</radialGradient>
<radialGradient id="paint12_radial_20009_5815" cx="0" cy="0" r="1" gradientUnits="userSpaceOnUse" gradientTransform="translate(18.2836 36.0276) scale(4.54121 4.52058)">
<stop stop-color="#FFF200"/>
<stop offset="1" stop-color="#F25C19"/>
</radialGradient>
<radialGradient id="paint13_radial_20009_5815" cx="0" cy="0" r="1" gradientUnits="userSpaceOnUse" gradientTransform="translate(18.283 36.0283) scale(4.54115 4.52052)">
<stop stop-color="#FFF200"/>
<stop offset="1" stop-color="#F25C19"/>
</radialGradient>
<radialGradient id="paint14_radial_20009_5815" cx="0" cy="0" r="1" gradientUnits="userSpaceOnUse" gradientTransform="translate(18.917 36.025) scale(4.32964 4.30997)">
<stop stop-color="#FFF200"/>
<stop offset="1" stop-color="#F25C19"/>
</radialGradient>
<radialGradient id="paint15_radial_20009_5815" cx="0" cy="0" r="1" gradientUnits="userSpaceOnUse" gradientTransform="translate(18.2797 36.026) scale(4.54157 4.52094)">
<stop stop-color="#FFF200"/>
<stop offset="1" stop-color="#F25C19"/>
</radialGradient>
<radialGradient id="paint16_radial_20009_5815" cx="0" cy="0" r="1" gradientUnits="userSpaceOnUse" gradientTransform="translate(18.2836 36.031) scale(4.54125 4.52063)">
<stop stop-color="#FFF200"/>
<stop offset="1" stop-color="#F25C19"/>
</radialGradient>
<radialGradient id="paint17_radial_20009_5815" cx="0" cy="0" r="1" gradientUnits="userSpaceOnUse" gradientTransform="translate(18.2845 36.0291) scale(4.54074 4.52013)">
<stop stop-color="#FFF200"/>
<stop offset="1" stop-color="#F25C19"/>
</radialGradient>
<radialGradient id="paint18_radial_20009_5815" cx="0" cy="0" r="1" gradientUnits="userSpaceOnUse" gradientTransform="translate(18.2803 36.0295) scale(4.54116 4.52053)">
<stop stop-color="#FFF200"/>
<stop offset="1" stop-color="#F25C19"/>
</radialGradient>
<linearGradient id="paint19_linear_20009_5815" x1="36.4731" y1="29.7622" x2="36.4731" y2="31.9565" gradientUnits="userSpaceOnUse">
<stop stop-color="#00ADEF"/>
<stop offset="1" stop-color="#1D418C"/>
</linearGradient>
<linearGradient id="paint20_linear_20009_5815" x1="41.068" y1="29.7612" x2="41.068" y2="31.9555" gradientUnits="userSpaceOnUse">
<stop stop-color="#00ADEF"/>
<stop offset="1" stop-color="#1D418C"/>
</linearGradient>
<linearGradient id="paint21_linear_20009_5815" x1="46.3295" y1="29.8784" x2="46.3295" y2="32.0405" gradientUnits="userSpaceOnUse">
<stop stop-color="#00ADEF"/>
<stop offset="1" stop-color="#1D418C"/>
</linearGradient>
<linearGradient id="paint22_linear_20009_5815" x1="50.7859" y1="29.7612" x2="50.7859" y2="31.9555" gradientUnits="userSpaceOnUse">
<stop stop-color="#00ADEF"/>
<stop offset="1" stop-color="#1D418C"/>
</linearGradient>
<linearGradient id="paint23_linear_20009_5815" x1="55.8529" y1="29.7637" x2="55.8529" y2="31.9586" gradientUnits="userSpaceOnUse">
<stop stop-color="#00ADEF"/>
<stop offset="1" stop-color="#1D418C"/>
</linearGradient>
<linearGradient id="paint24_linear_20009_5815" x1="35.1392" y1="38.7226" x2="35.1392" y2="40.6331" gradientUnits="userSpaceOnUse">
<stop stop-color="#00ADEF"/>
<stop offset="1" stop-color="#1D418C"/>
</linearGradient>
<linearGradient id="paint25_linear_20009_5815" x1="42.272" y1="38.7197" x2="42.272" y2="40.6302" gradientUnits="userSpaceOnUse">
<stop stop-color="#00ADEF"/>
<stop offset="1" stop-color="#1D418C"/>
</linearGradient>
<linearGradient id="paint26_linear_20009_5815" x1="48.2636" y1="38.7109" x2="48.2636" y2="40.6214" gradientUnits="userSpaceOnUse">
<stop stop-color="#00ADEF"/>
<stop offset="1" stop-color="#1D418C"/>
</linearGradient>
<linearGradient id="paint27_linear_20009_5815" x1="60.6703" y1="38.7137" x2="60.6703" y2="40.6241" gradientUnits="userSpaceOnUse">
<stop stop-color="#00ADEF"/>
<stop offset="1" stop-color="#1D418C"/>
</linearGradient>
<linearGradient id="paint28_linear_20009_5815" x1="55.0896" y1="38.9036" x2="55.0896" y2="40.7216" gradientUnits="userSpaceOnUse">
<stop stop-color="#00ADEF"/>
<stop offset="1" stop-color="#1D418C"/>
</linearGradient>
</defs>
</svg>
