<svg width="86" height="62" viewBox="0 0 86 62" fill="none" xmlns="http://www.w3.org/2000/svg">
<mask id="mask0_20009_5448" style="mask-type:luminance" maskUnits="userSpaceOnUse" x="25" y="4" width="36" height="54">
<path d="M45.9543 17.6838L47.9242 22.135C48.0445 22.1501 48.1648 22.1501 48.2099 22.1501C48.225 22.1501 48.24 22.1501 48.24 22.1501L46.1799 17.5028C46.0596 17.6386 45.9543 17.6838 45.9543 17.6838ZM45.1573 15.7072C44.9167 15.7072 43.3678 15.843 43.3678 15.843L43.4731 16.0693C43.4731 16.0693 44.9017 15.9637 45.2475 15.9335C45.2926 15.9335 45.3227 15.9335 45.3678 15.9335C45.7287 15.9335 45.8941 16.0543 45.8941 16.0543C45.7889 15.7977 45.428 15.7072 45.1723 15.6921C45.1723 15.7072 45.1573 15.7072 45.1573 15.7072ZM41.7889 21.6371C42.646 22.2558 43.5633 22.6782 44.4505 22.9649C44.4355 22.9649 44.4205 22.9649 44.4054 22.9649C43.9693 22.9649 43.5182 22.9649 43.0671 22.98C41.9092 23.0102 40.7663 23.0856 39.6535 23.2064C40.6911 22.7235 41.4129 22.0445 41.7889 21.6371ZM37.5032 22.9649C38.9769 22.7688 40.0295 22.0596 40.6761 21.4862C41.2325 21.0034 41.5633 20.5507 41.6686 20.3697C41.8791 20.5356 42.0746 20.6865 42.2851 20.8374C43.3678 21.5919 44.5107 22.0445 45.5332 22.301C46.7363 22.6179 47.7738 22.6782 48.4205 22.6782C48.4957 22.6782 48.5708 22.6782 48.646 22.6782L48.8114 23.0706C48.8114 23.0706 48.6009 23.0856 48.255 23.0856C47.052 23.0856 44.0896 22.8744 41.7438 20.9883C41.7438 20.9883 40.1648 23.1158 37.3528 23.4025L37.5032 22.9649ZM38.4205 20.2942C38.4205 20.2942 39.819 19.7359 40.7363 17.9705C41.834 15.8279 43.0972 14.651 45.6686 14.651L48.1498 18.1969L47.052 18.3025C47.052 18.3025 46.646 16.3711 45.3678 16.3711C45.3227 16.3711 45.2776 16.3711 45.2325 16.3711C45.022 16.3862 43.5784 16.4918 43.5483 16.5069C43.5483 16.5069 43.8039 17.4726 44.8114 17.6537C44.9317 17.6688 45.037 17.6838 45.1423 17.6838C45.9092 17.6838 46.2551 17.1708 46.2551 17.1708L48.5708 22.3765C48.5257 22.3765 48.4806 22.3765 48.4205 22.3765C47.1573 22.3765 44.225 22.12 41.7137 20.0528L41.6385 19.9924L41.5934 20.0679C41.5784 20.0981 40.2551 22.2256 37.5633 22.633L38.4205 20.2942ZM38.1498 19.3889C38.0596 19.0117 37.9543 18.3327 37.9543 17.5782C37.9543 16.5069 38.2099 15.0282 39.3678 14.0927C40.3904 13.2779 41.5332 13.0516 42.4355 13.0516C42.6611 13.0516 42.8716 13.0667 43.0671 13.0818C43.8791 13.1723 44.5107 13.3986 44.7814 13.5042L45.3227 14.3794C45.3227 14.3794 44.9769 14.3945 44.1498 14.5303C43.6385 14.6208 43.0821 14.7868 42.5107 15.164C41.9242 15.5563 41.3077 16.175 40.7363 17.1708C40.616 17.3821 40.4957 17.5933 40.3904 17.8347C39.6987 19.2531 38.4505 19.9019 38.4505 19.9019L38.1498 19.3889ZM36.1648 8.91723C35.3678 8.58528 34.8716 8.19297 34.3002 7.7554C33.8641 7.40835 33.4129 7.06131 32.8114 6.71427C32.2551 6.3974 31.6686 6.24651 31.0821 6.24651H31.0671C29.7738 6.24651 28.5408 7.33291 28.5408 7.33291C28.5408 7.33291 30.1949 7.49889 31.037 8.02699C30.24 8.04208 30.1498 8.72108 30.1498 8.72108L30.631 8.99268C31.7287 9.67168 31.2776 9.94328 30.8415 9.94328C30.7062 9.94328 30.5859 9.92819 30.4957 9.88292L29.2626 9.24919C29.2626 9.24919 29.8941 11.5276 31.3979 11.6785L31.052 12.0104C31.052 12.0104 33.6836 12.4631 34.5107 13.293C35.0821 13.8664 35.3979 14.4397 34.9919 14.6208C34.9317 14.651 34.8716 14.651 34.8265 14.651C34.5408 14.651 34.2099 14.3945 33.9693 14.1078C33.6385 13.7155 33.3829 12.9309 33.3829 12.9309C32.8866 13.8965 33.2776 14.9528 33.2776 14.9528C33.4881 15.5714 33.9543 16.4315 35.0821 16.8992C36.0145 17.2915 36.3152 17.533 36.5408 17.7593C37.4881 18.7853 37.9994 20.083 37.9994 20.083L36.8415 23.2214L36.6911 23.659C34.1348 24.1268 31.7738 24.836 29.7738 25.7262L28.2701 26.4203L29.1573 29.1664C28.1648 29.7851 27.037 30.7659 26.7212 32.0786C26.5257 32.8783 26.6611 33.6629 27.1122 34.357C27.5032 34.9756 28.0896 35.4132 28.7964 35.6396L28.3002 38.2952C27.0821 39.0949 26.3302 40.0455 26.0746 41.0414C26.0144 41.2677 25.9844 41.494 25.9844 41.7053V41.7958C25.9994 42.3239 26.1498 42.8369 26.4505 43.3047C26.8265 43.8781 27.3829 44.3156 28.0295 44.542L27.6235 46.7148L27.6987 46.8506C27.7137 46.8958 28.1648 47.8011 28.9919 48.7065C29.8641 49.6571 31.1874 50.3813 31.9092 50.7435C31.8039 51.0151 31.6385 51.4526 31.6987 53.8367L31.8039 57.6391L34.631 55.0891C34.646 55.074 35.5934 54.229 37.1272 53.0973C37.6235 53.6405 38.616 54.6666 39.6987 55.5266C41.2175 56.7337 42.9317 57.5184 43.1272 57.6089C43.8641 57.9408 43.8641 57.9408 43.9693 57.9408H44.1348L44.255 57.8503C45.3077 57.0657 47.5934 54.9985 47.6987 54.908L49.819 52.9012L51.1122 51.5884L52.5408 50.0494L54.0445 48.284L55.2475 46.6997L54.3453 46.4733L55.849 46.0961L55.7588 45.236L56.1799 45.3115L56.8415 44.3156C57.2475 43.7272 58.1648 42.1277 58.5708 41.0263L58.8114 40.3473L58.6761 39.9851L59.1272 38.9742C59.7438 37.586 60.1648 35.4887 59.5032 33.7987L59.0972 32.7576C59.6235 32.1389 59.7738 31.3091 59.8941 30.6301L60.3302 28.3215C60.3302 28.3215 57.6836 28.5931 57.5182 28.6232C57.5182 28.6082 57.5032 28.6082 57.5032 28.5931C57.428 28.4874 57.3378 28.3969 57.2325 28.3064L57.6987 25.3942L56.5408 24.9567C54.5107 24.1871 52.1047 23.6288 49.5182 23.312L49.3077 22.8593L47.4881 18.7702L49.037 18.6344L45.9393 14.2134L44.7363 12.3122C44.7363 12.3122 44.5107 12.2217 44.3754 12.1764C44.4054 12.0255 45.037 8.47966 42.1047 6.74444C41.4731 6.38231 40.8716 6.14089 40.3002 5.97491C40.3002 5.97491 39.9543 5.8542 39.3227 5.77876C39.0069 5.73349 38.6611 5.7184 38.3302 5.7184C37.3829 5.7184 36.4205 5.8542 35.9242 5.95982C35.443 5.61278 34.5859 4.22461 34.5859 4.22461C34.5859 4.22461 34.3152 7.2122 36.1648 8.91723Z" fill="white"/>
</mask>
<g mask="url(#mask0_20009_5448)">
<path d="M6.67578 12.3716L55.0517 -8.22461L79.578 49.7316L31.2021 70.3278L6.67578 12.3716Z" fill="url(#paint0_linear_20009_5448)"/>
</g>
<mask id="mask1_20009_5448" style="mask-type:luminance" maskUnits="userSpaceOnUse" x="25" y="4" width="36" height="54">
<path d="M60.3009 4.16406H25.9551V57.9407H60.3009V4.16406Z" fill="white"/>
</mask>
<g mask="url(#mask1_20009_5448)">
<path d="M32.5858 50.5322C32.4204 50.7133 32.3753 50.834 32.3452 50.9095C32.255 51.1056 32.1046 51.4828 32.1648 53.8216L32.24 56.5829L34.2851 54.742C34.3001 54.7269 35.4129 53.7311 37.1723 52.4636C37.3979 52.705 38.6159 54.0781 39.9693 55.1645C41.4731 56.3716 43.2174 57.1412 43.2926 57.1864L43.9392 57.4731C44.9768 56.6885 47.3377 54.561 47.3377 54.561L46.0294 53.8518L48.1497 53.8065L48.8715 53.1275L47.5182 52.6447L49.5633 52.4636L50.3302 51.679L48.5106 51.1962L50.8565 51.1358L51.6084 50.3361L49.5783 49.7778L52.1197 49.7476L53.0971 48.6311L50.3302 48.0728H53.5633L54.3753 47.0316L52.3152 46.5186L55.2776 45.7793L55.1723 44.708L55.9091 44.8287L56.4054 44.0742C56.7813 43.5159 57.6986 41.9316 58.0746 40.8905L58.255 40.3926L58.0294 39.9097C57.9693 39.7739 57.9091 39.6532 57.849 39.5325L58.3152 39.5174L58.6309 38.7781C59.2024 37.4804 59.6084 35.5189 58.9918 33.9798L58.4806 32.652C59.067 32.1239 59.2324 31.3091 59.3678 30.5396L59.6836 28.8647L57.9843 29.0458C57.7287 29.0759 57.4731 29.1061 57.2325 29.1514C57.1873 29.0608 57.1272 28.9703 57.067 28.8949C56.9467 28.744 56.8114 28.6233 56.646 28.5176L57.0971 25.696L56.3001 25.3943C53.037 24.157 48.7964 23.4629 44.3603 23.4629C43.9242 23.4629 43.4731 23.4629 43.037 23.478C38.1046 23.6289 33.443 24.5795 29.9091 26.1789L28.7964 26.6919L29.6685 29.3928C29.6535 29.3928 29.6535 29.4079 29.6385 29.4079C28.661 29.9662 27.4279 30.9168 27.1122 32.1993C26.9467 32.8783 27.067 33.5271 27.4279 34.1005C27.834 34.7342 28.4956 35.1567 29.2625 35.2774L28.646 38.5819C27.7437 39.1402 26.7362 40.0153 26.4655 41.147C26.3001 41.8109 26.4204 42.4597 26.7813 43.0331C27.1723 43.6367 27.7888 44.0441 28.5106 44.1799L28.0595 46.6393C28.0595 46.6393 28.4806 47.5145 29.2776 48.3745C30.4655 49.642 32.5858 50.5322 32.5858 50.5322Z" fill="#3A225D"/>
</g>
<mask id="mask2_20009_5448" style="mask-type:luminance" maskUnits="userSpaceOnUse" x="25" y="4" width="36" height="54">
<path d="M60.3009 4.16406H25.9551V57.9407H60.3009V4.16406Z" fill="white"/>
</mask>
<g mask="url(#mask2_20009_5448)">
<path d="M32.5861 10.9534C33.8793 10.3046 34.6011 10.0028 34.7064 9.98775C34.8117 9.98775 33.3079 9.68597 32.5861 9.03715C31.7891 8.31289 30.932 8.49395 30.8568 8.58449C30.8568 8.58449 32.15 9.32384 31.8041 10.033C31.3681 10.9082 30.2402 10.3197 30.2402 10.3197C30.2402 10.3197 30.932 11.7984 32.5861 10.9534Z" fill="#3A225D"/>
</g>
<mask id="mask3_20009_5448" style="mask-type:luminance" maskUnits="userSpaceOnUse" x="25" y="4" width="36" height="54">
<path d="M60.3009 4.16406H25.9551V57.9407H60.3009V4.16406Z" fill="white"/>
</mask>
<g mask="url(#mask3_20009_5448)">
<path d="M36.8128 9.64084C34.6474 9.02219 34.1662 8.01124 32.5872 7.13609C31.0083 6.26094 29.8203 7.06065 29.8203 7.06065C31.2489 7.30207 31.9557 8.11686 33.3241 9.02219C34.6925 9.94261 36.8128 9.64084 36.8128 9.64084Z" fill="#3A225D"/>
</g>
<mask id="mask4_20009_5448" style="mask-type:luminance" maskUnits="userSpaceOnUse" x="25" y="4" width="36" height="54">
<path d="M60.3009 4.16406H25.9551V57.9407H60.3009V4.16406Z" fill="white"/>
</mask>
<g mask="url(#mask4_20009_5448)">
<path d="M37.7444 14.4389C37.7444 14.4389 38.1654 13.6392 38.8722 13.1563C38.8722 13.1563 38.812 13.111 38.6917 13.0205C38.3308 12.7791 37.4887 12.251 36.5564 11.9794C36.5564 11.9794 37.8195 11.8134 39.6692 12.3566C39.7143 12.3717 39.7594 12.3868 39.8195 12.4019C39.8195 12.4019 40.1955 12.0699 41.6992 11.9341C42.7669 11.8436 43.6241 12.1152 43.6241 12.1152C43.6241 12.1152 43.609 12.0699 43.5639 11.9794C43.2932 11.4362 42.0752 9.42937 39.1579 9.56517C39.1579 9.56517 40.1504 9.86695 40.4812 10.9232C40.4812 10.9232 39.1729 10.0027 36.3308 10.1536C33.4887 10.3045 32 11.753 32 11.753C32 11.753 33.4436 12.085 34.5414 12.4622C35.8797 12.93 37.2932 14.0616 37.609 14.3182C37.6541 14.3483 37.6692 14.3785 37.6692 14.3785L37.7444 14.4389Z" fill="#3A225D"/>
</g>
<mask id="mask5_20009_5448" style="mask-type:luminance" maskUnits="userSpaceOnUse" x="25" y="4" width="36" height="54">
<path d="M60.3009 4.16406H25.9551V57.9407H60.3009V4.16406Z" fill="white"/>
</mask>
<g mask="url(#mask5_20009_5448)">
<path d="M37.7747 9.83819C37.7747 9.83819 38.271 9.26482 39.7296 9.24973C40.6469 9.23464 41.7146 9.71748 41.7146 9.71748C41.5943 8.52546 40.8274 7.84647 40.8274 7.84647C42.6319 8.29913 42.7522 10.3965 42.7823 10.4267C43.3988 10.8793 43.88 12.0261 43.88 12.0261C43.88 12.0261 44.5116 8.67635 41.8349 7.10711C39.5191 5.74912 37.3537 6.1867 37.3537 6.1867C37.3537 6.1867 38.3462 6.33758 39.0529 6.9864C39.7597 7.63522 39.5191 8.70653 38.1808 8.35949C36.8574 8.01244 35.1582 5.7793 35.1582 5.7793C35.3687 7.937 37.7747 9.83819 37.7747 9.83819Z" fill="#3A225D"/>
</g>
<mask id="mask6_20009_5448" style="mask-type:luminance" maskUnits="userSpaceOnUse" x="25" y="4" width="36" height="54">
<path d="M60.3009 4.16406H25.9551V57.9407H60.3009V4.16406Z" fill="white"/>
</mask>
<g mask="url(#mask6_20009_5448)">
<path d="M37.3696 14.7867C37.3696 14.7716 37.3846 14.7716 37.3846 14.7565C37.3996 14.7263 37.4147 14.6962 37.4297 14.6509C37.4147 14.6358 36.1365 13.3231 34.753 12.9609C34.753 12.9609 35.8658 13.9719 35.6252 14.6358C35.2793 15.5864 33.8207 14.8621 33.5801 14.1982C33.5801 14.1982 33.6553 15.7675 35.2492 16.4465C36.0914 16.7935 36.5876 17.1255 36.7981 17.382C36.9034 17.5027 36.9485 17.5932 36.9485 17.5932C36.9485 17.5932 36.8282 15.9485 37.3696 14.7867Z" fill="#3A225D"/>
</g>
<mask id="mask7_20009_5448" style="mask-type:luminance" maskUnits="userSpaceOnUse" x="25" y="4" width="36" height="54">
<path d="M60.3009 4.16406H25.9551V57.9407H60.3009V4.16406Z" fill="white"/>
</mask>
<g mask="url(#mask7_20009_5448)">
<path d="M37.7898 17.3361C37.7898 15.7367 38.3011 14.4843 39.2635 13.7298C40.5868 12.6736 42.0755 12.5831 43.083 12.6887C43.7597 12.7642 44.3161 12.9301 44.6469 13.0509L44.4063 12.6585C44.4063 12.6585 41.6244 11.4816 39.2635 13.1716C37.5793 14.3787 37.1732 16.5816 37.5793 18.1509L37.9101 18.7243C37.8349 18.3319 37.7898 17.8642 37.7898 17.3361Z" fill="#3A225D"/>
</g>
<mask id="mask8_20009_5448" style="mask-type:luminance" maskUnits="userSpaceOnUse" x="25" y="4" width="36" height="54">
<path d="M60.3009 4.16406H25.9551V57.9407H60.3009V4.16406Z" fill="white"/>
</mask>
<g mask="url(#mask8_20009_5448)">
<path d="M44.7821 13.5033C44.5115 13.3977 43.8649 13.1713 43.0679 13.0808C42.0904 12.9752 40.6468 13.0657 39.3686 14.0918C38.2107 15.0273 37.9551 16.506 37.9551 17.5773C37.9551 18.3317 38.0754 18.9956 38.1506 19.3879L38.4513 19.916C38.4513 19.916 39.6994 19.2672 40.3912 17.8489C41.6092 15.329 42.9927 14.7557 44.1506 14.5444C44.9927 14.3935 45.3385 14.3784 45.3385 14.3784L44.7821 13.5033Z" fill="#3A225D"/>
</g>
<mask id="mask9_20009_5448" style="mask-type:luminance" maskUnits="userSpaceOnUse" x="25" y="4" width="36" height="54">
<path d="M60.3009 4.16406H25.9551V57.9407H60.3009V4.16406Z" fill="white"/>
</mask>
<g mask="url(#mask9_20009_5448)">
<path d="M48.6317 22.6934C47.5039 22.7235 44.361 22.5726 41.6693 20.3848C41.549 20.5658 41.2182 21.0185 40.6768 21.5013C40.0452 22.0596 38.9776 22.7688 37.5039 22.98L37.3535 23.4025C40.1505 23.1158 41.7445 20.9883 41.7445 20.9883C44.7821 23.4327 48.8122 23.0706 48.8122 23.0706L48.6317 22.6934Z" fill="#3A225D"/>
</g>
<mask id="mask10_20009_5448" style="mask-type:luminance" maskUnits="userSpaceOnUse" x="25" y="4" width="36" height="54">
<path d="M60.3009 4.16406H25.9551V57.9407H60.3009V4.16406Z" fill="white"/>
</mask>
<g mask="url(#mask10_20009_5448)">
<path d="M46.2406 17.156C46.2406 17.156 45.8045 17.8199 44.7969 17.6389C43.7894 17.4578 43.5338 16.4921 43.5338 16.4921C43.5639 16.4921 45.0075 16.3865 45.218 16.3563C46.6015 16.2205 47.0375 18.2726 47.0375 18.2726L48.1353 18.167L45.6541 14.6211C43.0827 14.6211 41.8195 15.8131 40.7218 17.9406C39.8045 19.706 38.406 20.2643 38.406 20.2643L37.5488 22.588C40.2406 22.1806 41.5639 20.038 41.5639 20.0229L41.609 19.9475L41.6842 20.0078C44.3007 22.1655 47.3834 22.3466 48.5413 22.3315L46.2406 17.156ZM43.3684 15.8584C43.3684 15.8584 44.9924 15.7075 45.1729 15.7226C45.4285 15.7377 45.8045 15.8282 45.8947 16.0847C45.8947 16.0847 45.6842 15.9338 45.2481 15.964C44.9022 15.9942 43.4736 16.0998 43.4736 16.0998L43.3684 15.8584ZM47.9248 22.1353L45.9548 17.6841C45.9548 17.6841 46.0751 17.6389 46.1804 17.5181L48.2255 22.1504C48.2255 22.1504 48.0751 22.1504 47.9248 22.1353Z" fill="#3A225D"/>
</g>
<mask id="mask11_20009_5448" style="mask-type:luminance" maskUnits="userSpaceOnUse" x="39" y="13" width="4" height="5">
<path d="M39.3984 14.0483L40.7217 17.1716C41.2932 16.1758 41.8947 15.5571 42.4962 15.1648L41.624 13.0977C40.9172 13.2184 40.1353 13.49 39.3984 14.0483Z" fill="white"/>
</mask>
<g mask="url(#mask11_20009_5448)">
<path d="M38.0742 13.6104L42.1193 12.1016L43.8186 16.6886L39.7735 18.1974L38.0742 13.6104Z" fill="url(#paint1_linear_20009_5448)"/>
</g>
<mask id="mask12_20009_5448" style="mask-type:luminance" maskUnits="userSpaceOnUse" x="40" y="15" width="6" height="7">
<path d="M40.918 17.6242L42.0608 20.31C43.1586 21.1248 44.3165 21.6227 45.3691 21.9245L42.6473 15.5117C41.9556 16.0097 41.4142 16.7339 40.918 17.6242Z" fill="white"/>
</mask>
<g mask="url(#mask12_20009_5448)">
<path d="M38.8281 16.2956L44.8281 14.0625L47.4597 21.1542L41.4597 23.3874L38.8281 16.2956Z" fill="url(#paint2_linear_20009_5448)"/>
</g>
<mask id="mask13_20009_5448" style="mask-type:luminance" maskUnits="userSpaceOnUse" x="42" y="20" width="4" height="3">
<path d="M42.2852 20.8535L42.6009 21.608C43.6536 22.2568 44.7513 22.6189 45.7438 22.8302L45.5333 22.3171C44.5107 22.0455 43.3829 21.5929 42.2852 20.8535Z" fill="white"/>
</mask>
<g mask="url(#mask13_20009_5448)">
<path d="M41.6387 21.0952L45.3229 19.707L46.3906 22.589L42.7063 23.9621L41.6387 21.0952Z" fill="url(#paint3_linear_20009_5448)"/>
</g>
<mask id="mask14_20009_5448" style="mask-type:luminance" maskUnits="userSpaceOnUse" x="30" y="24" width="26" height="5">
<path d="M31.8503 26.6024L31.5646 27.3568L31.4894 27.387L31.2939 26.7985L30.7676 26.9645L31.2488 28.4281L31.7751 28.2621L31.5796 27.6737L32.1059 27.5077L32.3014 28.0962L32.8277 27.9302L32.5871 27.1908C32.5571 27.1154 32.4217 27.0852 32.2713 27.1305L32.0909 27.1908L32.4067 26.4364L31.8503 26.6024ZM54.151 26.4364L54.2262 26.1346L54.7676 26.2704L54.6924 26.5722L54.151 26.4364ZM53.73 25.8479L53.3841 27.1908L53.9255 27.3266L54.0758 26.7231L54.6172 26.8589L54.4668 27.4624L55.0082 27.5982L55.354 26.2553C55.3691 26.1648 55.2789 26.0743 55.1285 26.0441L54.0458 25.7574C54.0007 25.7423 53.9555 25.7423 53.9255 25.7423C53.8202 25.7423 53.745 25.7876 53.73 25.8479ZM35.1736 26.0139L35.7149 25.8932L35.9104 26.8136L35.3691 26.9343L35.1736 26.0139ZM35.9255 25.5461L34.8428 25.7725C34.6924 25.8027 34.5871 25.8932 34.6022 25.9837L34.8578 27.1908C34.8728 27.2814 35.0082 27.3115 35.1586 27.2814L36.2413 27.055C36.3916 27.0249 36.4969 26.9343 36.4819 26.8438L36.2262 25.6367C36.2112 25.5763 36.136 25.5311 36.0307 25.5311C36.0007 25.5311 35.9555 25.5461 35.9255 25.5461ZM38.4368 25.1237L38.6172 26.6627L40.2713 26.4666L40.1961 25.8177L39.6548 25.9234L39.6999 26.2402L39.1435 26.3006L38.9931 25.0633L38.4368 25.1237ZM49.9255 25.3349L50.4819 25.4103L50.3014 26.6476L50.8428 26.7231L51.0232 25.4858L51.5646 25.5612L51.6097 25.2595L49.9555 25.018L49.9255 25.3349ZM46.6774 25.3802L46.6924 25.0633L47.2488 25.0935L47.2337 25.4103L46.6774 25.3802ZM46.151 24.8822L46.0758 26.2704L46.6322 26.3006L46.6623 25.6819L47.2187 25.7121L47.1886 26.3308L47.745 26.3609L47.8202 24.9728C47.8202 24.8822 47.7149 24.8068 47.5495 24.8068L46.4367 24.7464C46.4217 24.7464 46.4217 24.7464 46.4067 24.7464C46.2713 24.7464 46.151 24.8068 46.151 24.8822ZM43.3691 24.7313L42.8879 25.3651H42.8127L42.7977 24.7464L42.2413 24.7615L42.3014 26.3006L42.8578 26.2855L42.8428 25.6669L43.3992 25.6518L43.4142 26.2704L43.9706 26.2553L43.9405 25.4858C43.9405 25.3953 43.8052 25.3349 43.6548 25.3349H43.4593L43.9706 24.7012L43.3691 24.7313Z" fill="white"/>
</mask>
<g mask="url(#mask14_20009_5448)">
<path d="M29.4453 25.2743L51.6107 15.8438L56.6934 27.8545L34.528 37.3001L29.4453 25.2743Z" fill="url(#paint4_linear_20009_5448)"/>
</g>
<mask id="mask15_20009_5448" style="mask-type:luminance" maskUnits="userSpaceOnUse" x="36" y="27" width="19" height="3">
<path d="M43.354 27.266C40.7976 27.3565 38.3013 27.6734 36.0908 28.292L36.0156 28.7145C38.2713 28.1864 40.7074 27.8243 43.3239 27.7488C47.775 27.6281 51.3239 28.2317 54.5269 29.1521L54.6021 28.8352C51.76 27.7488 48.4367 27.2207 44.8277 27.2207C44.3465 27.2358 43.8652 27.2509 43.354 27.266Z" fill="white"/>
</mask>
<g mask="url(#mask15_20009_5448)">
<path d="M35.3242 27.5378L51.7753 20.5215L55.3092 28.8807L38.8581 35.8819L35.3242 27.5378Z" fill="url(#paint5_linear_20009_5448)"/>
</g>
<mask id="mask16_20009_5448" style="mask-type:luminance" maskUnits="userSpaceOnUse" x="33" y="44" width="23" height="10">
<path d="M44.6017 46.0059C38.3159 47.8921 33.8799 50.94 33.7596 51.2569C33.6242 51.5888 33.6693 53.656 33.6693 53.656C33.6693 53.656 36.5866 51.0154 40.6468 48.7219C47.7144 44.7083 55.1881 44.3311 55.1881 44.3311C55.1881 44.3311 55.0378 44.3311 54.7671 44.3311C53.549 44.316 49.7445 44.4518 44.6017 46.0059Z" fill="white"/>
</mask>
<g mask="url(#mask16_20009_5448)">
<path d="M30.2715 45.7335L51.8955 36.5293L58.5271 52.2217L36.9181 61.4259L30.2715 45.7335Z" fill="url(#paint6_linear_20009_5448)"/>
</g>
<mask id="mask17_20009_5448" style="mask-type:luminance" maskUnits="userSpaceOnUse" x="38" y="45" width="15" height="11">
<path d="M41.7606 53.4754C41.0087 52.6908 40.2418 51.5592 40.2418 51.5592C40.2418 51.5592 40.8884 50.8651 41.911 50.1408C42.9937 49.3562 44.0764 48.8432 44.0764 48.8432C44.0764 48.8432 44.1065 50.6689 44.0914 51.9213C44.0764 52.9926 43.9862 55.3314 43.9862 55.3314C43.9862 55.3314 42.6478 54.3808 41.7606 53.4754ZM52.3471 45.584C52.0162 45.584 49.7606 45.6594 45.1741 47.4701C40.1967 49.4316 38.332 51.4535 38.332 51.4535C38.332 51.4535 39.6102 52.9172 41.0087 54.0337C42.3922 55.1503 44.0463 55.8746 44.0463 55.8746C44.0463 55.8746 44.7531 55.3766 45.8959 54.3657C45.8208 54.3204 45.7305 54.2751 45.6403 54.2299C44.9937 53.8678 44.3621 53.7621 44.3621 53.7621C44.3621 53.7621 45.8809 53.3849 46.9636 53.3698L46.9786 53.3547C46.8734 53.3095 46.7681 53.2642 46.6478 53.2189C45.2042 52.6305 44.3922 52.4494 44.3922 52.4494C44.3922 52.4494 47.0839 51.7855 48.4373 51.7855C47.6553 51.5893 47.535 51.5893 47.0388 51.4837C45.7606 51.2423 44.9185 51.0612 44.9185 51.0612C44.9185 51.0612 47.1591 50.6538 49.8358 50.4426C49.4599 50.3219 48.9335 50.2464 48.2719 50.171C46.7531 49.9899 45.4749 49.7787 45.4749 49.7787C45.4749 49.7787 46.723 49.5071 48.4974 49.2657C49.5802 49.1148 50.3771 49.0242 50.9185 48.979C50.5125 48.8884 49.9711 48.7828 49.3847 48.7225C48.1065 48.5867 48.1065 48.5867 46.0914 48.5716C46.0914 48.5716 48.6027 47.4852 51.7606 47.4852C51.3696 47.3645 50.332 47.1985 49.129 47.2136C48.302 47.2287 46.9486 47.289 46.9486 47.289C46.9486 47.289 49.911 46.0517 52.3771 45.6142C52.3922 45.584 52.3771 45.584 52.3471 45.584Z" fill="white"/>
</mask>
<g mask="url(#mask17_20009_5448)">
<path d="M34.6484 47.1542L50.2424 40.5L56.077 54.2912L40.483 60.9303L34.6484 47.1542Z" fill="url(#paint7_linear_20009_5448)"/>
</g>
<mask id="mask18_20009_5448" style="mask-type:luminance" maskUnits="userSpaceOnUse" x="27" y="28" width="32" height="21">
<path d="M32.6162 45.9461C33.4432 45.9913 34.7214 48.4961 38.0447 47.802C34.5109 48.0736 33.5936 45.5688 32.6914 45.5688L32.6162 45.9461ZM38.2252 41.6005C37.5485 41.8872 37.2929 42.1286 37.0071 42.3096L36.932 42.6265C36.932 42.6265 37.1425 42.717 36.8718 43.9543L36.6312 44.9955C36.8568 45.1464 37.759 45.599 38.165 45.7046L38.9771 42.1588C39.0673 41.7815 38.7966 41.5401 38.4808 41.5401C38.3906 41.5401 38.3004 41.5552 38.2252 41.6005ZM30.6162 41.178L29.6838 46.2478C29.8793 46.5647 29.8793 46.5647 30.0447 46.791L31.1425 40.8309C30.9771 40.9366 30.7816 41.0573 30.6162 41.178ZM34.3605 41.2082C34.2252 42.2342 33.6989 42.7925 33.0974 43.1244L33.0372 43.4111C33.8041 43.1395 34.3154 42.5209 34.541 41.7514C34.6011 41.5703 34.6613 41.3741 34.6914 41.178C34.3906 40.8913 33.9094 40.4085 33.6838 40.1218C33.8192 40.5593 34.2703 41.1025 34.3605 41.2082ZM37.4733 41.3892C38.541 40.7857 39.0974 40.9064 39.2026 41.178L39.3229 40.6348C39.3831 40.3934 39.2628 40.1821 38.7966 40.1218C38.4357 40.0765 38.1049 40.0011 37.8041 39.9256L37.4733 41.3892ZM46.2703 40.499C46.4056 40.4688 46.8568 40.2877 47.1124 40.2274L46.9019 41.1629C46.6011 41.2534 46.2703 41.3591 46.0598 41.4496L46.2703 40.499ZM47.744 39.2768C46.4658 39.6389 45.2778 40.0916 44.4658 40.1519L44.3906 40.4839C44.3906 40.4839 44.556 40.9064 44.3455 41.7815L43.6838 44.4674C44.0447 44.4523 44.1801 44.6937 44.2853 44.8597C44.7064 44.739 47.0523 44.0147 47.5034 43.9091L48.15 42.6869C47.9244 42.6718 46.7365 42.9283 45.6237 43.3055L45.8643 42.2493C46.4959 42.023 47.6989 41.9324 48.1951 42.0531L48.6914 39.9256C48.7816 39.488 48.6914 39.1863 48.2402 39.1863C48.1199 39.2014 47.9545 39.2315 47.744 39.2768ZM52.5109 37.6472C52.0147 37.8584 51.4733 38.4318 51.2026 38.7638L51.353 38.0999C50.6312 38.3715 49.9244 38.6129 49.2477 38.8392L49.1726 39.1561C49.1726 39.1561 49.3681 39.3221 49.1274 40.4839L48.3756 43.6978C48.947 43.562 49.7741 43.381 50.15 43.3206L50.9771 39.7295C51.1726 39.5484 51.4883 39.2919 51.8643 39.0354L51.5034 40.5744C51.8342 40.4235 52.5861 40.2727 53.1726 40.167L53.3079 39.6087L53.3831 39.307L53.5184 38.7185C53.6989 37.9641 53.368 37.5416 52.9019 37.5416C52.7665 37.5718 52.6462 37.6019 52.5109 37.6472ZM29.8643 39.3522C28.3756 40.2123 27.5635 41.2987 28.135 42.1889C28.6011 42.9132 29.4733 42.8378 29.7741 42.7774L30.0748 41.3138C29.9696 41.2836 29.729 41.1931 29.8041 40.8913C29.9395 40.3481 31.6838 39.2466 33.1425 38.794C33.4583 39.2919 34.0297 40.0011 34.5861 40.4688C34.7515 40.6197 34.947 40.7404 35.1425 40.8611C35.0372 41.344 34.9019 41.8117 34.6914 42.204C34.3305 42.883 33.729 43.5318 32.7665 43.6375L33.5184 39.654C32.8417 39.9558 32.2102 40.2727 31.6087 40.6046L30.3906 47.1381C30.9169 47.7869 31.3229 48.1943 31.8793 48.481L32.4959 44.9502C33.8944 45.0558 34.947 48.1792 39.4583 47.3342C40.5259 47.1381 41.5184 46.444 42.3154 45.765C41.9094 45.9762 41.3079 46.1573 40.3605 46.3233C38.2252 46.6854 36.8117 45.931 35.8342 45.1614C35.0222 44.5277 34.5259 43.9091 34.1801 43.9091C36.8718 43.3659 36.9771 41.0875 37.2026 40.0765C36.6763 39.9105 36.2553 39.6993 35.9244 39.4579C34.962 38.7336 34.4508 38.1451 34.1049 37.5718C33.1274 37.8584 31.0974 38.6582 29.8643 39.3522ZM33.8944 35.8667C34.4808 36.3948 35.4733 39.0806 38.1951 39.6087C35.5786 38.7638 34.8117 36.1534 33.9846 35.3537L33.8944 35.8667ZM54.7365 40.1067C54.9169 40.3179 55.6237 41.0271 55.368 41.4647C55.2628 41.6457 54.9771 41.525 54.5711 41.4043C54.3004 41.3289 53.9846 41.2534 53.6387 41.2685C53.8793 40.9667 54.135 40.7253 54.7365 40.1067ZM56.0598 37.2096C56.2703 37.0738 56.3756 36.9984 56.7064 36.7117C56.8868 36.772 57.1425 37.2247 57.0523 37.6321C56.7966 37.7076 56.3004 37.9942 55.8041 38.3262L56.0598 37.2096ZM54.0297 37.1191L53.9846 37.4209C53.9846 37.4209 54.2853 37.6019 54.15 38.296L53.8944 39.4428L54.2252 39.7295C54.0297 39.9558 52.932 41.0724 52.7966 41.2383C52.2252 41.2534 51.6237 41.4496 51.4883 41.4949L51.0974 43.1697C51.6688 43.0792 54.1049 42.7472 55.6237 43.1848C55.9545 42.702 56.8117 41.2233 57.1425 40.2877C56.8417 39.6238 56.556 39.1712 56.2102 38.8241C56.6011 38.5073 57.353 38.115 57.744 38.115C58.3004 36.8626 58.4959 35.3386 58.0899 34.2824C57.1425 35.233 55.0071 36.6212 54.0297 37.1191ZM41.0222 32.6377C40.3906 32.864 39.6538 33.2111 39.4282 33.3469L39.5936 32.6679C39.0974 32.9697 38.0147 33.4374 37.4432 33.5732L37.3831 33.8599C37.3831 33.8599 37.6087 33.7241 37.338 35.1274C37.5335 35.5348 38.3756 36.8475 38.5711 37.0738L39.2327 34.2522C39.4132 34.1617 39.6989 34.041 40.0297 33.9203L39.2327 37.4058C39.6538 37.1945 40.5109 36.8475 41.0372 36.6664L41.759 33.2111C41.8493 32.8037 41.5786 32.5774 41.2628 32.5774C41.1726 32.5924 41.0974 32.6075 41.0222 32.6377ZM43.5034 32.3661C43.0523 32.4868 42.4357 32.8188 42.2102 32.9546L42.15 33.2413C42.15 33.2413 42.3004 33.6939 42.0899 34.5691L41.4583 37.5567C41.9395 37.1794 42.7665 36.8173 43.3229 36.6212L44.15 32.9848C44.2553 32.5472 43.9395 32.351 43.6387 32.351C43.6087 32.351 43.5635 32.351 43.5034 32.3661ZM40.6462 44.1052L41.2778 41.4345C41.4583 41.5703 41.7139 41.7966 41.9244 42.023L41.353 44.4372C41.1876 44.3466 40.7214 44.1354 40.6462 44.1052ZM46.5109 32.9244C46.7214 32.8339 46.9921 32.7132 47.3079 32.6226L46.6914 35.2933C46.5259 35.3386 46.15 35.4442 45.9094 35.5197L46.5109 32.9244ZM48.3004 31.4306C47.759 31.491 46.5109 31.7927 44.5861 32.8942L44.5109 33.2111C44.5109 33.2111 44.6613 33.6637 44.4658 34.554L44.0297 36.4401C44.6763 36.2138 45.0673 36.2741 45.2628 36.5608C45.4282 36.4854 45.9996 36.3194 46.4808 36.1836L46.1951 37.2851C45.729 37.6321 45.1876 37.8735 44.6162 38.0395L44.7064 37.6925C44.8267 37.1794 44.3154 36.9984 44.0748 37.0587C43.5786 37.1945 43.0523 37.4209 42.6312 37.6623L42.556 38.0093C42.556 38.0093 42.6162 38.0546 42.6312 38.296C41.8041 38.2809 41.0974 38.1451 40.7665 37.9792L40.9019 37.3002C40.3906 37.4661 39.8041 37.7226 39.4583 37.9188C40.1199 38.462 41.1274 38.975 42.5259 39.141C42.5109 39.2014 42.4959 39.2617 42.4808 39.3372L42.0899 41.0573C41.8944 40.8611 41.7139 40.6951 41.5485 40.5593C41.0974 40.6197 40.0748 41.0271 39.4884 41.3138L39.3981 41.6457C39.3981 41.6457 39.6087 41.8117 39.353 42.9886L38.9169 44.8597C39.4733 44.9653 40.4357 45.6443 40.7064 45.9611C41.0823 45.8103 41.8944 45.5839 42.3756 45.4632C42.5259 45.1765 42.8267 44.8144 43.0372 44.7088L44.3305 39.1561C45.1124 39.0806 45.9696 38.9147 46.9169 38.628C46.947 38.462 47.1124 37.8132 47.6989 37.451L48.962 32.1398C49.0823 31.6268 48.7064 31.4306 48.3756 31.4306C48.3756 31.4155 48.3305 31.4155 48.3004 31.4306ZM31.4883 31.7022L30.2102 38.5525C30.3906 38.462 30.5861 38.3715 30.7816 38.2809L32.0899 31.2948C31.8793 31.4155 31.6688 31.5664 31.4883 31.7022ZM43.0222 30.7214L42.6763 32.185C43.0673 31.9587 44.15 31.5211 44.4508 31.8229L44.6914 30.827C44.7966 30.4197 44.6011 30.2688 44.3004 30.2688C43.8944 30.2537 43.3229 30.5102 43.0222 30.7214ZM55.7891 29.3785C55.353 29.5143 54.6312 29.8915 54.4056 30.0273L54.3305 30.3291C54.3305 30.3291 54.5259 30.4347 54.3906 31.159C54.2853 31.2043 54.2102 31.2646 53.9996 31.3552L53.7741 32.4114C53.9846 32.3359 54.1049 32.2907 54.2252 32.2454C54.0748 32.9244 53.4132 35.5951 53.2477 36.3647C53.5635 36.2741 53.8041 36.4703 53.8793 36.5759C54.9771 35.9874 56.4056 34.9614 57.2778 34.2673C56.5259 34.5389 55.6086 34.72 55.3229 34.7652L56.0147 31.8229C56.2853 31.7776 56.7214 31.7626 57.2177 31.7475C58.0598 31.6871 58.165 31.4004 58.3906 30.1481C57.6538 30.2235 56.962 30.4046 56.2853 30.5856L56.4207 30.0123C56.5259 29.5747 56.2553 29.3333 55.9545 29.3333C55.9094 29.3483 55.8493 29.3634 55.7891 29.3785ZM34.7214 32.004L34.6462 32.3812C37.5034 32.0794 38.6613 30.2084 37.8643 29.2125C38.2853 29.7407 37.5936 31.5664 34.7214 32.004ZM51.2026 29.1673C51.1726 29.1824 51.1425 29.1824 51.1124 29.1975C50.556 29.4087 50.0899 29.6803 49.8793 29.8161L49.8041 30.1179C49.8041 30.1179 49.8643 30.2839 49.8643 30.6007C49.8643 30.812 49.8342 31.0986 49.759 31.4608L48.1801 38.1753L49.9996 37.5567L50.9771 33.3771C51.1876 33.2865 51.4733 33.1658 51.7741 33.0753L50.7966 37.3002L52.5109 36.6815L53.4884 32.4265C53.5034 32.3661 53.5034 32.3208 53.5034 32.2756C53.5034 31.8833 53.0823 31.7324 52.7966 31.8078C52.5109 31.8833 51.9996 32.0342 51.2026 32.3661L51.8041 29.8161C51.8192 29.7557 51.8192 29.7105 51.8192 29.6652C51.8192 29.3333 51.5184 29.1673 51.2929 29.1673C51.2778 29.1371 51.2327 29.1522 51.2026 29.1673ZM38.135 28.8806C38.4808 29.0918 38.7816 29.6501 38.3455 30.6762C37.5184 32.6075 34.7365 32.8188 34.1951 32.849L35.0372 28.5335C34.0297 28.8504 31.7891 29.6501 30.5259 30.3593C29.0071 31.2344 28.1801 32.351 28.7665 33.2564C29.2477 33.9957 30.135 33.9203 30.4357 33.8599L30.7365 32.3661C30.6312 32.3359 30.3906 32.2454 30.4658 31.9285C30.6011 31.3853 31.6688 30.7818 32.7365 30.3291L31.2929 38.0244C31.9696 37.7226 32.7665 37.4209 33.4282 37.2549L33.8192 34.7803C35.0523 35.0821 35.8643 40.6197 41.8793 39.5937C37.5335 39.1561 37.1575 34.9312 35.4282 33.7241C36.8568 33.4223 42.2402 31.9889 41.3981 28.4883C40.2853 28.5637 39.2026 28.6995 38.135 28.8806Z" fill="white"/>
</mask>
<g mask="url(#mask18_20009_5448)">
<path d="M20.375 31.5354L53.7735 17.3066L65.6682 45.4473L32.2848 59.661L20.375 31.5354Z" fill="url(#paint8_linear_20009_5448)"/>
</g>
<mask id="mask19_20009_5448" style="mask-type:luminance" maskUnits="userSpaceOnUse" x="25" y="4" width="36" height="54">
<path d="M60.3009 4.16406H25.9551V57.9407H60.3009V4.16406Z" fill="white"/>
</mask>
<g mask="url(#mask19_20009_5448)">
<path d="M34.3611 10.9089C35.0078 10.6977 35.6694 10.5619 36.3611 10.5166C37.0378 10.4713 37.7145 10.5015 38.3912 10.6373C39.0529 10.758 39.8047 10.9391 40.4213 11.2258C39.8198 10.9089 39.1732 10.6675 38.4965 10.5166C37.8198 10.3657 37.1281 10.3204 36.4514 10.3506C35.7596 10.3959 35.0829 10.5317 34.4213 10.7278C33.7596 10.9391 33.1281 11.2107 32.5416 11.5879L32.4062 11.6784L32.5717 11.7086C33.0378 11.7841 33.504 11.8897 33.9702 12.0104C34.4363 12.1311 34.8875 12.282 35.3235 12.4631C35.7747 12.6441 36.4213 12.9912 36.4213 12.9912C36.4213 12.9912 36.0754 12.7196 35.3536 12.3725C34.9175 12.1613 34.4514 12.0255 33.9852 11.8897C33.5792 11.769 33.1581 11.6784 32.7371 11.603C32.9626 11.4672 33.1581 11.3767 33.4138 11.256C33.7296 11.1503 34.0453 11.0145 34.3611 10.9089Z" fill="#F2C028"/>
</g>
<mask id="mask20_20009_5448" style="mask-type:luminance" maskUnits="userSpaceOnUse" x="25" y="4" width="36" height="54">
<path d="M60.3009 4.16406H25.9551V57.9407H60.3009V4.16406Z" fill="white"/>
</mask>
<g mask="url(#mask20_20009_5448)">
<path d="M30.5273 7.03125C31.0085 7.10669 31.5048 7.30285 31.9409 7.55936C32.1514 7.68007 32.3619 7.83096 32.5574 7.98185C32.6476 8.05729 32.7379 8.14782 32.8281 8.23836C32.9183 8.32889 33.0085 8.40433 33.0988 8.47978C33.2792 8.64576 33.4747 8.78155 33.6852 8.91735C33.8958 9.03806 34.1213 9.14369 34.3469 9.21913C34.5725 9.29457 34.8131 9.35493 35.0537 9.4002C35.2943 9.44546 35.5198 9.46055 35.7604 9.50582C35.5198 9.49073 35.2642 9.47564 35.0236 9.44546C34.783 9.41529 34.5424 9.37002 34.3018 9.30966C34.0612 9.24931 33.8356 9.14369 33.6101 9.02298C33.4146 8.90226 33.204 8.76647 33.0085 8.5854C32.9183 8.50996 32.8281 8.41942 32.7379 8.32889C32.6476 8.23836 32.5574 8.16291 32.4672 8.07238C32.2867 7.9064 32.0913 7.7706 31.8807 7.6348C31.6702 7.499 31.4597 7.39338 31.2341 7.28776C30.9935 7.18214 30.7679 7.09161 30.5273 7.03125Z" fill="#F2C028"/>
</g>
<mask id="mask21_20009_5448" style="mask-type:luminance" maskUnits="userSpaceOnUse" x="25" y="4" width="36" height="54">
<path d="M60.3009 4.16406H25.9551V57.9407H60.3009V4.16406Z" fill="white"/>
</mask>
<g mask="url(#mask21_20009_5448)">
<path d="M39.9258 9.76172C40.2416 9.7919 40.5724 9.86734 40.8731 9.97296C41.1739 10.0786 41.4747 10.2295 41.7604 10.3955C42.031 10.5765 42.3017 10.7727 42.5273 10.999C42.7679 11.2253 42.9634 11.4818 43.1438 11.7534C42.9333 11.512 42.6927 11.2857 42.4521 11.0744C42.2115 10.8632 41.9559 10.6821 41.6852 10.5011C41.4145 10.3351 41.1288 10.1842 40.8431 10.0635C40.5423 9.95787 40.2416 9.83716 39.9258 9.76172Z" fill="#F2C028"/>
</g>
<mask id="mask22_20009_5448" style="mask-type:luminance" maskUnits="userSpaceOnUse" x="25" y="4" width="36" height="54">
<path d="M60.3009 4.16406H25.9551V57.9407H60.3009V4.16406Z" fill="white"/>
</mask>
<g mask="url(#mask22_20009_5448)">
<path d="M38.4668 6.39648C39.1285 6.41157 39.7751 6.53228 40.4066 6.74353C41.0382 6.95477 41.6247 7.25655 42.151 7.69412C42.4066 7.90537 42.6322 8.14679 42.8427 8.41839C43.0382 8.68999 43.2187 8.97667 43.339 9.27845C43.4743 9.58023 43.5645 9.91218 43.6247 10.229C43.6848 10.561 43.7149 10.8779 43.6999 11.2098C43.6698 10.8779 43.5946 10.6515 43.5194 10.3347C43.4442 10.0178 43.339 9.70094 43.2036 9.41425C42.933 8.82579 42.5269 8.29768 42.0307 7.89028C41.5345 7.46779 40.948 7.16601 40.3465 6.93968C40.0457 6.81897 39.73 6.72844 39.4142 6.65299C39.0833 6.57755 38.7976 6.53228 38.4668 6.39648Z" fill="#F2C028"/>
</g>
<mask id="mask23_20009_5448" style="mask-type:luminance" maskUnits="userSpaceOnUse" x="25" y="4" width="36" height="54">
<path d="M60.3009 4.16406H25.9551V57.9407H60.3009V4.16406Z" fill="white"/>
</mask>
<g mask="url(#mask23_20009_5448)">
<path d="M39.6537 7.90629C39.6687 8.13262 39.5334 8.41931 39.368 8.5702C39.1875 8.73617 38.9469 8.81162 38.7214 8.84179C38.4808 8.87197 38.2552 8.84179 38.0146 8.78144C37.789 8.72108 37.5785 8.63055 37.368 8.52493C36.962 8.2986 36.586 8.01191 36.2702 7.67995C35.9544 7.348 35.7138 6.9406 35.4883 6.5332C35.759 6.91042 36.0447 7.25747 36.3755 7.57433C36.7063 7.8912 37.0672 8.1628 37.4582 8.37404C37.6537 8.47966 37.8642 8.5702 38.0747 8.63055C38.2853 8.69091 38.5108 8.72108 38.7364 8.70599C38.962 8.69091 39.1725 8.63055 39.3529 8.49475C39.5334 8.34386 39.6387 8.13262 39.6537 7.90629Z" fill="#F2C028"/>
</g>
<mask id="mask24_20009_5448" style="mask-type:luminance" maskUnits="userSpaceOnUse" x="25" y="4" width="36" height="54">
<path d="M60.3009 4.16406H25.9551V57.9407H60.3009V4.16406Z" fill="white"/>
</mask>
<g mask="url(#mask24_20009_5448)">
<path d="M31.3086 8.69141C31.9853 8.72158 32.3763 9.14407 32.6319 9.47603C33.053 10.0192 33.7447 10.0796 34.0003 10.0494C33.4139 10.1248 32.8575 10.0343 32.5868 9.67218C32.2409 9.21952 31.9101 8.88756 31.3086 8.69141Z" fill="#F2C028"/>
</g>
<mask id="mask25_20009_5448" style="mask-type:luminance" maskUnits="userSpaceOnUse" x="25" y="4" width="36" height="54">
<path d="M60.3009 4.16406H25.9551V57.9407H60.3009V4.16406Z" fill="white"/>
</mask>
<g mask="url(#mask25_20009_5448)">
<path d="M30.8418 10.7119C31.5335 10.8175 31.8794 10.3347 31.9395 10.2441C31.9245 10.3498 31.8192 10.5459 31.7441 10.6364C31.6087 10.7722 31.4734 10.8326 31.2177 10.8326C31.0523 10.8326 30.9471 10.7722 30.8418 10.7119Z" fill="#F2C028"/>
</g>
<mask id="mask26_20009_5448" style="mask-type:luminance" maskUnits="userSpaceOnUse" x="25" y="4" width="36" height="54">
<path d="M60.3009 4.16406H25.9551V57.9407H60.3009V4.16406Z" fill="white"/>
</mask>
<g mask="url(#mask26_20009_5448)">
<path d="M35.1875 13.293C35.383 13.3684 35.5634 13.4589 35.7439 13.5646C35.9243 13.6702 36.1048 13.7758 36.2702 13.8965C36.4356 14.0172 36.601 14.153 36.7514 14.3039C36.9018 14.4548 37.0371 14.6057 37.1424 14.7868C36.992 14.6359 36.8416 14.5001 36.6762 14.3794C36.5108 14.2587 36.3604 14.1229 36.195 14.0021C35.8642 13.7607 35.5183 13.5344 35.1875 13.293Z" fill="#F2C028"/>
</g>
<mask id="mask27_20009_5448" style="mask-type:luminance" maskUnits="userSpaceOnUse" x="25" y="4" width="36" height="54">
<path d="M60.3009 4.16406H25.9551V57.9407H60.3009V4.16406Z" fill="white"/>
</mask>
<g mask="url(#mask27_20009_5448)">
<path d="M34.0742 14.982C34.2246 15.1479 34.405 15.2837 34.6005 15.3592C34.796 15.4497 35.0065 15.4799 35.2171 15.4497C35.4276 15.4346 35.6081 15.329 35.7133 15.1479C35.8186 14.9669 35.8637 14.7556 35.8787 14.5293C35.9238 14.7405 35.9088 14.982 35.8035 15.1932C35.7434 15.2988 35.6682 15.3894 35.5629 15.4648C35.4577 15.5252 35.3374 15.5704 35.2321 15.5855C35.0065 15.6157 34.7659 15.5704 34.5554 15.4648C34.3449 15.3441 34.1795 15.1781 34.0742 14.982Z" fill="#F2C028"/>
</g>
<mask id="mask28_20009_5448" style="mask-type:luminance" maskUnits="userSpaceOnUse" x="25" y="4" width="36" height="54">
<path d="M60.3009 4.16406H25.9551V57.9407H60.3009V4.16406Z" fill="white"/>
</mask>
<g mask="url(#mask28_20009_5448)">
<path d="M39.0384 51.7246C42.452 48.7219 46.6324 47.1074 46.6324 47.1074C41.2189 48.9332 38.7227 51.4228 38.7227 51.4228L39.0384 51.7246Z" fill="#3A225D"/>
</g>
<mask id="mask29_20009_5448" style="mask-type:luminance" maskUnits="userSpaceOnUse" x="25" y="4" width="36" height="54">
<path d="M60.3009 4.16406H25.9551V57.9407H60.3009V4.16406Z" fill="white"/>
</mask>
<g mask="url(#mask29_20009_5448)">
<path d="M52.3299 36.4853L53.2772 32.4113C53.3073 32.2906 53.2923 32.2001 53.2321 32.1397C53.1569 32.0492 53.0216 32.0039 52.9163 32.0039C53.0216 32.1095 53.0667 32.2604 53.0216 32.4717L52.0742 36.5758L52.3299 36.4853Z" fill="#3A225D"/>
</g>
<mask id="mask30_20009_5448" style="mask-type:luminance" maskUnits="userSpaceOnUse" x="25" y="4" width="36" height="54">
<path d="M60.3009 4.16406H25.9551V57.9407H60.3009V4.16406Z" fill="white"/>
</mask>
<g mask="url(#mask30_20009_5448)">
<path d="M39.0982 40.5726C39.1283 40.4217 39.023 40.3764 38.9027 40.3613L38.8125 40.7536C38.9328 40.7385 39.008 40.7687 39.0381 40.7989L39.0982 40.5726Z" fill="#3A225D"/>
</g>
<mask id="mask31_20009_5448" style="mask-type:luminance" maskUnits="userSpaceOnUse" x="25" y="4" width="36" height="54">
<path d="M60.3009 4.16406H25.9551V57.9407H60.3009V4.16406Z" fill="white"/>
</mask>
<g mask="url(#mask31_20009_5448)">
<path d="M55.5799 37.3135L55.3242 38.4603C55.4144 38.415 55.4896 38.3547 55.5949 38.3245L55.8656 37.1777L55.5799 37.3135Z" fill="#3A225D"/>
</g>
<mask id="mask32_20009_5448" style="mask-type:luminance" maskUnits="userSpaceOnUse" x="25" y="4" width="36" height="54">
<path d="M60.3009 4.16406H25.9551V57.9407H60.3009V4.16406Z" fill="white"/>
</mask>
<g mask="url(#mask32_20009_5448)">
<path d="M29.8041 41.4784C29.5334 41.3577 29.5184 41.0861 29.5635 40.8899C29.6687 40.4373 30.2552 39.9695 31.368 39.4414C30.3755 39.8941 29.4732 40.3618 29.3229 40.9503C29.2326 41.3124 29.3379 41.6444 29.7589 41.75L29.8041 41.4784Z" fill="#3A225D"/>
</g>
<mask id="mask33_20009_5448" style="mask-type:luminance" maskUnits="userSpaceOnUse" x="25" y="4" width="36" height="54">
<path d="M60.3009 4.16406H25.9551V57.9407H60.3009V4.16406Z" fill="white"/>
</mask>
<g mask="url(#mask33_20009_5448)">
<path d="M47.0371 43.818C47.1273 43.8029 47.2928 43.7425 47.3228 43.7425C47.4582 43.4408 47.6386 43.1541 47.7439 42.9277C47.6687 42.9428 47.6236 42.9579 47.5334 42.973C47.3529 43.2144 47.1724 43.5313 47.0371 43.818Z" fill="#3A225D"/>
</g>
<mask id="mask34_20009_5448" style="mask-type:luminance" maskUnits="userSpaceOnUse" x="25" y="4" width="36" height="54">
<path d="M60.3009 4.16406H25.9551V57.9407H60.3009V4.16406Z" fill="white"/>
</mask>
<g mask="url(#mask34_20009_5448)">
<path d="M45.5781 41.6003C45.6533 41.5701 45.7285 41.5399 45.8187 41.5097L46.0293 40.5742C45.9541 40.5893 45.8789 40.6044 45.8037 40.6346L45.5781 41.6003Z" fill="#3A225D"/>
</g>
<mask id="mask35_20009_5448" style="mask-type:luminance" maskUnits="userSpaceOnUse" x="25" y="4" width="36" height="54">
<path d="M60.3009 4.16406H25.9551V57.9407H60.3009V4.16406Z" fill="white"/>
</mask>
<g mask="url(#mask35_20009_5448)">
<path d="M48.1804 39.3965C48.1504 39.3965 48.1353 39.3965 48.1203 39.3965H48.1052C48.2406 39.487 48.3158 39.653 48.2707 39.8793L47.8496 41.7353C47.9248 41.7353 48 41.7503 48.0601 41.7503L48.5263 39.7586C48.5413 39.6681 48.5413 39.5926 48.4812 39.5323C48.406 39.4568 48.2707 39.3965 48.1804 39.3965Z" fill="#3A225D"/>
</g>
<mask id="mask36_20009_5448" style="mask-type:luminance" maskUnits="userSpaceOnUse" x="25" y="4" width="36" height="54">
<path d="M60.3009 4.16406H25.9551V57.9407H60.3009V4.16406Z" fill="white"/>
</mask>
<g mask="url(#mask36_20009_5448)">
<path d="M50.7667 33.3164C50.6765 33.3617 50.5862 33.3918 50.511 33.422L49.5938 37.4206L49.8344 37.33L50.7667 33.3164Z" fill="#3A225D"/>
</g>
<mask id="mask37_20009_5448" style="mask-type:luminance" maskUnits="userSpaceOnUse" x="25" y="4" width="36" height="54">
<path d="M60.3009 4.16406H25.9551V57.9407H60.3009V4.16406Z" fill="white"/>
</mask>
<g mask="url(#mask37_20009_5448)">
<path d="M43.9542 32.9987C44.0294 32.6366 43.7286 32.531 43.5933 32.5763C43.7136 32.6517 43.7587 32.8328 43.7136 33.0591L42.9316 36.4541C43.0068 36.4239 43.0971 36.3937 43.1722 36.3786L43.9542 32.9987Z" fill="#3A225D"/>
</g>
<mask id="mask38_20009_5448" style="mask-type:luminance" maskUnits="userSpaceOnUse" x="25" y="4" width="36" height="54">
<path d="M60.3009 4.16406H25.9551V57.9407H60.3009V4.16406Z" fill="white"/>
</mask>
<g mask="url(#mask38_20009_5448)">
<path d="M45.1582 43.4708C45.2334 43.4406 45.3086 43.4104 45.3838 43.3802L45.6394 42.2637C45.5642 42.2788 45.489 42.3089 45.4138 42.324L45.1582 43.4708Z" fill="#3A225D"/>
</g>
<mask id="mask39_20009_5448" style="mask-type:luminance" maskUnits="userSpaceOnUse" x="25" y="4" width="36" height="54">
<path d="M60.3009 4.16406H25.9551V57.9407H60.3009V4.16406Z" fill="white"/>
</mask>
<g mask="url(#mask39_20009_5448)">
<path d="M51.2783 29.377C51.3535 29.4826 51.3986 29.6335 51.3535 29.8296L50.752 32.4098C50.8422 32.3645 50.9324 32.3344 51.0076 32.2891L51.5941 29.7994C51.6241 29.6787 51.6091 29.5882 51.5489 29.5128C51.4888 29.4222 51.3535 29.377 51.2783 29.377Z" fill="#3A225D"/>
</g>
<mask id="mask40_20009_5448" style="mask-type:luminance" maskUnits="userSpaceOnUse" x="25" y="4" width="36" height="54">
<path d="M60.3009 4.16406H25.9551V57.9407H60.3009V4.16406Z" fill="white"/>
</mask>
<g mask="url(#mask40_20009_5448)">
<path d="M44.4816 30.7502C44.5417 30.4937 44.3914 30.4484 44.3011 30.4635L44.0605 31.4896C44.1508 31.4745 44.241 31.4896 44.2861 31.5197L44.4816 30.7502Z" fill="#3A225D"/>
</g>
<mask id="mask41_20009_5448" style="mask-type:luminance" maskUnits="userSpaceOnUse" x="25" y="4" width="36" height="54">
<path d="M60.3009 4.16406H25.9551V57.9407H60.3009V4.16406Z" fill="white"/>
</mask>
<g mask="url(#mask41_20009_5448)">
<path d="M52.7826 40.0154C52.8578 40.0003 52.948 39.9852 53.0082 39.9702L53.2939 38.748C53.3691 38.4462 53.3691 37.7219 52.7676 37.8125C53.1285 37.8728 53.1736 38.2953 53.0533 38.8536L52.918 39.4421L52.7826 40.0154Z" fill="#3A225D"/>
</g>
<mask id="mask42_20009_5448" style="mask-type:luminance" maskUnits="userSpaceOnUse" x="25" y="4" width="36" height="54">
<path d="M60.3009 4.16406H25.9551V57.9407H60.3009V4.16406Z" fill="white"/>
</mask>
<g mask="url(#mask42_20009_5448)">
<path d="M49.7441 43.1683C49.8043 43.1532 49.8945 43.123 49.9697 43.1079L50.7216 39.8789C50.6013 39.9845 50.496 40.0751 50.4058 40.1505L49.7441 43.1683Z" fill="#3A225D"/>
</g>
<mask id="mask43_20009_5448" style="mask-type:luminance" maskUnits="userSpaceOnUse" x="25" y="4" width="36" height="54">
<path d="M60.3009 4.16406H25.9551V57.9407H60.3009V4.16406Z" fill="white"/>
</mask>
<g mask="url(#mask43_20009_5448)">
<path d="M50.7363 38.898C50.8266 38.7773 50.9318 38.6566 51.0371 38.5358L51.0521 38.4453C50.9769 38.4755 50.8867 38.5057 50.8115 38.5358L50.7363 38.898Z" fill="#3A225D"/>
</g>
<mask id="mask44_20009_5448" style="mask-type:luminance" maskUnits="userSpaceOnUse" x="25" y="4" width="36" height="54">
<path d="M60.3009 4.16406H25.9551V57.9407H60.3009V4.16406Z" fill="white"/>
</mask>
<g mask="url(#mask44_20009_5448)">
<path d="M39.0075 34.2207C38.9023 34.266 38.8271 34.3112 38.7519 34.3414L38.3008 36.1219C38.3609 36.1973 38.406 36.2879 38.4662 36.3633L39.0075 34.2207Z" fill="#3A225D"/>
</g>
<mask id="mask45_20009_5448" style="mask-type:luminance" maskUnits="userSpaceOnUse" x="25" y="4" width="36" height="54">
<path d="M60.3009 4.16406H25.9551V57.9407H60.3009V4.16406Z" fill="white"/>
</mask>
<g mask="url(#mask45_20009_5448)">
<path d="M34.7681 28.8496C34.6929 28.8798 34.6026 28.91 34.5124 28.9401L33.7305 32.9236C33.8057 32.9236 33.8808 32.9085 33.9711 32.9085L34.7681 28.8496Z" fill="#3A225D"/>
</g>
<mask id="mask46_20009_5448" style="mask-type:luminance" maskUnits="userSpaceOnUse" x="25" y="4" width="36" height="54">
<path d="M60.3009 4.16406H25.9551V57.9407H60.3009V4.16406Z" fill="white"/>
</mask>
<g mask="url(#mask46_20009_5448)">
<path d="M35.7305 42.9432C36.5124 42.3397 36.7079 41.208 36.9335 40.2273C36.8733 40.2122 36.7831 40.1669 36.7229 40.1367C36.4974 41.1024 36.2568 42.4 35.7305 42.9432Z" fill="#3A225D"/>
</g>
<mask id="mask47_20009_5448" style="mask-type:luminance" maskUnits="userSpaceOnUse" x="25" y="4" width="36" height="54">
<path d="M60.3009 4.16406H25.9551V57.9407H60.3009V4.16406Z" fill="white"/>
</mask>
<g mask="url(#mask47_20009_5448)">
<path d="M39.2781 33.1035C39.1879 33.1337 39.0976 33.179 39.0225 33.2242L38.9473 33.5562C39.0074 33.526 39.1277 33.4807 39.2179 33.4355L39.2781 33.1035Z" fill="#3A225D"/>
</g>
<mask id="mask48_20009_5448" style="mask-type:luminance" maskUnits="userSpaceOnUse" x="25" y="4" width="36" height="54">
<path d="M60.3009 4.16406H25.9551V57.9407H60.3009V4.16406Z" fill="white"/>
</mask>
<g mask="url(#mask48_20009_5448)">
<path d="M36.2697 39.9406C35.4576 39.5181 34.3749 38.4468 33.984 37.8281C33.9238 37.8432 33.8336 37.8885 33.7734 37.9036C34.1043 38.4166 35.1419 39.503 36.2697 39.9406Z" fill="#3A225D"/>
</g>
<mask id="mask49_20009_5448" style="mask-type:luminance" maskUnits="userSpaceOnUse" x="25" y="4" width="36" height="54">
<path d="M60.3009 4.16406H25.9551V57.9407H60.3009V4.16406Z" fill="white"/>
</mask>
<g mask="url(#mask49_20009_5448)">
<path d="M30.4968 32.5315C30.2262 32.4108 30.2111 32.1392 30.2562 31.9279C30.3615 31.4753 30.963 30.9773 32.0908 30.4492C31.0833 30.9019 30.151 31.3998 30.0006 31.9883C29.9104 32.3504 30.0156 32.6975 30.4367 32.8031L30.4968 32.5315Z" fill="#3A225D"/>
</g>
<mask id="mask50_20009_5448" style="mask-type:luminance" maskUnits="userSpaceOnUse" x="25" y="4" width="36" height="54">
<path d="M60.3009 4.16406H25.9551V57.9407H60.3009V4.16406Z" fill="white"/>
</mask>
<g mask="url(#mask50_20009_5448)">
<path d="M38.406 41.7812C38.3759 41.7812 38.3308 41.7813 38.3007 41.7963C38.4511 41.902 38.5564 42.083 38.4962 42.3094L37.8496 45.1461C37.9098 45.1762 38.0451 45.2064 38.0451 45.2064L38.7519 42.1585C38.7819 42.0528 38.7669 41.9774 38.7068 41.902C38.6466 41.8416 38.5263 41.7812 38.406 41.7812Z" fill="#3A225D"/>
</g>
<mask id="mask51_20009_5448" style="mask-type:luminance" maskUnits="userSpaceOnUse" x="25" y="4" width="36" height="54">
<path d="M60.3009 4.16406H25.9551V57.9407H60.3009V4.16406Z" fill="white"/>
</mask>
<g mask="url(#mask51_20009_5448)">
<path d="M31.5781 47.9212C31.6383 47.9665 31.6984 48.0117 31.7435 48.0419L32.315 44.9336C32.2548 44.9336 32.1947 44.9336 32.1195 44.9487L31.5781 47.9212Z" fill="#3A225D"/>
</g>
<mask id="mask52_20009_5448" style="mask-type:luminance" maskUnits="userSpaceOnUse" x="25" y="4" width="36" height="54">
<path d="M60.3009 4.16406H25.9551V57.9407H60.3009V4.16406Z" fill="white"/>
</mask>
<g mask="url(#mask52_20009_5448)">
<path d="M33.3976 34.6289L32.9766 37.1487C33.0668 37.1186 33.1119 37.1035 33.2172 37.0884L33.6232 34.6742C33.548 34.644 33.4728 34.644 33.3976 34.6289Z" fill="#3A225D"/>
</g>
<mask id="mask53_20009_5448" style="mask-type:luminance" maskUnits="userSpaceOnUse" x="25" y="4" width="36" height="54">
<path d="M60.3009 4.16406H25.9551V57.9407H60.3009V4.16406Z" fill="white"/>
</mask>
<g mask="url(#mask53_20009_5448)">
<path d="M32.3457 43.7882C32.4059 43.7731 32.481 43.7731 32.5412 43.758L33.263 39.9707C33.1878 40.0009 33.1126 40.0461 33.0374 40.0763L32.3457 43.7882Z" fill="#3A225D"/>
</g>
<mask id="mask54_20009_5448" style="mask-type:luminance" maskUnits="userSpaceOnUse" x="25" y="4" width="36" height="54">
<path d="M60.3009 4.16406H25.9551V57.9407H60.3009V4.16406Z" fill="white"/>
</mask>
<g mask="url(#mask54_20009_5448)">
<path d="M41.5183 33.3302C41.5784 32.9982 41.428 32.787 41.1724 32.8323C41.2777 32.9379 41.3378 33.0888 41.2777 33.3L40.5859 36.5592C40.6762 36.529 40.7514 36.4838 40.8416 36.4536L41.5183 33.3302Z" fill="#3A225D"/>
</g>
<mask id="mask55_20009_5448" style="mask-type:luminance" maskUnits="userSpaceOnUse" x="25" y="4" width="36" height="54">
<path d="M60.3009 4.16406H25.9551V57.9407H60.3009V4.16406Z" fill="white"/>
</mask>
<g mask="url(#mask55_20009_5448)">
<path d="M54.8574 34.8704C54.9326 34.8553 55.0078 34.8402 55.098 34.8251L55.7898 31.8828C55.7146 31.8979 55.6243 31.8979 55.5492 31.913L54.8574 34.8704Z" fill="#3A225D"/>
</g>
<mask id="mask56_20009_5448" style="mask-type:luminance" maskUnits="userSpaceOnUse" x="25" y="4" width="36" height="54">
<path d="M60.3009 4.16406H25.9551V57.9407H60.3009V4.16406Z" fill="white"/>
</mask>
<g mask="url(#mask56_20009_5448)">
<path d="M56.1658 30.0421C56.271 29.6196 55.9101 29.5592 55.8049 29.6045C55.9252 29.6498 55.9553 29.8761 55.9101 30.0873L55.7598 30.7361C55.85 30.7211 55.9252 30.706 56.0154 30.6758L56.1658 30.0421Z" fill="#3A225D"/>
</g>
<mask id="mask57_20009_5448" style="mask-type:luminance" maskUnits="userSpaceOnUse" x="25" y="4" width="36" height="54">
<path d="M60.3009 4.16406H25.9551V57.9407H60.3009V4.16406Z" fill="white"/>
</mask>
<g mask="url(#mask57_20009_5448)">
<path d="M39.248 31.8377C40.4059 31.1134 41.233 30.1477 41.0375 28.6992L40.7819 28.7143C40.842 29.2122 40.8871 30.6457 39.248 31.8377Z" fill="#3A225D"/>
</g>
<mask id="mask58_20009_5448" style="mask-type:luminance" maskUnits="userSpaceOnUse" x="25" y="4" width="36" height="54">
<path d="M60.3009 4.16406H25.9551V57.9407H60.3009V4.16406Z" fill="white"/>
</mask>
<g mask="url(#mask58_20009_5448)">
<path d="M33.6387 44.1648C34.4507 44.3459 36.0146 47.0468 38.6913 46.6092C35.9695 46.7148 34.5409 44.0592 33.8793 44.0743L33.6387 44.1648Z" fill="#3A225D"/>
</g>
<mask id="mask59_20009_5448" style="mask-type:luminance" maskUnits="userSpaceOnUse" x="25" y="4" width="36" height="54">
<path d="M60.3009 4.16406H25.9551V57.9407H60.3009V4.16406Z" fill="white"/>
</mask>
<g mask="url(#mask59_20009_5448)">
<path d="M35.1129 33.7832L34.752 33.8285C35.8948 34.3113 37.3234 38.7927 40.0903 39.3812C37.3083 38.3702 36.3309 34.6282 35.1129 33.7832Z" fill="#3A225D"/>
</g>
<mask id="mask60_20009_5448" style="mask-type:luminance" maskUnits="userSpaceOnUse" x="25" y="4" width="36" height="54">
<path d="M60.3009 4.16406H25.9551V57.9407H60.3009V4.16406Z" fill="white"/>
</mask>
<g mask="url(#mask60_20009_5448)">
<path d="M54.9768 41.7812C53.428 41.2833 52.1197 41.57 51.7437 41.6605L51.6836 41.9019C52.2099 41.736 53.3377 41.4945 54.9768 41.7812Z" fill="#3A225D"/>
</g>
<mask id="mask61_20009_5448" style="mask-type:luminance" maskUnits="userSpaceOnUse" x="25" y="4" width="36" height="54">
<path d="M60.3009 4.16406H25.9551V57.9407H60.3009V4.16406Z" fill="white"/>
</mask>
<g mask="url(#mask61_20009_5448)">
<path d="M40.3916 44.2846C40.4818 44.3299 40.7224 44.4204 40.9029 44.5109L40.8728 44.6618C40.6923 44.5713 40.2562 44.3751 40.166 44.345L40.9029 41.1914C40.963 41.2367 41.0232 41.2819 41.0833 41.3423L40.3916 44.2846Z" fill="#3A225D"/>
</g>
<mask id="mask62_20009_5448" style="mask-type:luminance" maskUnits="userSpaceOnUse" x="25" y="4" width="36" height="54">
<path d="M60.3009 4.16406H25.9551V57.9407H60.3009V4.16406Z" fill="white"/>
</mask>
<g mask="url(#mask62_20009_5448)">
<path d="M44.1202 37.2695C44.1051 37.2695 44.0901 37.2695 44.0751 37.2695C44.2104 37.3752 44.2856 37.5411 44.2254 37.7826L42.6465 44.6178C42.7217 44.5423 42.8119 44.482 42.9021 44.4518L44.4811 37.692C44.5111 37.5713 44.4961 37.4808 44.436 37.4204C44.3457 37.3148 44.2104 37.2695 44.1202 37.2695Z" fill="#3A225D"/>
</g>
<mask id="mask63_20009_5448" style="mask-type:luminance" maskUnits="userSpaceOnUse" x="25" y="4" width="36" height="54">
<path d="M60.3009 4.16406H25.9551V57.9407H60.3009V4.16406Z" fill="white"/>
</mask>
<g mask="url(#mask63_20009_5448)">
<path d="M45.6853 35.5631L46.2868 32.998C46.2267 33.0131 46.1214 33.0735 46.0312 33.1037L45.4297 35.6688C45.5049 35.6386 45.5951 35.5933 45.6853 35.5631Z" fill="#3A225D"/>
</g>
<mask id="mask64_20009_5448" style="mask-type:luminance" maskUnits="userSpaceOnUse" x="25" y="4" width="36" height="54">
<path d="M60.3009 4.16406H25.9551V57.9407H60.3009V4.16406Z" fill="white"/>
</mask>
<g mask="url(#mask64_20009_5448)">
<path d="M41.293 40.8592C41.3982 40.9497 41.5185 41.0704 41.6388 41.1911L41.6839 40.9799C41.6238 40.9195 41.5486 40.8592 41.4734 40.7988C41.4133 40.829 41.3531 40.8441 41.293 40.8592Z" fill="#3A225D"/>
</g>
<mask id="mask65_20009_5448" style="mask-type:luminance" maskUnits="userSpaceOnUse" x="25" y="4" width="36" height="54">
<path d="M60.3009 4.16406H25.9551V57.9407H60.3009V4.16406Z" fill="white"/>
</mask>
<g mask="url(#mask65_20009_5448)">
<path d="M48.7679 32.1391C48.798 32.0033 48.783 31.8826 48.7228 31.8071C48.6476 31.7015 48.5123 31.6562 48.407 31.6562C48.5273 31.777 48.5875 31.9429 48.5273 32.1994L47.2792 37.4956C46.8281 37.722 46.6176 38.2953 46.5273 38.5669C46.6025 38.5518 46.6777 38.5368 46.7529 38.5217C46.8281 38.2501 47.0236 37.722 47.5198 37.39L48.7679 32.1391Z" fill="#3A225D"/>
</g>
<mask id="mask66_20009_5448" style="mask-type:luminance" maskUnits="userSpaceOnUse" x="25" y="4" width="36" height="54">
<path d="M60.3009 4.16406H25.9551V57.9407H60.3009V4.16406Z" fill="white"/>
</mask>
<g mask="url(#mask66_20009_5448)">
<path d="M55.5801 42.837C55.956 42.2334 56.6026 41.1018 56.9034 40.2719C56.6929 39.8343 56.3019 39.1855 56.0312 38.8535L55.8357 39.0044C56.0613 39.2609 56.4974 39.9399 56.6778 40.3171C56.3921 41.1168 55.8207 42.4145 55.5801 42.837Z" fill="#3A225D"/>
</g>
<mask id="mask67_20009_5448" style="mask-type:luminance" maskUnits="userSpaceOnUse" x="25" y="4" width="36" height="54">
<path d="M60.3009 4.16406H25.9551V57.9407H60.3009V4.16406Z" fill="white"/>
</mask>
<g mask="url(#mask67_20009_5448)">
<path d="M57.7441 37.7207C57.9396 37.2077 58.3156 35.5932 58.0449 34.8086L57.8043 35.0198C57.9697 35.2462 58.0148 36.7249 57.7441 37.7207Z" fill="#3A225D"/>
</g>
<mask id="mask68_20009_5448" style="mask-type:luminance" maskUnits="userSpaceOnUse" x="25" y="4" width="36" height="54">
<path d="M60.3009 4.16406H25.9551V57.9407H60.3009V4.16406Z" fill="white"/>
</mask>
<g mask="url(#mask68_20009_5448)">
<path d="M57.8642 30.4945L57.6387 31.3847C57.7139 31.3847 57.9094 31.2942 57.9996 30.9321L58.1199 30.4492C58.0447 30.4643 57.9093 30.4945 57.8642 30.4945Z" fill="#3A225D"/>
</g>
<defs>
<linearGradient id="paint0_linear_20009_5448" x1="23.9998" y1="39.1963" x2="58.7266" y2="24.5057" gradientUnits="userSpaceOnUse">
<stop stop-color="#F2C028"/>
<stop offset="0.0675" stop-color="#F2C028"/>
<stop offset="0.1091" stop-color="#F2C12C"/>
<stop offset="0.1458" stop-color="#F3C636"/>
<stop offset="0.1808" stop-color="#F5CE48"/>
<stop offset="0.2146" stop-color="#F8D962"/>
<stop offset="0.2476" stop-color="#FBE783"/>
<stop offset="0.2796" stop-color="#FFF7AA"/>
<stop offset="0.2822" stop-color="#FFF9AE"/>
<stop offset="0.4094" stop-color="#FAE278"/>
<stop offset="0.5282" stop-color="#F6D04D"/>
<stop offset="0.6204" stop-color="#F3C432"/>
<stop offset="0.6748" stop-color="#F2C028"/>
<stop offset="0.7034" stop-color="#F4C739"/>
<stop offset="0.76" stop-color="#F8DA65"/>
<stop offset="0.8387" stop-color="#FFF8AC"/>
<stop offset="0.8405" stop-color="#FFF9AE"/>
<stop offset="0.8581" stop-color="#FCEE94"/>
<stop offset="0.8879" stop-color="#F9DD6D"/>
<stop offset="0.9174" stop-color="#F6D14F"/>
<stop offset="0.9462" stop-color="#F4C739"/>
<stop offset="0.9741" stop-color="#F2C22C"/>
<stop offset="1" stop-color="#F2C028"/>
</linearGradient>
<linearGradient id="paint1_linear_20009_5448" x1="39.0622" y1="15.8501" x2="43.9187" y2="14.0492" gradientUnits="userSpaceOnUse">
<stop stop-color="#3A225D"/>
<stop offset="0.15" stop-color="#3A225D"/>
<stop offset="0.3699" stop-color="#584373"/>
<stop offset="0.5" stop-color="#65527D"/>
<stop offset="0.5949" stop-color="#604D7A"/>
<stop offset="0.7086" stop-color="#533E70"/>
<stop offset="0.8316" stop-color="#3E2660"/>
<stop offset="0.85" stop-color="#3A225D"/>
<stop offset="1" stop-color="#3A225D"/>
</linearGradient>
<linearGradient id="paint2_linear_20009_5448" x1="40.4838" y1="19.7143" x2="45.3412" y2="17.913" gradientUnits="userSpaceOnUse">
<stop stop-color="#3A225D"/>
<stop offset="0.15" stop-color="#3A225D"/>
<stop offset="0.3699" stop-color="#584373"/>
<stop offset="0.5" stop-color="#65527D"/>
<stop offset="0.5949" stop-color="#604D7A"/>
<stop offset="0.7086" stop-color="#533E70"/>
<stop offset="0.8316" stop-color="#3E2660"/>
<stop offset="0.85" stop-color="#3A225D"/>
<stop offset="1" stop-color="#3A225D"/>
</linearGradient>
<linearGradient id="paint3_linear_20009_5448" x1="41.6128" y1="22.7355" x2="46.4699" y2="20.9344" gradientUnits="userSpaceOnUse">
<stop stop-color="#3A225D"/>
<stop offset="0.15" stop-color="#3A225D"/>
<stop offset="0.3699" stop-color="#584373"/>
<stop offset="0.5" stop-color="#65527D"/>
<stop offset="0.5949" stop-color="#604D7A"/>
<stop offset="0.7086" stop-color="#533E70"/>
<stop offset="0.8316" stop-color="#3E2660"/>
<stop offset="0.85" stop-color="#3A225D"/>
<stop offset="1" stop-color="#3A225D"/>
</linearGradient>
<linearGradient id="paint4_linear_20009_5448" x1="32.3795" y1="31.1183" x2="53.5991" y2="22.1417" gradientUnits="userSpaceOnUse">
<stop stop-color="#F2C028"/>
<stop offset="0.0675" stop-color="#F2C028"/>
<stop offset="0.1091" stop-color="#F2C12C"/>
<stop offset="0.1458" stop-color="#F3C636"/>
<stop offset="0.1808" stop-color="#F5CE48"/>
<stop offset="0.2146" stop-color="#F8D962"/>
<stop offset="0.2476" stop-color="#FBE783"/>
<stop offset="0.2796" stop-color="#FFF7AA"/>
<stop offset="0.2822" stop-color="#FFF9AE"/>
<stop offset="0.3637" stop-color="#FAE278"/>
<stop offset="0.4398" stop-color="#F6D04D"/>
<stop offset="0.4989" stop-color="#F3C432"/>
<stop offset="0.5337" stop-color="#F2C028"/>
<stop offset="0.7618" stop-color="#FFF8AB"/>
<stop offset="0.7669" stop-color="#FFF9AE"/>
<stop offset="0.8891" stop-color="#F8DC6A"/>
<stop offset="1" stop-color="#F2C028"/>
</linearGradient>
<linearGradient id="paint5_linear_20009_5448" x1="37.2506" y1="31.6419" x2="52.978" y2="24.9887" gradientUnits="userSpaceOnUse">
<stop stop-color="#F2C028"/>
<stop offset="0.0675" stop-color="#F2C028"/>
<stop offset="0.096" stop-color="#F2C12C"/>
<stop offset="0.1212" stop-color="#F3C636"/>
<stop offset="0.1452" stop-color="#F5CE48"/>
<stop offset="0.1683" stop-color="#F8D962"/>
<stop offset="0.191" stop-color="#FBE783"/>
<stop offset="0.2129" stop-color="#FFF7AA"/>
<stop offset="0.2147" stop-color="#FFF9AE"/>
<stop offset="0.2803" stop-color="#FAE278"/>
<stop offset="0.3416" stop-color="#F6D04D"/>
<stop offset="0.3891" stop-color="#F3C432"/>
<stop offset="0.4172" stop-color="#F2C028"/>
<stop offset="0.5792" stop-color="#FFF8AB"/>
<stop offset="0.5828" stop-color="#FFF9AE"/>
<stop offset="0.7598" stop-color="#F8DC6A"/>
<stop offset="0.9202" stop-color="#F2C028"/>
<stop offset="1" stop-color="#F2C028"/>
</linearGradient>
<linearGradient id="paint6_linear_20009_5448" x1="26.1224" y1="56.768" x2="52.4551" y2="45.6284" gradientUnits="userSpaceOnUse">
<stop stop-color="#F2C028"/>
<stop offset="0.0675" stop-color="#F2C028"/>
<stop offset="0.1091" stop-color="#F2C12C"/>
<stop offset="0.1458" stop-color="#F3C636"/>
<stop offset="0.1808" stop-color="#F5CE48"/>
<stop offset="0.2146" stop-color="#F8D962"/>
<stop offset="0.2476" stop-color="#FBE783"/>
<stop offset="0.2796" stop-color="#FFF7AA"/>
<stop offset="0.2822" stop-color="#FFF9AE"/>
<stop offset="0.4412" stop-color="#FAE278"/>
<stop offset="0.5897" stop-color="#F6D04D"/>
<stop offset="0.705" stop-color="#F3C432"/>
<stop offset="0.773" stop-color="#F2C028"/>
<stop offset="0.9951" stop-color="#FFF8AB"/>
<stop offset="1" stop-color="#FFF9AE"/>
</linearGradient>
<linearGradient id="paint7_linear_20009_5448" x1="36.6285" y1="54.4403" x2="57.0876" y2="45.7854" gradientUnits="userSpaceOnUse">
<stop stop-color="#F2C028"/>
<stop offset="0.0675" stop-color="#F2C028"/>
<stop offset="0.1091" stop-color="#F2C12C"/>
<stop offset="0.1458" stop-color="#F3C636"/>
<stop offset="0.1808" stop-color="#F5CE48"/>
<stop offset="0.2146" stop-color="#F8D962"/>
<stop offset="0.2476" stop-color="#FBE783"/>
<stop offset="0.2796" stop-color="#FFF7AA"/>
<stop offset="0.2822" stop-color="#FFF9AE"/>
<stop offset="0.3637" stop-color="#FAE278"/>
<stop offset="0.4398" stop-color="#F6D04D"/>
<stop offset="0.4989" stop-color="#F3C432"/>
<stop offset="0.5337" stop-color="#F2C028"/>
<stop offset="0.7618" stop-color="#FFF8AB"/>
<stop offset="0.7669" stop-color="#FFF9AE"/>
<stop offset="0.8891" stop-color="#F8DC6A"/>
<stop offset="1" stop-color="#F2C028"/>
</linearGradient>
<linearGradient id="paint8_linear_20009_5448" x1="28.9381" y1="44.4867" x2="59.0707" y2="31.7397" gradientUnits="userSpaceOnUse">
<stop stop-color="#F2C028"/>
<stop offset="0.0675" stop-color="#F2C028"/>
<stop offset="0.1091" stop-color="#F2C12C"/>
<stop offset="0.1458" stop-color="#F3C636"/>
<stop offset="0.1808" stop-color="#F5CE48"/>
<stop offset="0.2146" stop-color="#F8D962"/>
<stop offset="0.2476" stop-color="#FBE783"/>
<stop offset="0.2796" stop-color="#FFF7AA"/>
<stop offset="0.2822" stop-color="#FFF9AE"/>
<stop offset="0.3736" stop-color="#FAE278"/>
<stop offset="0.459" stop-color="#F6D04D"/>
<stop offset="0.5253" stop-color="#F3C432"/>
<stop offset="0.5644" stop-color="#F2C028"/>
<stop offset="0.6965" stop-color="#FFF8AB"/>
<stop offset="0.6994" stop-color="#FFF9AE"/>
<stop offset="0.8055" stop-color="#F8DC6A"/>
<stop offset="0.9018" stop-color="#F2C028"/>
<stop offset="1" stop-color="#F2C028"/>
</linearGradient>
</defs>
</svg>
