<svg width="82" height="62" viewBox="0 0 82 62" fill="none" xmlns="http://www.w3.org/2000/svg">
<path d="M53.5126 32.5758C59.2846 28.6656 62.566 23.6878 61.5908 19.2439C59.9304 11.7305 46.9236 8.27403 32.5463 11.5303C18.1558 14.7732 7.83736 23.5144 9.4978 31.0278C10.6179 36.1257 16.9698 39.3552 25.4433 39.889L24.3232 39.8757H22.4387L21.2658 44.293L17.062 40.0759L17.2861 39.1017H12.3443L8.91797 51.6062H16.9434L17.9713 47.2556L22.3069 51.713H28.1316C28.1316 51.713 32.1641 51.8998 34.4439 49.9247L33.9695 51.5528H41.5074L42.812 49.7646H45.7771L46.212 51.4861H53.3018L54.4614 47.0288L58.9288 51.5128L66.1768 51.5261L67.376 51.4728C69.5635 51.2993 71.3689 49.5243 71.3689 47.2957C71.3689 47.2957 71.5798 44.8135 69.4713 43.6924H70.9472C70.9472 43.6924 72.4495 43.6524 73.1084 42.7316C73.4379 42.2645 73.7542 41.5972 73.7673 40.8766L73.8069 40.0892L73.7805 39.2485H71.4085L73.1612 32.5625H54.0529L53.5126 32.5758Z" fill="white"/>
<path fill-rule="evenodd" clip-rule="evenodd" d="M18.103 37.78C20.8177 37.4597 24.3362 36.3253 27.8943 34.0032C27.8943 34.0032 25.575 34.3636 22.8735 34.2701C20.1851 34.1767 17.1278 33.6296 15.6914 31.8279C17.0751 32.6554 19.6053 32.949 23.3742 31.8279C23.0448 31.7479 21.5293 31.4276 20.3301 30.4133C19.1441 29.4125 18.2611 27.7309 19.1704 24.9952C19.1177 26.343 19.9348 27.6108 22.4254 27.9311C22.2936 27.4907 21.9115 26.5699 22.2146 25.1019C22.5177 23.6473 23.5192 21.6722 26.1285 19.0965C24.9951 20.5378 24.3231 22.1926 25.1665 23.4738C25.575 22.633 26.1548 21.4987 27.5517 20.0574C28.9222 18.6428 31.0966 16.9479 34.6547 14.9728C32.757 16.2273 30.9385 17.8688 30.24 19.6303C31.4129 18.5761 32.7439 17.4818 34.7733 16.3874C36.7895 15.3065 39.491 14.2122 43.4313 13.1445C41.0461 13.9986 38.4104 15.3198 36.3415 17.1481C37.8833 16.3741 39.7019 15.56 42.0608 14.9862C44.4065 14.4123 47.2925 14.0787 50.956 14.2655C48.439 14.4123 45.3553 15.0529 42.2189 16.5342C43.4049 16.3207 45.4344 16.0138 47.7273 16.2139C50.0203 16.4141 52.6164 17.1081 54.9621 18.9364C53.0118 18.0289 50.1653 17.5485 46.5018 18.1223C46.8708 18.2291 48.5444 18.7095 50.0203 19.9907C51.5095 21.2852 52.8009 23.4204 52.3265 26.9169C52.0102 24.8083 50.6133 22.8733 47.5297 21.9658C47.8196 22.4062 48.2281 23.714 48.0832 25.4356C47.9382 27.1838 47.2266 29.3724 45.2499 31.5477C43.8793 33.1091 42.7197 33.5228 42.7197 33.5228C42.7197 33.5228 43.5104 32.6287 44.1297 31.2141C44.7491 29.8128 45.2103 27.9178 44.5646 25.916C43.9584 29.4258 40.9406 32.3217 38.0151 34.2835C35.05 36.2853 32.1904 37.3262 32.0454 37.126C32.0454 37.126 33.271 36.2586 34.681 34.9374C36.0779 33.6296 37.5143 32.3217 38.2787 30.5601C34.0748 34.8707 27.5649 37.5397 21.582 37.86C19.7371 37.9935 18.4456 37.8066 18.103 37.78Z" fill="url(#paint0_linear_20009_5404)"/>
<path d="M37.8828 23.3412C37.3425 22.447 35.5634 22.5004 33.903 23.4346C32.2294 24.3821 31.2937 25.8901 31.8208 26.7976C32.3611 27.7184 34.1666 27.6651 35.8533 26.6908C37.527 25.7433 38.4231 24.222 37.8828 23.3412Z" fill="white"/>
<path d="M50.2306 21.8872C49.15 19.9921 47.226 19.0446 44.9989 18.751C42.7718 18.4574 40.2416 18.8311 37.9223 19.5918C39.5168 18.9512 40.9928 18.5108 41.9416 18.364C44.6299 17.3498 47.0415 17.0962 48.8864 17.243C46.3035 16.6692 43.5757 16.8293 41.0323 17.4432C38.4758 18.0704 36.1037 19.1514 34.2192 20.4059C35.4316 19.4717 36.644 18.6977 37.5533 18.2839C39.5168 16.8293 41.7966 15.8818 43.7733 15.3613C40.6106 15.9218 37.8564 16.9494 35.6293 18.1905C33.389 19.445 31.6759 20.913 30.6611 22.3276C31.2146 21.3267 31.9262 20.4325 32.5851 19.8587C33.4944 18.3373 35.1944 17.0295 36.8944 16.0686C33.8502 17.4832 31.6231 19.0713 30.1867 20.606C28.7371 22.1541 28.0782 23.6488 28.1968 24.8632C27.9201 24.0625 27.9333 23.2751 28.1837 22.6879C27.841 21.4868 28.6449 20.0856 29.765 18.9245C27.4062 20.913 26.1938 22.7146 25.9039 24.1692C25.6139 25.6506 26.2597 26.7582 27.617 27.3854C26.4705 27.0785 25.693 26.6248 25.4294 26.1844C23.769 25.6639 23.4264 24.5162 23.7031 23.3685C21.5024 27.7991 24.6651 29.6541 29.3565 29.0403C27.6038 29.4273 26.1542 29.5474 25.3635 29.4273C23.4 30.1346 20.9752 29.4673 20.1582 28.6666C20.9621 30.4816 22.8861 31.2556 25.2845 31.2422C27.6829 31.2289 30.5162 30.4148 33.1123 29.107C31.3464 30.1479 29.6728 30.9353 28.5526 31.2556C27.8147 32.4567 22.7806 33.2974 20.8171 33.2974C22.8334 33.7245 25.5349 33.631 27.8542 33.0972C31.4782 32.2565 34.9045 30.0011 37.5533 27.4388L37.5665 27.4255C37.5665 27.4388 37.5533 27.4388 37.5533 27.4388C36.7494 28.6532 32.8619 31.7093 32.8619 31.7093C32.5588 32.9104 29.0139 34.5652 25.2977 36.3401C29.4751 35.2859 33.9952 33.3775 37.2238 30.4148C38.8052 28.9735 39.7145 27.7191 40.2284 26.7716C40.9401 25.4637 40.9269 24.6763 40.9269 24.6763C41.1377 26.2244 40.3207 27.7458 40.3207 27.7458C39.9781 31.6026 36.5254 33.9914 36.5254 33.9914C37.3161 33.5376 38.2781 32.857 38.2781 32.857C41.2827 30.3614 42.8377 28.0661 43.3385 26.1844C43.8261 24.316 43.2726 22.8213 42.0602 21.9139C43.1408 22.461 43.8919 23.1283 44.116 23.7155C45.9873 24.8098 46.3826 26.5714 45.9873 28.333C47.3446 25.4504 47.1338 23.3952 46.04 22.0607C44.9594 20.7395 43.009 20.0989 40.8214 20.0722C42.4028 19.9655 43.747 20.0322 44.485 20.2457C47.2919 20.1389 49.15 20.8729 50.2306 21.8872ZM35.5239 26.3045C33.8371 27.252 32.0317 27.292 31.5045 26.4112C30.9774 25.5304 31.9131 24.0625 33.5867 23.1283C35.2471 22.2075 37.0262 22.1674 37.5665 23.0349C38.1068 23.9023 37.1975 25.3703 35.5239 26.3045Z" fill="url(#paint1_radial_20009_5404)"/>
<path d="M50.7708 19.2969C57.0172 20.9784 57.518 27.9446 49.1367 31.6413C56.0948 27.5309 54.3684 21.4722 50.7576 19.3236L50.7708 19.2969Z" fill="#F79433"/>
<path d="M49.9277 32.6421C59.7718 29.1189 62.8159 14.9462 50.0727 15.4266C57.4261 13.0245 61.0237 17.4551 59.8772 22.6731C59.2842 25.3822 57.5842 27.7577 55.5021 29.5193C53.8416 30.9339 51.8913 32.0015 49.9277 32.6421Z" fill="#00A65D"/>
<path d="M20.461 31.5342C13.2921 30.3598 14.1751 22.2726 23.3997 19.3633C15.282 23.2868 16.0464 30.4399 20.4742 31.4942L20.461 31.5342Z" fill="#00A65D"/>
<path d="M22.4655 18.0293C12.3052 20.4448 7.35019 34.444 20.067 35.3648C9.11606 37.6469 7.60058 26.6771 16.364 20.7384C17.6686 19.8576 19.1314 19.1103 20.6205 18.5765C21.2267 18.3496 21.8329 18.1761 22.4655 18.0293Z" fill="#F79433"/>
<path d="M46.9627 32.9355L43.2596 35.4711L43.2464 35.4445L40.9535 33.029L39.3984 38.8342H41.0325L41.7969 35.9916L42.8775 37.166L44.5115 36.0583L43.7604 38.8342H45.4077L46.9627 32.9355Z" fill="white"/>
<path d="M48.3206 38.6741C47.5431 38.6741 46.8974 38.4606 46.5152 38.0602C46.1331 37.6865 46.0144 37.1661 46.1594 36.6056L46.9501 33.6562H48.0571L47.3323 36.352C47.2005 36.8458 47.2795 37.2728 47.5695 37.5664C47.7935 37.7933 48.1361 37.9134 48.5578 37.9134C49.5066 37.9134 50.3369 37.2862 50.5741 36.4054L51.312 33.6562H52.419L51.6415 36.5522C51.312 37.7666 49.8888 38.6741 48.3206 38.6741Z" fill="url(#paint2_linear_20009_5404)"/>
<path d="M67.706 38.5553L67.482 37.6078H64.8596L64.1348 38.5553H62.9883L66.151 34.6318L66.9549 33.6309H68.3518L68.0091 34.0579V34.0713C67.9169 34.2047 67.8774 34.3649 67.9037 34.525V34.5383L68.9184 38.5553H67.706ZM65.3999 36.9005H67.3239L66.8758 34.9654L65.3999 36.9005Z" fill="url(#paint3_linear_20009_5404)"/>
<path d="M72.0929 33.3633H70.4457L68.9961 38.8082H70.6302L72.0929 33.3633Z" fill="white"/>
<path d="M63.818 34.9921C63.963 34.4316 63.7653 34.0712 63.5677 33.8711C63.2646 33.5641 62.7638 33.3906 62.1576 33.3906H58.6522L57.1895 38.8355H61.0243C62.263 38.8355 63.3041 38.1682 63.5677 37.2207C63.7126 36.6736 63.5281 36.2198 63.0669 35.9396C63.4491 35.7127 63.7126 35.3791 63.818 34.9921ZM61.9599 37.0873C61.894 37.3542 61.5382 37.5544 61.1429 37.5544H59.1793L59.4166 36.6869H61.4855C61.67 36.6869 61.8281 36.7403 61.9072 36.8204C61.9863 36.9138 61.9731 37.0072 61.9599 37.0873ZM62.1708 34.9921C62.1181 35.2056 61.8809 35.4058 61.4855 35.4058H59.7592L59.9569 34.6718H61.8018C61.9072 34.6718 62.0653 34.6851 62.1312 34.7652C62.1971 34.8453 62.1839 34.952 62.1708 34.9921Z" fill="white"/>
<path d="M57.5312 38.567L58.8491 33.6426H62.1568C62.6971 33.6426 63.1319 33.7894 63.3955 34.0429C63.6064 34.2565 63.6722 34.5501 63.58 34.9104C63.5009 35.2307 63.2637 35.5109 62.9474 35.7111L62.5653 35.938L62.9474 36.1648C63.3164 36.3784 63.4482 36.7253 63.3296 37.1524C63.1056 37.9931 62.1699 38.5803 61.0366 38.5803H57.5312V38.567ZM58.8491 37.8197H61.142C61.656 37.8197 62.104 37.5394 62.2095 37.1524C62.2622 36.9522 62.2227 36.7654 62.0777 36.6319C61.9459 36.4985 61.7351 36.4317 61.4715 36.4317H59.2049L58.8491 37.8197ZM59.4157 35.6711H61.4847C62.025 35.6711 62.3413 35.3641 62.4203 35.0572C62.473 34.8703 62.4335 34.6969 62.3017 34.5768C62.1963 34.4566 62.0118 34.4033 61.7878 34.4033H59.7452L59.4157 35.6711Z" fill="url(#paint4_linear_20009_5404)"/>
<path d="M55.6217 38.8355H57.269L58.7186 33.3906H58.2046L55.1209 35.4725L53.1574 33.3906H52.7094L51.2598 38.8355H52.8939L53.6582 35.993L54.752 37.1673L56.3729 36.0597L55.6217 38.8355Z" fill="white"/>
<path d="M70.5259 38.3818C70.5259 38.3818 70.5259 38.3551 70.539 38.3151L71.7778 33.6309H70.6972L69.3398 38.5419H69.3794H70.4732H70.6313C70.539 38.5019 70.5259 38.4485 70.5259 38.3818Z" fill="url(#paint5_linear_20009_5404)"/>
<path d="M57.1232 38.4339C57.1232 38.4339 57.1232 38.4072 57.1232 38.3805L57.2945 37.7399L58.3883 33.6696H58.296L55.0938 35.8315L53.0512 33.6562H52.9194L51.6016 38.5807H52.7085L53.5387 35.4712L54.7907 36.8324L56.8069 35.4445L55.9635 38.594L57.0705 38.5807H57.2154C57.1232 38.5273 57.1232 38.4872 57.1232 38.4339Z" fill="url(#paint6_linear_20009_5404)"/>
<path d="M45.2506 38.4342V38.4208L46.5948 33.5098L43.2344 35.8185L41.0863 33.5498L39.7422 38.581H40.8491L41.6794 35.4715L42.9313 36.8327L44.9475 35.4448L44.1041 38.581H44.1568H44.17H44.8026H45.1979H45.2111H45.3561C45.2506 38.5276 45.2506 38.4876 45.2506 38.4342Z" fill="url(#paint7_linear_20009_5404)"/>
<path d="M35.1685 48.6174L34.5228 51.0997H41.2173L42.5219 49.3381H46.1459L46.5676 51.033H53.0117L54.2504 46.242L59.1131 51.0863H65.7549L66.9541 51.033C69.1416 50.8595 70.947 49.258 70.947 47.0294C70.947 46.4021 70.8021 45.8149 70.5517 45.2945C70.5517 45.2945 69.8664 43.5329 67.1913 43.653C67.1913 43.653 66.0843 43.6397 65.8076 43.653C65.544 43.6664 65.3463 43.6397 65.3463 43.6397C65.4254 43.6397 65.2805 43.6397 65.2673 43.5596C65.2541 43.5062 65.2936 43.4395 65.3463 43.4128C65.3463 43.4128 65.5835 43.226 66.7037 43.226C67.8106 43.226 70.4858 43.226 70.4858 43.226C70.4858 43.226 72.0803 43.3194 72.7393 42.3985C73.1214 41.8514 73.3191 41.1708 73.3323 40.4501V39.7161L67.2308 39.7295C67.2308 39.7295 64.5293 39.6361 62.9875 40.8638L63.1588 40.1966H59.2054L57.9534 44.9742L53.262 40.25H52.6822L57.9271 45.5213C57.9271 45.5213 58.0457 45.6281 58.1775 45.5881C58.2961 45.5614 58.3356 45.4813 58.362 45.3745C58.3883 45.2678 59.5875 40.6103 59.5875 40.6103H62.6185L62.1045 42.5587C62.1045 42.5587 62.9479 40.0631 67.244 40.1432C68.4432 40.1699 72.8842 40.1432 72.8842 40.1432V40.4501C72.871 41.1041 72.6734 41.7046 72.3307 42.1984C72.3307 42.1984 71.7773 42.8656 70.4199 42.7722H66.6773C65.32 42.7722 64.9642 43.1859 64.9642 43.1859C64.8456 43.2793 64.7797 43.4128 64.7797 43.5729C64.7797 43.8398 65.0301 43.9866 65.2805 44C65.2805 44 66.4138 44.1067 67.1649 44.0534C67.9161 44 69.392 44.1868 70.0377 45.3612C70.3145 45.855 70.4463 46.4288 70.4463 47.0294C70.4463 49.0178 68.8385 50.4991 66.6905 50.6459L59.3503 50.6593L54.369 45.7482C54.369 45.7482 54.2372 45.5347 54.0659 45.5747C53.8946 45.6148 53.8814 45.855 53.8814 45.855L52.6954 50.6059H46.8575L46.4226 48.8977H42.2847L40.9669 50.6593H35.0236L36.1569 46.3087C36.1569 46.3087 34.76 50.4458 28.8826 50.6993L22.7152 50.726L17.7603 45.855C17.7603 45.855 17.6944 45.6948 17.5362 45.7349C17.3781 45.7749 17.3386 46.0818 17.3386 46.0818L16.1789 50.6593H10.117L13.0557 40.0765H16.482L16.6138 39.6094H12.7394L9.58984 51.1397H16.5215L17.7471 46.3754L22.5571 51.1664H27.9469C27.9469 51.1664 32.6383 51.4867 35.1685 48.6174Z" fill="#ED1C24"/>
<path d="M16.2051 40.4765L21.3972 45.6545C21.3972 45.6545 21.4895 45.7746 21.6345 45.7346C21.7926 45.7079 21.8189 45.4944 21.8189 45.4944L23.0709 40.7701H30.6878C30.6878 40.7701 32.4009 40.65 33.9296 41.2105C35.4583 41.7577 36.8288 43.3191 36.4993 45.1874L37.6722 40.7168H40.7031L38.2652 49.925L45.6581 40.6634H49.4007L48.3201 42.0113C48.3201 42.0113 47.872 42.4116 48.1224 43.0255L49.8619 49.7916L52.4053 40.2363H51.9441L49.8751 48.1367L48.5441 42.9855C48.5441 42.9855 48.3596 42.5718 48.755 42.1581L50.2573 40.2764H45.4209L39.1745 48.0967L41.2171 40.2764H37.3296L36.5916 43.0922C36.5916 43.0922 35.9986 41.5575 34.035 40.8502C32.2428 40.2096 30.6483 40.3831 30.6483 40.3831H22.7019L21.45 45.1207L16.7849 40.4765H16.2051Z" fill="#ED1C24"/>
<path d="M29.1073 47.9368C31.0181 47.9234 32.6653 46.9225 33.0212 45.548C33.1266 45.1743 33.1529 44.6271 32.7049 44.1867C32.2964 43.773 31.5979 43.5595 30.6754 43.5729H28.6856L27.5391 47.9501L29.1073 47.9368Z" fill="white"/>
<path d="M35.4988 42.238C34.8268 41.5574 33.509 40.77 31.0842 40.7834L25.9579 40.8101L23.375 50.7256L28.6726 50.7123C32.4283 50.7256 35.6438 48.577 36.3686 45.7879C36.7376 44.4133 36.4345 43.1588 35.4988 42.238ZM33.4299 45.6411C33.0214 47.2158 31.2028 48.3502 29.1075 48.3635H26.9858L28.3695 43.1054H30.6888C31.7167 43.0921 32.5206 43.359 33.0214 43.8528C33.4694 44.3065 33.6144 44.9471 33.4299 45.6411Z" fill="white"/>
<path d="M13.2797 50.2587C13.082 50.1919 13.0689 50.0718 13.0689 49.9384C13.0689 49.9384 13.0689 49.8717 13.082 49.8183L15.5332 40.4766H13.4247L10.7363 50.2587H13.2797Z" fill="url(#paint8_linear_20009_5404)"/>
<path d="M33.4285 45.6416C33.0199 47.2163 31.2014 48.3507 29.1061 48.364H26.9844L28.3681 43.1059H30.6874C31.7153 43.0926 32.5192 43.3595 33.0199 43.8533C33.468 44.307 33.613 44.9476 33.4285 45.6416Z" fill="#ED1B2F"/>
<path d="M29.1073 47.9368C31.0181 47.9234 32.6653 46.9225 33.0212 45.548C33.1266 45.1743 33.1529 44.6271 32.7049 44.1867C32.2964 43.773 31.5979 43.5595 30.6754 43.5729H28.6856L27.5391 47.9501L29.1073 47.9368Z" fill="white"/>
<path d="M45.9084 46.6418H44.0371L45.4735 44.8535L45.9084 46.6418Z" fill="#ED1C24"/>
<path d="M67.705 46.922C67.4415 46.6817 67.2306 46.6951 66.5717 46.7084H65.6888C64.9245 46.6817 64.2656 46.5616 63.6067 46.3081C63.1981 46.1479 62.7764 45.881 62.7633 45.8677C61.8672 45.2137 61.7881 44.413 61.8144 43.9726C61.8144 43.9193 61.8144 43.8392 61.8276 43.7324L60.6152 48.3232C60.9579 48.0696 61.3796 47.9228 61.8276 47.9228L66.0973 48.0296C66.5058 47.9896 67.6128 48.0296 67.7709 47.4291C67.8105 47.2956 67.7973 47.002 67.705 46.922ZM66.1105 47.6026L61.8408 47.4958C61.6168 47.4958 61.3927 47.5225 61.1951 47.5892L61.7749 45.3872C61.9462 45.6541 62.2098 45.9211 62.5656 46.1613C63.633 46.8819 64.8718 47.0554 65.6888 47.0821L66.5981 47.0954C67.112 47.0954 67.3624 47.0554 67.402 47.2022C67.4678 47.5225 67.0593 47.5892 66.1105 47.6026Z" fill="#ED1B2F"/>
<path d="M47.2274 50.1246L46.8188 48.4031L42.1011 48.4298L40.7833 50.1646L38.5957 50.178L44.3677 42.9448L45.8305 41.1032L48.4661 41.0898L47.794 41.9306L47.7808 41.9439C47.6227 42.1842 47.5568 42.4644 47.5832 42.7313V42.758L49.4808 50.1113L47.2274 50.1246ZM43.1421 47.0418L46.5157 47.0285L45.725 43.6655L43.1421 47.0418Z" fill="url(#paint9_linear_20009_5404)"/>
<path d="M23.9141 50.2449L26.2861 41.1968L31.0829 41.1701C33.3628 41.1568 34.5751 41.8907 35.1813 42.5046C35.9984 43.3187 36.2619 44.4264 35.9457 45.6274C35.2604 48.2298 32.1372 50.2049 28.6582 50.2182L23.9141 50.2449ZM26.4047 48.7636L29.0931 48.7502C31.3729 48.7369 33.3759 47.4557 33.8372 45.7075C34.0612 44.8534 33.8635 44.066 33.2969 43.5055C32.717 42.9317 31.8077 42.6247 30.6612 42.6381L28.0125 42.6514L26.4047 48.7636Z" fill="url(#paint10_linear_20009_5404)"/>
<path d="M37.8824 49.8584C37.8824 49.845 37.9219 49.5914 37.9219 49.5648C37.9351 49.418 38.0141 49.1244 38.0405 49.0043L40.1095 41.1172L38.001 41.1305L35.8529 49.3112L35.6289 50.1786L37.7374 50.1653H37.7769H38.0932C37.8955 50.0719 37.8824 49.9918 37.8824 49.8584Z" fill="url(#paint11_linear_20009_5404)"/>
<path d="M59.8768 41.0224L58.8885 44.7725V44.7858L58.6776 45.5732L58.6644 45.5999L58.4931 46.2405C58.4141 46.4406 58.2559 46.4139 58.1637 46.3739L57.6234 45.8401C57.6234 45.8401 57.6102 45.8268 57.597 45.8268L57.5838 45.8134L56.635 44.8525L56.5823 44.7992L52.6684 40.8223L50.2305 50.1106L52.3785 50.0972H52.6948C52.5103 50.0038 52.4971 49.9104 52.4971 49.7903C52.4971 49.777 52.5366 49.5234 52.5366 49.4967C52.563 49.3099 52.6684 48.8962 52.6684 48.8962L53.3405 46.3606L53.4591 45.8935L53.5645 45.4931L53.7227 44.8926C53.8017 44.6924 53.9599 44.7191 54.0521 44.7591L54.5397 45.2529L54.5529 45.2662L54.9878 45.7066L55.6203 46.3339L59.4156 50.164H59.6001L61.8799 41.5029C61.9194 41.3294 61.9853 41.1692 62.0644 41.0224H59.8768Z" fill="url(#paint12_linear_20009_5404)"/>
<path d="M69.5758 45.4267C69.8526 45.8404 70.0502 46.3876 70.0502 46.9747C70.0502 48.7096 68.5084 50.0041 67.072 50.0975L66.0046 50.1643C65.6356 50.1776 65.3588 50.1776 65.3061 50.1776C65.3061 50.1776 64.8185 50.191 64.2519 50.1643C60.4829 49.9641 60.1403 50.191 60.1403 50.191C60.1271 50.0709 60.1535 49.8974 60.1667 49.7906C60.1798 49.7105 60.2062 49.6038 60.2457 49.497C60.4961 48.8031 61.0891 48.336 61.8403 48.336L66.0968 48.4427C66.5317 48.4427 67.8627 48.4294 68.1921 47.4685C68.3239 47.0949 68.2053 46.8279 68.1131 46.7078C67.8758 46.3742 67.4014 46.2408 66.5712 46.2408L65.7015 46.2274C65.0557 46.2007 64.1596 46.0272 63.6061 45.8004C63.224 45.6402 63.0131 45.4667 63.0131 45.4667C62.3147 44.9463 62.2093 44.319 62.2356 43.932C62.2488 43.5717 62.3542 40.7291 66.7294 40.5824C66.7294 40.5824 67.1906 40.5557 67.4146 40.5557L68.8115 40.569C69.2595 40.5957 69.9712 40.5957 70.4324 40.609C70.7487 40.609 70.9991 40.609 71.3153 40.609C71.6448 40.5957 72.0269 40.5957 72.4355 40.5156C72.4355 40.5156 72.4223 40.9827 72.33 41.2496C72.0797 41.9436 71.6184 42.2772 70.8673 42.2772L66.5053 42.3306C66.0704 42.3439 64.6604 42.384 64.3968 43.2914V43.3048C64.3178 43.5583 64.3441 43.8119 64.4891 44.0121C64.7263 44.3457 65.2007 44.4792 66.0309 44.4792L67.4805 44.4658C67.4937 44.4792 68.9037 44.3991 69.5758 45.4267Z" fill="url(#paint13_linear_20009_5404)"/>
<path d="M47.1748 32.7897L47.2803 32.416L43.3137 35.1385L40.8362 32.5228L39.0703 39.1154H41.2447L41.9431 36.5264L42.8524 37.5273L44.078 36.6865L43.4323 39.1154H45.6067L45.8702 38.1145C45.8702 38.1145 46.3051 38.8618 47.3593 39.102C48.7957 39.4623 50.0477 38.8751 50.2717 38.7817C50.5221 38.6616 50.9306 38.4214 51.1678 38.2079L50.9306 39.1154H53.1182L53.8034 36.5264L54.7127 37.5273L55.9383 36.6865L55.2925 39.1154H60.9196C60.9196 39.1154 61.763 39.1687 62.4878 38.8084L63.0149 38.1411C63.0149 38.1411 62.725 38.4214 62.3296 38.5815C61.9343 38.755 61.5126 38.8618 60.8932 38.8485H55.6352L56.3863 36.0593L54.7654 37.1803L53.6848 36.0059L52.9205 38.8485H51.2732L51.7476 37.0602C51.7476 37.0602 51.4841 37.6874 50.7856 38.1812C50.2585 38.5549 49.6391 38.8218 48.9143 38.9152C48.6244 38.9552 47.702 39.0353 46.9508 38.675C46.7268 38.5682 45.9229 38.1545 45.857 37.1936L45.4222 38.8485H43.7749L44.526 36.0726L42.9051 37.1936L41.8245 36.0192L41.0602 38.8618H39.4129L40.968 33.0566L43.2873 35.4854L47.1748 32.7897Z" fill="#ED1C24"/>
<path d="M47.0815 33.124L47.0156 33.3909H48.3861L47.6218 36.2468C47.6218 36.2468 47.411 36.8207 47.6086 37.2077C47.8195 37.5813 48.3861 37.8082 49.1505 37.5547C49.3086 37.5013 50.0334 37.221 50.2838 36.407C50.3102 36.3135 50.6923 34.8589 50.6923 34.8589L51.0877 33.3909H53.1303L55.107 35.4728L58.2038 33.3909H62.1309C62.1309 33.3909 63.1983 33.3375 63.6727 33.9915C64.1867 34.7655 63.5278 35.5395 63.5278 35.5395C63.5278 35.5395 63.3301 35.7797 63.0534 35.9399C63.0534 35.9399 64.0417 36.447 63.3828 37.6481L66.8223 33.3776H68.8781L68.2324 34.1783C68.2324 34.1783 68.0742 34.3251 68.1401 34.552C68.2192 34.7922 69.1021 38.342 69.1021 38.342L70.4331 33.3509H72.0804L70.6176 38.7958H67.4812L67.2572 37.8483H64.9642L64.2394 38.7958H62.7634L62.5526 39.0627H64.3712L65.096 38.1152H67.0595L67.2835 39.0627H70.8284L72.423 33.084H70.2486L69.1153 37.3011L68.4037 34.4986C68.4037 34.4986 68.3641 34.4052 68.4432 34.3118C68.5223 34.2183 69.4316 33.0973 69.4316 33.0973H66.7037L63.8572 36.6338C63.8572 36.6338 63.8309 36.2735 63.4882 35.9265C63.4882 35.9265 64.1999 35.3927 64.1076 34.4185C64.0813 34.1916 63.8968 33.2575 62.434 33.1107C62.3417 33.0973 62.0782 33.0973 62.0782 33.0973H58.1116L55.1465 35.0991L53.2489 33.0973H50.89L50.0598 36.2201C50.0598 36.2201 49.8885 37.0075 49.0451 37.2878C48.821 37.3545 48.2675 37.4612 47.9513 37.2077C47.635 36.9541 47.8195 36.4203 47.8195 36.4203L48.7024 33.0973L47.0815 33.124Z" fill="#ED1C24"/>
<path d="M61.8151 34.6719H59.9438L59.7461 35.4059H61.5251C61.8678 35.3925 62.1577 35.1923 62.184 34.9254C62.2104 34.6719 61.8151 34.6719 61.8151 34.6719ZM61.5647 35.1523H60.1019L60.1546 34.9388H61.8019C61.8019 34.9388 61.9073 34.9388 61.9205 34.9521C61.9468 34.9655 61.7887 35.139 61.5647 35.1523Z" fill="#ED1C24"/>
<path d="M61.5386 36.7012H59.4169L59.1797 37.5686H61.2223C61.5913 37.5419 61.9603 37.3284 61.9734 37.0215C61.9866 36.7012 61.5386 36.7012 61.5386 36.7012ZM61.2091 37.2884H59.5223L59.6146 36.9547H61.5386C61.5386 36.9547 61.7099 36.9414 61.7099 37.0215C61.6967 37.1015 61.5254 37.275 61.2091 37.2884Z" fill="#ED1C24"/>
<path d="M66.1113 36.5397L66.6912 35.8457L66.8493 36.5397H66.1113Z" fill="#ED1C24"/>
<path d="M23.3754 41.2233L22.4002 44.9733V44.9867L22.1893 45.774L22.1762 45.7874L22.0048 46.428C21.9258 46.6281 21.7676 46.6014 21.6754 46.5614L21.1351 46.0276L21.1219 46.0143L21.1087 46.0009L20.1599 45.04L20.1072 44.9867L16.167 41.0098L13.7422 50.2581H16.1406C15.9956 50.178 15.9825 50.0846 15.9825 49.9645C15.9825 49.9511 16.022 49.6976 16.022 49.6709C16.0484 49.484 16.1538 49.0703 16.1538 49.0703L16.8259 46.5347L16.9445 46.081L17.0499 45.6806L17.208 45.0801C17.2871 44.8666 17.4452 44.9066 17.5375 44.9466L18.0382 45.4404L18.0514 45.4538L18.4863 45.8941L19.1189 46.5214L22.8351 50.2581H23.125L25.3916 41.677C25.4312 41.5035 25.497 41.3434 25.5761 41.1966L23.3754 41.2233Z" fill="url(#paint14_linear_20009_5404)"/>
<defs>
<linearGradient id="paint0_linear_20009_5404" x1="46.3332" y1="16.2936" x2="24.8688" y2="35.378" gradientUnits="userSpaceOnUse">
<stop stop-color="#004081"/>
<stop offset="0.1156" stop-color="#00488A"/>
<stop offset="0.4913" stop-color="#0061A5"/>
<stop offset="0.7996" stop-color="#0070B8"/>
<stop offset="1" stop-color="#0077C0"/>
</linearGradient>
<radialGradient id="paint1_radial_20009_5404" cx="0" cy="0" r="1" gradientUnits="userSpaceOnUse" gradientTransform="translate(35.2109 25.8634) scale(10.4518 10.5845)">
<stop stop-color="#FFCC32"/>
<stop offset="0.35" stop-color="#FFCC32"/>
<stop offset="0.74" stop-color="#ED1B2F"/>
<stop offset="1" stop-color="#ED1B2F"/>
</radialGradient>
<linearGradient id="paint2_linear_20009_5404" x1="49.2597" y1="38.6686" x2="49.2434" y2="35.6058" gradientUnits="userSpaceOnUse">
<stop stop-color="#003B7A"/>
<stop offset="0.1838" stop-color="#004080"/>
<stop offset="0.4834" stop-color="#004D90"/>
<stop offset="0.8594" stop-color="#0062AA"/>
<stop offset="1" stop-color="#006CB7"/>
</linearGradient>
<linearGradient id="paint3_linear_20009_5404" x1="65.9336" y1="38.5721" x2="65.9177" y2="35.5696" gradientUnits="userSpaceOnUse">
<stop stop-color="#003B7A"/>
<stop offset="0.1838" stop-color="#004080"/>
<stop offset="0.4834" stop-color="#004D90"/>
<stop offset="0.8594" stop-color="#0062AA"/>
<stop offset="1" stop-color="#006CB7"/>
</linearGradient>
<linearGradient id="paint4_linear_20009_5404" x1="60.5707" y1="38.573" x2="60.5548" y2="35.5693" gradientUnits="userSpaceOnUse">
<stop stop-color="#003B7A"/>
<stop offset="0.1838" stop-color="#004080"/>
<stop offset="0.4834" stop-color="#004D90"/>
<stop offset="0.8594" stop-color="#0062AA"/>
<stop offset="1" stop-color="#006CB7"/>
</linearGradient>
<linearGradient id="paint5_linear_20009_5404" x1="70.5519" y1="38.5437" x2="70.5361" y2="35.5541" gradientUnits="userSpaceOnUse">
<stop stop-color="#003B7A"/>
<stop offset="0.1838" stop-color="#004080"/>
<stop offset="0.4834" stop-color="#004D90"/>
<stop offset="0.8594" stop-color="#0062AA"/>
<stop offset="1" stop-color="#006CB7"/>
</linearGradient>
<linearGradient id="paint6_linear_20009_5404" x1="54.9888" y1="38.5872" x2="54.9728" y2="35.5739" gradientUnits="userSpaceOnUse">
<stop stop-color="#003B7A"/>
<stop offset="0.1838" stop-color="#004080"/>
<stop offset="0.4834" stop-color="#004D90"/>
<stop offset="0.8594" stop-color="#0062AA"/>
<stop offset="1" stop-color="#006CB7"/>
</linearGradient>
<linearGradient id="paint7_linear_20009_5404" x1="43.1637" y1="38.5828" x2="43.1474" y2="35.4981" gradientUnits="userSpaceOnUse">
<stop stop-color="#003B7A"/>
<stop offset="0.1838" stop-color="#004080"/>
<stop offset="0.4834" stop-color="#004D90"/>
<stop offset="0.8594" stop-color="#0062AA"/>
<stop offset="1" stop-color="#006CB7"/>
</linearGradient>
<linearGradient id="paint8_linear_20009_5404" x1="13.151" y1="50.2604" x2="13.1196" y2="44.3027" gradientUnits="userSpaceOnUse">
<stop stop-color="#003B7A"/>
<stop offset="0.1838" stop-color="#004080"/>
<stop offset="0.4834" stop-color="#004D90"/>
<stop offset="0.8594" stop-color="#0062AA"/>
<stop offset="1" stop-color="#006CB7"/>
</linearGradient>
<linearGradient id="paint9_linear_20009_5404" x1="44.0349" y1="50.1347" x2="44.0059" y2="44.6304" gradientUnits="userSpaceOnUse">
<stop stop-color="#003B7A"/>
<stop offset="0.1838" stop-color="#004080"/>
<stop offset="0.4834" stop-color="#004D90"/>
<stop offset="0.8594" stop-color="#0062AA"/>
<stop offset="1" stop-color="#006CB7"/>
</linearGradient>
<linearGradient id="paint10_linear_20009_5404" x1="30.008" y1="50.2097" x2="29.979" y2="44.7044" gradientUnits="userSpaceOnUse">
<stop stop-color="#003B7A"/>
<stop offset="0.1838" stop-color="#004080"/>
<stop offset="0.4834" stop-color="#004D90"/>
<stop offset="0.8594" stop-color="#0062AA"/>
<stop offset="1" stop-color="#006CB7"/>
</linearGradient>
<linearGradient id="paint11_linear_20009_5404" x1="37.8763" y1="50.1683" x2="37.8473" y2="44.6628" gradientUnits="userSpaceOnUse">
<stop stop-color="#003B7A"/>
<stop offset="0.1838" stop-color="#004080"/>
<stop offset="0.4834" stop-color="#004D90"/>
<stop offset="0.8594" stop-color="#0062AA"/>
<stop offset="1" stop-color="#006CB7"/>
</linearGradient>
<linearGradient id="paint12_linear_20009_5404" x1="56.1494" y1="50.1721" x2="56.1193" y2="44.4619" gradientUnits="userSpaceOnUse">
<stop stop-color="#003B7A"/>
<stop offset="0.1838" stop-color="#004080"/>
<stop offset="0.4834" stop-color="#004D90"/>
<stop offset="0.8594" stop-color="#0062AA"/>
<stop offset="1" stop-color="#006CB7"/>
</linearGradient>
<linearGradient id="paint13_linear_20009_5404" x1="66.3114" y1="50.1754" x2="66.2804" y2="44.3278" gradientUnits="userSpaceOnUse">
<stop stop-color="#004081"/>
<stop offset="1" stop-color="#0077C0"/>
</linearGradient>
<linearGradient id="paint14_linear_20009_5404" x1="19.6589" y1="50.2824" x2="19.6289" y2="44.6234" gradientUnits="userSpaceOnUse">
<stop stop-color="#003B7A"/>
<stop offset="0.1838" stop-color="#004080"/>
<stop offset="0.4834" stop-color="#004D90"/>
<stop offset="0.8594" stop-color="#0062AA"/>
<stop offset="1" stop-color="#006CB7"/>
</linearGradient>
</defs>
</svg>
