<svg width="82" height="62" viewBox="0 0 82 62" fill="none" xmlns="http://www.w3.org/2000/svg">
<path d="M39.5299 4.14155C39.4842 4.16057 39.4748 4.23394 39.5084 4.31005C39.5272 4.35082 39.8295 4.624 40.5013 5.20976C40.8694 5.52913 40.8385 5.53865 41.5399 4.90941C42.1526 4.35899 42.209 4.30191 42.209 4.22988C42.209 4.12116 42.2587 4.12386 40.8479 4.12657C40.1318 4.12522 39.5514 4.13339 39.5299 4.14155Z" fill="black"/>
<path d="M39.2762 4.40526C39.2413 4.44875 39.2413 7.05679 39.2762 7.09892C39.3044 7.1329 39.3649 7.13698 39.428 7.10572C39.4831 7.08126 40.4357 5.97634 40.4935 5.87033C40.5459 5.7752 40.5378 5.65017 40.4747 5.56455C40.4008 5.46805 39.506 4.45692 39.4589 4.41479C39.4012 4.36859 39.3098 4.36313 39.2762 4.40526Z" fill="black"/>
<path d="M42.2247 4.43244C42.0393 4.62406 41.2251 5.56588 41.1996 5.62296C41.1619 5.70587 41.1606 5.76976 41.1929 5.84994C41.2264 5.93012 42.214 7.07988 42.2731 7.10706C42.2973 7.1193 42.3362 7.1288 42.3591 7.1288C42.4505 7.1288 42.4491 7.16685 42.4545 5.77246C42.4599 4.33322 42.4652 4.38894 42.3483 4.37943C42.2959 4.37399 42.2744 4.38487 42.2247 4.43244Z" fill="black"/>
<path d="M40.6564 5.5307C40.6 5.57147 40.5664 5.66251 40.5664 5.77939C40.5664 5.98732 40.6376 6.05664 40.8486 6.05664C41.0676 6.05664 41.1119 6.01044 41.1132 5.78348C41.1132 5.6068 41.1012 5.56876 41.0246 5.52934C40.9534 5.49129 40.7115 5.49264 40.6564 5.5307Z" fill="black"/>
<path d="M40.7164 6.10755C40.6344 6.15784 39.5555 7.10917 39.5219 7.16217C39.4843 7.21518 39.4789 7.31167 39.5125 7.33885C39.5246 7.34972 40.0056 7.35787 40.8346 7.36194C42.0949 7.36874 42.1366 7.36738 42.1742 7.33476C42.2199 7.29399 42.2225 7.24235 42.1795 7.17712C42.1339 7.10509 41.0456 6.12792 40.9797 6.09802C40.9004 6.06269 40.7822 6.06542 40.7164 6.10755Z" fill="black"/>
<path d="M40.2372 7.55653C40.2077 7.5742 40.1714 7.60681 40.1633 7.62584C40.1512 7.64759 40.1445 7.82019 40.1445 8.08657C40.1445 8.55272 40.1459 8.56494 40.2507 8.6193C40.2937 8.64105 40.3944 8.64648 40.815 8.64648C41.0958 8.64648 41.347 8.6397 41.3699 8.63019C41.3941 8.61931 41.4317 8.59486 41.4518 8.57312C41.4868 8.5337 41.4895 8.51468 41.4895 8.08386C41.4895 7.65304 41.4881 7.63401 41.4518 7.5946C41.433 7.57285 41.3954 7.54837 41.3699 7.5375C41.347 7.52799 41.0944 7.5212 40.8109 7.5212C40.3313 7.5212 40.291 7.52256 40.2372 7.55653Z" fill="black"/>
<path d="M37.9219 8.43339C37.7579 8.46737 37.6034 8.58832 37.5255 8.74733C37.4933 8.81392 37.4812 8.87101 37.4771 8.9906L37.4704 9.14419L37.3911 9.16593C37.2998 9.18767 37.2917 9.18359 37.2635 9.09118C37.2313 8.99333 37.0996 8.85469 36.9827 8.79625C36.8967 8.75276 36.8604 8.74597 36.7314 8.74597C36.6025 8.74597 36.5675 8.75276 36.4802 8.79625C36.2357 8.9172 36.1161 9.17816 36.1712 9.46356C36.186 9.53695 36.1859 9.53831 36.1282 9.5587C36.0959 9.56957 36.0704 9.57636 36.0677 9.575C36.0664 9.57092 36.0502 9.54103 36.0341 9.50569C35.9858 9.4024 35.8944 9.3059 35.7923 9.24882C35.713 9.20533 35.67 9.19581 35.5451 9.19037C35.4067 9.18358 35.3825 9.1863 35.2831 9.23115C35.1648 9.28687 35.06 9.38881 34.9969 9.51249C34.9391 9.62529 34.9297 9.84274 34.9781 9.96777L35.013 10.0602L34.9673 10.0901C34.923 10.1186 34.9216 10.1186 34.8854 10.0683C34.7738 9.90798 34.6287 9.82642 34.4326 9.81418C34.3264 9.80875 34.2807 9.8142 34.2015 9.8441C34.0738 9.89303 33.961 9.9936 33.8938 10.1159C33.8441 10.2056 33.8414 10.2273 33.8414 10.3918C33.8414 10.5522 33.8468 10.5793 33.8898 10.6582L33.9395 10.7438L33.8992 10.7778C33.8777 10.7954 33.8548 10.8104 33.8481 10.8117C33.8387 10.8117 33.8038 10.7818 33.7661 10.7438C33.6613 10.6378 33.5485 10.5902 33.3886 10.5834C33.2945 10.578 33.226 10.5848 33.1709 10.6052C32.9089 10.6949 32.7396 10.9803 32.7894 11.2507C32.8082 11.3581 32.8794 11.5062 32.9358 11.5579C32.9681 11.5864 32.9681 11.5877 32.921 11.6367L32.8727 11.687L32.8229 11.6516C32.6456 11.5252 32.4132 11.5021 32.2331 11.5905C32.0222 11.6938 31.9187 11.8555 31.9093 12.0906C31.8999 12.2741 31.9442 12.4032 32.0571 12.5201L32.135 12.603L32.0974 12.656C32.0786 12.6859 32.0517 12.7063 32.0396 12.7008C31.7185 12.5608 31.4001 12.6668 31.2496 12.9617C31.22 13.0188 31.2066 13.08 31.2012 13.1942C31.1945 13.3314 31.1972 13.3586 31.2402 13.4537C31.2913 13.5652 31.3652 13.6535 31.4579 13.7106C31.5089 13.7432 31.5129 13.75 31.4955 13.7976C31.4861 13.8275 31.4767 13.8506 31.4726 13.8506C31.4713 13.8506 31.4337 13.8383 31.3907 13.822C31.3463 13.8057 31.2577 13.7935 31.1878 13.7935C30.9594 13.7935 30.7579 13.924 30.6625 14.1333C30.6329 14.1971 30.6235 14.2515 30.6235 14.3697C30.6235 14.5002 30.6302 14.5355 30.6732 14.6239C30.7525 14.7897 30.9554 14.9419 31.0937 14.9419C31.1394 14.9419 31.1502 14.9691 31.1367 15.0493C31.126 15.1077 31.1179 15.1213 31.0843 15.1213C30.9607 15.1213 30.7699 15.2395 30.6907 15.3659C30.6181 15.4855 30.5912 15.5752 30.5939 15.7138C30.598 15.9299 30.7108 16.1121 30.903 16.2113L31.0104 16.2642H32.0773H33.1468L34.7617 15.0044C36.2343 13.8547 36.3808 13.7446 36.4144 13.7636C36.4977 13.8084 36.581 13.7731 36.9034 13.5529C37.4677 13.171 38.0307 12.9278 38.5332 12.849C38.7186 12.8204 38.8301 12.7457 38.9094 12.5921C38.943 12.5255 38.947 12.4902 38.947 12.1287L38.9484 11.7372L39.4253 11.3635L39.9023 10.9911H40.8039C41.344 10.9911 41.7162 10.9979 41.7323 11.0088C41.7498 11.0197 41.4233 11.0265 40.8186 11.0305L39.8781 11.036L39.8378 11.0768C39.8002 11.1148 39.7975 11.1352 39.7921 11.3554C39.7868 11.5891 39.7868 11.5932 39.8325 11.6489L39.8808 11.706H40.8428H41.8062L41.8492 11.6598C41.8895 11.6149 41.8935 11.5986 41.8975 11.3757L41.9029 11.1366L42.3678 11.4981L42.8313 11.8596L42.83 12.1817C42.826 12.5377 42.8354 12.5785 42.9375 12.6981C43.0194 12.7892 43.096 12.8272 43.2908 12.8585C43.8216 12.9495 44.406 13.2173 44.9838 13.6304C45.0939 13.7092 45.1947 13.7663 45.231 13.7731C45.282 13.7826 45.6623 14.0694 46.885 15.0248L48.4731 16.2656H49.5453H50.6161L50.7061 16.2208C50.8136 16.165 50.9305 16.0441 50.9816 15.9299C51.042 15.7995 51.0366 15.5766 50.9708 15.4407C50.8929 15.2817 50.7316 15.1566 50.5718 15.1294C50.4885 15.1145 50.4898 15.1186 50.475 15.0289C50.4643 14.9664 50.4656 14.9609 50.5126 14.9514C50.8203 14.8835 50.999 14.6714 50.999 14.367C50.999 14.0096 50.686 13.7419 50.3339 13.7989C50.2815 13.8085 50.2197 13.8234 50.1982 13.8343C50.1579 13.8574 50.1405 13.8465 50.1217 13.7854C50.1109 13.7555 50.123 13.7364 50.1875 13.6929C50.3447 13.5842 50.4441 13.364 50.4226 13.1656C50.3837 12.7878 50.0128 12.5472 49.6608 12.6682L49.5547 12.7063L49.5251 12.6668C49.4821 12.6111 49.4848 12.6057 49.5654 12.5173C49.6783 12.3937 49.7132 12.2972 49.7132 12.1191C49.7132 11.9887 49.7065 11.9533 49.6635 11.865C49.5117 11.5524 49.1032 11.4396 48.8238 11.6367C48.7834 11.6666 48.7458 11.6897 48.7445 11.6897C48.7404 11.6897 48.7216 11.6666 48.7001 11.638L48.6625 11.5864L48.7136 11.5198C48.7996 11.4084 48.8426 11.2711 48.8332 11.123C48.8184 10.9055 48.7109 10.737 48.5147 10.631C48.4489 10.5956 48.4126 10.5902 48.2621 10.5902C48.0606 10.5902 47.9934 10.6147 47.8537 10.7451C47.7771 10.8144 47.7758 10.8172 47.7314 10.7886C47.7072 10.7723 47.6871 10.7547 47.6871 10.7479C47.6871 10.7424 47.7086 10.6921 47.7354 10.6364C47.7758 10.5522 47.7852 10.5127 47.7852 10.3931C47.7852 10.2735 47.7758 10.2341 47.7354 10.1499C47.636 9.94195 47.4708 9.83049 47.2464 9.81554C47.0663 9.80603 46.94 9.85361 46.8137 9.98001C46.7627 10.0303 46.7183 10.0819 46.713 10.0955C46.7076 10.1146 46.6982 10.1173 46.6633 10.0969C46.6391 10.0846 46.6176 10.0724 46.6135 10.0697C46.6095 10.0656 46.6256 10.0072 46.6471 9.93515C46.6955 9.77478 46.6848 9.6511 46.6082 9.49345C46.5141 9.29639 46.3287 9.18358 46.1016 9.18358C46.0345 9.18358 45.9431 9.19583 45.8961 9.21214C45.7913 9.24748 45.6341 9.39154 45.5857 9.49754C45.5561 9.5587 45.54 9.57637 45.5172 9.56549C45.5011 9.56006 45.4742 9.54918 45.4594 9.54646C45.4352 9.53967 45.4312 9.52742 45.4419 9.48937C45.4487 9.4649 45.454 9.37794 45.4527 9.30048C45.4527 9.1306 45.4083 9.01915 45.2955 8.90771C45.1598 8.76772 44.9354 8.70792 44.7446 8.75412C44.5713 8.79897 44.3792 8.97973 44.3402 9.13466C44.3281 9.19174 44.3241 9.19175 44.222 9.16457L44.1481 9.14689V9.00011C44.1481 8.88866 44.1387 8.83432 44.1104 8.7718C43.972 8.47145 43.6335 8.34235 43.3325 8.47825C43.1592 8.55708 43.0409 8.72014 43.0074 8.92536C42.9859 9.05991 42.9523 9.10749 42.8515 9.15234C42.7722 9.18767 42.744 9.19037 40.8133 9.19037C39.3568 9.18901 38.8409 9.18358 38.7952 9.16863C38.6985 9.13602 38.6313 9.04767 38.6165 8.93215C38.6017 8.82887 38.5386 8.68211 38.4768 8.61416C38.4056 8.53941 38.2927 8.46872 38.1892 8.44289C38.0777 8.413 38.0361 8.41165 37.9219 8.43339Z" fill="black"/>
<path d="M39.8874 11.7662C39.8309 11.8273 39.8242 11.8789 39.8242 12.1956C39.8242 12.5123 39.8309 12.5639 39.8874 12.6251L39.9277 12.6699H40.8306C41.4432 12.6699 41.7455 12.6645 41.7711 12.6509C41.8396 12.6128 41.8557 12.5313 41.8557 12.197C41.8557 11.8626 41.8396 11.7811 41.7711 11.743C41.7469 11.7281 41.4446 11.724 40.8306 11.724H39.9277L39.8874 11.7662Z" fill="black"/>
<path d="M39.9729 12.7237C39.9434 12.7564 39.9393 12.7958 39.934 13.0485C39.9272 13.3625 39.9326 13.4019 39.9837 13.4549C40.0173 13.4889 40.0455 13.4902 40.8409 13.4902H41.6645L41.7075 13.4454C41.7518 13.4019 41.7518 13.3965 41.7518 13.0975C41.7518 12.8012 41.7411 12.7346 41.6914 12.7006C41.6806 12.6938 41.2977 12.6857 40.8395 12.6857C40.0159 12.6857 40.0065 12.6857 39.9729 12.7237Z" fill="black"/>
<path d="M40.5672 14.0404C40.2663 14.1953 40.2327 14.6248 40.5068 14.8191C40.5498 14.849 40.5847 14.883 40.5847 14.8939C40.5847 14.9387 40.5121 15.1249 40.4396 15.2635C39.9801 16.1578 38.9321 16.5831 37.9835 16.2611C37.8989 16.2325 37.7873 16.1877 37.7363 16.1605C37.4488 16.0151 37.1263 15.7351 36.957 15.481L36.8724 15.3546L36.9073 15.2459C36.9516 15.1154 36.953 15.0637 36.918 14.9455C36.8858 14.8368 36.8079 14.7375 36.7004 14.6737C36.5889 14.6098 36.3927 14.6044 36.2798 14.6642C36.1079 14.7552 36.034 14.8816 36.034 15.08C36.034 15.2798 36.1119 15.4089 36.2919 15.5C36.3887 15.5503 36.3967 15.5734 36.3967 15.8778C36.3967 16.3032 36.2785 16.6946 36.042 17.0493C35.9466 17.1947 35.7155 17.4366 35.5664 17.5481C34.8194 18.108 33.7834 18.0795 33.0619 17.4761L32.9343 17.3687L32.945 17.2437C32.9544 17.1472 32.9491 17.1009 32.9235 17.0357C32.8013 16.7136 32.4089 16.6266 32.1725 16.8672C31.9494 17.0901 32.0059 17.457 32.2853 17.6038C32.3713 17.6487 32.5379 17.6663 32.6172 17.6378C32.675 17.616 32.675 17.616 32.7784 17.7288C33.1251 18.108 33.4449 18.653 33.6034 19.1314C33.6665 19.3257 33.7431 19.6397 33.7445 19.7103C33.7445 19.7266 33.7069 19.7552 33.6585 19.7796C33.5537 19.8286 33.4462 19.9373 33.3884 20.0474C33.2608 20.2961 33.4287 20.6182 33.7028 20.6481C33.7808 20.6576 33.8305 20.6426 34.1865 20.5067C36.9046 19.4711 39.9989 19.1056 43.155 19.4412C44.77 19.6125 46.3205 19.9903 47.4934 20.4945C47.6238 20.5502 47.7662 20.6019 47.8038 20.6087C48.0806 20.6522 48.3412 20.4483 48.3412 20.1887C48.3412 20.0419 48.2727 19.9454 48.0725 19.8082C47.9529 19.7266 47.922 19.6967 47.9341 19.6736C47.9408 19.6573 47.9691 19.5663 47.9946 19.4698C48.1464 18.8976 48.481 18.286 48.9123 17.79C49.0224 17.665 49.0372 17.6527 49.099 17.6527C49.3449 17.6527 49.5424 17.4475 49.5424 17.1934C49.5424 17.0058 49.4658 16.8713 49.3086 16.7843C49.1299 16.6864 48.8733 16.7272 48.7497 16.8753C48.6435 17.0044 48.6032 17.2137 48.6583 17.3496C48.6812 17.4067 48.6798 17.4108 48.6301 17.4516C48.2942 17.7288 47.7071 17.915 47.2798 17.877C46.7316 17.8308 46.2923 17.6269 45.9295 17.2532C45.5546 16.8658 45.3531 16.3698 45.3531 15.8302C45.3531 15.6386 45.3571 15.6169 45.3867 15.6074C45.4391 15.591 45.5493 15.4728 45.5842 15.394C45.6245 15.3029 45.6285 15.1099 45.5909 15.0202C45.4713 14.7307 45.079 14.6465 44.8506 14.8612C44.7283 14.9781 44.6786 15.2173 44.7444 15.3831L44.7727 15.4551L44.6961 15.5584C44.3387 16.0368 43.7717 16.3358 43.1671 16.3616C42.4792 16.3915 41.8504 16.0898 41.4406 15.5353C41.3223 15.3749 41.1786 15.095 41.1262 14.9169L41.0912 14.8014L41.1517 14.6995C41.2538 14.5283 41.2565 14.3665 41.1571 14.2007C41.0751 14.0635 40.9663 14.0009 40.7943 13.9928C40.6814 13.9901 40.6546 13.9955 40.5672 14.0404Z" fill="black"/>
<path d="M36.6533 20.8743C35.0665 21.0089 33.7444 21.6245 32.6332 22.7512C31.3931 24.0042 30.8234 25.5481 30.9027 27.444C30.9322 28.1697 31.0532 28.8289 31.2762 29.4907C31.4912 30.1308 31.7545 30.6636 32.1657 31.2874C32.8348 32.304 33.649 33.0718 34.6379 33.6141C34.7346 33.6671 34.8233 33.7174 34.8327 33.7269C34.8394 33.7337 34.8152 33.7881 34.7776 33.8465C34.7386 33.9036 34.6553 34.0381 34.5922 34.1468C34.1596 34.8902 33.8357 35.6649 33.2473 37.3732C32.7044 38.9457 32.4532 39.5735 32.1106 40.2232C31.4872 41.4028 30.8557 41.9628 30.1422 41.9736C29.8681 41.9777 29.633 41.8962 29.4745 41.7453C29.3401 41.6203 29.3025 41.5183 29.3065 41.2982C29.3105 41.0889 29.3361 40.9938 29.4368 40.8388C29.5148 40.7179 29.5215 40.6648 29.4704 40.6186C29.3361 40.495 28.8873 40.6513 28.6683 40.8959C28.5219 41.0603 28.4654 41.3159 28.5165 41.5782C28.6025 42.0307 29.0485 42.3963 29.6451 42.5118C30.0495 42.5893 30.6367 42.5553 31.158 42.4221C32.3484 42.1204 33.3883 41.2656 34.1905 39.9269C34.4444 39.5056 34.615 39.1223 34.7883 38.595C34.963 38.0568 35.0168 37.8367 35.2855 36.4871C35.5327 35.249 35.6268 34.844 35.784 34.3561C35.8417 34.174 35.8578 34.1387 35.8834 34.1468C35.9788 34.1849 36.4262 34.3045 36.6197 34.3466C36.8333 34.3915 36.8776 34.3956 37.2821 34.3956C37.6677 34.3969 37.7348 34.3915 37.8988 34.3561C38.2521 34.2773 38.5316 34.1333 38.7264 33.9267C38.8406 33.8071 38.9508 33.5883 38.9884 33.4143C39.022 33.2539 39.022 32.9985 38.9884 32.853C38.8769 32.3787 38.4013 32.0063 37.7711 31.8949C37.5642 31.8596 37.1598 31.8596 36.9462 31.8963C36.3563 31.9982 35.8243 32.3094 35.5005 32.7457C35.4427 32.8231 35.3876 32.8992 35.3782 32.9169C35.3607 32.9454 35.3567 32.9454 35.2949 32.9128C35.0262 32.7674 34.4377 32.2279 34.1515 31.8677C33.5778 31.1365 33.1156 30.1961 32.8899 29.2882C32.7542 28.7392 32.6991 28.2771 32.7004 27.6574C32.7044 25.9558 33.215 24.5411 34.2415 23.4035C34.6862 22.9102 35.1672 22.5433 35.7369 22.266C36.0527 22.1111 36.2703 22.0323 36.6022 21.9466C37.1275 21.8107 37.2821 21.7944 38.1043 21.7944C38.8205 21.7958 39.1255 21.8107 39.5742 21.8678C39.9182 21.9126 39.9141 21.9004 39.6562 22.0513C38.1379 22.9374 37.2673 24.0532 37.0966 25.3239C37.0671 25.5468 37.063 25.9463 37.0899 26.1393C37.1611 26.6558 37.4325 27.1314 37.7684 27.3285C37.9982 27.4644 38.3408 27.5024 38.5988 27.4209C38.9414 27.3122 39.2397 27.005 39.3606 26.6367C39.409 26.4886 39.4116 26.46 39.4116 26.1909C39.4116 25.8716 39.3875 25.7547 39.2733 25.5495C39.1765 25.3687 39.116 25.3687 39.061 25.5495C39.0435 25.6066 39.0086 25.7234 38.983 25.805C38.8944 26.0904 38.7627 26.2154 38.5289 26.2317C38.365 26.2426 38.2871 26.2154 38.1823 26.1175C38.0855 26.0265 37.9982 25.8512 37.9619 25.6704C37.9323 25.525 37.9283 25.1622 37.9525 24.9501C37.9915 24.6457 38.1419 24.2937 38.373 23.9648C38.5504 23.7148 38.9615 23.2921 39.2423 23.076C39.2665 23.0583 39.2692 23.061 39.2638 23.1113C39.2585 23.1548 39.288 23.2418 39.3754 23.4361C39.6374 24.0328 39.7677 24.412 39.8187 24.7191C39.851 24.9121 39.851 24.9134 39.8174 24.9325C39.7569 24.9664 39.6333 25.1064 39.6212 25.154C39.6038 25.226 39.6374 25.2749 39.7449 25.3334L39.8443 25.385V26.0102C39.8443 26.354 39.8161 30.3034 39.7825 34.7856L39.7207 42.9372L39.6683 43.0513C39.6226 43.1492 39.5675 43.2117 39.2598 43.5162C39.0623 43.7132 38.8917 43.894 38.8796 43.9252C38.8218 44.0652 38.8635 44.1685 38.9898 44.1916C39.1335 44.2188 39.9437 44.1671 40.2836 44.1073C40.5685 44.0584 40.8399 44.0625 41.118 44.1182C41.419 44.1766 41.7898 44.2161 42.1606 44.2297C42.4589 44.2392 42.471 44.2365 42.51 44.2011C42.561 44.1508 42.5624 44.019 42.5153 43.9402C42.4979 43.9103 42.3353 43.735 42.1526 43.5488C41.8838 43.2729 41.8126 43.1913 41.767 43.0949L41.7105 42.9793L41.767 35.0493C41.7992 30.6881 41.8288 26.7359 41.8355 26.267L41.8462 25.4122L41.9403 25.3687C42.1217 25.2845 42.127 25.1947 41.9591 25.0303L41.8543 24.9243L41.8758 24.7884C41.9215 24.4976 42.0867 24.0463 42.346 23.5014C42.4092 23.3668 42.4683 23.2228 42.4737 23.182L42.4858 23.1045L42.6981 23.2975C43.0837 23.6495 43.3604 24.0042 43.5459 24.382C43.6869 24.6702 43.7272 24.8169 43.7514 25.1241C43.7743 25.4068 43.7622 25.6079 43.7125 25.7887C43.5996 26.2018 43.3645 26.3717 43.0447 26.2752C42.8539 26.2181 42.7464 26.0605 42.6591 25.7085C42.5771 25.3755 42.5032 25.3782 42.3514 25.7139C42.2332 25.9762 42.2184 26.4152 42.3192 26.7196C42.4361 27.0757 42.7491 27.3883 43.0917 27.4902C43.4397 27.5935 43.8213 27.5024 44.0887 27.2537C44.2848 27.0703 44.4662 26.7427 44.5442 26.4369C44.649 26.0278 44.6382 25.4829 44.5173 24.9841C44.3198 24.1619 43.7514 23.3329 42.9359 22.6696C42.7155 22.4889 42.2345 22.1532 41.9954 22.0119C41.9389 21.9792 41.9 21.9453 41.9067 21.9385C41.9645 21.88 43.5647 21.827 44.0752 21.8692C45.5774 21.9887 46.7275 22.6098 47.6747 23.8085C48.1275 24.3793 48.5091 25.1458 48.7066 25.8743C48.8141 26.2698 48.888 26.6924 48.9242 27.1164C48.9525 27.429 48.9471 28.148 48.9175 28.4334C48.8033 29.5383 48.4459 30.5304 47.8225 31.4777C47.3737 32.1585 46.8766 32.6587 46.2639 33.0474L46.1914 33.0936L46.0745 32.9291C45.7426 32.4575 45.2657 32.1463 44.6516 32.0036C44.4286 31.952 43.9718 31.937 43.7487 31.9764C43.1159 32.0892 42.6766 32.429 42.553 32.9047C42.5153 33.0474 42.5153 33.3504 42.5543 33.5108C42.6551 33.9457 43.0138 34.2705 43.5405 34.4105C43.8052 34.4798 43.9677 34.4975 44.3144 34.4975C44.7282 34.4975 45.0359 34.4472 45.5129 34.3086C45.5921 34.2855 45.6472 34.276 45.658 34.2868C45.6822 34.3113 45.8206 34.8128 45.9052 35.1784C45.9455 35.355 46.0678 36.002 46.1793 36.6176C46.4131 37.9114 46.4426 38.0636 46.5501 38.4537C46.7839 39.3085 47.0284 39.8644 47.4691 40.533C48.0415 41.4015 48.712 42.0198 49.502 42.4112C50.108 42.7102 50.6225 42.8298 51.3051 42.8271C51.6517 42.8271 51.688 42.823 51.8533 42.7782C52.521 42.5961 52.8946 42.1761 52.8637 41.6339C52.8569 41.5048 52.8462 41.4572 52.8005 41.3634C52.7266 41.2112 52.5775 41.0726 52.384 40.9761C52.2604 40.9136 52.212 40.8986 52.1032 40.8918C51.8681 40.8769 51.8277 40.9475 51.95 41.1541C52.04 41.3036 52.0615 41.3933 52.0642 41.6026C52.0642 41.7439 52.0588 41.7861 52.0253 41.8622C51.9514 42.0266 51.8116 42.1353 51.5617 42.221C51.4878 42.2454 51.4153 42.2549 51.2607 42.2549C51.0149 42.2536 50.8523 42.2115 50.6266 42.0946C50.4183 41.9832 50.2692 41.8676 50.0663 41.6515C49.7694 41.3376 49.5544 41.0046 49.2642 40.4148C48.9243 39.723 48.7415 39.2419 48.3008 37.8761C47.9716 36.8514 47.891 36.6108 47.75 36.214C47.4369 35.3401 47.1292 34.651 46.8135 34.121L46.6737 33.8873L46.8739 33.7853C47.6008 33.413 48.3022 32.8653 48.8369 32.2496C49.7721 31.1773 50.3686 29.9868 50.6239 28.6889C50.8859 27.3557 50.7824 25.9912 50.3337 24.8632C49.8016 23.5245 48.6837 22.3136 47.3509 21.6354C46.2115 21.0551 45.0265 20.8648 43.2476 20.9776C42.4387 21.0293 41.8113 21.1421 41.1731 21.3554C40.9286 21.4356 40.8909 21.4451 40.8358 21.4275C40.8023 21.4166 40.6464 21.365 40.4919 21.3092C39.8577 21.0863 39.1846 20.9586 38.2481 20.8879C37.9041 20.8648 36.8897 20.8553 36.6533 20.8743ZM41.0925 22.2864C41.5023 22.4658 41.9846 22.7362 42.2762 22.955L42.3958 23.0447L42.3393 23.057C42.2668 23.0719 42.2197 23.1086 41.8664 23.4212C41.4069 23.8276 41.0374 24.1347 40.9003 24.2244L40.8506 24.257L40.7324 24.1619C40.5309 23.9988 40.2554 23.7582 39.9235 23.4484C39.55 23.1018 39.464 23.0298 39.3969 23.008C39.3471 22.9917 39.3525 22.989 39.5379 22.8653C39.7448 22.7254 40.0579 22.5487 40.246 22.4617C40.3978 22.3924 40.856 22.1994 40.8721 22.1967C40.8788 22.1967 40.9783 22.2388 41.0925 22.2864ZM37.6408 32.5377C37.8826 32.5894 38.0667 32.7063 38.1608 32.8666C38.2038 32.94 38.2091 32.9672 38.2091 33.118C38.2091 33.3219 38.1796 33.3912 38.0412 33.5162C37.8853 33.6589 37.6381 33.7255 37.2713 33.7255C37.0362 33.7255 36.8776 33.7011 36.6371 33.6236C36.4974 33.5788 36.269 33.4687 36.1897 33.4075L36.1494 33.3749L36.222 33.2281C36.4638 32.7389 37.1087 32.4236 37.6408 32.5377ZM44.3144 32.6261C44.7551 32.7062 45.1541 33.0066 45.3248 33.3844C45.3637 33.4714 45.3705 33.504 45.357 33.5217C45.3181 33.5706 45.009 33.7079 44.8451 33.7527C44.5939 33.8193 44.4044 33.8424 44.2015 33.8275C43.8482 33.8057 43.6399 33.7364 43.4841 33.591C43.3551 33.4673 43.3161 33.3763 43.3161 33.1901C43.3175 33.0759 43.3255 33.0419 43.3685 32.959C43.4545 32.7987 43.6372 32.6804 43.875 32.6261C44.0188 32.5975 44.1491 32.5948 44.3144 32.6261Z" fill="black"/>
<path d="M30.9323 45.7143C30.8839 45.7701 30.8651 45.8204 30.2645 47.3371C29.9434 48.1539 29.6545 48.866 29.625 48.9231C29.5968 48.9788 29.5538 49.0413 29.5336 49.0604L29.4946 49.0984L29.41 49.0454C29.2353 48.9326 29.0526 48.7314 28.5179 48.0574L28.1981 47.6537L28.3795 47.4703C28.6858 47.1631 28.7718 46.9755 28.7718 46.6249C28.7718 46.4211 28.7678 46.4047 28.7154 46.2906C28.6079 46.0623 28.4305 45.9223 28.1497 45.8435C28.0194 45.8081 27.9683 45.8054 27.1581 45.8027C26.4192 45.7986 26.3023 45.8027 26.2942 45.8245C26.2781 45.8652 26.3224 45.8829 26.4393 45.8829C26.5696 45.8829 26.6543 45.9237 26.704 46.0079C26.7376 46.0691 26.7389 46.1003 26.7443 47.2841C26.751 48.7872 26.7349 49.0495 26.6368 49.1337C26.6207 49.146 26.5549 49.1623 26.4904 49.1677C26.4138 49.1732 26.3708 49.1854 26.3654 49.2017C26.36 49.2166 26.36 49.2316 26.3668 49.237C26.3815 49.2533 27.7171 49.2547 27.7413 49.2411C27.752 49.2343 27.756 49.218 27.7507 49.2031C27.7439 49.184 27.6983 49.1731 27.5935 49.165C27.4349 49.1528 27.3758 49.1242 27.3355 49.04C27.3019 48.9707 27.2791 48.6417 27.2791 48.2082V47.8291H27.5142C27.7963 47.8291 27.7386 47.7828 28.0919 48.2843C28.5286 48.9041 28.6751 49.0685 28.8766 49.1691C29.0405 49.2493 29.1561 49.2601 29.7526 49.2547L30.2914 49.2493L30.2968 49.2085C30.3021 49.1704 30.2968 49.1691 30.1973 49.1691C30.1154 49.1691 30.0804 49.1596 30.0442 49.1297C29.9649 49.0671 29.9864 48.9489 30.1637 48.4719L30.3142 48.0696L30.8463 48.0642L31.3797 48.0601L31.4119 48.1348C31.4294 48.1783 31.5194 48.4121 31.6095 48.6553C31.7814 49.1215 31.7868 49.1528 31.6981 49.165C31.6739 49.1691 31.6605 49.1813 31.6645 49.2003C31.6699 49.2275 31.7048 49.2329 31.9091 49.2411C32.2288 49.2574 32.7555 49.2574 32.8106 49.2411C32.8348 49.2343 32.855 49.218 32.855 49.2031C32.855 49.184 32.8214 49.1731 32.7273 49.165C32.5298 49.1473 32.4344 49.078 32.3121 48.8606C32.249 48.7491 32.1173 48.4297 31.5839 47.0788C31.0774 45.7918 31.0613 45.7538 31.0183 45.7116C30.9793 45.6777 30.9659 45.6777 30.9323 45.7143ZM27.8313 46.0745C28.1067 46.205 28.2478 46.4673 28.2505 46.8492C28.2505 47.0082 28.2061 47.227 28.1537 47.3303C28.1107 47.4145 28.0059 47.5246 27.9307 47.5627C27.8958 47.5817 27.8165 47.6021 27.7533 47.6089C27.619 47.6211 27.3758 47.5912 27.318 47.5532L27.2777 47.526V46.7948C27.2777 46.2321 27.2831 46.0596 27.3006 46.046C27.3382 46.0161 27.3892 46.0079 27.5532 46.0133C27.6915 46.0188 27.7345 46.0283 27.8313 46.0745ZM31.0855 47.2324C31.1983 47.5491 31.291 47.8114 31.291 47.8182C31.291 47.8236 31.0962 47.8291 30.8584 47.8291C30.5064 47.8291 30.4257 47.8236 30.4257 47.8059C30.4257 47.791 30.5171 47.5328 30.6286 47.2283C30.7415 46.9239 30.8369 46.6657 30.8423 46.6507C30.8476 46.6358 30.857 46.6317 30.8651 46.6412C30.8732 46.6521 30.9712 46.9158 31.0855 47.2324Z" fill="black"/>
<path d="M35.9791 45.7202C35.9603 45.7379 35.6835 46.4174 35.3637 47.2247C34.7403 48.8053 34.6893 48.9303 34.6194 49.0213C34.5563 49.1056 34.4474 49.1559 34.309 49.1668C34.2096 49.1736 34.1895 49.1817 34.1895 49.2062C34.1895 49.2238 34.2002 49.2415 34.2123 49.2456C34.2284 49.251 35.2845 49.2497 35.3436 49.2442C35.3503 49.2429 35.3557 49.2266 35.3557 49.2062C35.3557 49.1736 35.3436 49.1708 35.2589 49.1708C35.0789 49.1708 35.0225 49.1083 35.0561 48.9493C35.0668 48.899 35.1407 48.6816 35.2227 48.4655L35.3691 48.0727H35.9052H36.4427L36.6375 48.5892C36.839 49.1287 36.8444 49.1559 36.7557 49.1681C36.7315 49.1722 36.7181 49.1844 36.7221 49.2035C36.7275 49.2306 36.7624 49.2361 36.9667 49.2442C37.2931 49.2605 37.7809 49.2619 37.848 49.2497C37.8857 49.2402 37.9031 49.2279 37.9031 49.2048C37.9031 49.1763 37.8884 49.1708 37.8212 49.1708C37.5874 49.1708 37.4624 49.0703 37.3214 48.7699C37.273 48.6721 36.9814 47.9531 36.6751 47.173C36.3674 46.3957 36.0987 45.7406 36.0812 45.7216C36.0355 45.6767 36.0194 45.6767 35.9791 45.7202ZM36.1363 47.2328C36.2505 47.5549 36.3446 47.8186 36.3446 47.8227C36.3446 47.8335 35.486 47.8294 35.4753 47.8213C35.4699 47.8159 35.5599 47.5563 35.6755 47.2437C35.7924 46.9325 35.8904 46.6661 35.8945 46.6525C35.8998 46.6376 35.9092 46.6335 35.916 46.6376C35.92 46.6444 36.0194 46.9135 36.1363 47.2328Z" fill="black"/>
<path d="M49.3713 45.6976C49.3593 45.703 49.3337 45.737 49.3149 45.7723C49.2974 45.8104 49.018 46.5049 48.6969 47.3203C48.3757 48.133 48.0896 48.8451 48.06 48.9009C47.9982 49.0272 47.8921 49.1265 47.7913 49.155C47.7429 49.1672 47.6354 49.1727 47.5038 49.1672C47.2418 49.1564 47.1947 49.1373 47.1464 49.015C47.1168 48.9348 47.1141 48.8451 47.1141 47.482C47.1141 46.3187 47.1195 46.0251 47.137 45.9925C47.1746 45.9259 47.2619 45.8811 47.3613 45.8811C47.4608 45.8811 47.5024 45.862 47.4903 45.8253C47.4782 45.7873 46.0997 45.7846 46.0849 45.8212C46.0688 45.8607 46.0903 45.8702 46.2408 45.8824C46.5216 45.9069 46.5256 45.9164 46.5364 46.6612L46.5458 47.2374L46.5028 47.2483C46.4799 47.2537 46.0782 47.2551 45.612 47.2537L44.7642 47.2483L44.7601 46.6938C44.7548 46.0808 44.7655 45.9898 44.8448 45.9286C44.8717 45.911 44.9308 45.8906 44.9778 45.8851C45.1216 45.8729 45.1471 45.8634 45.1404 45.8294C45.135 45.8009 45.0799 45.7995 44.4404 45.7968C43.8573 45.7954 43.7417 45.7982 43.735 45.8199C43.7189 45.8593 43.7404 45.8688 43.8908 45.8811C44.0534 45.896 44.1085 45.9259 44.1502 46.0183C44.177 46.0768 44.1797 46.2099 44.1851 47.2618C44.1918 48.7582 44.1743 49.0463 44.0776 49.1292C44.0615 49.1414 43.9956 49.1577 43.9311 49.1632C43.8546 49.1686 43.8116 49.1808 43.8062 49.1971C43.8008 49.2121 43.8008 49.227 43.8075 49.2325C43.8223 49.2488 45.2102 49.2502 45.2358 49.2366C45.2465 49.2298 45.2506 49.2134 45.2452 49.1985C45.2385 49.1795 45.1928 49.1686 45.084 49.1604C44.9147 49.1482 44.8434 49.1197 44.8099 49.0476C44.7669 48.9552 44.7548 48.6943 44.7588 48.0936L44.7642 47.4942H45.6483H46.5323L46.5377 47.9495C46.5431 48.4578 46.5202 48.9226 46.4853 49.0313C46.4571 49.1183 46.3778 49.1659 46.2542 49.1659C46.1938 49.1659 46.1682 49.1727 46.1588 49.1944C46.1534 49.2107 46.1575 49.2284 46.1682 49.2352C46.1911 49.2501 48.7116 49.2474 48.7278 49.2338C48.7331 49.227 48.7345 49.2094 48.7291 49.1931C48.7197 49.174 48.6942 49.1659 48.6297 49.1659C48.4456 49.1659 48.3946 49.1074 48.4295 48.9376C48.4483 48.8465 48.6915 48.1738 48.7358 48.0909C48.7519 48.061 48.7869 48.0582 49.2813 48.0582H49.808L49.8712 48.2227C50.1063 48.8451 50.1963 49.1006 50.1896 49.1224C50.1842 49.1346 50.156 49.155 50.1264 49.1659C50.0969 49.1767 50.0767 49.1944 50.0808 49.2066C50.0861 49.223 50.1641 49.2338 50.3535 49.242C50.6692 49.2569 52.4576 49.2488 52.4737 49.2325C52.4804 49.227 52.4804 49.2094 52.475 49.1931C52.4656 49.1754 52.4401 49.1659 52.3796 49.1659C52.1741 49.1645 52.0867 49.1074 52.0437 48.9498C52.0169 48.8492 51.9604 47.2333 51.9712 46.88L51.9766 46.7141L52.2238 46.9873C52.5839 47.391 54.438 49.2678 54.4998 49.2936C54.5831 49.329 54.6006 49.2868 54.6006 49.0612C54.6019 48.4483 54.6557 46.1094 54.6691 46.0632C54.7081 45.9286 54.7739 45.877 54.9002 45.877C54.9916 45.877 55.052 45.8484 55.0252 45.8158C55.0104 45.7981 54.872 45.7927 54.4206 45.7927C53.918 45.7914 53.8361 45.7941 53.8267 45.8172C53.8106 45.8579 53.8549 45.8756 53.9678 45.8756C54.1599 45.8756 54.2499 45.9531 54.2714 46.1325C54.2862 46.2507 54.3319 48.3477 54.3211 48.36C54.3171 48.3654 54.1639 48.2118 53.9839 48.0202C53.8025 47.8286 53.4142 47.4263 53.1226 47.1259C52.8311 46.8256 52.4105 46.3853 52.1875 46.1461C51.7683 45.6989 51.7146 45.6568 51.6904 45.7533C51.685 45.7764 51.6716 46.4981 51.6568 47.3583C51.6299 49.0476 51.6299 49.0463 51.5345 49.117C51.4888 49.1509 51.4606 49.155 51.2524 49.155C51.0656 49.155 51.0078 49.1496 50.9648 49.1251C50.8788 49.0762 50.7781 48.9498 50.6961 48.7813C50.6531 48.697 50.3656 47.9876 50.0552 47.2034C49.7462 46.4192 49.4775 45.7574 49.46 45.7343C49.4251 45.6921 49.4063 45.684 49.3713 45.6976ZM49.4963 47.2088C49.6092 47.5269 49.7032 47.7973 49.7032 47.8082C49.7032 47.8258 49.6065 47.8313 49.2813 47.8313C49.0475 47.8313 48.8541 47.8245 48.8487 47.8163C48.8393 47.8 49.2639 46.6326 49.28 46.6326C49.2854 46.6326 49.3821 46.8922 49.4963 47.2088Z" fill="black"/>
<path d="M38.9849 45.7385C38.3964 45.8023 38.0336 46.2128 38.1089 46.7265C38.164 47.0961 38.3319 47.3272 38.8559 47.7485C39.0171 47.879 39.1811 48.0244 39.2214 48.072C39.4001 48.2812 39.4619 48.5367 39.3853 48.7447C39.3356 48.8738 39.1958 49.0097 39.0615 49.0573C38.9338 49.1008 38.6839 49.1008 38.5576 49.0573C38.3158 48.9716 38.1653 48.761 38.1317 48.4579C38.1223 48.3669 38.1129 48.337 38.0887 48.3329C38.0363 48.322 38.0215 48.3941 38.0108 48.7624C38.0014 49.0532 38.0054 49.1307 38.0229 49.1578C38.0524 49.1973 38.2594 49.2706 38.4098 49.2937C38.5778 49.3223 38.9204 49.3168 39.0776 49.2869C39.2859 49.2435 39.4914 49.1347 39.6285 48.9934C39.8206 48.795 39.9039 48.5626 39.8878 48.2663C39.8636 47.8423 39.6674 47.565 39.0628 47.0975C38.8223 46.9113 38.6329 46.7197 38.5859 46.611C38.5361 46.4995 38.5375 46.3283 38.5926 46.21C38.6745 46.0307 38.8411 45.9437 39.0978 45.945C39.2227 45.945 39.2657 45.9546 39.3557 45.9953C39.5344 46.0782 39.6473 46.2264 39.6903 46.4329C39.7064 46.5131 39.7172 46.5335 39.7427 46.5335C39.7763 46.5335 39.7776 46.5145 39.7911 46.1856C39.8005 45.9967 39.8005 45.8336 39.7911 45.8268C39.7682 45.8051 39.5506 45.7588 39.4256 45.748C39.1811 45.7249 39.1085 45.7249 38.9849 45.7385Z" fill="black"/>
<path d="M40.41 45.752C40.4006 45.7684 40.3724 45.8866 40.3482 46.0116C40.2972 46.2712 40.2878 46.418 40.3267 46.418C40.3563 46.418 40.3832 46.3854 40.3953 46.3269C40.402 46.3025 40.4302 46.2481 40.4611 46.2073C40.5404 46.0945 40.625 46.0769 41.1302 46.0619C41.36 46.0551 41.5521 46.0511 41.5615 46.0551C41.5803 46.066 41.5763 48.5775 41.5561 48.8099C41.5292 49.1062 41.4997 49.1511 41.3156 49.1674C41.239 49.1728 41.196 49.185 41.1907 49.2013C41.1853 49.2163 41.1853 49.2312 41.192 49.2367C41.2068 49.253 42.5947 49.2543 42.6202 49.2407C42.631 49.2339 42.635 49.2176 42.6296 49.2027C42.6229 49.1837 42.5772 49.1728 42.4657 49.1646C42.2172 49.147 42.1809 49.1021 42.1567 48.7786C42.1473 48.6645 42.1419 48.004 42.1446 47.3109L42.15 46.0524L42.459 46.0565C42.8083 46.0633 42.9817 46.085 43.0905 46.1353C43.1913 46.1842 43.2235 46.225 43.2464 46.3432C43.2625 46.4248 43.2732 46.4452 43.3014 46.4452C43.3337 46.4452 43.335 46.4234 43.3471 46.1407C43.3538 45.9722 43.3565 45.8173 43.3512 45.7942C43.3444 45.7588 43.335 45.7548 43.2853 45.7656C43.116 45.801 42.9078 45.8091 41.9646 45.8091C40.9152 45.8091 40.6371 45.7983 40.5027 45.7507C40.4329 45.7235 40.4248 45.7235 40.41 45.752Z" fill="black"/>
<path d="M32.8855 45.8213C32.8694 45.8607 32.9137 45.8797 33.0212 45.8797C33.1623 45.8797 33.2684 45.9368 33.3033 46.0319C33.3383 46.1325 33.3423 49.0775 33.3074 49.3602C33.2778 49.5926 33.2281 49.7734 33.1569 49.9106C33.0897 50.037 32.8828 50.2572 32.7807 50.3089C32.6987 50.3524 32.6584 50.3931 32.6759 50.4203C32.6947 50.4502 32.7337 50.4393 32.8936 50.3591C33.3638 50.1172 33.7118 49.7408 33.822 49.348C33.8932 49.0966 33.8945 49.0599 33.8945 47.5513C33.8959 45.9178 33.8932 45.9708 34.0114 45.9123C34.045 45.8947 34.1082 45.8797 34.1525 45.8797C34.2425 45.8797 34.2855 45.8607 34.2721 45.824C34.26 45.7859 32.8989 45.7846 32.8855 45.8213Z" fill="black"/>
<path d="M45.6558 51.3162C45.637 51.3352 45.5994 51.3964 45.5712 51.4535C45.5429 51.5105 45.0324 52.7758 44.4372 54.2654C43.8433 55.7549 43.3206 57.0419 43.2777 57.1248C43.1003 57.4727 42.8853 57.6072 42.5091 57.6072C42.4245 57.6072 42.3815 57.6168 42.3627 57.6358C42.3291 57.6684 42.3291 57.6711 42.3519 57.7146C42.3788 57.7663 42.4661 57.7717 43.0237 57.7527C43.3811 57.7404 43.6807 57.7404 43.975 57.7527C44.4331 57.7703 44.4909 57.7649 44.5057 57.6902C44.5178 57.629 44.4614 57.6072 44.2907 57.6072C43.9535 57.6059 43.8715 57.489 43.9615 57.1316C43.9992 56.9848 44.4775 55.6978 44.5205 55.6271L44.5447 55.5877H45.508H46.4714L46.4955 55.6271C46.5291 55.6788 47.1956 57.4482 47.1956 57.4849C47.1956 57.5352 47.1405 57.5882 47.0706 57.6086C46.9886 57.6317 46.9658 57.6698 47.0075 57.7119C47.0625 57.7649 49.0578 57.7894 49.1545 57.735C49.2029 57.7105 49.2042 57.6507 49.1599 57.6263C49.1411 57.6168 49.0752 57.6086 49.0121 57.6086C48.5821 57.6086 48.3564 57.4251 48.089 56.8503C47.9533 56.5608 47.5516 55.5728 46.5694 53.1034C46.1193 51.9699 45.9621 51.588 45.8963 51.4548C45.8076 51.2863 45.731 51.2415 45.6558 51.3162ZM45.9272 54.0696C46.1395 54.6527 46.3088 55.1406 46.3034 55.1528C46.2886 55.1881 44.7234 55.1908 44.7113 55.1542C44.7019 55.1365 44.8416 54.756 45.4664 53.0898C45.4852 53.0381 45.5107 52.9987 45.5214 53.0028C45.5322 53.0055 45.7149 53.4866 45.9272 54.0696Z" fill="black"/>
<path d="M33.1883 51.3708C31.6391 51.5312 30.5804 52.4689 30.27 53.9489C30.2082 54.2479 30.1921 54.7657 30.2351 55.0769C30.3909 56.1941 31.0197 57.0938 31.9602 57.5423C32.4198 57.7624 32.8309 57.8535 33.4355 57.8711C34.5131 57.901 35.3824 57.5803 36.0528 56.9035C36.5634 56.3857 36.8617 55.7633 36.9718 54.9859C37.0041 54.7576 37.0068 54.237 36.9786 54.006C36.867 53.0995 36.4559 52.3955 35.768 51.9307C35.3528 51.6521 34.8946 51.4836 34.3008 51.3939C34.0885 51.3613 33.4073 51.3477 33.1883 51.3708ZM33.8211 51.7908C34.5426 51.9307 35.1271 52.3914 35.4764 53.0995C35.7532 53.6594 35.8728 54.3254 35.8298 55.0715C35.7962 55.6559 35.7048 56.0582 35.5154 56.4373C35.4039 56.6643 35.3138 56.7907 35.1513 56.9552C34.7186 57.3914 34.0992 57.5545 33.4086 57.4104C32.6414 57.2528 32.0624 56.7744 31.6956 55.9984C31.4672 55.5146 31.3583 54.9764 31.3583 54.3322C31.3583 52.9324 31.8783 52.0626 32.8564 51.8138C33.148 51.7432 33.5175 51.7337 33.8211 51.7908Z" fill="black"/>
<path d="M56.2955 51.3622C55.3415 51.4858 54.749 51.9969 54.6697 52.7647C54.6294 53.1724 54.7315 53.5801 54.9666 53.943C55.2071 54.3127 55.4356 54.5383 56.0832 55.0479C56.7617 55.5807 56.9901 55.8633 57.0653 56.2616C57.1339 56.6312 57.0586 56.9098 56.8181 57.1531C56.6219 57.3515 56.3855 57.4535 56.0657 57.4752C55.7849 57.4942 55.4584 57.4181 55.2582 57.2876C54.9519 57.0838 54.7759 56.7562 54.7208 56.3023C54.6979 56.1053 54.6832 56.0699 54.6348 56.0699C54.538 56.0699 54.5179 56.2045 54.4991 56.9941C54.4897 57.3841 54.4937 57.5092 54.5112 57.5513C54.538 57.6179 54.667 57.6858 54.8995 57.7565C55.1951 57.8462 55.3496 57.8639 55.8185 57.8652C56.2619 57.8652 56.3949 57.8503 56.6663 57.7728C57.0546 57.66 57.4469 57.3882 57.6659 57.0797C57.7519 56.9588 57.8567 56.7318 57.9051 56.5701C57.9575 56.3812 57.9723 55.9299 57.932 55.7043C57.8137 55.071 57.4496 54.6158 56.4459 53.8452C55.7459 53.3083 55.5148 53.0189 55.488 52.6451C55.4705 52.3964 55.5551 52.1708 55.7298 52.0037C55.9206 51.8202 56.1503 51.7373 56.4809 51.7373C56.8396 51.7373 57.0694 51.8243 57.287 52.0444C57.4778 52.2374 57.6014 52.5051 57.6028 52.7253C57.6028 52.8001 57.6296 52.8327 57.6861 52.8327C57.76 52.8327 57.7694 52.7824 57.7815 52.2306C57.7882 51.9425 57.7989 51.6761 57.8056 51.6408C57.8124 51.5959 57.807 51.562 57.7936 51.5402C57.7653 51.5022 57.5128 51.4369 57.24 51.3934C57.0546 51.3676 56.4325 51.3472 56.2955 51.3622Z" fill="black"/>
<path d="M24.0461 51.4992C24.0165 51.5291 24.0233 51.5794 24.0568 51.5971C24.0743 51.6066 24.1764 51.6188 24.2826 51.6242C24.6077 51.6405 24.7528 51.7112 24.8133 51.8838C24.863 52.0292 24.8738 52.456 24.8738 54.3723C24.8751 57.0537 24.8549 57.3771 24.683 57.5239C24.6212 57.5755 24.4935 57.6082 24.3457 57.6082C24.2181 57.6082 24.1509 57.6313 24.1509 57.6775C24.1509 57.7413 24.1993 57.7604 24.3793 57.7577C24.558 57.7563 26.0897 57.7563 26.4592 57.7577C26.6836 57.759 26.7319 57.7454 26.7319 57.6775C26.7319 57.6285 26.6768 57.6082 26.56 57.6082C26.392 57.6082 26.1663 57.5728 26.0951 57.5361C25.9029 57.4355 25.8747 57.2561 25.8546 55.9949C25.8438 55.3711 25.8452 55.2081 25.8653 55.185C25.8895 55.1551 26.0722 55.1496 26.4941 55.17L26.74 55.1809L26.7964 55.2421C26.8287 55.2747 27.0087 55.5234 27.1995 55.7938C27.8565 56.7248 28.1145 57.0577 28.3765 57.3119C28.5955 57.5225 28.797 57.6476 29.016 57.7074C29.1665 57.7481 29.5897 57.7712 30.0815 57.7644C30.5652 57.759 30.6015 57.7522 30.6015 57.6775C30.6015 57.6313 30.5571 57.6149 30.3986 57.6027C29.9539 57.5687 29.5992 57.335 29.055 56.7125C28.7137 56.3211 27.5435 54.871 27.5435 54.8398C27.5435 54.8302 27.616 54.7609 27.7047 54.6848C28.1696 54.2785 28.4544 53.8667 28.5727 53.4263C28.6062 53.2972 28.613 53.232 28.613 52.9887C28.613 52.7115 28.6116 52.6979 28.5552 52.5334C28.4544 52.2385 28.2824 51.9885 28.0849 51.8458C27.8444 51.6718 27.5206 51.5563 27.1471 51.5074C26.9012 51.472 24.0757 51.468 24.0461 51.4992ZM26.6594 51.896C26.7225 51.9124 26.8408 51.9572 26.9241 51.998C27.0423 52.0591 27.1055 52.1054 27.2264 52.2263C27.3513 52.3527 27.393 52.4071 27.4602 52.5484C27.6066 52.8474 27.6657 53.1994 27.6321 53.5813C27.5945 53.9971 27.4857 54.2825 27.2747 54.5068C27.1861 54.6019 27.1162 54.6549 27.0329 54.6957L26.916 54.7541H26.5532C26.2671 54.7541 26.1623 54.7473 26.0561 54.7215C25.8331 54.6699 25.8546 54.8167 25.8492 53.3258C25.8452 52.6177 25.8492 52.0102 25.8546 51.9803C25.8599 51.9463 25.8814 51.9124 25.9029 51.9015C26.0024 51.8498 26.4444 51.8458 26.6594 51.896Z" fill="black"/>
<path d="M37.0795 51.498C37.011 51.5374 37.0741 51.6189 37.1736 51.6189C37.3482 51.6189 37.5551 51.7195 37.7352 51.8921C37.9811 52.1286 38.1221 52.3338 38.849 53.523C39.5611 54.6904 39.6337 54.8222 39.7143 55.1226C39.7425 55.2286 39.7465 55.3319 39.7465 56.1867C39.7465 57.1639 39.7398 57.2631 39.6726 57.4017C39.6323 57.4819 39.5625 57.5499 39.498 57.5716C39.4684 57.5825 39.3649 57.5961 39.2696 57.6056C39.0841 57.6219 39.0223 57.6518 39.0586 57.7089C39.0922 57.7619 39.1822 57.7673 39.7304 57.7496C40.0824 57.7388 40.4855 57.7388 40.9181 57.751C41.598 57.7687 41.7014 57.7632 41.7243 57.7007C41.7485 57.6382 41.692 57.6178 41.4663 57.6042C41.1976 57.5866 41.1237 57.5743 41.0458 57.5349C40.8348 57.4262 40.8107 57.2549 40.8201 55.9625L40.8268 55.1131L40.8751 54.9554C40.902 54.8698 40.9517 54.7407 40.9867 54.67C41.1304 54.3819 41.5711 53.6208 41.9621 52.9862C42.6473 51.8758 42.8489 51.672 43.3245 51.6189C43.4696 51.6026 43.5247 51.5687 43.4925 51.5157C43.475 51.4871 43.4038 51.4858 42.5116 51.4858H41.5496L41.5442 51.532C41.5389 51.5809 41.5684 51.6013 41.6894 51.6285C41.7176 51.6339 41.7673 51.6665 41.8009 51.7005C41.8694 51.7698 41.8775 51.8378 41.8291 52.028C41.7901 52.1857 41.6719 52.4181 41.1345 53.3817C40.8886 53.8233 40.6427 54.2705 40.5903 54.3724C40.507 54.53 40.4909 54.5532 40.4761 54.5246C40.4653 54.5056 40.2947 54.2052 40.0932 53.8559C39.2413 52.38 39.0116 51.9587 38.9874 51.8269C38.9699 51.725 39.0156 51.6638 39.1433 51.6271C39.2601 51.5918 39.3018 51.5524 39.2669 51.5089C39.2494 51.4871 39.0828 51.4844 38.1786 51.4844C37.5659 51.483 37.097 51.4898 37.0795 51.498Z" fill="black"/>
<path d="M49.3035 51.4886C49.2686 51.5008 49.2767 51.5796 49.3143 51.6014C49.3331 51.6109 49.403 51.619 49.4701 51.619C49.6233 51.619 49.802 51.6625 49.8853 51.7169C49.9713 51.774 50.0183 51.8705 50.0439 52.0417C50.0734 52.2361 50.0734 56.5796 50.0439 56.9221C49.9941 57.4847 49.9323 57.5799 49.5951 57.6016C49.403 57.6138 49.3506 57.6301 49.3506 57.6764C49.3506 57.7661 49.4083 57.7715 50.0533 57.7497C50.5074 57.7334 50.7882 57.7348 51.5433 57.7592C52.0539 57.7756 52.6652 57.7864 52.9044 57.7823C53.4015 57.7755 53.4297 57.7674 53.4875 57.6342C53.5305 57.5377 53.5815 57.2333 53.6178 56.8568C53.6514 56.5266 53.642 56.4641 53.5667 56.4641C53.5157 56.4641 53.4942 56.4967 53.4767 56.6068C53.4579 56.7264 53.388 56.9003 53.3155 57.0104C53.1475 57.2659 52.8788 57.3352 52.1425 57.3162C51.7005 57.304 51.5312 57.2768 51.3821 57.2007C51.1738 57.0933 51.1456 56.9805 51.1147 56.1515C51.0905 55.4584 51.1039 52.1899 51.1322 52.0077C51.1644 51.8025 51.2396 51.6952 51.3794 51.6557C51.4143 51.6449 51.5191 51.6326 51.6105 51.6272C51.855 51.6123 51.8899 51.6054 51.902 51.5647C51.9289 51.4804 51.9571 51.4818 50.5974 51.4818C49.8987 51.4818 49.3143 51.4845 49.3035 51.4886Z" fill="black"/>
</svg>
