<svg width="91" height="62" viewBox="0 0 91 62" fill="none" xmlns="http://www.w3.org/2000/svg">
<path d="M58.6792 56.7559H31.5781V56.0137H58.6792V56.7559Z" fill="#D5152C"/>
<path d="M58.6792 35.9727V56.062H31.5781V36.1706C33.1197 42.1578 38.5896 46.6111 45.1038 46.6111C51.7175 46.6111 57.2371 42.0588 58.6792 35.9727Z" fill="#2B2A29"/>
<path d="M31.5781 36.1706C32.7218 37.0613 34.1639 37.4076 35.606 37.4076C35.7552 37.4076 35.9044 37.4076 36.0535 37.4076C37.7442 40.6734 41.1754 42.9001 45.1038 42.9001C49.8776 42.9001 53.9054 39.6343 54.9994 35.2305C55.3475 35.3789 55.6956 35.3789 55.9442 35.3789C56.2923 35.3789 56.5907 35.3294 56.8891 35.2305C57.3366 35.7253 57.983 36.0222 58.7289 35.9232C57.2869 42.0589 51.7672 46.6112 45.1535 46.6112C38.5896 46.6112 33.1197 42.1578 31.5781 36.1706Z" fill="#E5B582"/>
<path d="M53.2583 40.8216L53.9048 40.1289L54.1037 40.3268L53.6561 40.7722L53.8053 40.9206L54.2031 40.4753L54.402 40.6732L54.0042 41.1185L54.1534 41.267L54.6009 40.7722L54.7998 40.9701L54.1037 41.6628L53.2583 40.8216ZM52.2141 42.405C52.3135 42.3556 52.3135 42.2566 52.2638 42.1576C52.2141 42.0587 52.1146 42.1082 52.0151 42.1576L51.8162 42.3061L51.9654 42.5535L52.2141 42.405ZM51.4184 42.2566L51.866 41.9102C52.0152 41.8113 52.1643 41.7618 52.2638 41.7618C52.3632 41.7618 52.4627 41.8113 52.5124 41.9102C52.6119 42.0587 52.6119 42.2071 52.5124 42.3556L53.0097 42.504L52.7113 42.7514L52.3135 42.603L52.1643 42.7019L52.3632 42.9988L52.1146 43.1967L51.4184 42.2566ZM50.2747 43.5926C50.225 43.4441 50.0261 43.3452 49.8769 43.4442C49.7277 43.4936 49.6283 43.6916 49.7277 43.8895C49.7774 44.0379 49.9764 44.1369 50.1753 44.0379C50.3244 43.939 50.3742 43.741 50.2747 43.5926ZM49.4294 43.9884C49.2802 43.6421 49.4294 43.2957 49.7774 43.1473C50.1255 42.9988 50.4736 43.1473 50.6228 43.4442C50.772 43.7905 50.6228 44.1369 50.2747 44.2853C49.9266 44.4338 49.5785 44.2853 49.4294 43.9884ZM47.2414 43.939L47.5895 43.8895L47.7884 44.7801L48.3851 44.6317L48.4348 44.9286L47.5397 45.1265L47.2414 43.939ZM45.5009 44.8296L45.3518 44.4833L45.2523 44.8296H45.5009ZM45.2026 44.0874H45.5507L46.0977 45.275H45.7496L45.6501 45.077H45.2026L45.1031 45.3244H44.755L45.2026 44.0874ZM42.2687 44.3843C42.3184 44.0379 42.6665 43.84 43.0146 43.8895C43.2135 43.939 43.3627 44.0379 43.4621 44.1369L43.2135 44.3348C43.1638 44.2358 43.0643 44.1864 42.9649 44.1864C42.8157 44.1369 42.6168 44.2853 42.6168 44.4338C42.5671 44.6317 42.6665 44.7801 42.8654 44.8296C42.9649 44.8296 43.0146 44.8296 43.0643 44.8296L43.1141 44.6812L42.8654 44.6317L42.9152 44.3843L43.4621 44.4833L43.3627 45.0276C43.2135 45.1265 43.0146 45.176 42.8157 45.1265C42.4179 45.077 42.219 44.7801 42.2687 44.3843ZM40.1304 42.9988L40.4288 43.1473L40.6277 43.939L40.8763 43.3452L41.1747 43.4936L40.7272 44.5327L40.4785 44.4338L40.2299 43.6421L39.9813 44.2359L39.6829 44.0874L40.1304 42.9988ZM38.2408 42.7019L38.3403 42.3556L37.9922 42.5535L38.2408 42.7019ZM38.39 41.9597L38.6386 42.1576L38.3403 43.4442L38.0419 43.2462L38.0917 42.9988L37.7933 42.7019L37.5944 42.8504L37.296 42.6524L38.39 41.9597ZM36.5998 40.8711C36.6496 40.8216 36.6496 40.7722 36.5501 40.6732L36.4009 40.5248L36.2518 40.6732L36.4009 40.8216C36.5004 40.9206 36.5501 40.9206 36.5998 40.8711ZM36.3015 41.0196L36.1523 40.8216L36.0031 40.9701L36.202 41.168C36.2518 41.2175 36.3512 41.267 36.4009 41.2175C36.3512 41.2175 36.3512 41.1185 36.3015 41.0196ZM36.4009 40.1289L36.8485 40.5742C36.9479 40.6732 36.9977 40.7722 36.9977 40.8711C36.9977 40.9206 36.9479 41.0196 36.8982 41.0691C36.7988 41.168 36.6993 41.168 36.5501 41.1185C36.5998 41.267 36.5998 41.3659 36.5004 41.5144C36.3512 41.6628 36.1523 41.6133 35.9534 41.4154L35.5059 40.9701L36.4009 40.1289Z" fill="#2B2A29"/>
<path d="M56.788 52.5002C57.0367 52.5992 57.2356 52.7476 57.2356 53.094C57.2356 53.4898 56.8378 53.7867 56.2908 53.7867C55.9427 53.7867 55.7438 53.6877 55.6443 53.6383L55.4951 53.7867H55.4454V52.9455H55.4951C55.7438 53.4403 55.9924 53.6877 56.2908 53.6877C56.6388 53.6877 56.7383 53.5393 56.7383 53.3414C56.7383 53.1434 56.6389 53.0445 56.3405 52.896C56.1913 52.8466 56.0919 52.7971 55.9924 52.7476C55.7438 52.6486 55.5449 52.4012 55.5449 52.1043C55.5449 51.659 55.9427 51.4116 56.3902 51.4116C56.6389 51.4116 56.8875 51.5106 56.9869 51.56L57.0864 51.4116H57.1361V52.2033H57.0864C56.9372 51.8075 56.7383 51.5106 56.3902 51.5106C56.1416 51.5106 55.9924 51.659 55.9924 51.8569C55.9924 52.1043 56.1416 52.2033 56.3902 52.3023C56.5394 52.4507 56.6886 52.4507 56.788 52.5002ZM53.7547 51.758H54.0033C54.3514 51.758 54.3514 51.9559 54.3514 52.1043C54.3514 52.4012 54.0531 52.4012 53.7547 52.5992V51.758ZM54.0033 53.7372H53.9536C53.8044 53.7372 53.705 53.6877 53.705 53.4898V52.896C53.705 52.7476 53.8044 52.6486 53.9536 52.5992C54.3017 52.5992 53.9536 53.8362 54.8984 53.8362C55.0476 53.8362 55.1968 53.7867 55.2962 53.7372V53.6383C55.2465 53.6383 55.2465 53.6383 55.1968 53.6383C54.5006 53.6383 54.9481 52.5497 54.252 52.4507C54.6001 52.3023 54.799 52.2033 54.799 52.0054C54.799 51.8075 54.7492 51.5106 54.1525 51.5106H52.9093V51.56H52.9591C53.1082 51.56 53.2077 51.6095 53.2077 51.659V53.2919C53.2077 53.6383 53.1082 53.6383 52.9591 53.6383H52.9093V53.6877H54.0033V53.7372ZM47.688 51.56H48.5334V51.6095H48.4837C48.3345 51.6095 48.235 51.659 48.235 51.8569V53.7867H48.1356L46.6438 51.9559V53.4898C46.6438 53.6877 46.793 53.7372 46.8924 53.7372H46.9421V53.7867H46.0968V53.7372H46.1465C46.2957 53.7372 46.3951 53.6877 46.3951 53.4898V51.7085C46.3454 51.659 46.246 51.6095 46.1465 51.6095H46.0968V51.56H46.9919L47.9864 52.7971V51.8569C47.9864 51.659 47.8372 51.6095 47.7378 51.6095H47.688V51.56ZM49.8263 52.6486H50.8208V52.6981C50.6716 52.6981 50.5722 52.7476 50.5722 52.9455V53.6383C50.5722 53.6383 50.1744 53.8857 49.6771 53.8857C49.0804 53.8857 48.5334 53.4403 48.5334 52.6981C48.5334 51.9559 49.0804 51.5106 49.6274 51.5106C49.9257 51.5106 50.1246 51.659 50.2738 51.659C50.423 51.659 50.3733 51.5106 50.3733 51.5106H50.423L50.5722 52.2033H50.5225C50.5225 52.2033 50.2241 51.659 49.7268 51.659C49.329 51.659 49.0804 51.9064 49.0804 52.6486C49.0804 53.3414 49.4285 53.6383 49.7766 53.6383C49.876 53.6383 50.0252 53.5888 50.0749 53.5888V52.9455C50.1246 52.7476 50.0252 52.6981 49.8263 52.6486ZM52.9093 53.1434L52.611 53.7867H50.9203V53.7372H50.97C51.1192 53.7372 51.2186 53.6877 51.2186 53.4898V51.8569C51.2186 51.659 51.1192 51.6095 50.97 51.6095H50.9203V51.56H52.5115L52.7104 52.1043L52.6607 52.1538C52.6607 52.1538 52.4121 51.758 51.9645 51.758H51.7159V52.5992H52.064C52.2629 52.5992 52.3624 52.4507 52.3624 52.3023V52.2528H52.4121V53.0445H52.3624V52.995C52.3624 52.8466 52.2629 52.6981 52.064 52.6981H51.7159V53.5888H52.064C52.5115 53.5888 52.8596 53.094 52.9093 53.1434ZM45.9973 53.094L46.047 53.1434L45.7487 53.7867H44.058V53.7372H44.1077C44.2569 53.7372 44.3563 53.6877 44.3563 53.4898V51.8569C44.3563 51.659 44.2569 51.6095 44.1077 51.6095H44.058V51.56H45.6492L45.8481 52.1043L45.7984 52.1538C45.7984 52.1538 45.5498 51.758 45.1022 51.758H44.8536V52.5992H45.2017C45.4006 52.5992 45.5001 52.4507 45.5001 52.3023V52.2528H45.5498V53.0445H45.5001V52.995C45.5001 52.8466 45.4006 52.6981 45.2017 52.6981H44.8536V53.5888H45.2514C45.699 53.5888 45.9973 53.094 45.9973 53.094ZM38.5383 53.0445L38.8367 52.3023L39.135 53.0445H38.5383ZM42.0689 53.094C42.0689 53.094 41.7208 53.5888 41.2733 53.5888H40.9252V51.8075C40.9252 51.6095 41.0246 51.56 41.1738 51.56H41.2236V51.5106H40.1296V51.56H40.1793C40.3285 51.56 40.4279 51.6095 40.4279 51.8075V53.4403C40.4279 53.6383 40.3285 53.6877 40.229 53.6877C40.1296 53.6877 40.0301 53.6383 39.9307 53.4898C39.9307 53.4403 39.0356 51.4611 39.0356 51.4611H38.9858L38.1405 53.4898C38.0908 53.6383 37.9913 53.6877 37.8421 53.6877C37.6929 53.6877 37.6432 53.6383 37.6432 53.4403V51.8075C37.6432 51.6095 37.7427 51.56 37.8919 51.56H37.9416V51.5106H36.8476V51.56H36.8973C37.0465 51.56 37.146 51.6095 37.146 51.8075V52.5002H36.3006V51.8075C36.3006 51.6095 36.4001 51.56 36.5492 51.56H36.599V51.5106H35.505V51.56H35.5547C35.7039 51.56 35.8033 51.6095 35.8033 51.8075V53.4403C35.8033 53.6383 35.7039 53.6877 35.5547 53.6877H35.505V53.7372H36.599V53.6877H36.5492C36.4001 53.6877 36.3006 53.6383 36.3006 53.4403V52.6981H37.0962V53.4403C37.0962 53.6383 36.9968 53.6877 36.8476 53.6877H36.7979V53.7372H38.4886V53.6877H38.4389C38.3394 53.6877 38.2399 53.6383 38.3394 53.4403L38.4389 53.1929H39.2345L39.3339 53.4403C39.4334 53.6383 39.3339 53.6877 39.2345 53.6877H39.1848V53.7372H41.87L42.1684 53.094H42.0689ZM33.5656 52.4507C33.5656 53.2424 33.9137 53.6383 34.3613 53.6383C34.9082 53.6383 35.2563 52.9455 35.2563 52.9455H35.3061L35.1072 53.8362H35.0574C35.0574 53.8362 35.0574 53.6877 34.958 53.6877C34.8585 53.6877 34.6596 53.8362 34.3613 53.8362C33.5656 53.8362 33.0684 53.2919 33.0684 52.4507C33.0684 51.6095 33.5656 51.0652 34.3613 51.0652C34.6596 51.0652 34.8585 51.2137 34.958 51.2137C35.0574 51.2137 35.0574 51.0652 35.0574 51.0652H35.1072L35.3061 51.9559H35.2563C35.2563 51.9559 34.9082 51.2632 34.3613 51.2632C33.9137 51.2137 33.5656 51.659 33.5656 52.4507ZM44.058 53.1434L43.7596 53.7867H42.0689V53.7372H42.1186C42.2678 53.7372 42.3673 53.6877 42.3673 53.4898V51.8569C42.3673 51.659 42.2678 51.6095 42.1186 51.6095H42.0689V51.56H43.1629V51.6095H43.1132C42.964 51.6095 42.8645 51.659 42.8645 51.8569V53.6383H43.2623C43.7099 53.6383 44.058 53.1434 44.058 53.1434ZM40.6766 48.0964H40.9749C41.323 48.0964 41.4722 48.2448 41.4722 48.4922C41.4722 48.9375 40.9749 48.987 40.7263 49.1849V48.0964H40.6766ZM40.9749 50.5704C40.8257 50.5704 40.7263 50.5209 40.7263 50.323V49.5313C40.7263 49.3829 40.8755 49.2839 41.0246 49.2344C41.3727 49.2344 41.5219 51.1642 42.6656 51.1642C43.0137 51.1642 43.2126 50.9663 43.2126 50.9663L43.1629 50.9168C43.1629 50.9168 43.0137 51.0158 42.8148 51.0158C42.1186 51.0158 41.9197 49.2344 41.2236 49.1355C41.5716 48.987 41.9695 48.8386 41.9695 48.4427C41.9695 48.1458 41.7208 47.8984 41.1241 47.8984H39.8809V47.9479H39.9307C40.0798 47.9479 40.1793 47.9974 40.1793 48.1953V50.323C40.1793 50.5209 40.0798 50.5704 39.9307 50.5704H39.8809V50.6199L40.9749 50.5704ZM47.1908 49.1355L47.4891 49.8777H46.8924L47.1908 49.1355ZM46.1962 50.5704H46.1465V50.6199H46.8924V50.5704H46.8427C46.7432 50.5704 46.6438 50.5209 46.7432 50.323L46.8427 50.0756H47.5886L47.688 50.323C47.7875 50.5209 47.688 50.5704 47.5886 50.5704H47.5388V50.6199H50.1744L50.4727 49.9766L50.423 49.9272C50.423 49.9272 50.0749 50.422 49.6771 50.422H49.329V48.6901C49.329 48.4922 49.4285 48.4427 49.5776 48.4427H49.6274V48.3932H48.5831V48.4922H48.6328C48.782 48.4922 48.8815 48.5417 48.8815 48.7396V50.3725C48.8815 50.5704 48.782 50.6199 48.6826 50.6199C48.5831 50.6199 48.4837 50.5704 48.4339 50.422C48.3842 50.323 47.5388 48.4427 47.5388 48.4427H47.4891L46.6438 50.422C46.4449 50.5209 46.3454 50.5704 46.1962 50.5704ZM44.4061 48.4427H44.3563V48.3932H45.4503V48.4427H45.4006C45.3011 48.4427 45.2017 48.4922 45.3011 48.6901L45.7487 49.4324C45.7487 49.4324 46.0968 48.8881 46.1962 48.6901C46.2957 48.4922 46.1962 48.4427 46.0968 48.4427H46.047V48.3932H46.8427V48.4427H46.7929C46.6935 48.4427 46.594 48.4922 46.4946 48.6407L45.8979 49.6303V50.2735C45.8979 50.4715 45.9973 50.5209 46.0968 50.5209H46.1465V50.5704H45.1022V50.5209H45.152C45.3011 50.5209 45.3509 50.4715 45.3509 50.2735V49.6798L44.7542 48.6407C44.605 48.5417 44.5552 48.4427 44.4061 48.4427ZM43.4115 48.5417C43.7596 48.5417 44.0083 48.8386 44.0083 49.5313C44.0083 50.2241 43.7596 50.5209 43.4115 50.5209C43.0634 50.5209 42.8148 50.2241 42.8148 49.5313C42.8148 48.8386 43.0634 48.5417 43.4115 48.5417ZM43.4115 50.6694C44.058 50.6694 44.5552 50.2241 44.5552 49.5313C44.5552 48.8386 44.058 48.3932 43.4115 48.3932C42.7651 48.3932 42.2678 48.8386 42.2678 49.5313C42.2678 50.2241 42.7651 50.6694 43.4115 50.6694Z" fill="#FEFEFE"/>
<path d="M45.7494 11.3811C45.4013 11.2822 44.0089 11.1832 44.0089 11.2822C43.9592 11.4306 44.3073 11.4306 45.0035 11.9749C45.2024 12.1233 45.451 12.2223 45.7494 12.1728C45.9483 12.1233 46.0477 12.0739 46.1969 11.9254C46.5947 11.6285 46.2963 11.579 45.7494 11.3811ZM54.7002 32.5096C54.4515 32.4601 52.91 31.8663 52.5619 31.6684C51.816 31.3221 49.081 29.3923 48.4843 28.749C47.7882 28.0563 46.6444 27.512 46.545 27.611C46.545 27.611 47.8379 28.947 47.5395 30.2829C47.4401 30.7778 47.3903 30.9757 47.639 30.6293C48.1362 30.0355 48.0368 29.3428 48.0368 29.3428C48.0865 29.3923 49.28 30.0355 49.1308 32.0148C49.1308 32.1632 49.827 31.3221 49.8767 30.9262C50.0259 30.9262 50.7718 32.1138 50.6723 32.658C50.6226 33.0539 50.9209 32.8065 51.0701 32.5591C51.1696 32.4106 51.2193 32.2127 51.269 32.1138C51.3188 31.9653 51.3188 31.9653 51.5177 32.0148C52.2636 32.2127 53.9045 32.4106 54.7002 32.5096ZM43.0144 37.2103C42.7657 39.437 40.727 40.6245 40.6772 40.7235C40.6772 40.7235 44.357 40.1792 43.0144 37.2103ZM33.4171 20.3372C33.2679 18.7538 30.2843 17.022 31.2789 13.2614C29.0909 15.8344 30.6324 17.022 31.4778 17.9621C31.7264 18.2095 31.975 18.4075 32.0745 18.6549C32.2237 18.9517 31.8259 18.7538 31.5772 18.7538C29.986 18.7043 29.6876 19.9909 29.8368 20.0403C29.9362 20.0898 31.2789 18.3085 33.069 20.1393C33.2182 20.2877 33.4668 20.6341 33.4171 20.3372ZM35.5554 35.6764C35.8537 35.6764 36.5996 35.6764 36.6494 35.4785C36.6991 35.33 36.5499 35.0826 36.4504 35.0331C36.2515 34.9837 34.7597 35.4785 33.4171 34.7857C32.9198 34.5383 32.4226 34.093 32.3728 34.093C32.2734 34.1425 32.8701 35.7259 35.5554 35.6764ZM31.2291 33.6477C31.08 33.0044 31.1794 32.7075 31.0302 32.4601C30.881 32.3117 30.6821 32.1138 30.3341 32.1138C29.1406 32.1138 29.2401 32.8065 29.2898 32.4601C29.2898 32.0148 29.5882 30.8767 31.0302 31.0252C31.2789 31.0746 31.3783 30.2829 31.2789 30.0355C30.6821 28.5511 29.5882 29.6397 29.4887 30.3324C29.2898 30.4314 29.0909 29.2438 29.3395 28.6006C29.6876 27.512 30.881 26.9182 31.9253 28.2047C32.3728 27.2151 34.1133 22.0691 32.522 20.5846C31.9253 20.0403 30.9308 20.0898 30.3341 20.5846C29.8368 20.9805 29.7871 21.7722 29.6379 21.7722C29.3892 21.7722 28.4942 20.6341 28.5936 19.6445C28.7428 18.259 30.1849 18.1106 30.2346 18.0116C30.3341 17.8632 30.0854 17.7642 29.986 17.6158C29.1406 16.7746 28.9914 15.0427 30.0357 13.9047C32.2734 11.4306 31.5772 11.0347 31.8756 11.1337C32.0248 11.1832 32.522 11.777 32.6215 12.4202C32.9198 14.1521 31.7761 14.449 32.6215 16.6261C32.5718 16.4777 32.6712 15.1417 33.616 14.251C34.0636 13.8057 35.4559 13.3109 35.6051 13.5088C35.6051 13.8057 33.8149 14.0036 35.0084 17.8632C35.5056 19.496 35.4559 22.6134 34.163 25.8296C34.1133 25.9286 34.3122 25.7802 34.5608 25.7802C35.5056 25.7802 35.9035 26.3739 35.8537 27.2151C35.804 27.611 35.7045 27.3636 35.3565 27.2646C32.6712 26.8687 32.4723 30.085 32.4226 31.4705C32.3728 32.856 32.6215 34.5878 36.9974 34.0435C37.2461 33.994 37.4947 35.7259 37.4947 35.8743C37.4947 36.1217 37.3455 36.2207 37.0969 36.2207C33.3177 36.864 31.5275 34.9837 31.2291 33.6477ZM52.2138 23.8999C52.6117 24.2462 52.7608 24.84 52.8603 25.3348C53.4073 27.3141 55.1477 27.3636 55.1477 27.2646C55.1477 27.2151 54.2029 26.7698 54.2526 24.9885C54.3024 24.1968 53.7554 23.3061 53.0095 22.8608C51.0701 21.7227 48.5341 22.3165 47.4401 22.0196C48.5341 23.3061 49.4789 25.1864 50.1253 25.6812C50.722 26.176 51.269 26.3739 52.7111 27.611C52.6614 27.5615 52.1144 24.939 51.4182 24.0978C51.3685 23.9988 50.7718 23.3556 50.722 23.3556C51.2193 23.2566 51.9155 23.6525 52.2138 23.8999ZM57.0373 15.1417C57.0373 14.9932 56.4406 16.2798 54.2526 18.7043C54.1532 18.8033 54.3521 19.2981 54.6007 19.595C54.6504 19.694 54.8991 19.9414 54.9985 19.8919C55.0483 19.8424 54.9488 19.1497 55.7444 18.0116C56.2914 17.2199 56.8882 16.1313 57.0373 15.1417ZM62.4078 13.4593C62.4078 13.5088 62.4078 13.5583 62.2586 13.5088C62.01 13.4593 61.7117 13.3109 61.463 13.5088C61.2144 13.7067 61.1647 14.0036 60.8166 14.1521C60.2696 14.3995 59.4242 14.2015 59.0761 14.7953C58.927 15.0427 58.9269 15.4881 59.275 15.5375C59.5734 15.587 60.1701 15.0922 60.8166 15.8839C60.8663 15.9334 61.5625 15.5375 61.6122 15.6365C61.6619 15.7849 61.2641 16.4777 61.1149 16.7251C60.369 17.9621 59.3745 17.6652 58.927 17.5168C58.4794 17.3683 58.0816 17.3189 57.7832 17.8137C57.3357 18.5559 57.4351 19.3476 57.286 20.1393C57.2362 20.3372 57.0373 21.3763 56.8384 21.3268C56.6395 21.2774 56.3909 20.0898 56.192 20.1393C56.1423 20.1393 56.3412 21.4753 55.7444 22.0691C55.6947 22.1185 55.2969 20.7331 53.9045 20.5351C53.8548 19.9414 53.6062 19.6445 52.9597 19.0507C53.3576 18.6054 53.9543 17.8632 54.3521 17.4178C55.098 16.5272 55.9931 15.686 56.3909 14.5479C56.739 13.6078 56.8882 12.6181 57.4849 11.777C57.7832 11.3811 58.8772 10.3915 60.2696 10.7873C60.4188 10.8368 61.3636 10.6389 61.463 11.2327C61.463 11.2822 61.1149 11.2327 60.8663 11.3811C60.6177 11.5296 60.5182 11.8759 60.4685 11.8759C59.0264 11.7275 59.0264 13.0635 59.1756 12.915C59.5237 12.5687 60.4685 11.9749 61.7117 12.6676C62.2089 12.915 62.4078 13.3604 62.4078 13.4593ZM41.8209 9.55031C44.4565 8.56068 46.545 9.59979 46.545 9.59979C44.0089 7.76898 41.8209 9.55031 41.8209 9.55031ZM43.9592 6.9278C43.9592 7.12573 44.0586 7.27417 44.1581 7.27417C44.2576 7.27417 44.357 7.12573 44.357 6.9278C44.357 6.72988 44.2576 6.58143 44.1581 6.58143C44.0586 6.53195 43.9592 6.6804 43.9592 6.9278ZM48.8324 7.81847C48.3351 7.91743 48.2854 8.21432 48.186 8.5112C48.0368 9.10498 47.7882 9.10498 47.6887 9.15446C46.8433 9.3029 47.1417 9.94616 47.1417 9.99564C47.1417 9.99564 47.1417 9.99564 47.092 9.99564C46.9925 10.0451 46.7439 10.342 46.6942 10.5399C46.6444 10.4905 44.0089 9.20394 41.6718 10.5399C41.6718 10.5399 41.622 10.2925 41.2242 9.99564C41.2242 9.99564 41.5226 9.3029 40.6772 9.15446C40.528 9.10498 40.3291 9.10498 40.18 8.5112C40.0805 8.21432 40.0308 7.91743 39.5335 7.81847C39.5335 7.81847 39.7821 7.52158 40.4286 7.76898L40.7767 7.4721L40.8264 7.91743L41.2739 7.81847L41.1248 8.31328L41.5723 8.41224L41.2739 8.70913C41.2739 8.70913 42.169 9.15446 42.0696 8.06587L41.7215 8.2638C41.7215 8.2638 41.4231 7.86795 41.3734 7.4721H41.8209L41.4231 6.97728C41.4231 6.97728 41.9701 6.6804 42.3679 6.6804L42.4177 7.27417L42.8155 6.9278C42.8155 6.9278 43.0144 7.42262 43.0641 7.81847C43.0144 7.81847 42.5668 7.81847 42.5668 7.81847C42.5668 7.81847 43.263 8.90705 43.7603 7.81847C43.7603 7.81847 43.4619 7.86795 43.2133 7.57106C43.2133 7.57106 43.2133 7.42262 43.4122 7.32365C43.263 7.27417 43.1138 7.07625 43.1138 6.97728C43.1138 6.9278 43.2133 6.82884 43.3625 6.82884C43.3127 6.82884 43.1636 6.63092 43.1636 6.38351C43.1636 6.38351 43.3127 6.33403 43.5614 6.43299C43.5614 6.43299 43.4619 6.28455 43.4122 5.8887C43.4122 5.8887 43.6111 5.83922 43.8597 5.8887C43.9095 5.8887 43.9095 5.69077 44.1084 5.44337C44.1084 5.44337 44.1084 5.39388 44.1581 5.39388C44.2078 5.3444 44.2078 5.3444 44.2078 5.29492C44.2078 5.29492 44.2575 5.3444 44.3073 5.44337C44.5062 5.69077 44.5062 5.8887 44.5559 5.8887C44.8045 5.83922 45.0035 5.83922 45.0035 5.8887C45.0035 6.33403 44.8543 6.43299 44.8543 6.43299C45.1526 6.33403 45.2521 6.43299 45.2521 6.38351C45.2024 6.63092 45.0532 6.82884 45.0532 6.82884C45.2024 6.87832 45.3018 6.9278 45.3018 6.97728C45.3018 7.07625 45.1526 7.22469 45.0035 7.32365C45.1526 7.42262 45.2024 7.57106 45.2024 7.57106C44.9537 7.86795 44.7051 7.76898 44.6554 7.81847C45.1526 8.90705 45.8488 7.81847 45.8488 7.81847C45.8488 7.81847 45.4013 7.81847 45.3515 7.81847C45.4013 7.42262 45.6002 6.9278 45.6002 6.9278L45.998 7.27417L46.0477 6.6804C46.4455 6.6804 46.9925 6.97728 46.9925 6.97728L46.5947 7.4721C46.5947 7.4721 47.0422 7.52158 47.0422 7.4721C46.9925 7.86795 46.6942 8.2638 46.6942 8.2638L46.2466 7.96691C46.1472 9.0555 47.0422 8.61017 47.0422 8.61017L46.7439 8.36276L47.1914 8.2638L46.9925 7.76898L47.4401 7.86795L47.4898 7.42262L47.8379 7.7195C48.5341 7.52158 48.7827 7.81847 48.8324 7.81847ZM38.7379 19.1497C38.9368 19.0012 39.1357 18.9517 38.8871 19.3476C38.0417 20.8815 37.5942 22.5144 39.0362 24.4442C39.086 24.4936 39.086 24.4936 39.086 24.4442C39.1854 23.9988 39.5335 22.7123 41.0253 21.6237C41.1745 21.5248 42.0198 20.8815 42.0198 20.8815C42.169 20.931 41.9204 21.4258 42.8155 22.2175C43.0641 22.4154 42.9647 22.1185 43.1138 21.8711C43.4122 21.4753 44.0586 20.7331 44.3073 20.2383C44.357 20.1393 44.8045 20.6341 45.0035 21.4753C45.2521 20.2877 45.0035 19.8424 44.4067 19.3971C44.2576 19.2981 44.357 19.8424 42.9647 21.1289C42.3679 20.4362 42.5668 19.1497 42.4674 19.1002C42.5171 19.1002 41.8707 20.0898 41.0253 20.4857C39.7821 21.0794 39.5832 21.5743 39.5335 21.4753C39.086 20.6836 39.5832 19.9909 39.7821 19.3971C39.9313 19.0507 40.8264 17.3683 40.7269 17.2199C40.5778 17.3683 39.086 18.1106 39.086 17.9126C39.3346 15.7849 40.8264 15.9334 41.0253 14.449C41.0253 14.3995 40.3291 14.8943 40.2297 14.9438C39.8319 15.1912 39.7821 15.2407 39.8816 14.7953C40.1302 13.8057 41.075 13.113 40.9756 13.113C39.0362 13.2614 39.5335 15.1912 37.5942 15.8344C37.6439 16.0324 38.1909 15.9829 38.3401 15.9334C38.4892 15.9334 38.8871 15.9334 39.0362 15.9334C37.6439 17.4673 38.2406 18.6054 37.4947 19.694C37.4947 19.7929 38.3898 19.3971 38.7379 19.1497ZM40.3789 12.4697C40.9259 12.5192 41.5723 12.0244 41.3734 12.0244C39.981 11.8759 39.0362 10.7873 39.0362 10.7873C38.9368 10.7873 39.1357 11.3316 39.1357 11.4306C39.2849 12.0739 39.633 12.4202 40.3789 12.4697ZM43.6111 17.5663C43.6608 17.5663 43.6608 17.5663 43.7106 17.5168C43.7603 17.3683 43.4122 17.1704 43.8597 16.0818C44.0586 15.587 44.0586 15.1417 44.0586 14.6469C44.0586 14.0036 44.5559 13.4098 44.5559 13.4098C44.4565 13.3109 43.4619 14.2015 43.4619 14.8448C43.4619 15.1912 43.5116 15.3891 43.3127 15.6365C42.2685 17.1704 43.5116 17.5663 43.6111 17.5663ZM35.7045 19.7929C37.445 19.8919 36.898 18.259 37.2461 17.4178C37.3953 17.0715 37.7433 16.7746 37.8428 16.5272C37.5942 16.5766 35.9035 16.923 36.1024 14.9932C36.1024 14.8943 36.6494 15.4386 37.3455 15.2901C38.7876 14.8943 38.5887 13.4593 39.633 12.8161C38.4395 12.3707 38.9865 11.3316 38.3401 10.4905C38.1909 10.243 37.8428 10.1936 37.7931 10.1441C37.7931 10.0946 39.633 9.74823 40.8761 10.8368C41.3237 11.2822 41.1745 11.3316 41.5723 10.9853C43.0144 9.69875 46.8931 10.1441 47.2909 11.5296C47.4401 11.6285 48.5838 11.8264 49.0313 11.8264C49.3297 11.8264 49.8767 11.9254 49.7772 12.3213C49.5783 13.2119 48.9816 13.1624 49.0313 13.3604C49.1805 14.0531 48.6832 15.0427 48.5838 14.9932C48.4843 14.9438 48.4843 14.5974 48.4346 14.5479C47.7384 14.1026 46.4953 13.9541 45.8488 13.3109C45.1526 13.6573 45.2024 14.7953 45.2024 15.1417C45.1526 16.2303 44.8045 16.3292 44.904 16.4282C45.2024 16.8241 45.6996 16.9725 46.2963 17.022C46.8931 17.022 46.7936 17.1704 47.3903 17.1209C47.639 17.0715 47.9871 16.7746 48.0368 16.7746C48.0865 16.8241 48.0368 17.2694 47.8379 17.5663C47.639 17.9126 47.2412 18.0116 46.7936 17.9621C46.1472 17.9126 45.0532 17.7642 44.6554 18.5064C44.4067 19.0012 44.7548 18.7538 45.3515 18.5559C47.092 17.9126 47.5395 19.8919 49.9761 17.7642H50.0259C50.0259 18.1106 50.175 19.0507 48.8821 19.595C48.2357 19.8919 46.9428 19.7434 46.5947 20.0403C48.4346 20.8815 50.0259 19.6445 51.0701 19.595C51.816 19.5455 52.9597 19.8919 53.1089 20.7331C52.91 20.4857 52.1144 20.4362 51.7663 20.5846C48.0865 22.0196 46.9428 20.7331 46.6942 20.931C46.3958 21.1289 46.3461 21.7722 46.4953 22.0691C46.7439 22.6628 47.3406 23.3556 47.6887 24.7411C46.4953 23.7019 45.0532 23.603 44.7548 22.5144C44.6554 22.2175 44.6554 21.7227 44.5559 21.4753C44.5559 21.4753 44.3073 21.9701 44.2576 22.267C44.0586 23.1576 45.3515 23.8999 45.3515 25.9286C42.6663 24.7411 42.6663 23.4051 42.716 23.0587C42.716 23.0092 42.6663 23.0092 42.6663 23.0587C42.5171 23.2566 42.2685 23.8999 42.7657 25.4833C43.1138 26.5719 42.6166 27.611 42.6166 27.5615C42.5668 26.7203 41.4728 25.8296 41.075 24.6916C40.6772 23.5535 41.4231 22.7618 41.3734 22.6628C41.3237 22.5639 40.0308 23.2566 40.2794 24.8895C40.4286 25.9781 41.2242 26.3244 41.5226 27.2151C41.8209 28.1058 41.6718 29.5902 39.5335 30.0355C39.2849 30.085 39.4341 29.9366 39.5832 29.7881C40.2297 28.947 39.5335 27.512 39.3346 27.413C39.2351 27.3636 38.8373 27.8584 37.992 27.8584C36.8483 27.8089 36.5002 26.7203 36.6494 26.7203C38.4892 26.8193 38.1412 24.8895 37.992 24.9885C37.8925 25.1369 36.3013 25.8296 35.9035 24.6916C35.9035 24.6421 35.9035 24.5926 35.9532 24.5926C37.7931 24.5431 37.0969 22.7123 37.0472 22.0691C36.9477 21.03 37.5942 20.5846 37.5444 20.4362C37.4947 20.3867 35.6051 20.832 35.6548 19.7929H35.7045ZM56.8384 25.1864C57.286 25.0379 57.4849 24.84 57.6341 24.6916V24.6421C57.3854 24.6421 56.3909 24.5431 55.7444 23.3556C55.1477 22.267 54.2029 21.2279 52.8603 21.2279C52.2636 21.2279 50.9209 21.5743 50.9707 21.6237C51.0204 21.7227 53.2084 21.6732 54.1532 22.9597C54.8494 23.9494 55.3466 25.6317 56.8384 25.1864ZM46.9428 14.9932C46.3461 14.4984 45.6996 14.7953 45.4013 15.5375C45.3018 15.7849 45.3515 15.7355 45.451 15.7355C46.1472 15.5375 46.4455 15.686 46.8433 15.8839C47.8379 16.3292 48.5341 16.1313 48.9319 15.3891C48.6335 15.3891 48.186 15.9829 46.9428 14.9932ZM61.3138 33.2023C61.0652 33.1034 61.1149 32.658 60.7668 32.6086C60.4685 32.5591 60.1701 32.9549 59.8718 32.8065C58.9767 32.4106 58.181 32.6086 57.9821 32.8065C58.1313 32.9055 58.9767 33.1529 59.1756 33.2518C59.5734 33.4992 59.822 33.994 59.5734 34.6868C59.4739 35.0331 59.5734 35.2311 59.3248 35.5774C59.0264 35.9733 58.9767 35.8248 59.0761 35.4785C59.0761 35.3795 58.9767 35.33 58.8275 35.0331C58.728 34.8352 57.5346 35.2806 57.1865 33.994C56.8882 34.192 55.2969 35.0826 53.8051 33.3013C52.91 32.2127 51.7663 33.6477 49.5286 33.8456C49.4291 33.8456 50.0756 33.2023 49.8767 32.4106C49.827 32.1138 49.827 32.1632 49.628 32.3117C49.28 32.5591 48.6335 32.856 48.186 32.856C48.0865 32.856 48.7827 32.2622 48.2357 30.6293C48.186 30.5304 47.639 31.52 46.5947 31.52C46.7439 30.6788 46.7936 30.184 46.6444 29.8376C46.4953 29.4418 45.998 29.0954 45.3018 28.749C45.3515 28.7985 45.451 28.9964 45.5007 28.9964C46.6942 31.0252 45.451 32.0643 45.6499 32.1138C46.8931 32.5096 47.6887 31.7179 47.7882 31.7674C47.9373 31.8169 47.6887 32.5096 47.3903 33.0044C46.9428 33.7466 46.2964 34.1425 45.451 34.5383C44.8045 34.8847 43.6111 35.33 43.81 36.2207C43.9095 36.6165 44.904 37.9031 45.0035 38.5958C45.1029 39.3875 44.3073 40.4761 44.1581 41.1688C44.1084 41.4162 44.1084 41.6636 44.1581 41.8616C43.6608 41.8121 43.2133 41.7626 42.7657 41.6142C42.6663 41.4162 42.6166 41.2183 42.5668 40.9709C42.5668 40.773 42.6166 40.6245 42.4674 40.7235C42.2188 40.9214 42.0696 41.1688 41.9701 41.4162C40.7269 41.0204 39.5832 40.3276 38.6384 39.4865C40.4783 37.8536 40.0308 35.2311 39.981 34.6373C39.7821 32.4106 42.1193 32.5096 43.4619 28.6501C42.4177 30.7283 38.2903 31.6684 38.7876 34.8352C39.0362 36.3691 39.2351 37.5072 38.1412 38.9916C37.9422 38.7937 37.7931 38.5958 37.6439 38.3979C38.3401 37.0619 37.6936 35.2311 37.7931 33.8456C38.0417 30.6293 44.0089 29.7881 43.4619 25.8296C43.4619 25.7802 43.5116 25.7802 43.5116 25.7802C44.5062 26.1265 45.0532 26.9182 45.2521 27.3141C45.3018 27.3636 45.3515 27.4625 45.4013 27.5615C45.6002 27.3636 45.9483 26.8193 46.0974 26.2255C46.1969 25.7802 46.2466 25.1864 46.0974 24.5431C46.0974 24.4442 47.5395 25.3348 47.7882 25.7307C48.0368 26.0276 48.186 26.5224 48.2357 25.9781C48.2854 25.7307 48.2854 25.1369 48.2357 24.3947C48.4346 24.5431 48.733 25.2853 49.4291 26.0276C49.9761 26.6213 52.6614 28.3037 54.1035 29.9366C54.551 30.3819 55.3466 30.6293 55.9433 30.4314C56.8384 30.1345 56.7887 28.3532 58.728 28.3037C59.275 28.2542 60.0209 27.9573 60.369 28.6501C60.5182 28.9964 60.1701 28.7985 59.9215 28.848C59.5734 28.8975 59.4242 29.0459 59.4242 29.3428C59.4242 30.1345 58.2308 30.6788 58.2308 30.8272C58.5291 30.9262 59.8718 30.3324 60.5182 30.9757C60.6674 31.1241 60.6674 31.3221 60.7668 31.4705C61.6619 32.658 61.3636 33.2023 61.3138 33.2023ZM50.2248 40.5256C49.7772 40.8225 49.3297 41.0699 48.8324 41.2678C47.4898 41.3173 46.0974 41.7131 46.1472 41.6142C46.7936 38.5463 45.5504 37.0619 45.3515 36.666C44.7051 35.1816 47.2412 35.2311 48.6832 34.2909C48.8821 34.1425 48.9319 34.2909 49.081 34.5383C49.3297 34.9837 49.9264 36.1712 50.8712 36.8145C52.0149 37.6062 52.7111 37.6557 53.1586 37.4577C52.5619 38.4474 51.816 39.2885 50.9209 40.0308C48.0368 39.4865 47.3903 38.6948 47.3406 38.9916C47.3406 39.2885 47.3406 40.4266 47.4898 40.5256C47.639 40.5256 48.9816 40.3276 50.2248 40.5256Z" fill="#E5B582"/>
<path d="M51.0709 39.9318C45.601 38.8432 45.4518 36.3691 45.402 36.1712C45.4518 35.7259 46.4463 35.2805 47.3414 35.2311C47.4906 35.2311 47.2419 37.0124 52.2146 38.8432C51.8665 39.239 51.4687 39.5854 51.0709 39.9318ZM43.8108 41.9605C43.5622 41.911 43.3135 41.911 43.1146 41.8121C42.9157 41.5152 42.8163 41.1688 42.866 40.8224C42.9157 40.7235 43.0152 40.6245 43.1643 40.2782C43.3135 39.9318 43.3632 39.6349 43.413 39.5854C43.3632 40.773 43.6119 41.5152 43.8108 41.9605ZM30.3846 32.0643C29.7381 32.0148 29.39 32.3612 29.4398 32.3117C29.7878 31.7179 30.2851 31.52 30.7326 31.4705C32.8709 31.3715 31.1802 35.33 36.7993 34.3404C36.9485 34.2909 36.6004 34.8352 36.501 34.9342C36.3518 34.8847 36.0037 34.9837 35.4567 35.0331C35.0092 35.0331 34.1638 35.0826 33.5173 34.7363C30.9813 33.4992 31.7272 32.1632 30.3846 32.0643ZM34.5119 36.2207C33.3682 36.0722 31.9758 35.33 31.5283 34.2414C31.6775 34.4394 33.4676 36.8145 36.8988 35.7754C36.9485 35.7259 37.2469 35.9733 37.1971 36.0228C36.9485 36.1217 36.0534 36.4186 34.5119 36.2207ZM44.1091 5.44336C44.1091 5.44336 44.4572 6.08662 44.1091 6.48247C44.1091 6.48247 43.7611 6.18558 44.1091 5.44336ZM41.5234 6.87832C41.5234 6.87832 41.6725 6.77935 41.8714 6.72987C41.8714 6.72987 42.0704 7.12572 42.1201 7.42261C42.1201 7.42261 42.0704 7.37313 41.8714 7.32365C41.8714 7.37313 41.5234 6.87832 41.5234 6.87832ZM46.1479 7.42261C46.1977 7.07624 46.3966 6.72987 46.3966 6.72987C46.5458 6.77935 46.7447 6.87832 46.7447 6.87832L46.3966 7.37313C46.1479 7.37313 46.1479 7.42261 46.1479 7.42261ZM46.2971 8.56068C46.0485 8.26379 46.0982 7.62053 46.0982 7.62053L46.496 7.86794C46.5955 7.67002 46.5955 7.42261 46.5955 7.42261H46.7944C46.7447 7.7195 46.5458 8.06586 46.5458 8.06586L46.2474 7.91742C46.1479 8.16483 46.2971 8.56068 46.2971 8.56068ZM41.6725 8.06586C41.6725 8.06586 41.4239 7.7195 41.4239 7.42261H41.6228C41.6228 7.42261 41.6228 7.62053 41.7223 7.86794L42.1201 7.62053C42.1201 7.62053 42.1698 8.26379 41.9212 8.56068C41.9212 8.56068 42.1201 8.11535 42.0206 7.86794C42.0206 7.86794 41.7223 8.06586 41.6725 8.06586ZM42.4682 7.67002L42.3687 7.52157C42.3687 7.52157 42.866 7.47209 42.9157 7.47209C42.9654 7.47209 42.9654 7.62053 42.9654 7.62053H42.4682V7.67002ZM44.8053 5.88869C44.8053 6.23506 44.6561 6.48247 44.5567 6.53195C44.8053 6.3835 45.054 6.43298 45.054 6.43298L44.6064 6.82883C44.9545 6.77935 45.2031 6.87832 45.2031 6.87832L44.6561 7.12572C44.9545 7.22468 45.1534 7.42261 45.1534 7.42261C45.1534 7.42261 44.8053 7.42261 44.5567 7.42261L44.6064 7.9669L44.2086 7.42261C44.7059 6.9278 44.2583 6.48247 44.2583 6.48247L44.8053 5.88869ZM45.7999 7.7195H45.3026L45.3523 7.57105L45.8993 7.62053L45.7999 7.7195ZM43.6616 6.82883L43.2141 6.43298C43.2141 6.43298 43.4627 6.3835 43.7113 6.53195C43.6616 6.48247 43.4627 6.18558 43.4627 5.88869L44.0097 6.48247C44.0097 6.48247 43.5622 6.9278 44.0594 7.42261L43.7611 7.9669L43.8108 7.42261C43.5622 7.42261 43.2141 7.42261 43.2141 7.42261C43.2141 7.42261 43.413 7.1752 43.7113 7.12572L43.1146 6.9278C43.1146 6.9278 43.3135 6.77935 43.6616 6.82883ZM42.2693 7.86794C43.3135 8.85756 43.96 8.06587 44.1589 7.62053C44.507 8.26379 45.1534 8.70912 46.0485 7.81846C45.8496 8.56068 46.1479 8.80808 46.2971 8.90705C45.3026 8.46172 43.7113 8.11535 42.0704 8.90705C42.1698 8.85757 42.4184 8.56068 42.2693 7.86794ZM48.5348 7.86794C48.1867 7.91742 48.137 8.11535 48.0376 8.41223C47.8884 8.90705 47.6398 9.00601 47.4408 9.05549C46.7944 9.20393 46.9436 9.84719 46.8939 9.79771C46.496 9.40186 46.5458 8.90705 46.5458 8.90705C47.4906 9.10497 47.59 8.56068 47.6895 8.31327C47.9878 7.7195 48.5348 7.86794 48.5348 7.86794ZM40.8272 9.05549C40.6283 9.00601 40.3796 8.90705 40.2305 8.41223C40.131 8.06587 40.0813 7.91742 39.7332 7.86794C39.7332 7.86794 40.2305 7.7195 40.5785 8.36275C40.678 8.61016 40.7775 9.15445 41.7223 8.95653C41.7223 8.95653 41.772 9.40186 41.3742 9.84719C41.3244 9.79771 41.4736 9.20393 40.8272 9.05549ZM32.7217 16.7251C32.7217 16.0323 33.1195 14.4489 34.86 13.7562C35.0091 13.7067 32.4731 15.2901 33.4179 17.9621C33.4676 18.0611 32.7217 16.824 32.7217 16.7251ZM42.6671 18.7538C41.4736 20.4857 40.5785 20.0898 39.6337 21.2774C39.3851 18.3085 42.0206 19.1002 42.2195 17.6652C44.1589 18.358 43.3135 19.7929 43.0649 20.931C42.7168 20.5846 42.7168 18.7538 42.6671 18.7538ZM31.3294 12.9645C28.1966 16.2798 31.4785 17.6157 31.8266 18.7043C29.8376 18.5559 29.6884 19.694 29.5889 19.9908C29.0419 18.7043 31.0807 18.3085 30.6332 18.0611C29.7381 17.5168 28.3458 14.9932 31.3294 12.9645ZM32.2742 28.0068C32.8212 26.7203 33.9649 23.1576 33.0201 20.9805C32.5228 19.7434 30.1857 19.595 29.5392 21.4258C29.5392 21.4753 29.4398 21.4753 29.4398 21.4258C29.2408 20.7825 30.1359 19.496 31.3294 19.496C32.5228 19.496 33.3682 20.4857 33.6168 21.6237C33.8157 22.6134 33.8157 25.7307 32.2742 28.0068ZM29.4398 30.1345C29.0419 28.6006 30.6332 27.611 31.4288 29.2438C31.7769 30.0355 31.8764 30.7283 31.6277 30.7283C31.578 29.9861 30.4343 28.0563 29.4398 30.1345ZM58.9775 12.0244C59.1266 11.3316 60.0217 11.2327 60.2206 11.2327C60.4195 11.2327 60.7179 10.7379 61.4141 11.1337V11.1832C61.2649 11.1832 61.066 11.1337 60.9168 11.2327C60.6682 11.3316 60.519 11.6285 60.4195 11.777C58.9775 11.6285 59.1764 12.8161 59.1266 12.8161C59.0272 12.8161 58.8283 12.6676 58.9775 12.0244ZM62.2097 13.4098C61.7622 13.2614 61.5135 13.2614 61.3146 13.4098C61.1157 13.5583 60.8671 13.9541 60.7179 14.0531C60.2703 14.3005 58.5299 14.0036 58.878 15.4386C58.6791 15.5375 57.4359 13.6572 61.0163 13.2119C61.2152 12.9645 61.8119 12.7171 62.2097 13.4098ZM61.1157 16.3292C60.8671 16.7251 60.6682 17.5168 59.4747 17.5168C58.7288 17.5168 58.2813 17.022 57.7343 17.5663C57.8337 17.2199 57.9829 16.9725 58.5796 16.8735C59.6239 17.3189 60.7179 16.6756 60.7676 16.1313C60.7676 16.0818 61.4638 15.7355 61.4638 15.7355C61.5135 15.8344 61.2152 16.1808 61.1157 16.3292ZM54.154 18.6054C54.2037 18.4074 54.3529 17.9126 54.3529 17.8632C54.8501 17.2694 56.5408 15.3891 57.1376 14.35H57.1873C56.7895 15.587 54.502 18.16 54.154 18.6054ZM57.784 15.8344C57.0878 17.7642 57.1873 20.4857 56.8392 21.1289C56.6403 20.9805 56.3917 20.0898 56.1928 19.8424C56.3419 19.595 56.2922 17.6652 57.784 15.8344ZM53.1594 19.1002C53.1097 19.1002 53.1594 19.0507 53.2091 19.0507C53.4081 19.1002 53.8059 19.1991 54.2037 20.1393C54.3031 20.3372 56.0436 19.5455 55.6955 21.7722H55.6458C55.2479 20.6341 53.9053 20.4857 53.9053 20.4362C53.9053 19.9414 53.4578 19.3476 53.1594 19.1002ZM35.7551 19.9414C35.7551 19.9414 36.6004 20.6341 38.49 19.5455C38.4403 19.595 37.6447 20.3372 37.5949 20.3372C37.2469 20.4857 36.1031 20.7331 35.7551 19.9414ZM37.8933 23.5535C38.2911 23.9988 38.7884 24.939 38.6392 25.7307C38.5398 26.3244 38.1917 26.7698 37.5949 26.8193C37.943 26.6708 38.6889 25.4833 37.9928 24.6916C37.943 24.6421 36.849 25.8791 36.0037 24.7905C37.6447 24.9884 37.8933 23.5535 37.8933 23.5535ZM42.5179 27.1656C42.5676 27.0172 41.4736 25.6317 41.225 25.0379C40.7277 23.9493 41.2747 22.8113 41.5234 22.5639C41.5731 22.5144 41.8217 22.3165 41.772 22.3165C40.9266 22.3659 39.2359 24.3947 39.1365 24.5431C39.3354 23.0587 41.4736 21.4753 41.8217 21.0794C41.8714 21.03 41.8714 22.267 41.8714 22.267C41.8714 22.267 42.5676 23.0587 42.5676 23.1082C42.3687 23.1576 42.0206 23.2071 41.9709 23.2566C41.1255 24.3452 43.0152 25.9781 42.5179 27.1656ZM43.2638 24.5431C42.5179 23.6525 42.8163 23.1082 42.8163 23.1082C42.8163 23.1082 44.507 24.9884 45.1534 25.7801C44.6561 25.8296 43.413 24.741 43.2638 24.5431ZM45.2529 30.2829C44.9048 32.757 41.9212 33.6971 41.7223 35.4785C41.3742 38.5958 39.9321 39.2885 39.4348 39.3875C40.7277 37.7051 40.4791 35.8743 40.4294 35.1321C40.3796 34.5383 40.3796 34.0435 40.6283 33.6971C41.225 32.8065 43.5124 31.0252 43.8605 28.4521C43.2141 30.3819 39.2857 31.52 38.7387 33.9446C38.2911 30.7778 43.8605 30.8272 43.8605 26.5224C43.8605 26.5224 45.6507 27.7099 45.2529 30.2829ZM43.8605 36.5176C43.7611 36.5671 43.2141 35.8248 43.2141 35.7259C43.2141 34.4888 44.4075 34.2909 45.4518 34.0435C47.2917 33.5982 47.4408 32.6086 47.8387 32.1138C47.7889 32.658 47.2419 33.9446 45.5512 34.5878C43.0649 35.429 43.8108 36.5176 43.8605 36.5176ZM45.3523 23.2566C45.0042 22.9597 44.8551 22.8113 44.7556 22.4649C44.7556 22.4154 44.7059 22.3659 44.7059 22.3165C44.6561 22.168 44.6561 21.9701 44.6064 21.8216C44.6064 21.7227 44.5567 21.5742 44.5567 21.4753H44.507C44.1091 21.8711 44.0594 22.4649 44.0594 22.3659C43.8108 21.7722 44.2583 20.3372 44.4075 20.3372C44.4572 20.3372 44.6064 21.2774 44.6064 21.2774C44.6064 21.3268 47.2419 24.3947 47.3911 24.4936C46.8441 24.1473 45.8993 23.7019 45.3523 23.2566ZM46.8441 31.4705C46.8938 31.1241 47.7392 29.4418 45.5512 28.7985C47.4906 29.2438 47.3414 30.1345 47.3414 30.8767C47.3414 31.0252 46.8441 31.52 46.8441 31.4705ZM39.5343 29.9861C39.7332 29.8376 40.3299 28.7985 39.3851 27.2646C39.2359 27.3141 38.6392 27.7594 38.0425 27.7594C37.3463 27.7594 36.6999 27.2646 36.6999 26.8687C37.5949 27.9078 39.2857 27.3141 39.6337 25.8791C39.6337 25.8296 42.319 28.5016 39.5343 29.9861ZM50.0266 29.8871C48.4851 28.749 47.6397 27.512 45.9988 27.413C46.6949 26.6213 46.496 25.7307 46.496 25.1369C46.8938 25.3348 51.419 31.2726 54.9496 32.3117C52.6124 31.7179 51.2201 30.7283 50.0266 29.8871ZM58.1818 30.9262C58.2316 29.8871 59.2758 30.2335 59.2758 29.1944C59.3753 28.848 59.9223 28.5016 60.4693 28.8975V28.9469C59.7234 28.9469 59.5742 29.2438 59.5742 29.4912C59.5245 30.4809 58.2316 30.7283 58.1818 30.9262ZM37.4955 15.686C39.2857 14.4489 38.6889 13.8057 39.6337 12.8655C40.0813 12.9645 40.5786 12.915 41.1753 12.915C41.0758 13.014 39.9818 12.6181 39.0867 14.3995C38.6392 15.3396 37.2966 15.7849 37.4955 15.686ZM44.0594 10.342C42.7168 10.5894 42.5179 10.8368 42.319 10.9358C42.2693 10.9853 42.2693 12.0738 42.0704 12.2223C41.9709 12.0738 41.5234 11.3316 41.2747 11.2327C41.4736 11.0842 42.2693 10.3915 44.0594 10.342ZM47.6398 17.5663C46.9436 18.4074 44.9048 17.0715 44.4075 18.6549C44.4075 18.7043 43.2141 17.022 44.1589 16.0323L44.4572 17.1209C44.507 17.3189 46.9933 17.5663 47.2419 17.5168C47.3414 17.4673 47.7889 16.923 47.8387 16.8735C47.8884 16.8735 47.8387 17.3189 47.6398 17.5663ZM36.1031 15.1417C36.8988 16.5272 37.943 16.0818 38.6889 16.0323C38.6889 16.0818 37.9928 16.2798 37.8933 16.4282C37.3463 16.5272 36.1031 16.7251 36.1031 15.1417ZM49.8775 18.0116C49.9272 19.1991 48.6343 19.8424 47.7889 19.7929C47.2917 19.7434 46.7447 19.8424 46.3966 20.0403C46.2474 18.2095 48.5846 20.3372 49.8775 18.0116ZM50.8223 20.1393C51.6179 19.8919 52.8611 20.4857 52.8611 20.6341C51.6676 20.1393 50.0764 21.8711 47.2419 21.1289C46.9933 21.0794 46.7944 20.8815 46.496 20.931C47.3911 20.3372 46.8938 21.3268 50.8223 20.1393ZM48.4851 14.7458C48.4354 14.0036 46.7944 14.2015 45.8496 13.3109C45.7004 13.1624 45.054 13.7562 45.054 14.4489C44.8053 14.0036 44.7556 13.6078 44.7059 13.014C44.7059 12.9645 44.3081 12.5192 43.7113 12.3707C44.3578 12.2718 44.507 12.6181 45.6507 12.9645C45.7004 13.014 46.5458 12.6676 46.5458 12.7171C46.5458 12.8161 47.4906 13.9047 47.6398 13.9541C48.7835 14.3005 48.8332 13.4593 48.8829 13.5088C48.8829 13.6078 48.7337 14.8448 48.4851 14.7458ZM48.7337 12.2223C49.231 12.6181 49.4796 12.1728 49.4796 12.2223C49.3802 12.8655 48.7835 13.2119 48.7835 13.2119C48.2365 13.113 48.0376 12.0738 48.0873 12.0738C48.4354 12.2223 48.684 12.1728 48.7337 12.2223ZM41.7223 13.3604C41.8217 13.3604 41.9709 14.251 41.225 14.8448C41.2747 14.7458 41.3244 14.3005 41.3244 14.2015C41.3742 13.9541 40.3796 14.7458 40.0316 14.9438C40.5288 13.0635 41.7223 13.3604 41.7223 13.3604ZM42.6173 14.7953C42.4682 15.9829 41.9212 16.4282 40.8272 17.022C40.8272 17.022 39.4846 17.7642 39.3851 17.7642C39.3354 15.9334 42.3687 15.6365 42.6173 14.7953ZM52.9108 23.3061C54.3529 24.5431 53.2092 26.077 54.6015 27.1656C52.513 26.5224 53.2091 24.6916 52.2146 23.8504C51.2201 23.0092 49.8277 23.3556 49.8277 23.3556C49.8277 23.3556 51.4687 22.0691 52.9108 23.3061ZM54.9993 23.0587C55.3474 23.603 55.6955 24.9884 57.4857 24.7905C57.237 24.8895 55.7949 26.176 54.502 23.4545C53.7561 21.9206 51.6179 21.7722 51.1206 21.7227C53.607 21.1784 54.4026 22.0691 54.9993 23.0587ZM61.2649 33.1034C60.8173 32.0148 60.2206 32.8065 59.9223 32.658C59.425 32.4106 58.2316 32.4106 57.9829 32.6086C58.0326 31.9158 59.425 31.6684 60.4693 32.0148C60.7179 32.0643 61.4141 32.3612 61.2649 33.1034ZM49.778 23.4051C49.778 23.4545 52.2643 27.0667 52.3638 27.3141C51.1704 26.3244 50.9217 26.275 50.1758 25.6317C49.2807 24.7905 48.8829 23.504 47.6895 22.267C47.7889 22.267 49.8277 23.3061 49.778 23.4051ZM59.3255 34.8847C59.3255 35.1321 59.5742 35.2805 59.2758 35.7259H59.2261C59.2758 35.429 59.0769 35.2806 58.9277 35.0331C58.0326 34.9342 57.5354 34.6868 57.3862 33.8456C55.4469 35.1321 54.2037 33.2518 53.607 33.0539C53.5572 33.0044 55.8944 33.9446 57.5354 33.0044C58.0326 34.2414 59.1266 33.6971 59.3255 34.8847ZM47.043 10.0451C47.043 10.0451 46.6452 10.3915 46.5955 10.5894C46.5458 10.5399 43.9102 9.25341 41.6228 10.5894C41.6228 10.5894 41.5731 10.342 41.1753 10.0451C41.1753 10.0451 41.4239 9.89667 41.9709 10.0946C41.9709 10.0946 43.96 9.20393 46.2971 10.1441C46.2971 10.1441 46.6949 9.89667 47.043 10.0451ZM58.0326 11.2821C57.9829 11.2821 57.9829 11.2821 58.0326 11.2821V11.2821ZM47.1425 15.5375C46.8441 15.3396 46.5458 15.1417 46.1977 15.1417C45.601 15.1417 45.5015 15.587 45.5015 15.587C46.9933 14.7953 46.9436 16.824 48.684 15.5375C48.7337 15.4881 47.9878 16.0818 47.1425 15.5375ZM45.6507 12.2223C45.7004 12.2223 45.7004 12.2223 45.7004 12.2223C45.8496 12.1728 45.949 12.1233 46.1479 11.9749C46.5955 11.678 46.2474 11.6285 45.7004 11.4306C45.3523 11.3316 43.96 11.2327 43.96 11.3316C43.8108 11.3811 42.9654 11.2327 42.7168 11.2327C43.2141 11.0347 45.7004 10.243 46.7944 11.4306C46.7447 11.4801 46.5458 12.4202 45.6507 12.2223Z" fill="#857040"/>
</svg>
