<svg width="1340" height="221" viewBox="0 0 1340 221" fill="none" xmlns="http://www.w3.org/2000/svg">
<rect width="320" height="100" rx="24" fill="#F3F4F5"/>
<g clip-path="url(#clip0_20009_4596)">
<path d="M168.33 42.59H172.782V55.0902C172.782 61.4353 169.317 65.0746 163.281 65.0746C157.308 65.0746 153.874 61.4986 153.874 55.2643V42.6059H158.327V55.1219C158.327 58.8245 160.13 60.8023 163.344 60.8023C166.558 60.8023 168.33 58.8719 168.33 55.2801V42.59ZM143.244 51.5142H133.178V42.59H128.726V64.7423H133.178V55.739H143.228V64.7423H147.681V42.59H143.228V51.5142H143.244ZM254.75 42.59V64.7106H259.14V42.59H254.75ZM237.268 55.201H245.374V51.1661H237.268V46.6249H249.027V42.6059H232.878V64.7265H249.451V60.6916H237.268V55.201ZM219.803 57.8118L214.817 42.5742H211.179L206.193 57.8118L201.349 42.59H196.614L204.265 64.7265H207.949L212.935 50.1851L217.921 64.7265H221.637L229.272 42.59H224.647L219.803 57.8118ZM188.696 42.7166L198.276 64.7265H193.604L191.628 60.122H181.578L181.437 60.4384L179.587 64.7265H175.04L184.714 42.59H188.602L188.696 42.7166ZM189.762 55.5966L186.595 48.1756L183.444 55.5966L183.224 56.1029H189.966L189.762 55.5966Z" fill="#D5D6D7"/>
<path d="M84.8884 62.3844C84.9511 62.3369 84.9668 62.242 84.9354 62.1629C80.6122 52.7851 75.2188 43.9488 68.8649 35.8334C68.8649 35.8334 63.8164 40.6752 64.177 45.5329C64.2615 46.6528 64.5639 47.7449 65.067 48.7468C65.57 49.7487 66.2639 50.6406 67.1089 51.3716C71.5146 55.7071 82.176 61.1819 84.6532 62.4319C84.7316 62.4635 84.8257 62.4477 84.8884 62.3844ZM83.2421 66.087C83.2108 65.9921 83.1167 65.9288 83.007 65.9288L65.2588 66.5459C67.1873 70.0111 70.4327 72.701 73.8036 71.8782C76.1397 71.2928 81.4078 67.5744 83.1481 66.3085C83.2892 66.1978 83.2421 66.1028 83.2421 66.087ZM83.5087 64.4889C83.6028 64.3465 83.446 64.2199 83.446 64.2199C75.6537 58.9033 60.5395 50.7387 60.5395 50.7387C60.0386 52.2883 59.8984 53.9336 60.13 55.5468C60.3616 57.16 60.9586 58.6976 61.8748 60.04C62.7909 61.3825 64.0014 62.4937 65.4122 63.2872C66.8231 64.0807 68.3962 64.5353 70.0094 64.6154C70.276 64.6629 80.5611 64.6154 83.3205 64.5996C83.3989 64.5838 83.4616 64.5522 83.5087 64.4889ZM84.6846 28.0959C83.9163 28.1592 81.8311 28.6497 81.8311 28.6497C77.1275 29.8681 76.0143 34.1878 76.0143 34.1878C75.152 36.8935 76.03 39.8841 76.03 39.8841C77.5979 46.9095 85.3117 58.4761 86.9737 60.897C87.0834 61.0236 87.1775 60.9762 87.1775 60.9762C87.2715 60.9445 87.3499 60.8654 87.3499 60.7546C89.9212 34.9314 84.6846 28.0959 84.6846 28.0959ZM90.564 60.9445C90.6581 60.9762 90.7679 60.9445 90.8149 60.8496C92.5239 58.3654 100.191 46.862 101.759 39.8682C101.759 39.8682 102.605 36.4821 101.79 34.1719C101.79 34.1719 100.63 29.789 95.9261 28.6339C95.9261 28.6339 94.5778 28.2858 93.1353 28.0801C93.1353 28.0801 87.8673 34.9156 90.4386 60.7388C90.4229 60.8337 90.4857 60.9129 90.564 60.9445ZM94.7659 65.9446C94.7241 65.9531 94.6845 65.9701 94.6495 65.9946C94.6144 66.0191 94.5847 66.0505 94.5621 66.087C94.5464 66.1819 94.5621 66.261 94.6248 66.3243C96.3181 67.5585 101.476 71.1978 103.954 71.894C103.954 71.894 108.547 73.4763 112.53 66.5617L94.7659 65.9446ZM117.265 50.707C117.265 50.707 102.182 58.8875 94.3739 64.2041C94.2956 64.2673 94.2485 64.3623 94.2799 64.4572C94.2799 64.4572 94.3583 64.5996 94.468 64.5996C97.2588 64.5996 107.826 64.6154 108.108 64.568C109.159 64.4889 110.194 64.2515 111.166 63.8559C111.166 63.8559 114.929 62.6534 116.873 58.3337C116.873 58.3337 118.613 54.821 117.265 50.707ZM92.9472 62.3844C93.0099 62.4319 93.104 62.4477 93.1824 62.4002C95.7223 61.1186 106.305 55.6913 110.68 51.3716C110.68 51.3716 113.455 49.1247 113.596 45.5012C113.909 40.4853 108.908 35.8334 108.908 35.8334C108.908 35.8334 99.6576 47.1468 92.8688 62.0996C92.8579 62.1499 92.8594 62.2022 92.873 62.2518C92.8867 62.3014 92.9121 62.347 92.9472 62.3844Z" fill="#D5D6D7"/>
</g>
<rect x="340" width="320" height="100" rx="24" fill="#F3F4F5"/>
<g clip-path="url(#clip1_20009_4596)">
<path d="M581.898 36.3802C579.668 24.1515 541.195 20.3353 495.963 27.8561C476.967 31.0163 459.815 35.6773 446.458 40.9211C448.51 40.964 450.031 41.4133 450.956 42.294C451.679 42.9852 452.044 43.9338 452.044 45.1156V46.3287H447.609V45.2576C447.609 44.3652 447.048 43.8121 446.056 43.8121C445.222 43.8121 444.708 44.1717 444.542 44.88C444.487 45.1601 444.493 45.448 444.56 45.7257C445.035 47.5784 451.621 48.729 452.337 52.1481C452.431 52.5881 452.559 53.5297 452.358 54.8769C451.947 57.6345 449.41 58.6986 446.18 58.6986C441.672 58.6986 439.841 56.6594 439.841 53.848L439.844 52.5179H444.599L444.601 54.1748C444.601 55.1062 445.31 55.6203 446.276 55.6203C447.19 55.6203 447.725 55.2685 447.909 54.5493C447.995 54.2185 448.033 53.7309 447.877 53.3581C446.997 51.2503 440.847 50.2658 440.09 46.8576C439.921 46.0915 439.907 45.4394 440.047 44.6148C440.12 44.2061 440.252 43.8092 440.441 43.4361C425.625 50.0536 416.958 57.335 418.103 63.6217C420.335 75.8519 458.807 79.6642 504.038 72.1434C523.921 68.8382 541.796 63.8901 555.4 58.3452C555.204 58.3545 555.012 58.3748 554.808 58.3748C551.712 58.3748 548.948 57.2671 548.662 54.245C548.611 53.6951 548.602 53.4649 548.6 53.1513L548.602 46.2039C548.602 45.9043 548.639 45.3785 548.674 45.1071C549.041 42.1864 551.458 40.9819 554.81 40.9819C557.403 40.9819 560.583 41.6926 560.933 45.1094C560.979 45.5384 560.974 45.9964 560.973 46.1469V46.803H556.494V45.824C556.494 45.8029 556.488 45.437 556.439 45.2085C556.365 44.8598 556.054 44.0516 554.778 44.0516C553.518 44.0516 553.191 44.8613 553.109 45.2092C553.063 45.4004 553.041 45.675 553.041 45.9792V53.5297C553.036 53.7918 553.05 53.997 553.078 54.1475C553.1 54.2661 553.326 55.3067 554.793 55.3067C556.25 55.3067 556.475 54.2661 556.496 54.1475C556.534 53.9431 556.539 53.6997 556.537 53.5297V51.1902H554.775V48.6705H561.008V53.1529C561.006 53.4579 561.001 53.6834 560.947 54.245C560.872 55.0376 560.611 55.7085 560.201 56.2818C574.628 49.7392 583.028 42.5757 581.898 36.3802ZM464.613 58.0534L462.344 43.3284H462.262L459.935 58.0534H455.153L458.369 41.4242H466.172L469.369 58.0534H464.613ZM487.616 58.0534L487.511 43.6132H487.434L484.62 58.0534H480.132L477.332 43.6132H477.252L477.15 58.0534H472.702L473.088 41.4242H480.241L482.324 53.777H482.426L484.515 41.4242H491.665L492.049 58.0534H487.616ZM508.56 54.8309C508.082 58.0519 504.778 58.6151 502.442 58.6151C498.565 58.6151 496.167 57.0323 496.167 53.8113L496.169 52.4976H500.867L500.87 54.1343C500.87 55.0228 501.526 55.5665 502.539 55.5665C503.442 55.5665 503.971 55.2201 504.155 54.5087C504.24 54.1772 504.275 53.6935 504.125 53.3284C503.259 51.2604 497.157 50.2471 496.416 46.8919C496.246 46.1313 496.234 45.4854 496.373 44.6694C496.89 41.6279 499.946 40.996 502.406 40.996C504.607 40.996 506.209 41.4547 507.169 42.3721C507.885 43.057 508.248 43.997 508.248 45.1663V46.3661H503.855V45.3075C503.855 44.4011 503.266 43.8769 502.32 43.8769C501.48 43.8769 500.972 44.2334 500.805 44.9347C500.751 45.2118 500.758 45.4966 500.827 45.7709C501.297 47.615 507.825 48.7423 508.54 52.1294C508.632 52.5616 508.759 53.4891 508.56 54.8309ZM524.829 53.3198C524.836 53.6319 524.804 54.2552 524.786 54.4151C524.518 57.1548 522.466 58.5472 518.703 58.5472C514.926 58.5472 512.872 57.1548 512.606 54.4151C512.576 54.0518 512.561 53.6874 512.563 53.323V41.4203H517.057V53.6982C517.052 53.9728 517.066 54.1756 517.095 54.3168C517.151 54.5898 517.435 55.476 518.703 55.476C519.968 55.476 520.252 54.589 520.312 54.3199C520.337 54.1748 520.353 53.9619 520.353 53.6974V41.4203H524.829V53.3198ZM544.192 57.8841H537.939L533.741 44.7123H533.671L533.903 57.8841H529.545V41.4242H536.061L539.941 54.0773H540.031L539.802 41.4242H544.192V57.8841Z" fill="#D5D6D7"/>
</g>
<rect x="680" width="320" height="100" rx="24" fill="#F3F4F5"/>
<path d="M879.531 53.3086H885.02V58.3534C884.012 58.733 882.035 59.1127 880.161 59.1127C874.089 59.1127 872.07 56.0676 872.07 49.8838C872.07 43.9822 873.992 40.5093 880.058 40.5093C883.439 40.5093 885.357 41.5572 886.946 43.5556L891.141 39.7486C888.58 36.1404 884.109 35.0469 879.912 35.0469C870.476 35.0432 865.514 40.1284 865.514 49.8345C865.514 59.4925 869.998 64.728 879.862 64.728C884.391 64.728 888.818 63.5889 891.229 61.9195V47.9318H879.531L879.531 53.3086ZM850.738 58.6853H864.707V64.2997H843.996V35.47H850.738L850.738 58.6853Z" fill="#D5D6D7"/>
<path d="M827.287 65.7672C836.099 57.0607 836.099 42.9437 827.286 34.2391C818.473 25.5329 804.185 25.5319 795.375 34.2382C786.562 42.9446 786.563 57.0618 795.375 65.7664C804.188 74.4732 818.476 74.4734 827.287 65.7672Z" fill="#D5D6D7"/>
<path d="M804.485 45.654C805 45.6516 805.502 45.4985 805.929 45.2142C806.355 44.9301 806.687 44.5274 806.882 44.057C807.077 43.5867 807.127 43.0696 807.025 42.5714C806.923 42.0731 806.674 41.6158 806.309 41.2573C805.945 40.8987 805.48 40.6548 804.976 40.5566C804.471 40.4583 803.948 40.51 803.473 40.7051C802.998 40.9003 802.592 41.23 802.306 41.653C802.02 42.0758 801.868 42.5727 801.868 43.081C801.869 43.4197 801.937 43.755 802.069 44.0676C802.201 44.3803 802.394 44.6642 802.637 44.9031C802.88 45.142 803.169 45.3313 803.486 45.4601C803.803 45.5891 804.142 45.6549 804.485 45.654ZM828.353 50.7089H816.877V49.0295H830.035C830.053 49.3548 830.062 49.6799 830.062 50.009C830.062 60.1215 821.72 68.3189 811.432 68.3189C801.144 68.3189 792.801 60.1266 792.801 50.009C792.801 39.8924 801.141 31.6992 811.43 31.6992C811.702 31.6992 811.972 31.7046 812.241 31.7156V33.3825C811.972 33.3706 811.703 33.3648 811.433 33.3648C802.082 33.3648 794.498 40.8168 794.498 50.0073C794.498 59.198 802.081 66.6515 811.433 66.6515C820.528 66.6515 827.958 59.6007 828.351 50.7556L828.353 50.7089ZM816.851 57.7055H812.24V40.5873H810.535V59.3964H812.243V59.3851H816.855L816.851 57.7055Z" fill="#F3F4F5"/>
<rect x="1020" width="320" height="100" rx="24" fill="#F3F4F5"/>
<g clip-path="url(#clip2_20009_4596)">
<path fill-rule="evenodd" clip-rule="evenodd" d="M1143.99 34.0176C1152.62 34.0176 1159.61 41.1735 1159.61 50.0008C1159.61 58.8281 1152.62 65.9841 1143.99 65.9841C1135.36 65.9841 1128.36 58.8281 1128.36 50.0008C1128.36 41.1735 1135.36 34.0176 1143.99 34.0176ZM1143.99 39.5552C1149.63 39.5552 1154.2 44.2317 1154.2 50.0008C1154.2 55.77 1149.63 60.4465 1143.99 60.4465C1138.35 60.4465 1133.77 55.77 1133.77 50.0008C1133.77 44.2317 1138.35 39.5552 1143.99 39.5552Z" fill="#D5D6D7"/>
<path d="M1120.65 65.9836H1114.74V52.6649H1102.91V65.9836H1097V34.5112H1102.91V46.6166H1114.74V34.5078L1120.65 34.5127V65.9836ZM1191.01 65.9836H1186.46L1173.32 46.1631V65.9836H1167.56V34.597H1172.2L1185.44 53.4177L1185.27 34.5126H1191.01V65.9836ZM1238.02 34.5127H1250.95C1254.04 34.5127 1256.63 36.5529 1257.64 37.7574C1258.5 38.7682 1259.94 41.2951 1259.94 44.1184C1259.94 45.7298 1259.77 48.2817 1258.69 50.1062C1257.68 51.8043 1255.65 53.7257 1253.33 54.2991L1262 65.9837H1255.08L1243.52 52.2499V65.9837H1238.02V34.5127H1238.02ZM1243.94 39.9666V49.2014H1249C1252.51 49.2014 1254.14 47.0312 1254.19 44.518C1254.24 42.2248 1251.91 39.9526 1249.56 39.9563L1243.94 39.9666Z" fill="#D5D6D7"/>
<path fill-rule="evenodd" clip-rule="evenodd" d="M1214.59 34.0176C1223.22 34.0176 1230.22 41.1735 1230.22 50.0008C1230.22 58.8281 1223.22 65.9841 1214.59 65.9841C1205.96 65.9841 1198.97 58.8281 1198.97 50.0008C1198.97 41.1735 1205.96 34.0176 1214.59 34.0176ZM1214.59 39.5552C1220.23 39.5552 1224.8 44.2317 1224.8 50.0008C1224.8 55.77 1220.23 60.4465 1214.59 60.4465C1208.95 60.4465 1204.38 55.77 1204.38 50.0008C1204.38 44.2317 1208.95 39.5552 1214.59 39.5552Z" fill="#D5D6D7"/>
</g>
<rect y="120" width="320" height="100" rx="24" fill="#F3F4F5"/>
<g clip-path="url(#clip3_20009_4596)">
<path d="M204.932 161.487C202.418 161.487 199.897 161.804 198.307 163.371C196.717 164.937 196.099 167.287 196.099 170.177C196.099 173.068 196.662 175.375 198.229 176.941C199.795 178.508 202.403 178.899 204.917 178.899C207.43 178.899 209.952 178.563 211.542 176.996C213.131 175.429 213.762 173.08 213.762 170.177C213.762 167.275 213.202 164.992 211.612 163.429C210.022 161.867 207.45 161.487 204.932 161.487ZM208.75 174.341C207.861 175.351 206.256 175.516 204.932 175.516C203.609 175.516 202.007 175.339 201.118 174.341C200.23 173.342 200.186 171.936 200.186 170.181C200.186 168.427 200.245 167.068 201.13 166.053C202.015 165.039 203.44 164.878 204.944 164.878C206.448 164.878 207.873 165.055 208.758 166.053C209.643 167.052 209.701 168.423 209.701 170.181C209.701 171.94 209.635 173.326 208.75 174.341ZM170.075 161.796H166.512C166.476 161.796 166.441 161.802 166.408 161.816C166.374 161.829 166.344 161.849 166.319 161.874C166.293 161.899 166.273 161.929 166.259 161.962C166.245 161.995 166.238 162.031 166.238 162.066V178.316C166.238 178.352 166.245 178.387 166.259 178.42C166.273 178.453 166.293 178.483 166.319 178.508C166.344 178.534 166.374 178.553 166.408 178.567C166.441 178.58 166.476 178.587 166.512 178.586H170.075C170.148 178.586 170.217 178.558 170.268 178.507C170.319 178.457 170.349 178.388 170.35 178.316V162.066C170.349 161.994 170.319 161.926 170.268 161.875C170.217 161.825 170.148 161.796 170.075 161.796ZM155.106 170.052L161.422 162.219C161.453 162.181 161.473 162.135 161.479 162.086C161.485 162.037 161.477 161.987 161.456 161.943C161.434 161.898 161.4 161.861 161.358 161.835C161.316 161.809 161.268 161.795 161.218 161.796H156.672C156.619 161.796 156.566 161.809 156.518 161.833C156.469 161.856 156.427 161.891 156.394 161.933L152.213 167.479L148.136 161.937C148.104 161.894 148.062 161.859 148.014 161.834C147.966 161.81 147.912 161.797 147.858 161.796H143.285C143.236 161.795 143.187 161.809 143.145 161.835C143.103 161.861 143.069 161.898 143.048 161.943C143.026 161.987 143.018 162.037 143.024 162.086C143.03 162.135 143.05 162.181 143.081 162.219L149.483 170.197L143.073 178.167C143.043 178.205 143.024 178.251 143.019 178.3C143.014 178.348 143.022 178.397 143.044 178.441C143.065 178.484 143.098 178.521 143.139 178.547C143.181 178.573 143.228 178.586 143.277 178.586H147.851C147.906 178.586 147.96 178.572 148.009 178.547C148.058 178.522 148.1 178.486 148.132 178.441L152.416 172.919L156.445 178.445C156.478 178.489 156.521 178.524 156.57 178.549C156.619 178.573 156.673 178.586 156.727 178.586H161.242C161.291 178.586 161.338 178.573 161.38 178.547C161.421 178.521 161.454 178.484 161.475 178.441C161.497 178.397 161.505 178.348 161.5 178.3C161.495 178.251 161.476 178.205 161.446 178.167L155.106 170.052ZM241.821 163.03C240.372 161.683 238.043 161.518 236.159 161.518C233.724 161.518 232.173 162.035 231.233 162.521H230.579C229.659 162.012 228.038 161.518 225.489 161.518C223.602 161.518 221.292 161.655 219.866 162.854C218.692 163.841 218.414 165.16 218.414 167.863V178.308C218.414 178.344 218.422 178.38 218.436 178.413C218.45 178.446 218.471 178.476 218.497 178.501C218.522 178.526 218.553 178.546 218.586 178.559C218.62 178.572 218.656 178.579 218.692 178.578H222.251C222.287 178.579 222.323 178.572 222.356 178.559C222.39 178.546 222.42 178.526 222.446 178.501C222.472 178.476 222.492 178.446 222.507 178.413C222.521 178.38 222.528 178.344 222.529 178.308V178.273V169.711C222.529 168.145 222.47 166.547 222.803 165.944C223.065 165.474 223.473 164.953 225.407 164.953C227.713 164.953 228.257 165.113 228.622 166.128C228.717 166.454 228.767 166.791 228.77 167.13V178.308C228.77 178.344 228.778 178.379 228.791 178.412C228.805 178.445 228.825 178.475 228.851 178.501C228.876 178.526 228.907 178.546 228.94 178.559C228.973 178.572 229.009 178.579 229.044 178.578H232.604C232.64 178.579 232.676 178.572 232.709 178.559C232.742 178.546 232.773 178.526 232.799 178.501C232.825 178.476 232.845 178.446 232.859 178.413C232.874 178.38 232.881 178.344 232.882 178.308V167.138C232.885 166.799 232.935 166.461 233.031 166.136C233.395 165.113 233.935 164.961 236.241 164.961C238.176 164.961 238.591 165.482 238.845 165.952C239.182 166.555 239.119 168.168 239.119 169.719V178.335C239.12 178.371 239.127 178.407 239.142 178.44C239.156 178.473 239.177 178.503 239.202 178.528C239.228 178.553 239.259 178.573 239.292 178.586C239.326 178.6 239.361 178.606 239.397 178.606H242.957C243.029 178.606 243.098 178.577 243.149 178.527C243.2 178.476 243.23 178.407 243.231 178.335V168.544C243.231 165.693 243.141 164.256 241.821 163.03ZM190.719 164.025C189.074 161.757 186.09 161.072 183.013 161.236C181.017 161.314 179.04 161.665 177.139 162.278C176.795 162.407 176.838 162.705 176.834 162.885C176.834 163.484 176.775 165.035 176.779 165.666C176.779 165.944 177.12 166.057 177.406 165.971C179.002 165.391 180.66 164.997 182.347 164.796C184.176 164.647 186.654 164.796 187.343 165.834C187.668 166.328 187.684 167.083 187.735 167.855C186.238 167.693 184.732 167.64 183.228 167.698C181.916 167.757 179.434 167.871 177.942 168.654C176.744 169.292 176.039 169.872 175.663 170.953C175.374 171.844 175.277 172.786 175.377 173.718C175.596 175.676 176.27 176.628 177.182 177.302C178.619 178.367 180.436 178.927 184.187 178.845C189.18 178.735 190.491 177.121 191.153 175.974C192.281 174.016 192.085 170.941 192.05 169.05C192.038 168.262 191.921 165.685 190.719 164.025ZM187.465 174.274C186.995 175.265 185.315 175.418 184.332 175.449C182.492 175.531 181.137 175.449 180.26 175.026C179.953 174.863 179.695 174.623 179.509 174.33C179.323 174.037 179.216 173.7 179.199 173.354C179.168 172.715 179.179 172.39 179.465 172.01C180.115 171.168 181.814 170.988 183.541 170.922C184.973 170.904 186.404 170.987 187.825 171.168C187.813 172.437 187.731 173.714 187.465 174.274ZM252.722 161.796H249.163C249.127 161.796 249.091 161.802 249.058 161.816C249.024 161.829 248.994 161.849 248.968 161.874C248.942 161.899 248.921 161.929 248.907 161.962C248.893 161.995 248.885 162.03 248.885 162.066V178.316C248.885 178.352 248.893 178.387 248.907 178.421C248.921 178.454 248.942 178.484 248.968 178.509C248.994 178.534 249.024 178.553 249.058 178.567C249.091 178.58 249.127 178.587 249.163 178.586H252.722C252.758 178.587 252.794 178.58 252.827 178.567C252.861 178.553 252.891 178.534 252.917 178.509C252.943 178.484 252.964 178.454 252.978 178.421C252.992 178.387 253 178.352 253 178.316V162.066C253 162.03 252.992 161.995 252.978 161.962C252.964 161.929 252.943 161.899 252.917 161.874C252.891 161.849 252.861 161.829 252.827 161.816C252.794 161.802 252.758 161.796 252.722 161.796Z" fill="#D5D6D7"/>
</g>
<g clip-path="url(#clip4_20009_4596)">
<path d="M118 140H76C71.0275 140 67 144.028 67 149V191C67 195.973 71.0275 200 76 200H118C122.973 200 127 195.973 127 191V149C127 144.028 122.973 140 118 140Z" fill="#D5D6D7"/>
<path d="M105.647 167.457V180.95C105.647 181.28 105.377 181.55 105.047 181.55H100.247C99.9174 181.55 99.6474 181.28 99.6474 180.95V167.457C99.6474 165.8 98.3049 164.457 96.6474 164.457H84.9699C84.8049 164.457 84.6699 164.592 84.6699 164.757V180.95C84.6699 181.28 84.3999 181.55 84.0699 181.55H79.2699C78.9399 181.55 78.6699 181.28 78.6699 180.95V159.057C78.6699 158.727 78.9399 158.457 79.2699 158.457H96.6474C101.62 158.457 105.647 162.485 105.647 167.457ZM94.5624 167.457H89.7624C89.4324 167.457 89.1624 167.727 89.1624 168.057V180.95C89.1624 181.28 89.4324 181.55 89.7624 181.55H94.5624C94.8924 181.55 95.1624 181.28 95.1624 180.95V168.057C95.1624 167.727 94.8924 167.457 94.5624 167.457ZM114.73 158.457H109.93C109.6 158.457 109.33 158.727 109.33 159.057V180.95C109.33 181.28 109.6 181.55 109.93 181.55H114.73C115.06 181.55 115.33 181.28 115.33 180.95V159.057C115.33 158.727 115.06 158.457 114.73 158.457Z" fill="#F3F4F5"/>
</g>
<rect x="340" y="120" width="320" height="100" rx="24" fill="#F3F4F5"/>
<g clip-path="url(#clip5_20009_4596)">
<path d="M459.587 171.631C459.524 165.051 464.998 161.889 465.244 161.739C462.163 157.267 457.378 156.652 455.673 156.583C451.601 156.169 447.725 158.966 445.654 158.966C443.583 158.966 440.395 156.639 437.018 156.708C432.573 156.771 428.476 159.274 426.184 163.226C421.575 171.167 425.01 182.959 429.511 189.414C431.714 192.569 434.328 196.125 437.775 195.994C441.096 195.862 442.346 193.861 446.348 193.861C450.351 193.861 451.481 195.994 454.985 195.931C458.552 195.862 460.812 192.707 462.996 189.539C465.509 185.87 466.551 182.326 466.614 182.137C466.532 182.106 459.663 179.49 459.587 171.631Z" fill="#D5D6D7"/>
<path d="M453.002 152.305C454.833 150.103 456.064 147.048 455.73 144C453.097 144.107 449.909 145.744 448.021 147.945C446.329 149.89 444.846 153.001 445.25 155.987C448.173 156.213 451.178 154.5 453.002 152.305ZM482.674 178.098L479.644 187.225H475.749L485.667 158.22H490.212L500.168 187.225H496.14L493.022 178.098H482.674ZM492.245 175.169L489.391 166.82C488.741 164.925 488.312 163.207 487.876 161.526H487.794C487.359 163.244 486.885 165.007 486.323 166.776L483.47 175.162L492.245 175.169ZM503.123 173.193C503.123 170.527 503.041 168.369 502.946 166.393H506.368L506.544 169.969H506.626C508.186 167.428 510.654 165.923 514.076 165.923C519.146 165.923 522.952 170.182 522.952 176.511C522.952 184 518.363 187.695 513.426 187.695C510.654 187.695 508.23 186.491 506.974 184.427H506.892V195.743H503.123V173.193ZM506.885 178.744C506.885 179.309 506.967 179.817 507.062 180.293C507.757 182.915 510.048 184.728 512.782 184.728C516.81 184.728 519.152 181.46 519.152 176.68C519.152 172.503 516.942 168.94 512.914 168.94C510.32 168.94 507.895 170.79 507.15 173.632C507.018 174.102 506.892 174.667 506.892 175.181L506.885 178.744ZM526.892 173.193C526.892 170.527 526.81 168.369 526.715 166.393H530.137L530.314 169.969H530.396C531.955 167.428 534.423 165.923 537.845 165.923C542.915 165.923 546.721 170.182 546.721 176.511C546.721 184 542.132 187.695 537.195 187.695C534.423 187.695 531.999 186.491 530.743 184.427H530.661V195.743H526.892V173.193ZM530.661 178.744C530.661 179.309 530.743 179.817 530.838 180.293C531.532 182.915 533.824 184.728 536.557 184.728C540.585 184.728 542.927 181.46 542.927 176.68C542.927 172.503 540.718 168.94 536.69 168.94C534.095 168.94 531.671 170.79 530.926 173.632C530.793 174.102 530.667 174.667 530.667 175.181L530.661 178.744ZM550.667 156.671H554.48V187.218H550.667V156.671ZM562.145 177.496C562.227 182.614 565.522 184.728 569.329 184.728C572.056 184.728 573.704 184.258 575.131 183.655L575.781 186.365C574.443 186.967 572.145 187.657 568.811 187.657C562.359 187.657 558.502 183.442 558.502 177.157C558.502 170.872 562.227 165.923 568.332 165.923C575.175 165.923 576.993 171.901 576.993 175.733C576.993 176.511 576.911 177.107 576.861 177.496H562.145ZM573.319 174.786C573.363 172.377 572.321 168.633 568.035 168.633C564.177 168.633 562.492 172.164 562.189 174.786H573.319Z" fill="#D5D6D7"/>
</g>
<rect x="680" y="120" width="320" height="100" rx="24" fill="#F3F4F5"/>
<g clip-path="url(#clip6_20009_4596)">
<path fill-rule="evenodd" clip-rule="evenodd" d="M873.068 166.786C874.131 166.582 881.496 166.786 883.193 166.786C884.836 166.665 886.487 166.728 888.116 166.971C895.294 168.824 895.239 179.941 887.463 181.331C886.307 181.535 879.072 181.331 877.32 181.331C875.676 181.44 874.026 181.372 872.397 181.127C871.416 180.84 870.504 180.355 869.72 179.703C868.935 179.051 868.293 178.246 867.835 177.337C867.377 176.428 867.112 175.435 867.056 174.42C867.001 173.405 867.156 172.389 867.512 171.436C867.922 170.222 868.662 169.144 869.648 168.32C870.635 167.497 871.832 166.959 873.106 166.767L873.068 166.786ZM897.886 175.42C898.138 173.464 897.897 171.477 897.184 169.636C896.472 167.796 895.31 166.16 893.803 164.877C892.374 163.673 890.672 162.834 888.843 162.431C886.481 162.134 884.097 162.053 881.72 162.19H874.262C872.188 162.142 870.141 162.668 868.351 163.71C866.712 164.697 865.331 166.056 864.32 167.674C863.309 169.293 862.697 171.125 862.533 173.023C862.37 174.921 862.659 176.83 863.379 178.596C864.098 180.362 865.227 181.934 866.673 183.184C870.402 186.352 874.019 185.889 878.737 185.889H886.195C889.113 185.929 891.938 184.873 894.106 182.932C896.273 180.991 897.623 178.308 897.886 175.42ZM827.666 165.396C828.139 166.492 828.767 167.515 829.53 168.435L835.404 176.995C836.485 178.681 837.977 181.109 839.245 182.721C839.939 183.76 840.889 184.606 842.005 185.177C843.122 185.748 844.367 186.025 845.622 185.982C846.823 185.879 847.982 185.488 848.999 184.843C850.015 184.197 850.859 183.317 851.458 182.276C852.726 180.423 854.012 178.57 855.355 176.569L862.217 166.471C862.518 166.082 862.695 165.612 862.722 165.122C862.75 164.632 862.628 164.145 862.371 163.726C862.115 163.307 861.736 162.974 861.286 162.773C860.836 162.572 860.334 162.511 859.848 162.598C859.297 162.796 858.794 163.105 858.37 163.507C857.946 163.909 857.612 164.395 857.387 164.933L853.49 170.677C852.204 172.53 850.898 174.512 849.593 176.384C848.922 177.347 848.325 178.237 847.729 179.237C847.132 180.238 846.312 181.461 844.838 181.09C843.782 180.577 842.933 179.72 842.433 178.663L840.569 175.809C839.263 173.956 838.014 172.103 836.653 170.102C835.292 168.101 834.117 166.396 832.756 164.395C832.539 163.803 832.13 163.299 831.593 162.964C831.056 162.628 830.422 162.48 829.791 162.542C829.458 162.58 829.137 162.685 828.846 162.852C828.556 163.018 828.304 163.242 828.104 163.51C827.905 163.778 827.763 164.083 827.687 164.408C827.612 164.732 827.605 165.068 827.666 165.396ZM782.039 165.34C782.492 166.446 783.122 167.472 783.903 168.379L791.716 179.793C793.581 182.684 795.445 186.13 799.976 185.982C804.078 185.834 805.775 182.424 807.864 179.348L813.737 170.788C814.352 169.861 815.024 168.935 815.695 167.934C816.578 167.051 817.108 165.879 817.186 164.636C817.141 164.314 817.031 164.004 816.863 163.725C816.695 163.446 816.472 163.203 816.208 163.011C815.943 162.819 815.643 162.682 815.324 162.608C815.005 162.534 814.675 162.524 814.352 162.579C813.793 162.756 813.281 163.053 812.852 163.451C812.423 163.848 812.088 164.335 811.872 164.877C810.511 166.86 809.299 168.601 807.957 170.677C806.614 172.752 805.384 174.383 804.041 176.235C803.351 177.218 802.773 178.088 802.176 179.089C801.956 179.661 801.568 180.154 801.063 180.504C800.558 180.854 799.958 181.045 799.342 181.053C798.244 180.581 797.365 179.714 796.881 178.626C793.655 174.049 790.299 169.028 787.111 164.34C786.889 163.754 786.482 163.256 785.95 162.922C785.419 162.588 784.792 162.435 784.164 162.487C783.832 162.524 783.51 162.63 783.22 162.796C782.929 162.963 782.677 163.187 782.477 163.454C782.278 163.722 782.136 164.028 782.061 164.352C781.985 164.676 781.978 165.013 782.039 165.34ZM821.941 162.598C819.555 163.098 819.946 165.118 819.946 167.638V181.794C819.775 182.857 819.924 183.947 820.375 184.926C820.633 185.301 820.992 185.597 821.411 185.78C821.83 185.963 822.292 186.025 822.745 185.959C823.198 185.894 823.623 185.703 823.972 185.409C824.321 185.115 824.58 184.729 824.719 184.296C824.943 183.555 824.831 175.031 824.831 173.79V166.693C824.998 165.638 824.856 164.557 824.421 163.58C824.161 163.189 823.79 162.884 823.355 162.703C822.92 162.521 822.441 162.472 821.979 162.561L821.941 162.598ZM822.072 154C821.723 154.228 821.425 154.525 821.195 154.871L819.331 156.613C818.212 157.706 819.144 158.207 820.58 159.559L821.456 160.43C822.594 161.56 823.023 160.726 824.514 159.244C826.603 157.262 826.528 157.706 823.302 154.501C823.185 154.291 822.999 154.127 822.776 154.036C822.552 153.945 822.304 153.932 822.072 154Z" fill="#D5D6D7"/>
</g>
<rect x="1020" y="120" width="320" height="101" rx="24" fill="#F3F4F5"/>
<g clip-path="url(#clip7_20009_4596)">
<path d="M1225.02 183.427C1219.3 183.466 1213.89 183.512 1212.38 183.376C1209.33 183.11 1207.29 181.105 1207.05 178.154C1206.89 176.219 1206.89 174.614 1207.04 173.088C1207.32 170.216 1209.72 167.478 1212.38 167.349C1213.34 167.297 1215.9 167.302 1220.52 167.321L1234 167.349V161.737C1234 161.737 1223.27 161.725 1220.04 161.71C1215.71 161.69 1213.53 161.687 1212.15 161.737C1209.11 161.853 1206.57 162.938 1204.59 164.956C1202.71 166.861 1201.6 169.892 1201.43 172.96C1201.34 174.614 1201.31 176.778 1201.43 178.064C1201.74 181.362 1202.81 183.952 1204.59 185.766C1206.49 187.713 1209.39 188.946 1212.15 188.986C1214.41 189.014 1234 188.986 1234 188.986V183.375C1234 183.375 1228.05 183.4 1225.02 183.427ZM1164.19 162.035V167.642H1177.48V188.886H1183.1V167.642H1196.39V162.035H1164.19ZM1158.36 172.638C1158.32 169.62 1157.26 167.028 1155.2 164.934C1153.06 162.744 1149.78 161.833 1147.64 161.718C1145.78 161.613 1138.44 161.646 1136.72 161.718C1134.29 161.822 1132.52 162.549 1131.63 163.213C1131.62 163.219 1131.61 163.216 1131.61 163.202V153.004H1126V188.987H1131.61C1131.61 188.987 1131.5 174.258 1131.62 172.655C1131.84 169.803 1134 167.564 1136.74 167.322C1138.95 167.132 1145.56 167.184 1147.63 167.326C1150.48 167.523 1152.58 169.758 1152.75 172.767C1152.8 173.875 1152.74 188.986 1152.74 188.986H1158.36C1158.36 188.986 1158.38 173.934 1158.36 172.638Z" fill="#D5D6D7"/>
</g>
<defs>
<clipPath id="clip0_20009_4596">
<rect width="199" height="44" fill="white" transform="translate(60 28)"/>
</clipPath>
<clipPath id="clip1_20009_4596">
<rect width="164" height="52" fill="white" transform="translate(418 24)"/>
</clipPath>
<clipPath id="clip2_20009_4596">
<rect width="165" height="32" fill="white" transform="translate(1097 34)"/>
</clipPath>
<clipPath id="clip3_20009_4596">
<rect width="110" height="18" fill="white" transform="translate(143 161)"/>
</clipPath>
<clipPath id="clip4_20009_4596">
<rect width="60" height="60" fill="white" transform="translate(67 140)"/>
</clipPath>
<clipPath id="clip5_20009_4596">
<rect width="153" height="52" fill="white" transform="translate(424 144)"/>
</clipPath>
<clipPath id="clip6_20009_4596">
<rect width="116" height="32" fill="white" transform="translate(782 154)"/>
</clipPath>
<clipPath id="clip7_20009_4596">
<rect width="108" height="36" fill="white" transform="translate(1126 153)"/>
</clipPath>
</defs>
</svg>
