<svg width="52" height="52" viewBox="0 0 52 52" fill="none" xmlns="http://www.w3.org/2000/svg">
<circle cx="26" cy="26" r="26" fill="#F6F7F8"/>
<path d="M23.2934 19.6365C23.106 19.8241 23.0007 20.0784 23.0007 20.3435C23.0007 20.6087 23.106 20.863 23.2934 21.0505L28.2434 26.0005L23.2934 30.9505C23.1113 31.1391 23.0105 31.3917 23.0128 31.6539C23.015 31.9161 23.1202 32.1669 23.3056 32.3524C23.491 32.5378 23.7418 32.6429 24.004 32.6452C24.2662 32.6475 24.5188 32.5467 24.7074 32.3645L30.3644 26.7075C30.5519 26.52 30.6572 26.2657 30.6572 26.0005C30.6572 25.7354 30.5519 25.4811 30.3644 25.2935L24.7074 19.6365C24.5199 19.4491 24.2656 19.3438 24.0004 19.3438C23.7353 19.3438 23.481 19.4491 23.2934 19.6365Z" fill="#1C2132"/>
</svg>
